<svg xmlns="http://www.w3.org/2000/svg"><symbol fill="none" id="icon-arrow" viewBox="0 0 16 26">
    <path d="m2 2 11 11L2 24" stroke="currentColor" stroke-width="3"/>
</symbol><symbol fill="none" id="icon-clear" viewBox="0 0 37 37">
    <path d="m9.192 9.192 9.193 9.193m9.192 9.192-9.192-9.192m0 0 9.192-9.193m-9.192 9.193-9.193 9.192" stroke="currentColor" stroke-width="2"/>
</symbol><symbol fill="currentColor" id="icon-close" viewBox="0 0 100 100">
    <rect x="35.203" y="62.907" width="39.466" height="2.96" transform="rotate(-45 35.2026 62.907)"/>
    <rect x="63.11" y="65" width="39.466" height="2.96" transform="rotate(-135 63.1099 65)"/>
</symbol><symbol id="icon-contacts-email" viewBox="0 0 48 48">
    <path fill-rule="evenodd" clip-rule="evenodd" d="M12 17.156v13.599l7.788-7.01L12 17.157zM13.606 32h20.788l-7.723-6.95L24 27.31l-2.671-2.26L13.606 32zM36 30.755V17.156l-7.788 6.59L36 30.755zM34.27 16 24 24.69 13.73 16h20.54z" fill="currentColor"/>
</symbol><symbol id="icon-contacts-instagram" viewBox="0 0 48 48">
    <path d="M28.65 13h-9.3A6.353 6.353 0 0 0 13 19.35v9.3A6.353 6.353 0 0 0 19.35 35h9.3A6.353 6.353 0 0 0 35 28.65v-9.3A6.353 6.353 0 0 0 28.65 13zm4.326 15.81a4.217 4.217 0 0 1-4.217 4.217h-9.518a4.217 4.217 0 0 1-4.217-4.216v-9.519a4.217 4.217 0 0 1 4.217-4.217h9.518a4.217 4.217 0 0 1 4.217 4.217v9.519z" fill="currentColor"/>
    <path d="M24 18.346a5.702 5.702 0 0 0-5.705 5.705A5.702 5.702 0 0 0 24 29.757a5.702 5.702 0 0 0 5.705-5.706A5.702 5.702 0 0 0 24 18.346zm0 9.409a3.695 3.695 0 0 1-3.696-3.696A3.695 3.695 0 0 1 24 20.363a3.695 3.695 0 0 1 3.696 3.696A3.69 3.69 0 0 1 24 27.755zm5.896-8.302a1.327 1.327 0 1 0 0-2.654 1.327 1.327 0 0 0 0 2.654z" fill="currentColor"/>
</symbol><symbol id="icon-contacts-ok" viewBox="0 0 48 48">
    <path fill-rule="evenodd" clip-rule="evenodd" d="M30.4 18.194c0 3.414-2.877 6.191-6.416 6.191-3.539 0-6.416-2.777-6.416-6.191 0-3.416 2.877-6.194 6.415-6.194 3.54 0 6.416 2.778 6.416 6.194zm-.079 9.757a12.263 12.263 0 0 1-3.725 1.49l3.586 3.462a1.769 1.769 0 0 1 0 2.566 1.926 1.926 0 0 1-2.656 0l-3.527-3.403-3.523 3.403a1.913 1.913 0 0 1-1.33.53 1.91 1.91 0 0 1-1.329-.53 1.77 1.77 0 0 1 0-2.566l3.586-3.463a12.281 12.281 0 0 1-3.725-1.489c-.878-.534-1.142-1.654-.589-2.502.552-.85 1.712-1.105 2.591-.57 2.627 1.594 6.01 1.595 8.639 0 .88-.535 2.039-.28 2.592.57.553.847.288 1.968-.59 2.502zm-3.68-9.757c0-1.415-1.192-2.564-2.657-2.564-1.464 0-2.657 1.15-2.657 2.564 0 1.413 1.193 2.563 2.657 2.563 1.465 0 2.656-1.15 2.656-2.563z" fill="currentColor"/>
</symbol><symbol id="icon-contacts-telegram" viewBox="0 0 48 48">
    <path d="M11.448 24.978c2.338-1.288 4.948-2.362 7.387-3.443 4.195-1.77 8.407-3.508 12.661-5.127.828-.276 2.315-.545 2.46.681-.079 1.737-.407 3.463-.633 5.189-.572 3.796-1.233 7.579-1.877 11.362-.222 1.26-1.801 1.913-2.811 1.107-2.428-1.64-4.874-3.264-7.27-4.942-.786-.798-.058-1.943.643-2.513 2-1.97 4.12-3.645 6.015-5.717.511-1.234-.999-.194-1.497.125-2.738 1.886-5.408 3.888-8.294 5.545-1.474.812-3.192.118-4.666-.334-1.32-.547-3.257-1.099-2.118-1.933z" fill="currentColor"/>
</symbol><symbol id="icon-contacts-viber" viewBox="0 0 48 48">
    <path d="M28.263 21.972c-.078-.632-.272-1.128-.618-1.568-.448-.566-1.02-.905-1.868-1.106-.553-.134-.776-.12-.976.063-.186.171-.222.514-.08.736.1.161.216.22.537.282.427.079.722.18.991.334.57.33.836.845.864 1.68.014.391.047.511.184.65a.588.588 0 0 0 .897-.099c.07-.115.08-.164.088-.43a4.239 4.239 0 0 0-.02-.542z" fill="currentColor"/>
    <path d="M30.496 22.685c-.112-1.937-.87-3.495-2.226-4.592a6.274 6.274 0 0 0-2.7-1.245c-.37-.074-1.053-.134-1.17-.1a.719.719 0 0 0-.336.26c-.074.117-.09.38-.028.53.102.254.29.344.819.39.815.071 1.655.357 2.29.781a4.801 4.801 0 0 1 1.674 1.918c.322.667.52 1.627.515 2.486-.002.311.046.487.17.616.19.197.465.24.708.109.269-.142.332-.39.284-1.153zm2.472 7.459a2.13 2.13 0 0 0-.19-.38c-.397-.6-2.535-2.273-3.602-2.82-.61-.313-1.061-.418-1.396-.32-.36.102-.55.27-1.153 1.019-.243.3-.492.581-.559.626-.164.114-.486.205-.713.205-.528-.003-1.485-.344-2.22-.794-.572-.347-1.304-.97-1.867-1.587-.663-.724-1.114-1.363-1.471-2.084-.461-.927-.578-1.493-.385-1.907.047-.105.11-.215.139-.25.028-.032.325-.275.653-.54.645-.513.749-.63.869-.981.151-.446.11-.902-.123-1.36a18.68 18.68 0 0 0-.992-1.597c-.451-.645-1.576-2.024-1.8-2.21-.404-.33-.922-.387-1.494-.165-.603.234-1.733 1.144-2.216 1.78-.436.576-.603.984-.629 1.521-.022.443.016.627.25 1.193 1.828 4.44 4.556 7.985 8.305 10.8 1.958 1.47 3.988 2.59 6.094 3.355 1.229.446 1.762.468 2.39.102.266-.159.923-.832 1.29-1.322.605-.816.83-1.193.893-1.493.044-.206.01-.563-.073-.79z" fill="currentColor"/>
    <path d="M32.77 23.13a8.82 8.82 0 0 0-.61-2.996c-.379-.986-.763-1.63-1.49-2.499-.686-.816-1.219-1.281-2.064-1.8-1.18-.722-2.615-1.2-4.223-1.4-.549-.071-.673-.066-.841.046-.326.213-.322.744.005.953.109.067.205.09.643.148.674.091 1.107.176 1.621.317 2.015.55 3.565 1.677 4.601 3.348.867 1.394 1.227 2.787 1.176 4.567-.017.602-.005.707.087.852.177.27.641.323.88.099.148-.136.175-.239.205-.753.014-.27.017-.666.01-.882z" fill="currentColor"/>
</symbol><symbol id="icon-contacts-vk" viewBox="0 0 48 48">
    <path fill-rule="evenodd" clip-rule="evenodd" d="M25.255 31.876s.462-.05.7-.3c.216-.228.208-.66.208-.66s-.029-2.014.924-2.312c.94-.292 2.145 1.948 3.425 2.81.966.651 1.7.509 1.7.509l3.42-.047s1.788-.108.94-1.488c-.07-.113-.495-1.022-2.542-2.887-2.145-1.953-1.857-1.638.725-5.016 1.573-2.058 2.201-3.314 2.005-3.85-.187-.515-1.344-.378-1.344-.378l-3.849.023s-.285-.038-.497.086c-.206.122-.34.406-.34.406s-.609 1.591-1.422 2.946c-1.714 2.856-2.399 3.007-2.679 2.83-.652-.414-.49-1.661-.49-2.547 0-2.77.429-3.924-.832-4.222-.418-.1-.726-.165-1.797-.176-1.374-.014-2.536.005-3.194.32-.438.211-.776.68-.57.708.254.033.83.152 1.136.56.394.527.38 1.71.38 1.71s.227 3.26-.53 3.663c-.517.278-1.229-.288-2.758-2.88a23.901 23.901 0 0 1-1.373-2.795s-.114-.274-.318-.422c-.247-.178-.591-.233-.591-.233l-3.658.023s-.55.015-.75.25c-.18.207-.014.638-.014.638s2.863 6.577 6.106 9.892c2.974 3.038 6.35 2.84 6.35 2.84h1.53z" fill="currentColor"/>
</symbol><symbol id="icon-contacts-whatsapp" viewBox="0 0 48 48">
    <path fill-rule="evenodd" clip-rule="evenodd" d="M24.05 35.794h-.005c-2 0-3.965-.5-5.71-1.448L12 36l1.695-6.163a11.828 11.828 0 0 1-1.595-5.945C12.103 17.335 17.464 12 24.05 12a11.902 11.902 0 0 1 8.453 3.488A11.792 11.792 0 0 1 36 23.9c-.003 6.556-5.361 11.89-11.95 11.893zm-5.422-3.6.363.213a9.954 9.954 0 0 0 5.055 1.378h.004c5.475 0 9.93-4.434 9.932-9.884a9.801 9.801 0 0 0-2.906-6.994 9.889 9.889 0 0 0-7.022-2.898c-5.478 0-9.934 4.434-9.936 9.884a9.827 9.827 0 0 0 1.518 5.26l.237.374-1.004 3.648 3.76-.982zm11.034-5.732c.208.1.349.168.409.267.074.124.074.72-.175 1.413-.248.695-1.441 1.328-2.015 1.413-.514.077-1.165.109-1.88-.117a17.3 17.3 0 0 1-1.703-.626c-2.799-1.203-4.69-3.903-5.048-4.414l-.053-.073-.002-.004c-.158-.21-1.217-1.615-1.217-3.07 0-1.37.676-2.087.987-2.417l.058-.062a1.1 1.1 0 0 1 .797-.372 11.916 11.916 0 0 1 .639.011c.174 0 .39-.002.605.51l.33.796c.256.623.54 1.31.59 1.41.075.149.125.322.025.52l-.042.085c-.075.152-.13.264-.256.411-.05.058-.102.12-.153.183-.103.125-.206.25-.295.338-.15.148-.306.309-.131.606.174.298.773 1.27 1.66 2.059a7.707 7.707 0 0 0 2.205 1.386c.082.036.148.064.197.089.298.148.473.123.647-.075.174-.198.746-.867.945-1.165.2-.297.398-.248.672-.149.274.1 1.742.818 2.04.967.059.03.113.055.164.08z" fill="currentColor"/>
</symbol><symbol id="icon-contacts-youtube" viewBox="0 0 48 48">
    <path fill-rule="evenodd" clip-rule="evenodd" d="M34.002 15.75a3.248 3.248 0 0 1 2.263 2.323c.535 2.05.535 6.327.535 6.327s0 4.277-.535 6.327a3.253 3.253 0 0 1-2.263 2.324C32.006 33.6 24 33.6 24 33.6s-8.005 0-10.002-.55a3.248 3.248 0 0 1-2.263-2.323C11.2 28.677 11.2 24.4 11.2 24.4s0-4.277.535-6.327a3.252 3.252 0 0 1 2.264-2.324C15.995 15.2 24 15.2 24 15.2s8.006 0 10.002.55zM21.6 20.8v8l6.4-4-6.4-4z" fill="currentColor"/>
</symbol><symbol fill="none" id="icon-header-advantage-1" viewBox="0 0 72 72">
    <path fill-rule="evenodd" clip-rule="evenodd" d="M36 0a4.5 4.5 0 0 1 4.5 4.5V12h-9V4.5A4.5 4.5 0 0 1 36 0z" fill="#fff"/>
    <path fill-rule="evenodd" clip-rule="evenodd" d="M21.232 36.912a20.196 20.196 0 0 0 7.172 5.412L15 69l-1.5-15 7.732-17.088zM43.76 42.78a20.158 20.158 0 0 0 7.424-4.921L58.5 54 57 69 43.76 42.78z" fill="#fff" fill-opacity=".3"/>
    <path fill-rule="evenodd" clip-rule="evenodd" d="M21 24c0 8.284 6.716 15 15 15 8.284 0 15-6.716 15-15 0-8.284-6.716-15-15-15-8.284 0-15 6.716-15 15zm21 0a6 6 0 1 1-12 0 6 6 0 0 1 12 0z" fill="#E40000"/>
</symbol><symbol fill="none" id="icon-header-advantage-2" viewBox="0 0 72 72">
    <path fill-rule="evenodd" clip-rule="evenodd" d="m36 60.066-10.58 5.12-4.813-10.723-11.395-2.878 3.205-11.308-6.88-9.53 9.724-6.602.856-11.722 11.693 1.193L36 5.186l8.19 8.43 11.693-1.193.856 11.722 9.724 6.602-6.88 9.53 3.206 11.308-11.396 2.878-4.813 10.723L36 60.066z" fill="#fff" fill-opacity=".3"/>
    <path fill-rule="evenodd" clip-rule="evenodd" d="M42.267 25.808 25.082 44.104l4.044 4.044L46.311 29.85l-4.044-4.043z" fill="#E40000"/>
    <path fill-rule="evenodd" clip-rule="evenodd" d="M32.563 27.526a5.156 5.156 0 1 1-10.31-.002 5.156 5.156 0 0 1 10.31.002m12.029 22.34a5.156 5.156 0 1 1 .002-10.312 5.156 5.156 0 0 1-.002 10.312z" fill="#fff"/>
</symbol><symbol fill="none" id="icon-header-advantage-3" viewBox="0 0 72 72">
    <path opacity=".3" fill-rule="evenodd" clip-rule="evenodd" d="M66 40.059c0-.585-.474-1.059-1.059-1.059H24c-6.627 0-12 5.373-12 12s5.373 12 12 12h40.941c.585 0 1.059-.474 1.059-1.059V40.06zM27 51a6 6 0 1 1-12 0 6 6 0 0 1 12 0z" fill="#fff"/>
    <path fill-rule="evenodd" clip-rule="evenodd" d="M43.133 13.606a1.059 1.059 0 0 0-1.498 0l-28.95 28.95C8 47.242 8 54.84 12.685 59.526c4.687 4.687 12.285 4.687 16.97 0l28.95-28.95a1.059 1.059 0 0 0 0-1.497L43.134 13.606zM27 51a6 6 0 1 1-12 0 6 6 0 0 1 12 0z" fill="#fff"/>
    <path fill-rule="evenodd" clip-rule="evenodd" d="M10.059 9C9.474 9 9 9.474 9 10.059V51c0 6.627 5.373 12 12 12s12-5.373 12-12V10.059C33 9.474 32.526 9 31.941 9H10.06zM27 51a6 6 0 1 1-12 0 6 6 0 0 1 12 0z" fill="#E40000"/>
</symbol><symbol fill="none" id="icon-header-advantage-4" viewBox="0 0 72 72">
    <path opacity=".3" fill-rule="evenodd" clip-rule="evenodd" d="M14.571 3h21.737a1.5 1.5 0 0 1 .968.355L53.47 17.05a1.5 1.5 0 0 1 .53 1.146V57.25c0 5.372-.061 5.75-5.571 5.75H14.57C9.061 63 9 62.622 9 57.25V8.75C9 3.378 9.061 3 14.571 3zM21 37a1 1 0 0 1 1-1h25a1 1 0 0 1 1 1v4a1 1 0 0 1-1 1H22a1 1 0 0 1-1-1v-4zm1 11a1 1 0 0 0-1 1v4a1 1 0 0 0 1 1h13a1 1 0 0 0 1-1v-4a1 1 0 0 0-1-1H22z" fill="#fff"/>
    <path d="M20.571 9h24.737a1.5 1.5 0 0 1 .968.355L62.47 23.05a1.5 1.5 0 0 1 .53 1.146V63.25c0 5.372-.061 5.75-5.571 5.75H20.57c-5.509 0-5.57-.378-5.57-5.75v-48.5C15 9.378 15.061 9 20.571 9z" fill="#fff"/>
    <rect x="21" y="36" width="27" height="6" rx="1" fill="#E40000"/>
    <rect x="21" y="48" width="15" height="6" rx="1" fill="#E40000"/>
</symbol><symbol fill="none" id="icon-home" viewBox="0 0 339 298">
    <path d="M317.746 276.266V136.008L169.5 27.535 21.254 136.008v140.258h296.492zM0 298V125.24L169.5 0 339 125.24V298H0z" fill="#E3E5E7"/>
</symbol><symbol fill="none" id="icon-homes" viewBox="0 0 49 28">
    <path d="M29.027 25.237v-12.76L15.508 2.52 1.99 12.476v12.76h27.038zM0 27.269V11.46L15.508 0l15.508 11.46v15.768H0v.04z" fill="currentColor"/>
    <path d="M33.087 27.268v-2.031h13.275v-12.76L32.843 2.52l-5.318 3.698-1.665-1.26L32.843 0l15.508 11.46v15.808H33.087z" fill="currentColor"/>
</symbol><symbol fill="none" id="icon-logo-bank" viewBox="0 0 29 29">
    <path d="M14.5 0c3.352 0 6.44 1.138 8.895 3.048l-2.949 2.273A10.884 10.884 0 0 0 14.5 3.564C8.46 3.564 3.564 8.46 3.564 14.5S8.46 25.436 14.5 25.436 25.436 20.54 25.436 14.5l-.003-.178 3.327-2.463c.158.856.24 1.739.24 2.641C29 22.508 22.508 29 14.5 29S0 22.508 0 14.5 6.492 0 14.5 0z" fill="currentColor"/>
    <path fill-rule="evenodd" clip-rule="evenodd" d="M9 14.721 14.193 18 27 8.696 25.432 6l-11.239 8.082L9 10.729v3.992z" fill="currentColor"/>
</symbol><symbol fill="none" id="icon-logo-company" viewBox="0 0 231 28">
    <path d="M69.87 3.454h-1.473a.614.614 0 0 0-.542.325l-5.93 9.998-5.967-9.998a.614.614 0 0 0-.543-.325h-1.511c-.31 0-.465.163-.465.488v14.63c0 .325.155.488.465.488h1.201c.31 0 .465-.163.465-.488V7.274l5.31 8.778c.116.203.31.325.542.325h.852a.614.614 0 0 0 .543-.325l5.386-8.737v11.297c0 .326.155.488.465.488h1.202c.31 0 .465-.162.465-.488V3.982c.039-.325-.155-.528-.465-.528zm6.471 10.729 3.953-8.21 3.914 8.21H76.34zM81.534 3.82c-.116-.244-.271-.325-.543-.325H79.52a.614.614 0 0 0-.543.325l-7.169 14.67c-.077.163-.077.326 0 .448.078.122.194.162.388.162h1.395a.614.614 0 0 0 .542-.325l1.28-2.6h9.726l1.24 2.6c.116.244.31.366.543.366h1.395c.193 0 .31-.081.387-.163.078-.122.078-.284 0-.447L81.534 3.82zm20.461 14.793c0 .325.155.487.465.487h1.24c.31 0 .465-.162.465-.488V3.982c0-.325-.155-.487-.465-.487H92.966c-.31 0-.465.162-.465.488v9.794c0 1.178-.194 2.031-.62 2.479-.427.447-1.008.65-1.783.65-.31 0-.465.162-.465.487v1.22c0 .325.155.487.465.487 1.473 0 2.597-.447 3.41-1.382.775-.894 1.202-2.275 1.202-4.023V5.567h7.324v13.046h-.039zM122.65 3.454h-1.201c-.31 0-.465.163-.465.488v14.63c0 .325.155.488.465.488h1.201c.31 0 .465-.163.465-.488V3.942c0-.285-.155-.488-.465-.488zm-14.106 7.193h5.619c1.434 0 2.403.244 2.945.691.543.447.814 1.26.814 2.439 0 1.26-.271 2.072-.775 2.52-.543.405-1.55.609-2.984.609h-5.619v-6.259zm11.548 3.13c0-1.83-.426-3.17-1.317-4.024-.892-.853-2.403-1.3-4.496-1.3h-5.735v-4.47c0-.326-.155-.488-.465-.488h-1.201c-.31 0-.465.162-.465.488v14.63c0 .325.155.487.465.487h7.401c2.132 0 3.682-.447 4.534-1.26.853-.853 1.279-2.194 1.279-4.063zm17.787 4.836v-1.22c0-.325-.155-.487-.465-.487h-9.998v-4.714h6.782c.31 0 .465-.163.465-.488v-1.138c0-.325-.155-.488-.465-.488h-6.782V5.69h9.998c.31 0 .465-.162.465-.487v-1.22c0-.325-.155-.487-.465-.487H125.75c-.31 0-.465.162-.465.488v14.63c0 .325.155.487.465.487h11.664c.31 0 .465-.162.465-.488zm16.664-15.159h-4.689c-1.744 0-3.062.447-3.837 1.382-.775.894-1.201 2.276-1.201 4.064v.162c0 .326.155.488.465.488h1.201c.388 0 .465-.244.465-.406v-.325c0-1.22.194-2.032.62-2.48.427-.446 1.163-.65 2.209-.65h4.689c1.046 0 1.783.204 2.209.65.426.448.62 1.26.62 2.48v1.219h-6.782c-.31 0-.465.162-.465.487v1.138c0 .325.155.488.465.488h6.782v1.544c0 1.179-.194 2.032-.62 2.48-.426.446-1.163.65-2.209.65h-4.689c-1.046 0-1.821-.204-2.209-.65-.426-.448-.62-1.26-.62-2.48v-.487c0-.326-.155-.488-.465-.488h-1.162c-.31 0-.465.162-.465.488v.447c0 1.747.387 3.129 1.201 4.023.775.894 2.093 1.381 3.836 1.381h4.689c1.744 0 3.062-.447 3.837-1.381.775-.894 1.201-2.276 1.201-4.023V8.9c0-1.788-.387-3.13-1.201-4.064-.853-.894-2.132-1.382-3.875-1.382zm19.337 0h-12.168c-.31 0-.465.163-.465.488v1.22c0 .324.155.487.465.487h4.999v12.923c0 .325.155.488.465.488h1.24c.31 0 .465-.163.465-.488V5.689h4.999c.31 0 .465-.162.465-.487v-1.22c0-.325-.155-.528-.465-.528zm4.301 10.729 3.953-8.168 3.914 8.209h-7.867v-.041zm5.193-10.363c-.116-.244-.271-.325-.543-.325h-1.472a.615.615 0 0 0-.543.325l-7.169 14.67c-.077.163-.077.326 0 .448.078.122.194.162.388.162h1.395a.613.613 0 0 0 .542-.325l1.279-2.6h9.727l1.24 2.6c.116.244.31.366.542.366h1.396c.193 0 .31-.081.387-.163.078-.122.078-.284 0-.447L183.374 3.82zm31.001-.163a.42.42 0 0 0-.387-.203h-1.511c-.194 0-.388.082-.582.244l-5.851 6.502h-1.628V3.983c0-.326-.155-.488-.465-.488h-1.201c-.31 0-.465.162-.465.488v6.258h-1.628l-5.851-6.502a.77.77 0 0 0-.582-.244h-1.511c-.194 0-.349.081-.387.203-.078.122 0 .285.116.447l6.394 7.112-6.394 7.193c-.155.163-.194.325-.116.447a.42.42 0 0 0 .387.203h1.511a.77.77 0 0 0 .582-.244l5.89-6.461h1.628v6.218c0 .325.155.487.465.487h1.201c.31 0 .465-.162.465-.488v-6.217h1.628l5.89 6.461a.77.77 0 0 0 .581.244h1.511c.194 0 .349-.081.388-.203.077-.122 0-.284-.116-.447l-6.394-7.193 6.394-7.112c.038-.203.077-.325.038-.488zm16.121-.203h-1.317a.686.686 0 0 0-.582.285l-9.416 11.988V3.983c0-.326-.155-.488-.465-.488h-1.202c-.31 0-.465.162-.465.488v14.63c0 .325.155.487.465.487h1.357a.685.685 0 0 0 .581-.284l9.378-11.907v11.704c0 .325.155.487.465.487h1.201c.31 0 .465-.162.465-.488V3.982c.039-.325-.155-.528-.465-.528zM54.253 23.774c.116-.122.349-.204.697-.204h1.202c.348 0 .542.041.658.163.117.122.155.366.194.732 0 .121.039.162.155.162h.388c.116 0 .155-.04.155-.162 0-.57-.117-.976-.35-1.22-.232-.244-.62-.366-1.162-.366h-1.24c-.581 0-1.007.122-1.201.407-.233.284-.31.69-.31 1.3v.935c0 .61.116 1.057.31 1.3.232.285.62.407 1.201.407h1.24c.543 0 .93-.122 1.163-.366.232-.244.349-.65.387-1.219 0-.122-.038-.163-.155-.163h-.387c-.116 0-.155.041-.155.163 0 .366-.078.61-.194.732-.116.121-.349.162-.659.162h-1.2c-.349 0-.581-.081-.697-.203-.117-.122-.156-.366-.156-.772v-1.057c-.038-.366.04-.61.117-.731zm12.594-.894h-.155c-.659 0-1.085.203-1.318.61-.193-.407-.62-.61-1.317-.61h-.155c-.62 0-1.008.203-1.163.569v-.407c0-.122-.038-.163-.155-.163h-.387c-.117 0-.155.041-.155.163v4.064c0 .122.038.162.155.162h.387c.116 0 .155-.04.155-.162v-2.56c0-.407.078-.65.194-.772s.349-.204.659-.204h.426c.349 0 .581.082.659.204.116.121.155.365.155.772v2.56c0 .122.039.162.155.162h.387c.117 0 .155-.04.155-.162v-2.56c0-.407.078-.65.194-.772s.349-.204.659-.204h.426c.349 0 .581.082.698.204.116.121.155.365.155.772v2.56c0 .122.038.162.155.162h.387c.117 0 .155-.04.155-.162v-2.479c0-.61-.116-1.057-.31-1.3-.232-.285-.62-.448-1.201-.448zm9.572 2.722c0 .407-.039.65-.155.773-.117.121-.349.203-.659.203h-1.201c-.31 0-.543-.082-.66-.203-.115-.122-.193-.407-.193-.773v-1.056c0-.407.078-.65.194-.772s.349-.204.659-.204h1.201c.349 0 .581.082.659.204.116.121.155.365.155.772v1.056zm-.853-2.723h-.891c-.62 0-1.008.204-1.163.57v-.407c0-.122-.038-.163-.155-.163h-.387c-.116 0-.155.041-.155.163v4.795c0 .122.039.163.155.163h.387c.117 0 .155-.04.155-.163V26.66c.155.366.543.569 1.163.569h.891c.581 0 1.008-.122 1.201-.407.233-.284.31-.69.31-1.3v-.935c0-.61-.116-1.016-.31-1.3-.193-.244-.62-.407-1.2-.407zm9.456 2.723c0 .407-.039.65-.155.773-.117.121-.349.203-.698.203h-1.201c-.349 0-.581-.082-.698-.203-.116-.122-.155-.366-.155-.773v-1.056c0-.407.04-.65.155-.772.117-.122.35-.204.698-.204h1.201c.349 0 .582.082.698.204.116.121.155.365.155.772v1.056zm-.814-2.723h-1.24c-.581 0-1.008.122-1.201.407-.233.284-.31.69-.31 1.3v.935c0 .61.116 1.057.31 1.3.232.285.62.407 1.2.407h1.241c.581 0 1.008-.122 1.201-.407.233-.284.31-.69.31-1.3v-.935c0-.61-.116-1.016-.31-1.3-.194-.244-.62-.407-1.201-.407zm9.882.001h-.388c-.116 0-.155.04-.155.162v2.56c0 .407-.077.65-.194.773-.116.121-.348.203-.658.203h-1.008c-.349 0-.581-.041-.697-.163-.117-.122-.155-.366-.155-.772v-2.56c0-.122-.04-.163-.155-.163h-.388c-.116 0-.155.04-.155.163v2.479c0 .61.116 1.056.31 1.3.233.285.62.407 1.201.407h.698c.62 0 1.007-.204 1.162-.57v.407c0 .122.04.162.155.162h.388c.116 0 .155-.04.155-.162v-4.064c.039-.081 0-.163-.116-.163zm9.494 0h-.155c-.659 0-1.085.203-1.318.61-.194-.407-.62-.61-1.317-.61h-.155c-.62 0-1.008.203-1.163.569v-.407c0-.122-.039-.163-.155-.163h-.388c-.116 0-.155.041-.155.163v4.064c0 .122.04.162.155.162h.388c.116 0 .155-.04.155-.162v-2.56c0-.407.078-.65.194-.772s.349-.204.659-.204h.426c.349 0 .581.082.659.204.116.121.155.365.155.772v2.56c0 .122.038.162.155.162h.387c.116 0 .155-.04.155-.162v-2.56c0-.407.078-.65.194-.772s.349-.204.659-.204h.426c.349 0 .581.082.697.204.117.121.155.365.155.772v2.56c0 .122.039.162.155.162h.388c.116 0 .155-.04.155-.162v-2.479c0-.61-.116-1.057-.31-1.3-.233-.285-.62-.448-1.201-.448zm9.3 1.91h-2.712v-.244c0-.407.038-.65.155-.772.116-.122.349-.204.697-.204h1.008c.349 0 .581.082.697.204.117.121.155.365.155.772v.244zm-.852-1.91h-1.046c-.582 0-1.008.122-1.202.406-.232.284-.31.69-.31 1.3v.935c0 .61.116 1.057.31 1.3.233.285.62.407 1.202.407h2.092c.116 0 .155-.04.155-.163V26.7c0-.122-.039-.163-.155-.163h-2.092c-.349 0-.582-.081-.698-.203-.116-.122-.155-.366-.155-.772v-.163h3.255c.116 0 .155-.04.155-.162v-.691c0-.61-.116-1.016-.31-1.3-.194-.204-.581-.366-1.201-.366zm9.92 0h-3.255c-.116 0-.155.04-.155.162v2.56c0 .366-.077.61-.194.773-.116.162-.232.203-.387.203-.117 0-.155.04-.155.162v.366c0 .122.038.162.155.162.387 0 .697-.162.93-.447.232-.284.349-.731.349-1.3v-1.95h2.131v3.535c0 .122.039.162.155.162h.387c.117 0 .155-.04.155-.162v-4.064c.039-.081 0-.163-.116-.163zm7.828 3.495c-.116.121-.349.203-.697.203h-1.938v-1.22h2.131c.233.041.388.082.504.163a.665.665 0 0 1 .155.447c-.039.163-.077.325-.155.407zm.543-1.342c-.233-.284-.62-.406-1.24-.406h-1.938v-1.585c0-.122-.039-.163-.155-.163h-.388c-.116 0-.155.041-.155.163v4.064c0 .122.039.162.155.162h2.481c.581 0 1.007-.121 1.201-.406.077-.081.116-.203.194-.325a2.55 2.55 0 0 0 .077-.569c0-.203-.039-.406-.077-.569-.039-.162-.117-.284-.155-.366zm8.68-2.153h-.387c-.117 0-.156.04-.156.162v1.666h-2.751v-1.666c0-.122-.039-.163-.155-.163h-.387c-.117 0-.155.041-.155.163v4.064c0 .122.038.162.155.162h.387c.116 0 .155-.04.155-.162V25.44h2.751v1.666c0 .122.039.162.156.162h.387c.116 0 .155-.04.155-.162v-4.064c0-.081-.039-.163-.155-.163zm7.789 2.682c0 .365-.077.65-.232.772-.155.162-.427.244-.775.244h-.853c-.581 0-.852-.203-.852-.57 0-.203.038-.365.155-.446.116-.082.31-.163.581-.163l1.976-.203v.366zm-.736-2.683h-2.17c-.116 0-.155.041-.155.163v.366c0 .122.039.162.155.162h2.17c.31 0 .504.041.62.122.116.082.155.244.155.488 0 .203-.077.285-.232.325l-1.822.203c-.504.04-.852.204-1.046.366-.194.203-.271.528-.271.935 0 .813.503 1.219 1.55 1.219h.542c.388 0 .659-.04.853-.163.194-.122.31-.284.426-.528v.528c0 .122.039.163.155.163h.388c.116 0 .155-.04.155-.163V24.14c0-.447-.117-.772-.31-.975-.272-.163-.659-.285-1.163-.285zm24.065.122c0-.04-.039-.04-.116-.04h-.543c-.077 0-.116.04-.194.081l-1.55 1.747h-.891v-1.706c0-.122-.039-.163-.155-.163h-.388c-.116 0-.155.04-.155.163v4.064c0 .122.039.162.155.162h.388c.116 0 .155-.04.155-.162V25.48h.891l1.55 1.748c.039.04.117.081.194.081h.504c.077 0 .116 0 .116-.04 0-.041 0-.082-.039-.122l-1.705-1.992 1.744-1.991c.039-.081.039-.122.039-.163zm7.711 2.642c0 .406-.038.65-.155.772-.116.122-.348.203-.697.203h-1.201c-.349 0-.582-.081-.698-.203-.116-.122-.155-.366-.155-.772v-1.057c0-.406.039-.65.155-.772.116-.122.349-.203.698-.203h1.201c.349 0 .581.081.697.203.117.122.155.366.155.772v1.057zm-.813-2.682h-1.24c-.582 0-1.008.122-1.202.406-.232.285-.31.691-.31 1.3v.935c0 .61.116 1.057.31 1.3.233.285.62.407 1.202.407h1.24c.581 0 1.007-.122 1.201-.406.232-.285.31-.691.31-1.3v-.935c0-.61-.116-1.016-.31-1.3-.194-.285-.62-.407-1.201-.407zm11.238-.001h-.427c-.077 0-.116.041-.155.123l-2.015 2.763-2.015-2.763c-.039-.081-.116-.122-.155-.122h-.426c-.078 0-.116.04-.116.162v4.064c0 .122.038.163.155.163h.387c.116 0 .155-.04.155-.163v-2.966l1.55 2.275c.039.082.078.122.155.122h.543c.077 0 .116-.04.155-.122l1.589-2.275v3.007c0 .122.038.162.155.162h.387c.116 0 .155-.04.155-.162v-4.064c.039-.163 0-.203-.077-.203zm7.169 0h-.737c-.62 0-1.007.204-1.162.57v-.407c0-.122-.039-.162-.155-.162h-.388c-.116 0-.155.04-.155.162v4.064c0 .122.039.163.155.163h.388c.116 0 .155-.04.155-.163v-2.56c0-.406.077-.65.194-.772.116-.122.348-.203.658-.203h1.047c.349 0 .581.08.659.203.116.122.155.366.155.772v2.56c0 .122.038.163.155.163h.387c.116 0 .155-.04.155-.163v-2.479c0-.61-.116-1.056-.31-1.3-.232-.325-.62-.447-1.201-.447zm9.145 2.683c0 .366-.077.65-.232.772-.155.163-.427.244-.775.244h-.853c-.581 0-.852-.203-.852-.61 0-.203.038-.365.155-.447.116-.081.31-.162.581-.162l1.976-.203v.406zm-.736-2.682h-2.17c-.116 0-.155.04-.155.162v.366c0 .122.039.163.155.163h2.17c.31 0 .504.04.62.122.116.08.155.243.155.487 0 .203-.078.285-.233.325l-1.821.204c-.504.04-.852.203-1.046.365-.194.203-.272.529-.272.935 0 .813.504 1.22 1.551 1.22h.542c.388 0 .659-.041.853-.163.193-.122.31-.285.426-.529v.529c0 .122.039.162.155.162h.387c.117 0 .155-.04.155-.162V24.22c0-.447-.116-.773-.31-.976-.271-.203-.62-.284-1.162-.284zm9.92-.001h-.387c-.116 0-.155.041-.155.163v1.667h-2.752v-1.667c0-.122-.038-.162-.155-.162h-.387c-.116 0-.155.04-.155.162v4.064c0 .122.039.163.155.163h.387c.117 0 .155-.04.155-.163v-1.666h2.752v1.666c0 .122.039.163.155.163h.387c.117 0 .155-.04.155-.163v-4.064c-.038-.122-.077-.162-.155-.162zm8.526 0h-.388c-.116 0-.155.041-.155.163v2.56c0 .407-.077.65-.194.773-.116.122-.348.203-.658.203h-1.008c-.349 0-.581-.04-.697-.163-.117-.121-.155-.365-.155-.772v-2.56c0-.122-.039-.163-.155-.163h-.388c-.116 0-.155.041-.155.163v2.438c0 .61.116 1.057.31 1.3.233.285.62.407 1.201.407h.698c.62 0 1.007-.203 1.162-.569v.407c0 .122.039.162.155.162h.388c.116 0 .155-.04.155-.162v-4.064c.039-.081 0-.122-.116-.122zm8.021 1.91h-2.131c-.232-.04-.387-.08-.504-.162a.67.67 0 0 1-.155-.447c0-.203.039-.325.155-.447.117-.122.349-.203.698-.203h1.937v1.26zm.543-1.91h-2.48c-.581 0-1.008.123-1.201.407-.078.081-.117.203-.194.325a2.493 2.493 0 0 0-.078.57c0 .202.039.406.078.568a.89.89 0 0 0 .194.325c.232.285.62.407 1.24.407h.038l-1.317 1.544c-.039.04-.039.081-.039.122 0 .04.039.04.116.04h.543c.077 0 .116-.04.194-.08l1.356-1.626h1.007v1.585c0 .122.039.162.156.162h.387c.116 0 .155-.04.155-.162v-4.064c0-.081-.077-.122-.155-.122zm-75.527 1.87h-2.132c-.232-.04-.387-.081-.504-.162a.67.67 0 0 1-.155-.447c0-.204.039-.326.155-.447.117-.122.349-.204.698-.204h1.938v1.26zm.542-1.95h-2.48c-.581 0-1.008.122-1.201.406-.078.081-.117.203-.194.325a2.493 2.493 0 0 0-.078.569c0 .203.039.406.078.569a.889.889 0 0 0 .194.325c.232.284.62.406 1.24.406h.039l-1.318 1.545c-.039.04-.039.081-.039.122 0 .04.039.04.116.04h.543c.077 0 .116-.04.194-.081l1.356-1.626h1.008v1.585c0 .122.038.163.155.163h.387c.116 0 .155-.04.155-.163v-4.064c-.039-.04-.077-.122-.155-.122zM27.708 25.237v-12.76L14.803 2.52 1.9 12.476v12.76h25.809zM0 27.269V11.46L14.803 0l14.803 11.46v15.768H0v.04z" fill="currentColor"/>
    <path d="M31.583 27.268v-2.031h12.672v-12.76L31.35 2.52l-5.076 3.698-1.59-1.26L31.35 0l14.803 11.46v15.808h-14.57z" fill="currentColor"/>
</symbol><symbol fill="none" id="icon-long-arrow-link" viewBox="0 0 48 14">
    <path d="M0 7h46m0 0-6-6m6 6-6 6" stroke-linecap="round" stroke="currentColor" stroke-width="2"/>
</symbol><symbol fill="none" id="icon-long-arrow" viewBox="0 0 48 14">
    <path d="M0 7h46m0 0-6-6m6 6-6 6" stroke="currentColor" stroke-linecap="round" stroke-width="2"/>
</symbol><symbol fill="none" id="icon-minus" viewBox="0 0 25 1">
    <rect x="25" y="1" width="25" height="1" transform="rotate(180 25 1)" fill="currentColor"/>
</symbol><symbol fill="none" id="icon-plus" viewBox="0 0 17 17">
    <rect x="8.16" y="17" width="17" height=".68" transform="rotate(-90 8.16016 17)" fill="currentColor"/>
    <rect x="17" y="8.84" width="17" height=".68" transform="rotate(180 17 8.84009)" fill="currentColor"/>
</symbol><symbol fill="none" id="icon-sorting" viewBox="0 0 100 100">
    <rect x="27" y="55" width="40" height="3" fill="currentColor"/>
    <rect x="47" y="42" width="20" height="3" fill="currentColor"/>
</symbol><symbol fill="none" id="icon-status-label" viewBox="0 0 56 66">
    <path d="M0 0h56v51L28 66 0 51V0z" fill="currentColor"/>
</symbol><symbol id="icon-video-play" viewBox="0 0 22 26">
    <path d="M22 13 0 26V0l22 13z" fill="currentColor"/>
</symbol></svg>