<?xml version="1.0" standalone="no"?>
<!DOCTYPE svg PUBLIC "-//W3C//DTD SVG 20010904//EN"
 "http://www.w3.org/TR/2001/REC-SVG-20010904/DTD/svg10.dtd">
<svg version="1.0" xmlns="http://www.w3.org/2000/svg"
 width="700.000000pt" height="700.000000pt" viewBox="0 0 700.000000 700.000000"
 preserveAspectRatio="xMidYMid meet">
<metadata>
Created by potrace 1.14, written by Peter Selinger 2001-2017
</metadata>
<g transform="translate(0.000000,700.000000) scale(0.100000,-0.100000)"
fill="#000000" stroke="none">
<path d="M2165 5349 c-44 -33 -91 -69 -105 -79 -14 -11 -272 -202 -575 -425
-302 -224 -597 -442 -655 -484 -58 -43 -222 -164 -365 -270 -143 -105 -294
-218 -336 -250 l-75 -58 0 -1089 1 -1089 2198 -1 2197 -1 0 1092 0 1092 -147
109 c-82 59 -236 173 -343 253 -314 232 -473 350 -499 369 -37 27 -353 261
-381 282 -14 10 -72 53 -130 96 -58 42 -166 122 -240 177 -74 55 -162 120
-195 144 -33 25 -105 78 -160 119 -55 40 -102 74 -105 73 -3 0 -41 -27 -85
-60z m230 -377 c72 -54 324 -240 560 -414 237 -174 447 -329 467 -344 20 -16
62 -47 94 -69 31 -22 65 -47 75 -55 10 -8 61 -46 115 -85 53 -38 121 -88 150
-110 29 -22 114 -85 188 -140 75 -55 136 -106 137 -115 1 -20 1 -1696 0 -1737
l-1 -33 -1930 0 -1929 0 0 893 0 892 167 122 c200 147 589 433 762 561 69 51
134 100 145 108 11 8 88 64 170 125 83 61 176 129 208 152 32 23 82 60 111 82
29 22 63 48 77 58 13 9 82 60 153 112 72 52 135 95 140 95 6 0 70 -44 141 -98z"/>
<path d="M4230 5064 c-267 -190 -486 -347 -487 -348 -1 0 48 -39 109 -85 l110
-83 84 58 c89 62 118 82 452 317 116 81 215 147 220 147 7 0 171 -118 290
-209 15 -11 66 -48 114 -83 108 -79 829 -610 843 -621 15 -12 455 -335 607
-446 l77 -56 1 -892 0 -893 -945 0 -945 0 0 -133 0 -134 1058 -1 c581 0 1066
1 1077 3 20 4 20 11 20 1095 0 958 -2 1093 -15 1100 -8 5 -99 71 -202 147
-102 76 -336 248 -518 383 -183 135 -405 299 -494 365 -238 177 -563 417 -706
522 -69 50 -155 115 -192 142 -36 28 -68 51 -70 51 -2 0 -222 -156 -488 -346z"/>
</g>
</svg>
