<svg width="57" height="57" viewBox="0 0 57 57" fill="none" xmlns="http://www.w3.org/2000/svg">
<path fill-rule="evenodd" clip-rule="evenodd" d="M21.9688 9.5C21.9688 5.89289 24.8929 2.96875 28.5 2.96875C32.1071 2.96875 35.0312 5.89289 35.0312 9.5C35.0312 13.1071 32.1071 16.0312 28.5 16.0312C24.8929 16.0312 21.9688 13.1071 21.9688 9.5Z" fill="#F04B54"/>
<path d="M19.5298 27.4891L14.3635 25.767C12.8774 25.2716 11.875 23.8809 11.875 22.3144C11.875 19.9974 14.0114 18.2703 16.277 18.7558L20.7837 19.7215C21.0343 19.7752 21.1596 19.8021 21.2838 19.8278C26.0442 20.8124 30.9558 20.8124 35.7162 19.8278C35.8404 19.8021 35.9657 19.7752 36.2163 19.7215L40.7231 18.7558C42.9886 18.2703 45.125 19.9974 45.125 22.3144C45.125 23.8809 44.1226 25.2716 42.6365 25.767L37.4702 27.4891C36.8458 27.6972 36.5336 27.8013 36.2989 27.9462C35.4994 28.4397 35.066 29.3581 35.1933 30.2889C35.2307 30.5623 35.3488 30.8694 35.5851 31.4836L38.5462 39.1826C39.4276 41.4743 37.736 43.9375 35.2805 43.9375C34.0249 43.9375 32.8655 43.2647 32.2426 42.1745L28.5 35.625L24.7574 42.1745C24.1345 43.2647 22.9751 43.9375 21.7195 43.9375C19.264 43.9375 17.5724 41.4743 18.4538 39.1826L21.4149 31.4836C21.6512 30.8694 21.7693 30.5623 21.8067 30.2889C21.934 29.3581 21.5006 28.4397 20.7011 27.9462C20.4663 27.8013 20.1542 27.6972 19.5298 27.4891Z" fill="#F04B54"/>
<path d="M28.5 52.25C41.6168 52.25 52.25 47.465 52.25 41.5625C52.25 37.4731 47.146 33.9201 39.6482 32.1232L41.8712 37.9031C43.6502 42.5283 40.236 47.4994 35.2805 47.4994C32.7465 47.4994 30.4067 46.1416 29.1495 43.9414L28.5 42.8048L27.8505 43.9414C26.5933 46.1416 24.2535 47.4994 21.7195 47.4994C16.764 47.4994 13.3498 42.5283 15.1288 37.9031L17.3518 32.1232C9.85403 33.9201 4.75 37.4731 4.75 41.5625C4.75 47.465 15.3832 52.25 28.5 52.25Z" fill="#F04B54"/>
</svg>
