<svg width="57" height="57" viewBox="0 0 57 57" fill="none" xmlns="http://www.w3.org/2000/svg">
<path d="M41.7471 10.5249L36.9971 8.03217C32.8275 5.84406 30.7426 4.75 28.5 4.75C26.2574 4.75 24.1725 5.84406 20.0029 8.03217L19.2389 8.43314L40.4311 20.543L49.9707 15.7731C48.436 14.0351 45.9597 12.7356 41.7471 10.5249Z" fill="#F04B54"/>
<path d="M51.6524 18.9153L42.1562 23.6634V30.875C42.1562 31.8588 41.3588 32.6562 40.375 32.6562C39.3912 32.6562 38.5938 31.8588 38.5938 30.875V25.4446L30.2812 29.6009V52.022C31.9863 51.5974 33.9263 50.5793 36.997 48.9679L41.7471 46.4751C46.8573 43.7934 49.4124 42.4526 50.8312 40.0431C52.25 37.6337 52.25 34.6354 52.25 28.6389V28.3611C52.25 23.866 52.25 21.0557 51.6524 18.9153Z" fill="#F04B54"/>
<path d="M26.7188 52.022V29.6009L5.34764 18.9153C4.75 21.0557 4.75 23.866 4.75 28.3611V28.6389C4.75 34.6354 4.75 37.6337 6.16882 40.0431C7.58763 42.4526 10.1427 43.7934 15.2529 46.4751L20.0029 48.9678C23.0737 50.5793 25.0137 51.5974 26.7188 52.022Z" fill="#F04B54"/>
<path d="M7.02927 15.7731L28.5 26.5085L36.6015 22.4578L15.4958 10.3974L15.2529 10.5249C11.0403 12.7356 8.56402 14.035 7.02927 15.7731Z" fill="#F04B54"/>
</svg>
