<svg width="57" height="57" viewBox="0 0 57 57" fill="none" xmlns="http://www.w3.org/2000/svg">
<path fill-rule="evenodd" clip-rule="evenodd" d="M8.22811 8.22811C4.75 11.7062 4.75 17.3041 4.75 28.5C4.75 39.6959 4.75 45.2938 8.22811 48.7719C11.7062 52.25 17.3041 52.25 28.5 52.25C39.6959 52.25 45.2938 52.25 48.7719 48.7719C52.25 45.2938 52.25 39.6959 52.25 28.5C52.25 17.3041 52.25 11.7062 48.7719 8.22811C45.2938 4.75 39.6959 4.75 28.5 4.75C17.3041 4.75 11.7062 4.75 8.22811 8.22811ZM25.0399 17.8535C25.7183 17.1411 25.6908 16.0136 24.9785 15.3351C24.2661 14.6567 23.1386 14.6842 22.4601 15.3966L16.9643 21.1672L15.5399 19.6716C14.8614 18.9592 13.7339 18.9317 13.0216 19.6101C12.3092 20.2886 12.2817 21.4161 12.9601 22.1285L15.6744 24.9785C16.0106 25.3315 16.4768 25.5313 16.9643 25.5313C17.4518 25.5313 17.918 25.3315 18.2542 24.9785L25.0399 17.8535ZM30.875 19.5938C29.8912 19.5938 29.0938 20.3912 29.0938 21.375C29.0938 22.3588 29.8912 23.1563 30.875 23.1563H42.75C43.7338 23.1563 44.5312 22.3588 44.5312 21.375C44.5312 20.3912 43.7338 19.5938 42.75 19.5938H30.875ZM25.0399 34.4785C25.7183 33.7661 25.6908 32.6386 24.9785 31.9601C24.2661 31.2817 23.1386 31.3092 22.4601 32.0216L16.9643 37.7922L15.5399 36.2966C14.8614 35.5842 13.7339 35.5567 13.0216 36.2351C12.3092 36.9136 12.2817 38.0411 12.9601 38.7535L15.6744 41.6035C16.0106 41.9565 16.4768 42.1563 16.9643 42.1563C17.4518 42.1563 17.918 41.9565 18.2542 41.6035L25.0399 34.4785ZM30.875 36.2188C29.8912 36.2188 29.0938 37.0162 29.0938 38C29.0938 38.9838 29.8912 39.7813 30.875 39.7813H42.75C43.7338 39.7813 44.5312 38.9838 44.5312 38C44.5312 37.0162 43.7338 36.2188 42.75 36.2188H30.875Z" fill="#F04B54"/>
</svg>
