<svg width="57" height="57" viewBox="0 0 57 57" fill="none" xmlns="http://www.w3.org/2000/svg">
<path d="M18.059 10.934C22.1817 6.81133 24.243 4.75 26.8045 4.75C29.366 4.75 31.4273 6.81133 35.55 10.934L46.0446 21.4286C50.1672 25.5512 52.2286 27.6126 52.2286 30.1741C52.2286 32.7356 50.1672 34.7969 46.0446 38.9196C41.9219 43.0422 39.8606 45.1036 37.2991 45.1036C34.7376 45.1036 32.6762 43.0422 28.5536 38.9196L18.059 28.425C13.9363 24.3023 11.875 22.241 11.875 19.6795C11.875 17.118 13.9363 15.0567 18.059 10.934Z" fill="#F04B54"/>
<path d="M17.2995 32.7036L6.7113 43.2918C5.898 44.1051 5.49134 44.5118 5.2471 44.9348C4.5843 46.0828 4.5843 47.4972 5.2471 48.6452C5.49133 49.0682 5.89797 49.4749 6.71124 50.2881C7.52454 51.1014 7.93126 51.5082 8.3543 51.7524C9.5023 52.4152 10.9167 52.4152 12.0647 51.7524C12.4877 51.5082 12.8944 51.1015 13.7077 50.2882L24.2959 39.7L17.2995 32.7036Z" fill="#F04B54"/>
<path d="M19.8186 30.1845L19.829 30.1741L26.8254 37.1705L26.815 37.1809L19.8186 30.1845Z" fill="#F04B54"/>
<path d="M46.7128 17.0587C47.3179 15.9298 47.2988 14.565 46.6557 13.451C46.4114 13.028 46.0048 12.6213 45.1915 11.808C44.3782 10.9947 43.9715 10.5881 43.5485 10.3438C42.4345 9.70068 41.0696 9.68162 39.9408 10.2867L46.7128 17.0587Z" fill="#F04B54"/>
</svg>
