<svg width="57" height="57" viewBox="0 0 57 57" fill="none" xmlns="http://www.w3.org/2000/svg">
<path d="M28.5 52.2507C41.6168 52.2507 52.25 47.4658 52.25 41.5632C52.25 38.555 49.488 35.837 45.0429 33.8948C42.3304 38.8724 38.1941 43.1628 32.9401 45.4081C30.116 46.615 26.884 46.615 24.0599 45.4081C18.8059 43.1628 14.6696 38.8724 11.9571 33.8948C7.51201 35.837 4.75 38.555 4.75 41.5632C4.75 47.4658 15.3832 52.2507 28.5 52.2507Z" fill="#F04B54"/>
<path fill-rule="evenodd" clip-rule="evenodd" d="M11.875 20.2223C11.875 11.6772 19.3183 4.75 28.5 4.75C37.6817 4.75 45.125 11.6772 45.125 20.2223C45.125 28.7004 39.8189 38.5936 31.5402 42.1315C29.6103 42.9562 27.3897 42.9562 25.4598 42.1315C17.1811 38.5936 11.875 28.7004 11.875 20.2223ZM28.5 26.125C31.1234 26.125 33.25 23.9984 33.25 21.375C33.25 18.7516 31.1234 16.625 28.5 16.625C25.8766 16.625 23.75 18.7516 23.75 21.375C23.75 23.9984 25.8766 26.125 28.5 26.125Z" fill="#F04B54"/>
</svg>
