<svg width="57" height="57" viewBox="0 0 57 57" fill="none" xmlns="http://www.w3.org/2000/svg">
<path d="M21.8051 24.1801C21.9312 24.054 22.1565 23.898 22.8752 23.8013C23.6415 23.6983 24.6817 23.6948 26.2907 23.6948H30.7093C32.3184 23.6948 33.3585 23.6983 34.1248 23.8013C34.8435 23.898 35.0688 24.054 35.1949 24.1801C35.3211 24.3062 35.4771 24.5315 35.5737 25.2502C35.6767 26.0165 35.6802 27.0567 35.6802 28.6657V33.0843C35.6802 34.6934 35.6767 35.7335 35.5737 36.4998C35.4771 37.2185 35.3211 37.4438 35.1949 37.5699C35.0688 37.6961 34.8435 37.8521 34.1248 37.9487C33.3585 38.0517 32.3184 38.0552 30.7093 38.0552H26.2907C24.6817 38.0552 23.6415 38.0517 22.8752 37.9487C22.1565 37.8521 21.9312 37.6961 21.8051 37.5699C21.679 37.4438 21.523 37.2185 21.4263 36.4998C21.3233 35.7335 21.3198 34.6934 21.3198 33.0843V28.6657C21.3198 27.0567 21.3233 26.0165 21.4263 25.2502C21.523 24.5315 21.679 24.3062 21.8051 24.1801Z" fill="#F04B54"/>
<path fill-rule="evenodd" clip-rule="evenodd" d="M28.5 7.125C29.4151 7.125 30.157 7.86685 30.157 8.78198V15.411C31.37 15.4135 32.4704 15.4219 33.4714 15.4493L33.4709 15.4099V8.78198C33.4709 7.86685 34.2128 7.125 35.1279 7.125C36.043 7.125 36.7849 7.86685 36.7849 8.78198V15.4099C36.7849 15.4966 36.7782 15.5817 36.7654 15.6648C38.9884 15.9378 40.529 16.5034 41.7003 17.6747C42.8716 18.846 43.4372 20.3866 43.7102 22.6096C43.7933 22.5968 43.8784 22.5901 43.9651 22.5901H50.593C51.5081 22.5901 52.25 23.332 52.25 24.2471C52.25 25.1622 51.5081 25.9041 50.593 25.9041H43.9651L43.9257 25.9036C43.9531 26.9046 43.9626 28.005 43.9651 29.218H50.593C51.5081 29.218 52.25 29.9599 52.25 30.875C52.25 31.7901 51.5081 32.532 50.593 32.532L43.964 32.532C43.9615 33.745 43.9531 34.8454 43.9257 35.8464L43.9651 35.8459H50.593C51.5081 35.8459 52.25 36.5878 52.25 37.5029C52.25 38.418 51.5081 39.1599 50.593 39.1599H43.9651C43.8784 39.1599 43.7933 39.1532 43.7102 39.1404C43.4372 41.3634 42.8716 42.904 41.7003 44.0753C40.529 45.2466 38.9884 45.8122 36.7654 46.0852C36.7782 46.1683 36.7849 46.2534 36.7849 46.3401V52.968C36.7849 53.8831 36.043 54.625 35.1279 54.625C34.2128 54.625 33.4709 53.8831 33.4709 52.968V46.3401L33.4714 46.3007C32.4704 46.3281 31.37 46.3376 30.157 46.3401V52.968C30.157 53.8831 29.4151 54.625 28.5 54.625C27.5849 54.625 26.843 53.8831 26.843 52.968L26.843 46.339C25.63 46.3365 24.5296 46.3281 23.5286 46.3007L23.5291 46.3401V52.968C23.5291 53.8831 22.7872 54.625 21.8721 54.625C20.957 54.625 20.2151 53.8831 20.2151 52.968V46.3401C20.2151 46.2534 20.2218 46.1683 20.2346 46.0852C18.0116 45.8122 16.471 45.2466 15.2997 44.0753C14.1284 42.904 13.5628 41.3634 13.2898 39.1404C13.2067 39.1532 13.1216 39.1599 13.0349 39.1599H6.40698C5.49185 39.1599 4.75 38.418 4.75 37.5029C4.75 36.5878 5.49185 35.8459 6.40698 35.8459H13.0349L13.0743 35.8464C13.0469 34.8454 13.0374 33.745 13.0349 32.532H6.40698C5.49185 32.532 4.75 31.7901 4.75 30.875C4.75 29.9599 5.49185 29.218 6.40698 29.218L13.036 29.218C13.0385 28.005 13.0469 26.9046 13.0743 25.9036L13.0349 25.9041H6.40698C5.49185 25.9041 4.75 25.1622 4.75 24.2471C4.75 23.332 5.49185 22.5901 6.40698 22.5901H13.0349C13.1216 22.5901 13.2067 22.5968 13.2898 22.6096C13.5628 20.3866 14.1284 18.846 15.2997 17.6747C16.471 16.5034 18.0116 15.9378 20.2346 15.6648C20.2218 15.5817 20.2151 15.4966 20.2151 15.4099V8.78198C20.2151 7.86685 20.957 7.125 21.8721 7.125C22.7872 7.125 23.5291 7.86685 23.5291 8.78198V15.4099L23.5286 15.4493C24.5296 15.4219 25.63 15.4124 26.843 15.4099V8.78198C26.843 7.86685 27.5849 7.125 28.5 7.125ZM26.1816 20.3808C24.7127 20.3807 23.4471 20.3807 22.4336 20.5169C21.3474 20.663 20.3063 20.9923 19.4618 21.8368C18.6173 22.6813 18.288 23.7224 18.1419 24.8086C18.0057 25.8221 18.0057 27.0877 18.0058 28.5566V33.1934C18.0057 34.6623 18.0057 35.9279 18.1419 36.9414C18.288 38.0276 18.6173 39.0687 19.4618 39.9132C20.3063 40.7577 21.3474 41.0871 22.4336 41.2331C23.4471 41.3694 24.7127 41.3693 26.1816 41.3692H30.8184C32.2873 41.3693 33.5529 41.3694 34.5664 41.2331C35.6526 41.0871 36.6937 40.7577 37.5382 39.9132C38.3827 39.0687 38.7121 38.0276 38.8581 36.9414C38.9944 35.9279 38.9943 34.6623 38.9942 33.1934V28.5566C38.9943 27.0878 38.9944 25.8221 38.8581 24.8086C38.7121 23.7224 38.3827 22.6813 37.5382 21.8368C36.6937 20.9923 35.6526 20.663 34.5664 20.5169C33.5529 20.3807 32.2873 20.3807 30.8184 20.3808H26.1816Z" fill="#F04B54"/>
</svg>
