<svg width="200" height="85" viewBox="0 0 200 85" fill="none" xmlns="http://www.w3.org/2000/svg">
<path d="M24.5 45.03C24.5 49.75 27.15 54.5 33.07 54.5C38.99 54.5 41.64 49.75 41.64 45.03C41.64 41.81 40.55 38.1 38.74 35.11C36.98 32.22 34.86 30.5 33.07 30.5C31.28 30.5 29.16 32.22 27.41 35.11C25.59 38.11 24.5 41.81 24.5 45.03ZM85.36 37.57H79.36V31.79H97.79V37.58H91.79V53.22H85.36V37.57ZM111.5 37.57H120.93V31.79H111.5C102.84 31.79 98.21 36.1 98.21 42.5C98.21 48.91 102.84 53.21 111.5 53.21H120.93V47.42H111.5C107.49 47.42 104.85 45.99 104.85 42.49C104.85 39 107.49 37.57 111.5 37.57ZM62.85 44.58L66.28 31.79H77.64V53.22H71.21V35.77L66.54 53.21H59.17L54.5 35.78V53.21H48.07V31.79H59.43L62.85 44.58ZM136.94 38H134.67V40.1H136.94C137.51 40.1 137.86 39.8 137.86 39.26V38.87C137.85 38.31 137.56 38 136.94 38ZM137.51 42.5H131.64V31.79H140.27V34.35H134.66V35.75H137.5C139.88 35.75 141.03 36.93 141.03 39.01C141.04 41.2 139.89 42.5 137.51 42.5ZM148.02 38.12H145.63L146.83 34.16L148.02 38.12ZM152.62 42.5L149.31 31.79H144.81L141.5 42.5H144.33L144.94 40.45H148.73L149.35 42.5H152.62ZM160.27 42.5V38.35H156.81V42.5H153.71V31.79H156.81V35.72H160.27V31.79H163.38V42.5H160.27ZM168.89 35.71H168.35V31.79H165.25V42.5H168.35V38.35H168.8L171.67 42.5H175.26L171.38 36.89L174.95 31.78H171.67L168.89 35.71Z" fill="#E30600"/>
</svg>
