<svg width="200" height="85" viewBox="0 0 200 85" fill="none" xmlns="http://www.w3.org/2000/svg">
<path d="M41.3396 48.7463C41.3396 50.2148 40.1523 51.4333 38.6838 51.4333H22.6557C21.1873 51.4021 20 50.2148 20 48.7463V32.687C20 31.2185 21.1873 30 22.6557 30H38.6526C40.1211 30 41.3083 31.2185 41.3083 32.687V48.7463H41.3396Z" fill="#B49F64"/>
<path d="M30.6542 39.3733C31.4041 39.3733 31.9977 39.9669 31.9977 40.7167C31.9977 41.4666 31.4041 42.0602 30.6542 42.0602C29.9044 42.0602 29.3107 41.4666 29.3107 40.7167C29.342 39.9669 29.9356 39.3733 30.6542 39.3733ZM32.6538 36.6863C31.904 36.6863 31.3103 37.2799 31.3103 38.0298C31.3103 38.7796 31.904 39.3733 32.6538 39.3733C33.4037 39.3733 33.9973 38.7796 33.9973 38.0298C33.9973 37.2799 33.4037 36.6863 32.6538 36.6863ZM28.6546 36.6863C27.9048 36.6863 27.3111 37.2799 27.3111 38.0298C27.3111 38.7796 27.9048 39.3733 28.6546 39.3733C29.4045 39.3733 29.9981 38.7796 29.9981 38.0298C29.9981 37.2799 29.4045 36.6863 28.6546 36.6863ZM34.6534 33.9993C35.4033 33.9993 35.9969 34.5929 35.9969 35.3428C35.9969 36.0927 35.4033 36.6863 34.6534 36.6863C33.9036 36.6863 33.31 36.0927 33.31 35.3428C33.3412 34.5929 33.9348 33.9993 34.6534 33.9993ZM30.6542 33.9993C31.4041 33.9993 31.9977 34.5929 31.9977 35.3428C31.9977 36.0927 31.4041 36.6863 30.6542 36.6863C29.9044 36.6863 29.3107 36.0927 29.3107 35.3428C29.342 34.5929 29.9356 33.9993 30.6542 33.9993ZM27.9985 35.3428C27.9985 36.0927 27.4049 36.6863 26.655 36.6863C25.9052 36.6863 25.3115 36.0927 25.3115 35.3428C25.3115 34.5929 25.9052 33.9993 26.655 33.9993C27.4049 33.9993 27.9985 34.5929 27.9985 35.3428ZM32.6538 42.029C31.904 42.029 31.3103 42.6226 31.3103 43.3725C31.3103 44.1223 31.904 44.716 32.6538 44.716C33.4037 44.716 33.9973 44.1223 33.9973 43.3725C33.9973 42.6539 33.4037 42.029 32.6538 42.029ZM28.6546 42.029C27.9048 42.029 27.3111 42.6226 27.3111 43.3725C27.3111 44.1223 27.9048 44.716 28.6546 44.716C29.4045 44.716 29.9981 44.1223 29.9981 43.3725C29.9981 42.6539 29.4045 42.029 28.6546 42.029ZM34.6534 44.716C35.4033 44.716 35.9969 45.3096 35.9969 46.0595C35.9969 46.7781 35.4033 47.4029 34.6534 47.4029C33.9036 47.4029 33.31 46.7781 33.31 46.0595C33.3412 45.3096 33.9348 44.716 34.6534 44.716ZM30.6542 44.716C31.4041 44.716 31.9977 45.3096 31.9977 46.0595C31.9977 46.7781 31.4041 47.4029 30.6542 47.4029C29.9044 47.4029 29.3107 46.7781 29.3107 46.0595C29.342 45.3096 29.9356 44.716 30.6542 44.716ZM26.655 44.716C27.4049 44.716 27.9985 45.3096 27.9985 46.0595C27.9985 46.7781 27.4049 47.4029 26.655 47.4029C25.9052 47.4029 25.3115 46.7781 25.3115 46.0595C25.3428 45.3096 25.9364 44.716 26.655 44.716Z" fill="white"/>
<path d="M56.649 50.0585V34.1241H52.3686V50.0585H49.3379V31.3434H59.6484V50.0585H56.649ZM80.2069 50.0585V42.4975H79.9569L75.7703 50.0585H72.8958V36.6861H75.8952V44.6846H76.1452L80.3319 36.6861H83.2063V50.0585H80.2069ZM94.7665 50.0585V43.1536H94.4229L92.392 46.8404H90.6736L88.6427 43.1536H88.2991V50.0585H85.2996V36.6861H88.0179L91.4235 43.3411H91.7046L95.079 36.6861H97.7972V50.0585H94.7665ZM164.972 50.0585V44.5596H161.535V50.0585H158.536V36.6861H161.535V41.7789H164.972V36.6861H167.971V50.0585H164.972ZM176.969 50.0585L176.282 46.2155C176.126 45.3094 175.22 44.5596 174.314 44.5596H172.908V50.0585H169.908V36.6861H172.908V41.9663H173.783C174.72 41.9663 175.626 41.2477 175.813 40.3104L176.563 36.6861H179.563L178.594 40.9041C178.407 41.6852 177.751 42.4038 176.938 42.685L176.782 42.7474V43.0599L176.938 43.0911C177.907 43.2473 178.75 44.0597 178.969 44.997L180 50.0585H176.969ZM116.325 39.1856C115.231 39.1856 114.607 39.8418 114.607 41.029V45.7781C114.607 46.9341 115.231 47.6215 116.325 47.6215C117.419 47.6215 118.043 46.9654 118.043 45.7781V40.9978C118.043 39.8418 117.419 39.1856 116.325 39.1856ZM116.325 50.2772C113.451 50.2772 111.576 48.59 111.576 45.9656V40.8103C111.576 38.1858 113.451 36.4987 116.325 36.4987C119.199 36.4987 121.043 38.1858 121.043 40.8103V45.9968C121.043 48.59 119.199 50.2772 116.325 50.2772ZM152.818 44.3409C150.725 44.3409 150.537 44.9658 150.537 45.9656C150.537 47.4653 151.287 47.684 151.943 47.684C152.162 47.684 152.412 47.6527 152.724 47.559C153.693 47.2778 154.13 46.7779 154.161 46.7467L154.193 46.5904V44.3721H152.818V44.3409ZM150.756 50.2772C148.6 50.2772 147.538 48.9025 147.538 46.1218C147.538 43.3723 148.975 41.9663 151.818 41.9663H153.974V40.7791C153.974 39.0919 153.13 38.9357 152.255 38.9357C151.349 38.9357 150.693 39.4981 150.287 40.6229L147.631 39.9043C148.444 37.6859 150.131 36.4362 152.255 36.4362C154.411 36.4362 156.973 37.1548 156.973 40.6541V50.0585H154.349L154.099 48.6213L153.786 48.9337C153.818 48.965 152.568 50.2772 150.756 50.2772ZM131.26 52.7455V50.0585H122.668V36.6861H125.667V47.2466H129.104V36.6861H132.103V47.2466H133.822L133.603 52.7455H131.26ZM66.3346 39.0607C66.2409 39.0607 66.1471 39.0607 66.0222 39.0919C64.9911 39.2481 64.585 40.1542 64.5537 40.1854V46.6842L64.6162 46.7467C64.8974 47.0903 65.6472 47.4965 66.2721 47.4965C67.3657 47.4965 67.9905 46.8716 67.9905 45.7781V40.5604C67.9905 39.6855 67.3032 39.0607 66.3346 39.0607ZM61.773 54.1827V36.6861H64.3975L64.6787 38.1858L64.9599 37.8109C64.9599 37.8109 66.0222 36.4674 67.8031 36.4674C69.9589 36.4674 71.0212 37.8109 71.0212 40.6229V46.6217C71.0212 48.715 69.7714 50.0585 67.8031 50.0585C66.3971 50.0585 65.1473 49.1837 65.1161 49.1837L64.7724 48.9337V54.1515H61.773V54.1827ZM110.42 45.1532C110.42 47.9339 108.889 50.2772 105.077 50.2772C101.828 50.2772 99.7343 48.3713 99.7343 45.4032V36.0925C99.7343 33.1243 101.828 31.2185 105.077 31.2185C108.92 31.2185 110.264 33.8117 110.264 36.5612L107.202 36.9048C107.108 35.7488 106.858 33.9367 104.984 33.9367C103.578 33.9367 102.765 34.8115 102.765 36.3112V45.122C102.765 46.7154 103.609 47.5902 105.108 47.5902C107.077 47.5902 107.358 46.0905 107.452 44.8408L110.42 45.1532ZM141.258 38.0296H138.446V34.1554H145.288V31.3434H135.446V50.0585H141.258C145.069 50.0585 146.382 47.6527 146.382 44.0284C146.382 40.4666 145.069 38.0296 141.258 38.0296ZM140.664 47.2778H138.446V40.8416H140.664C143.007 40.8416 143.195 41.8101 143.195 44.0597C143.195 46.3092 143.007 47.2778 140.664 47.2778Z" fill="#508B36"/>
</svg>
