<svg width="200" height="85" viewBox="0 0 200 85" fill="none" xmlns="http://www.w3.org/2000/svg">
<path d="M55.5081 38.5258C56.6549 38.5258 57.9315 38.5656 59.0385 39.3136C59.7765 39.8023 60.6441 40.7697 60.6441 42.495C60.6441 44.3899 59.4474 46.6238 56.1264 46.6238H53.3339V51.8198H50.8906V38.5258H55.5081ZM55.6078 44.6791C56.1463 44.6791 56.9242 44.699 57.5425 44.1206C57.9714 43.7317 58.2008 43.0734 58.2008 42.515C58.2008 41.9964 57.9913 41.3681 57.5625 40.9991C57.1336 40.6301 56.4555 40.4505 55.6975 40.4505H53.3339V44.6791H55.6078ZM62.8981 42.9438C63.5763 42.3055 64.5836 41.747 66.0895 41.747C67.6054 41.747 68.6127 42.3055 69.2908 42.9438C70.2981 43.8912 70.8167 45.3672 70.8167 46.8732C70.8167 48.3791 70.2981 49.8551 69.2908 50.8025C68.6127 51.4408 67.6054 52.0092 66.0895 52.0092C64.5836 52.0092 63.5763 51.4408 62.8981 50.8025C61.8909 49.8551 61.3723 48.3791 61.3723 46.8732C61.3623 45.3573 61.8909 43.8912 62.8981 42.9438ZM64.5437 49.6656C64.7531 49.9149 65.2418 50.3836 66.0895 50.3836C66.9472 50.3836 67.4259 49.9249 67.6353 49.6656C67.7949 49.4961 68.3733 48.7182 68.3733 46.8732C68.3733 45.0282 67.7949 44.2602 67.6353 44.0807C67.4259 43.8314 66.9372 43.3627 66.0895 43.3627C65.2418 43.3627 64.7531 43.8214 64.5437 44.0807C64.3941 44.2602 63.8057 45.0282 63.8057 46.8732C63.8057 48.7082 64.3941 49.4861 64.5437 49.6656ZM78.5457 45.5567C78.5058 45.0581 78.3163 44.4697 78.057 44.1007C77.8176 43.7516 77.3589 43.3627 76.581 43.3627C75.823 43.3627 75.3244 43.7516 75.0152 44.2702C74.5265 45.068 74.4966 46.3047 74.4966 46.8732C74.4966 47.7807 74.6263 48.8678 75.0152 49.4861C75.2645 49.875 75.7732 50.3737 76.581 50.3737C77.1594 50.3737 77.6481 50.1443 78.0171 49.6357C78.3063 49.2268 78.5058 48.6483 78.5357 48.1397L80.5901 48.3891C80.4704 49.2966 80.0715 50.3138 79.3535 50.9621C78.7551 51.5006 77.8176 51.9893 76.5012 51.9893C75.0352 51.9893 74.0778 51.4109 73.5193 50.8823C72.7613 50.1642 72.0433 48.8877 72.0433 46.8732C72.0433 44.9982 72.6815 43.8713 73.1902 43.2729C73.9082 42.4152 75.1249 41.7271 76.561 41.7271C77.7877 41.7271 78.795 42.1559 79.4233 42.8142C80.0615 43.4524 80.4505 44.4198 80.5901 45.2875L78.5457 45.5567ZM88.1597 45.5567C88.1198 45.0581 87.9303 44.4697 87.671 44.1007C87.4417 43.7516 86.9729 43.3627 86.195 43.3627C85.4371 43.3627 84.9384 43.7516 84.6293 44.2702C84.1506 45.068 84.1107 46.3047 84.1107 46.8732C84.1107 47.7807 84.2503 48.8678 84.6293 49.4861C84.8786 49.875 85.3872 50.3737 86.195 50.3737C86.7735 50.3737 87.2621 50.1443 87.6311 49.6357C87.9204 49.2268 88.1198 48.6483 88.1497 48.1397L90.2042 48.3891C90.0945 49.2966 89.6856 50.3138 88.9675 50.9621C88.3691 51.5006 87.4417 51.9893 86.1252 51.9893C84.6492 51.9893 83.7018 51.4109 83.1433 50.8823C82.3854 50.1642 81.6673 48.8877 81.6673 46.8732C81.6673 44.9982 82.3056 43.8713 82.8142 43.2729C83.5322 42.4152 84.749 41.7271 86.1851 41.7271C87.4018 41.7271 88.409 42.1559 89.0473 42.8142C89.6856 43.4524 90.0745 44.4198 90.2141 45.2875L88.1597 45.5567ZM100.576 48.9475C100.227 50.1044 99.5289 50.7826 98.9505 51.1915C98.1726 51.71 97.1653 52.0092 96.0982 52.0092C94.7618 52.0092 93.4055 51.4408 92.5877 50.613C91.8298 49.8451 91.2713 48.4987 91.2713 46.913C91.2713 44.8985 92.109 43.5621 93.0166 42.8042C93.5451 42.3554 94.5325 41.7371 96.0184 41.7371C97.9033 41.7371 99.1001 42.6047 99.7384 43.5023C100.416 44.4298 100.735 45.7263 100.735 46.8532V47.302H93.7247C93.7247 47.4117 93.7047 48.3093 94.0538 49.0273C94.5724 50.1144 95.5298 50.3836 96.188 50.3836C96.7066 50.3836 97.3648 50.2241 97.9133 49.6656C98.2424 49.3165 98.382 48.9874 98.4319 48.6783L100.576 48.9475ZM98.2923 45.826C98.2923 45.2675 98.1527 44.6292 97.8634 44.2004C97.4944 43.6618 96.8362 43.2928 96.1182 43.2928C95.3802 43.2928 94.7419 43.6618 94.3529 44.1206C94.0438 44.5096 93.7745 45.1079 93.7745 45.826H98.2923ZM110.299 41.9365V51.8198H108.046V43.612H105.492C105.433 44.9484 105.393 45.4869 105.353 46.4044C105.293 47.4316 105.223 49.5958 104.346 50.7826C103.857 51.4208 103.258 51.6702 102.83 51.7898C102.58 51.8696 102.311 51.8995 102.032 51.8995C101.842 51.8995 101.643 51.8796 101.453 51.8198V50.1144H101.643C101.932 50.0944 102.321 49.9448 102.57 49.7454C103.348 49.127 103.418 47.7308 103.498 46.6238C103.598 45.1678 103.618 44.3001 103.627 42.9837L103.647 41.9365H110.299ZM114.917 45.457H117.4C118.038 45.457 119.275 45.5368 120.093 46.3446C120.831 47.0626 120.901 48.0699 120.901 48.6085C120.901 50.0246 120.322 50.7427 119.873 51.1117C119.714 51.2314 118.986 51.8098 117.59 51.8098H112.673V41.9365H114.917V45.457ZM114.917 50.1842H116.682C117.111 50.1842 117.57 50.1642 117.959 49.8351C118.188 49.6157 118.467 49.2567 118.467 48.6284C118.467 48.0899 118.308 47.661 117.869 47.3718C117.48 47.1225 116.991 47.0826 116.692 47.0826H114.927V50.1842H114.917ZM124.172 41.9365L125.997 45.0082L127.892 41.9365H129.946L127.054 46.4044L130.485 51.8098H127.852L125.608 48.0899L123.244 51.8098H121.19L124.561 46.6837L121.539 41.9365H124.172ZM132.22 42.9438C132.898 42.3055 133.906 41.747 135.411 41.747C136.927 41.747 137.935 42.3055 138.613 42.9438C139.62 43.8912 140.139 45.3672 140.139 46.8732C140.139 48.3791 139.61 49.8551 138.613 50.8025C137.935 51.4408 136.927 52.0092 135.411 52.0092C133.906 52.0092 132.898 51.4408 132.22 50.8025C131.213 49.8551 130.694 48.3791 130.694 46.8732C130.694 45.3573 131.213 43.8912 132.22 42.9438ZM133.866 49.6656C134.075 49.9149 134.564 50.3836 135.411 50.3836C136.269 50.3836 136.748 49.9249 136.967 49.6656C137.117 49.4961 137.705 48.7182 137.705 46.8732C137.705 45.0282 137.127 44.2602 136.967 44.0807C136.758 43.8314 136.269 43.3627 135.411 43.3627C134.564 43.3627 134.075 43.8214 133.866 44.0807C133.706 44.2602 133.128 45.0282 133.128 46.8732C133.128 48.7082 133.716 49.4861 133.866 49.6656ZM141.345 44.6093C141.635 43.4125 142.392 42.7543 142.931 42.4252C143.26 42.2158 144.168 41.747 145.723 41.747C146.691 41.747 147.678 41.9166 148.416 42.3255C149.503 42.9239 149.772 43.7915 149.772 44.4198C149.772 45.098 149.443 46.3945 147.758 46.5839V46.6238C148.336 46.7036 148.975 46.9529 149.364 47.3618C149.713 47.7308 149.982 48.3492 149.982 49.0074C149.982 49.9947 149.403 50.8624 148.665 51.351C147.778 51.9295 146.551 52.0092 145.644 52.0092C144.726 52.0092 143.34 51.9095 142.363 51.1416C141.824 50.7128 141.315 49.9748 141.166 49.0473L143.2 48.6982C143.28 49.0074 143.45 49.4761 143.679 49.7454C144.188 50.3338 144.975 50.3836 145.484 50.3836C145.993 50.3836 146.531 50.3238 146.96 50.0346C147.349 49.7653 147.539 49.3963 147.539 48.9076C147.539 48.4988 147.459 48.1696 147.11 47.8804C146.661 47.5114 146.063 47.4516 145.504 47.4516H144.477V45.9357H145.504C145.893 45.9357 146.451 45.8559 146.761 45.7063C147.17 45.4969 147.399 45.1478 147.399 44.5794C147.399 44.2702 147.279 43.971 146.99 43.7416C146.541 43.3726 145.903 43.3527 145.574 43.3527C145.125 43.3527 144.467 43.4125 143.928 43.8713C143.699 44.0608 143.39 44.4298 143.29 45.0082L141.345 44.6093ZM161.481 40.8495H155.068V43.7915H157.92C158.948 43.7915 159.935 43.8713 160.942 44.5694C161.93 45.2476 162.548 46.2548 162.548 47.7109C162.548 49.0672 162.039 50.0745 161.401 50.7127C160.434 51.6801 159.327 51.8198 158.17 51.8198H151.967V38.5258H161.481V40.8495ZM155.068 49.4861H157.571C158.04 49.4861 158.469 49.4661 158.908 49.0173C159.337 48.5885 159.396 48.1098 159.396 47.7408C159.396 47.3219 159.277 46.8931 158.908 46.5241C158.469 46.0853 157.9 46.0354 157.492 46.0354H155.068V49.4861ZM164.144 44.6791C164.453 43.3427 165.32 42.6645 165.849 42.3554C166.617 41.9066 167.644 41.7371 168.931 41.7371C170.556 41.7371 172.202 41.9465 172.94 43.4823C173.329 44.2802 173.289 45.1279 173.289 45.8659V49.6855C173.289 50.4834 173.398 51.2214 173.578 51.8198H170.766C170.686 51.4308 170.626 50.9122 170.616 50.254C170.247 50.9122 169.349 52.0192 167.305 52.0192C166.397 52.0192 165.46 51.7898 164.822 51.2613C164.203 50.7526 163.814 49.9448 163.814 49.0572C163.814 48.0699 164.243 46.8831 165.929 46.185C167.016 45.7362 168.781 45.5866 169.569 45.5467L170.496 45.5069V45.2974C170.496 45.0281 170.476 44.4497 170.207 44.1306C169.838 43.7017 169.1 43.6818 168.811 43.6818C168.412 43.6818 167.923 43.7217 167.514 43.971C167.265 44.1206 166.936 44.4397 166.816 44.9783L164.144 44.6791ZM169.629 47.1424C168.661 47.2222 167.694 47.3219 167.145 47.9901C166.996 48.1796 166.836 48.4788 166.836 48.8777C166.836 49.3066 167.046 49.5958 167.265 49.7454C167.534 49.9548 167.943 50.0545 168.332 50.0545C168.911 50.0545 169.589 49.8052 169.978 49.3365C170.038 49.2766 170.496 48.6982 170.496 47.5713V47.0527L169.629 47.1424ZM178.415 41.9365V45.6365H181.536V41.9365H184.419V51.8098H181.536V47.661H178.415V51.8098H175.533V41.9365H178.415ZM189.555 41.9365V45.7362H190.333C191.17 45.7362 191.519 45.3273 191.729 44.8786C192.138 44.0109 192.118 43.3327 192.487 42.6546C192.776 42.116 193.165 41.9764 193.414 41.9365H195.798C195.489 42.2656 195.219 42.6546 195.04 43.0036C194.731 43.6419 194.442 44.6891 194.262 45.1379C194.033 45.7562 193.644 46.3745 192.656 46.4543V46.4942C193.185 46.574 193.724 46.8432 194.132 47.4416C194.382 47.8106 194.551 48.2893 194.831 49.0473C195.1 49.8252 195.219 50.0944 195.469 50.6928C195.668 51.1416 195.778 51.4109 196.107 51.8198H193.394C192.966 51.6801 192.676 51.3909 192.327 50.3836C192.058 49.6157 192.018 49.3365 191.839 48.9076L191.699 48.5586C191.41 47.8206 191.021 47.671 190.422 47.671H189.555V51.8198H186.673V41.9365H189.555Z" fill="#19502E"/>
<path d="M24.3223 66.5C12.5641 66.5 3 56.9459 3 45.1877C3 38.436 6.1016 32.2228 11.507 28.1539L11.7264 27.9743V18.5H23.9632V23.8754H24.3223C36.0704 23.8754 45.6345 33.4395 45.6345 45.1977C45.6345 56.9459 36.0704 66.5 24.3223 66.5Z" fill="#19502E"/>
<path d="M18.1487 45.5267L22.5867 41.1685V38.2065L18.1487 42.5448V45.5267ZM18.1487 34.4866L22.5867 30.1184V27.326L18.1487 31.6642V34.4866ZM18.1487 38.1367L22.5867 33.7785V30.9861L18.1487 35.3243V38.1367ZM16.8822 27.356L16.2938 26.7875V19.8762H15.6157V26.1293L15.0372 25.5509V19.8762H14.3591V24.9026L13.7707 24.3242V19.8762H13.1025V26.4684L17.5504 30.8265V19.8762H16.8822V27.356ZM18.1487 41.7868L22.5867 37.4286V34.6362L18.1487 38.9744V41.7868ZM13.1025 41.1685L17.5504 45.5267V42.5448L13.1025 38.2065V41.1685ZM21.9185 24.3242L21.3301 24.9026V19.8762H20.6619V25.5608L20.0735 26.1293V19.8762H19.4053V26.7775L18.8169 27.356V19.8762H18.1487V30.8265L22.5867 26.4684V19.8762H21.9185V24.3242ZM13.1025 30.1184L17.5504 34.4866V31.6642L13.1025 27.326V30.1184ZM13.1025 33.7785L17.5504 38.1367V35.3243L13.1025 30.9861V33.7785ZM13.1025 37.4286L17.5504 41.7868V38.9744L13.1025 34.6362V37.4286ZM39.5608 39.7324H28.7601C28.9895 39.3734 29.1191 38.9545 29.1191 38.5057C29.1191 37.2192 28.0719 36.182 26.7854 36.182C25.4989 36.182 24.4617 37.2292 24.4617 38.5057C24.4617 39.0144 24.6213 39.4731 24.9005 39.8521C24.7011 39.9817 24.5614 40.2111 24.5614 40.4804C24.5614 40.7397 24.7011 40.9691 24.9005 41.0987C24.6313 41.4777 24.4617 41.9464 24.4617 42.4451C24.4617 43.7316 25.4989 44.7688 26.7854 44.7688C28.0719 44.7688 29.1191 43.7316 29.1191 42.4451C29.1191 41.9963 28.9895 41.5674 28.7601 41.2184H36.7983V41.7071H36.0005V42.3952H36.7983V43.1033H36.0005V44.4097H36.7983V43.8213H37.9751V44.4097H38.763V43.1033H37.9751V42.3952H38.763V41.7071H37.9751V41.2184H39.5608C39.87 41.2184 40.1193 40.9591 40.1193 40.6499V40.3009C40.1193 39.9917 39.86 39.7324 39.5608 39.7324ZM27.9922 42.4451C27.9922 43.1033 27.4536 43.6418 26.7854 43.6418C26.1272 43.6418 25.5887 43.1033 25.5887 42.4451C25.5887 42.2057 25.6585 41.9763 25.7881 41.7868L26.1172 41.2184C25.9078 41.0389 25.7781 40.7696 25.7781 40.4704C25.7781 40.1712 25.9078 39.902 26.1172 39.7224L25.7881 39.154C25.6585 38.9645 25.5887 38.7451 25.5887 38.4958C25.5887 37.8375 26.1272 37.299 26.7854 37.299C27.4436 37.299 27.9922 37.8375 27.9922 38.4958C27.9922 38.9844 27.4237 40.1513 27.4237 40.1513V40.7796C27.4237 40.7896 27.9922 41.9564 27.9922 42.4451Z" fill="#FFCB05"/>
<path d="M9.06348 38.3163V41.2185C9.06348 43.991 10.2702 45.7761 10.9683 46.4643C11.3772 46.8632 15.506 50.9322 15.5659 50.982C16.8524 52.2386 17.0718 52.6475 17.361 53.3656V50.1543C17.361 47.292 15.9149 46.185 15.1669 45.457C13.4217 43.7616 12.2648 42.6446 11.3174 41.7071C9.54218 39.922 9.06348 38.3163 9.06348 38.3163ZM15.167 52.6276C13.4317 50.9222 12.2648 49.8152 11.3274 48.8777C9.54222 47.0926 9.07349 45.8858 9.07349 45.8858V48.389C9.07349 51.1615 10.3301 52.9268 10.9684 53.6548C11.3772 54.0537 15.516 58.1027 15.5659 58.1526C16.8524 59.4092 17.0718 60.0076 17.361 60.7157V57.3248C17.361 54.4626 15.905 53.3556 15.167 52.6276Z" fill="white"/>
<path d="M24.322 25.2417C24.0029 25.2417 23.6837 25.2517 23.3646 25.2616V26.618C23.6837 26.598 23.9929 26.598 24.322 26.598C34.5842 26.598 42.9017 34.9155 42.9017 45.1877C42.9017 55.4499 34.5842 63.7674 24.322 63.7674C14.0598 63.7674 5.73231 55.4499 5.73231 45.1877C5.73231 39.4931 8.29537 34.3969 12.3345 30.9862V29.2509C7.49753 32.891 4.37598 38.6753 4.37598 45.1877C4.37598 56.1979 13.3018 65.1237 24.322 65.1237C35.3322 65.1237 44.258 56.1979 44.258 45.1877C44.258 34.1775 35.3322 25.2417 24.322 25.2417Z" fill="white"/>
<path d="M38.4238 55.5995C38.7329 55.1806 39.0222 54.7418 39.3014 54.293V51.6203H38.4238V55.5995ZM40.9769 50.6429C41.1065 50.254 41.2162 49.8651 41.3159 49.4761H38.4238V50.1842H38.8626C39.6305 50.1642 40.4982 50.1543 40.9769 50.6429Z" fill="white"/>
<path d="M21.7195 49.3763H20.9316V57.3247H21.7195V49.3763Z" fill="white"/>
<path d="M19.1268 47.8505H21.7197C22.3879 47.8505 22.8567 47.9901 23.1259 48.2494C23.3952 48.5087 23.5249 48.9775 23.5249 49.6457V57.0755C23.5249 57.7437 23.3952 58.2125 23.1259 58.4718C22.717 58.8806 21.9591 58.8806 21.3308 58.8806C21.1912 58.8707 21.0516 58.8707 20.9319 58.8707V62.3911C21.1912 62.441 21.4505 62.4909 21.7197 62.5308V59.6386C22.9165 59.6386 23.6944 59.2297 24.0634 58.4119V62.7202H24.3227C24.4823 62.7202 24.6518 62.7202 24.8114 62.7103V49.7753C24.8114 49.0872 24.951 48.6085 25.2103 48.3392C25.4696 48.0699 25.9383 47.9303 26.5965 47.9303C27.2647 47.9303 28.2521 47.8306 28.7607 48.3392C29.02 48.6085 29.1396 49.0971 29.1396 49.7753V53.585H27.3645V49.516H26.5965V62.5707C26.8558 62.5407 27.1052 62.5008 27.3645 62.451V54.3529H29.1396V62.0421C29.5086 61.9424 29.8677 61.8227 30.2267 61.693V54.6521C30.2267 53.8543 30.4162 53.2559 31.224 52.9866L30.3264 48.0899H32.1216L32.4208 53.4354H32.6402L32.9394 48.0899H34.8342L33.817 52.9866C34.6647 53.2858 34.8342 53.8044 34.8342 54.6521V59.1998C35.3628 58.8009 35.8614 58.382 36.3401 57.9232V48.04H41.6059C41.6458 47.8007 41.6757 47.5713 41.7056 47.322H29.3989L29.5685 48.2095C29.1795 47.4915 28.4415 47.1325 27.3545 47.1325H26.5866C25.2801 47.1325 24.4922 47.6511 24.1831 48.6883C23.9038 47.6012 23.0761 47.0627 21.7098 47.0627H18.3389V61.6531C18.5982 61.7429 18.8575 61.8326 19.1168 61.9124V47.8505H19.1268ZM35.4725 53.4653L34.6248 52.6575L35.4725 48.2694V53.4653Z" fill="white"/>
<path d="M32.1309 60.8853C32.4002 60.7457 32.6694 60.6061 32.9387 60.4565V54.4427H32.1309V60.8853Z" fill="white"/>
</svg>
