<svg width="57" height="58" viewBox="0 0 57 58" fill="none" xmlns="http://www.w3.org/2000/svg">
<path d="M20.1875 24.5938C17.8921 24.5938 16.0312 26.4546 16.0312 28.75C16.0312 31.0454 17.8921 32.9062 20.1875 32.9062C22.4829 32.9062 24.3438 31.0454 24.3438 28.75C24.3438 26.4546 22.4829 24.5938 20.1875 24.5938Z" fill="#F04B54"/>
<path fill-rule="evenodd" clip-rule="evenodd" d="M4.75 28.75C4.75 17.5541 4.75 11.9562 8.22811 8.47811C11.7062 5 17.3041 5 28.5 5C39.6959 5 45.2938 5 48.7719 8.47811C52.25 11.9562 52.25 17.5541 52.25 28.75C52.25 39.9459 52.25 45.5438 48.7719 49.0219C45.2938 52.5 39.6959 52.5 28.5 52.5C17.3041 52.5 11.7062 52.5 8.22811 49.0219C4.75 45.5438 4.75 39.9459 4.75 28.75ZM27.6997 26.9688C26.8956 23.5645 23.8374 21.0312 20.1875 21.0312C15.9246 21.0312 12.4688 24.4871 12.4688 28.75C12.4688 33.0129 15.9246 36.4688 20.1875 36.4688C23.8374 36.4688 26.8956 33.9355 27.6997 30.5312H35.0312V32.3125C35.0312 33.2963 35.8287 34.0938 36.8125 34.0938C37.7963 34.0938 38.5938 33.2963 38.5938 32.3125V30.5312H40.375C40.7029 30.5312 40.9688 30.7971 40.9688 31.125V33.5C40.9688 34.4838 41.7662 35.2812 42.75 35.2812C43.7338 35.2812 44.5312 34.4838 44.5312 33.5V31.125C44.5312 28.8296 42.6704 26.9688 40.375 26.9688H27.6997Z" fill="#F04B54"/>
</svg>
