<svg width="58" height="58" viewBox="0 0 58 58" fill="none" xmlns="http://www.w3.org/2000/svg">
<path d="M21.875 14.5C21.875 18.435 25.065 21.625 29 21.625C32.935 21.625 36.125 18.435 36.125 14.5C36.125 10.565 32.935 7.375 29 7.375C25.065 7.375 21.875 10.565 21.875 14.5Z" fill="#F04B54"/>
<path d="M6.4375 43C6.4375 46.935 9.62747 50.125 13.5625 50.125C17.4975 50.125 20.6875 46.935 20.6875 43C20.6875 39.065 17.4975 35.875 13.5625 35.875C9.62747 35.875 6.4375 39.065 6.4375 43Z" fill="#F04B54"/>
<path d="M44.4375 50.125C40.5025 50.125 37.3125 46.935 37.3125 43C37.3125 39.065 40.5025 35.875 44.4375 35.875C48.3725 35.875 51.5625 39.065 51.5625 43C51.5625 46.935 48.3725 50.125 44.4375 50.125Z" fill="#F04B54"/>
<path d="M17.6111 18.2105C18.3487 17.5595 18.4189 16.4339 17.7679 15.6963C17.1169 14.9587 15.9913 14.8885 15.2537 15.5395C10.9423 19.3448 8.21875 24.918 8.21875 31.1251C8.21875 32.1088 9.01624 32.9063 10 32.9063C10.9838 32.9063 11.7812 32.1088 11.7812 31.1251C11.7812 25.9825 14.0334 21.3682 17.6111 18.2105Z" fill="#F04B54"/>
<path d="M42.7463 15.5395C42.0087 14.8885 40.8831 14.9587 40.2321 15.6963C39.5811 16.4339 39.6513 17.5595 40.3889 18.2105C43.9666 21.3682 46.2188 25.9825 46.2188 31.1251C46.2188 32.1088 47.0162 32.9063 48 32.9063C48.9838 32.9063 49.7812 32.1088 49.7812 31.1251C49.7812 24.918 47.0577 19.3448 42.7463 15.5395Z" fill="#F04B54"/>
<path d="M24.694 47.8015C23.7413 47.5562 22.7702 48.1298 22.525 49.0825C22.2798 50.0352 22.8533 51.0063 23.806 51.2515C25.468 51.6793 27.2088 51.9063 29 51.9063C30.7912 51.9063 32.532 51.6793 34.194 51.2515C35.1467 51.0063 35.7202 50.0352 35.475 49.0825C35.2298 48.1298 34.2587 47.5562 33.306 47.8015C31.9316 48.1552 30.4891 48.3438 29 48.3438C27.5109 48.3438 26.0684 48.1552 24.694 47.8015Z" fill="#F04B54"/>
</svg>
