<svg width="29" height="30" viewBox="0 0 29 30" fill="none" xmlns="http://www.w3.org/2000/svg">
<rect y="0.872559" width="29" height="29" rx="14.5" fill="#FCDBDD"/>
<path d="M23.5035 22.2535H21.222C20.3588 22.2535 20.0992 21.5545 18.5511 20.0064C17.2 18.7038 16.6292 18.5412 16.2868 18.5412C15.8145 18.5412 15.6847 18.671 15.6847 19.3231V21.3747C15.6847 21.9298 15.5049 22.2551 14.0553 22.2551C12.6485 22.1605 11.2842 21.7331 10.0749 21.008C8.86564 20.283 7.84592 19.281 7.09975 18.0846C5.32828 15.8797 4.0957 13.2919 3.5 10.527C3.5 10.1845 3.62979 9.8749 4.28187 9.8749H6.56182C7.14822 9.8749 7.35933 10.136 7.5892 10.7381C8.69633 13.9969 10.5853 16.8304 11.3516 16.8304C11.6456 16.8304 11.7738 16.7007 11.7738 15.9673V12.6115C11.6768 11.0805 10.8637 10.9508 10.8637 10.3972C10.8741 10.2512 10.941 10.115 11.0502 10.0175C11.1594 9.91998 11.3023 9.86883 11.4485 9.8749H15.0326C15.5221 9.8749 15.6847 10.1188 15.6847 10.7052V15.2339C15.6847 15.7233 15.8958 15.8859 16.0428 15.8859C16.3368 15.8859 16.5635 15.7233 17.1015 15.1854C18.2569 13.7764 19.2009 12.2066 19.9037 10.5254C19.9756 10.3235 20.1115 10.1506 20.2908 10.0331C20.4701 9.91568 20.6829 9.86011 20.8967 9.8749H23.1782C23.8616 9.8749 24.007 10.2174 23.8616 10.7052C23.032 12.5637 22.0055 14.3277 20.7997 15.9673C20.5542 16.3426 20.4557 16.538 20.7997 16.9774C21.0265 17.3199 21.8256 17.9876 22.3635 18.6225C23.1452 19.4023 23.7944 20.3044 24.2853 21.2934C24.4808 21.9283 24.154 22.2535 23.5035 22.2535Z" fill="#F04B54"/>
</svg>
