<svg width="29" height="20" viewBox="0 0 29 20" fill="none" xmlns="http://www.w3.org/2000/svg">
<path fill-rule="evenodd" clip-rule="evenodd" d="M18.9128 19.3501C20.39 19.3501 21.7853 18.6717 22.6977 17.5099L27.5948 11.2739C28.182 10.5262 28.182 9.47398 27.5948 8.72626L22.6977 2.49031C21.7853 1.32852 20.39 0.650097 18.9128 0.650097L4.27359 0.650097C2.37511 0.650097 0.83609 2.18912 0.83609 4.0876L0.83609 15.9126C0.83609 17.8111 2.37511 19.3501 4.27359 19.3501L18.9128 19.3501ZM16.0752 14.8543C15.6724 15.2571 15.0195 15.2571 14.6167 14.8543L11.2209 11.4585L7.82514 14.8543C7.42241 15.257 6.76946 15.257 6.36673 14.8543C5.964 14.4516 5.964 13.7986 6.36673 13.3959L9.76253 10.0001L6.36674 6.60433C5.96402 6.2016 5.96402 5.54865 6.36674 5.14592C6.76947 4.74319 7.42242 4.74319 7.82515 5.14592L11.2209 8.54171L14.6167 5.14591C15.0195 4.74318 15.6724 4.74318 16.0751 5.14591C16.4779 5.54864 16.4779 6.20159 16.0751 6.60432L12.6793 10.0001L16.0752 13.3959C16.4779 13.7987 16.4779 14.4516 16.0752 14.8543Z" fill="#F04B54"/>
<path d="M14.6167 14.8543C15.0195 15.2571 15.6724 15.2571 16.0752 14.8543C16.4779 14.4516 16.4779 13.7987 16.0752 13.3959L12.6793 10.0001L16.0751 6.60432C16.4779 6.20159 16.4779 5.54864 16.0751 5.14591C15.6724 4.74318 15.0195 4.74318 14.6167 5.14591L11.2209 8.54171L7.82515 5.14592C7.42242 4.74319 6.76947 4.74319 6.36674 5.14592C5.96402 5.54865 5.96402 6.2016 6.36674 6.60433L9.76253 10.0001L6.36673 13.3959C5.964 13.7986 5.964 14.4516 6.36673 14.8543C6.76946 15.257 7.42241 15.257 7.82514 14.8543L11.2209 11.4585L14.6167 14.8543Z" fill="#F04B54"/>
</svg>
