<?xml version="1.0" encoding="utf-8"?>
<!-- Generator: Adobe Illustrator 24.3.0, SVG Export Plug-In . SVG Version: 6.00 Build 0)  -->
<svg version="1.1" id="Слой_1" xmlns="http://www.w3.org/2000/svg" xmlns:xlink="http://www.w3.org/1999/xlink" x="0px" y="0px"
	 viewBox="0 0 500 500" style="enable-background:new 0 0 500 500;" xml:space="preserve">
<style type="text/css">
	.st0{fill:#E94C53;}
</style>
<g>
	<g>
		<g>
			<path class="st0" d="M166.7,3.2L21.1,110.9V257h291.4V110.9L166.7,3.2z M301,245.6H32.4V116.5l134.3-98.9L301,116.5V245.6z"/>
		</g>
		<g>
			<polygon class="st0" points="479.6,110.9 479.6,257 337.9,257 337.9,245.6 468.2,245.6 468.2,116.5 334,17.7 281.4,54.5 
				271.9,47.4 333.9,3.2 			"/>
		</g>
	</g>
	<g>
		<g>
			<g>
				<path class="st0" d="M27.6,494.8c-2.5,0-4.3-0.6-5.2-1.7c-0.9-1.1-1.4-2.9-1.4-5.4V484c0-2.4,0.5-4.2,1.4-5.3
					c0.9-1.1,2.6-1.7,5.2-1.7h5.3c2.4,0,4,0.5,5,1.5s1.5,2.6,1.6,5c0,0.4-0.2,0.7-0.6,0.7h-1.7c-0.4,0-0.6-0.2-0.6-0.7
					c0-1.5-0.3-2.5-0.8-2.9c-0.5-0.5-1.4-0.7-2.9-0.7h-5.1c-1.5,0-2.5,0.3-2.9,0.8c-0.5,0.5-0.7,1.6-0.7,3.1v4.3
					c0,1.6,0.2,2.7,0.7,3.2c0.5,0.5,1.5,0.8,2.9,0.8h5.1c1.5,0,2.4-0.2,2.9-0.7c0.5-0.5,0.7-1.5,0.8-3c0-0.4,0.2-0.7,0.6-0.7h1.7
					c0.4,0,0.6,0.2,0.6,0.7c-0.1,2.4-0.6,4.1-1.6,5.1c-1,1-2.6,1.4-5,1.4H27.6z"/>
			</g>
			<g>
				<path class="st0" d="M63.6,477c2.5,0,4.2,0.6,5.1,1.7c0.9,1.1,1.4,2.9,1.4,5.4v10.2c0,0.4-0.2,0.6-0.6,0.6h-1.7
					c-0.4,0-0.6-0.2-0.6-0.6v-10.4c0-1.6-0.2-2.7-0.7-3.2c-0.5-0.5-1.5-0.8-2.9-0.8h-1.8c-1.3,0-2.3,0.3-2.8,0.8
					c-0.6,0.5-0.8,1.6-0.8,3.2v10.4c0,0.4-0.2,0.6-0.6,0.6h-1.7c-0.4,0-0.6-0.2-0.6-0.6v-10.4c0-1.6-0.2-2.7-0.7-3.2
					c-0.5-0.5-1.4-0.8-2.9-0.8h-1.8c-1.3,0-2.3,0.3-2.8,0.8c-0.6,0.5-0.8,1.6-0.8,3.2v10.4c0,0.4-0.2,0.6-0.6,0.6h-1.7
					c-0.4,0-0.6-0.2-0.6-0.6v-16.6c0-0.4,0.2-0.6,0.6-0.6h1.7c0.4,0,0.6,0.2,0.6,0.6v1.7c0.7-1.5,2.4-2.3,5-2.3h0.7
					c3,0,4.8,0.9,5.6,2.6c0.8-1.7,2.7-2.6,5.6-2.6H63.6z"/>
			</g>
			<g>
				<path class="st0" d="M85.9,477c2.5,0,4.3,0.6,5.2,1.7c0.9,1.1,1.4,2.9,1.4,5.3v3.8c0,2.5-0.5,4.3-1.4,5.4
					c-0.9,1.1-2.6,1.7-5.2,1.7h-3.8c-2.7,0-4.3-0.8-5-2.3v3.5c0,0.4-0.2,0.6-0.6,0.6h-1.7c-0.4,0-0.6-0.2-0.6-0.6v-18.4
					c0-0.4,0.2-0.6,0.6-0.6h1.7c0.4,0,0.6,0.2,0.6,0.6v1.7c0.7-1.5,2.4-2.3,5-2.3H85.9z M89.5,488.1v-4.3c0-1.6-0.2-2.6-0.7-3.1
					c-0.5-0.5-1.4-0.8-2.9-0.8h-5.1c-1.3,0-2.3,0.3-2.8,0.8c-0.6,0.5-0.8,1.6-0.8,3.1v4.3c0,1.6,0.3,2.7,0.8,3.2
					c0.6,0.5,1.5,0.8,2.8,0.8h5.1c1.5,0,2.4-0.3,2.9-0.8C89.2,490.8,89.5,489.7,89.5,488.1z"/>
			</g>
			<g>
				<path class="st0" d="M102.6,494.8c-2.5,0-4.3-0.6-5.2-1.7s-1.4-2.9-1.4-5.4V484c0-2.4,0.5-4.2,1.4-5.3s2.6-1.7,5.2-1.7h5.3
					c2.5,0,4.3,0.6,5.2,1.7c0.9,1.1,1.4,2.9,1.4,5.3v3.8c0,2.5-0.5,4.3-1.4,5.4c-0.9,1.1-2.6,1.7-5.2,1.7H102.6z M102.6,492h5.1
					c1.5,0,2.5-0.3,2.9-0.8c0.5-0.5,0.7-1.6,0.7-3.2v-4.3c0-1.6-0.2-2.6-0.7-3.1c-0.5-0.5-1.5-0.8-2.9-0.8h-5.1
					c-1.5,0-2.5,0.3-2.9,0.8c-0.5,0.5-0.7,1.6-0.7,3.1v4.3c0,1.6,0.2,2.7,0.7,3.2C100.2,491.8,101.1,492,102.6,492z"/>
			</g>
			<g>
				<path class="st0" d="M132.8,477.7c0-0.4,0.2-0.6,0.6-0.6h1.7c0.4,0,0.6,0.2,0.6,0.6v16.6c0,0.4-0.2,0.6-0.6,0.6h-1.7
					c-0.4,0-0.6-0.2-0.6-0.6v-1.7c-0.7,1.6-2.4,2.3-5,2.3h-3c-2.5,0-4.2-0.6-5.2-1.7c-0.9-1.1-1.4-2.9-1.4-5.4v-10.2
					c0-0.4,0.2-0.6,0.6-0.6h1.7c0.4,0,0.6,0.2,0.6,0.6v10.4c0,1.6,0.2,2.7,0.7,3.2c0.5,0.5,1.5,0.7,2.9,0.7h4.3
					c1.4,0,2.3-0.3,2.8-0.8c0.5-0.5,0.8-1.6,0.8-3.2V477.7z"/>
			</g>
			<g>
				<path class="st0" d="M160.7,477c2.5,0,4.2,0.6,5.1,1.7c0.9,1.1,1.4,2.9,1.4,5.4v10.2c0,0.4-0.2,0.6-0.6,0.6h-1.7
					c-0.4,0-0.6-0.2-0.6-0.6v-10.4c0-1.6-0.2-2.7-0.7-3.2c-0.5-0.5-1.5-0.8-2.9-0.8h-1.8c-1.3,0-2.3,0.3-2.8,0.8
					c-0.6,0.5-0.8,1.6-0.8,3.2v10.4c0,0.4-0.2,0.6-0.6,0.6h-1.7c-0.4,0-0.6-0.2-0.6-0.6v-10.4c0-1.6-0.2-2.7-0.7-3.2
					c-0.5-0.5-1.4-0.8-2.9-0.8h-1.8c-1.3,0-2.3,0.3-2.8,0.8c-0.6,0.5-0.8,1.6-0.8,3.2v10.4c0,0.4-0.2,0.6-0.6,0.6h-1.7
					c-0.4,0-0.6-0.2-0.6-0.6v-16.6c0-0.4,0.2-0.6,0.6-0.6h1.7c0.4,0,0.6,0.2,0.6,0.6v1.7c0.7-1.5,2.4-2.3,5-2.3h0.7
					c3,0,4.8,0.9,5.6,2.6c0.8-1.7,2.7-2.6,5.6-2.6H160.7z"/>
			</g>
			<g>
				<path class="st0" d="M177.4,494.8c-2.5,0-4.3-0.6-5.2-1.7c-0.9-1.1-1.4-2.9-1.4-5.4V484c0-2.4,0.5-4.2,1.4-5.3
					c0.9-1.1,2.6-1.7,5.2-1.7h4.5c2.5,0,4.3,0.6,5.2,1.7c0.9,1.1,1.4,2.9,1.4,5.3v2.9c0,0.4-0.2,0.6-0.6,0.6h-14v0.6
					c0,1.6,0.2,2.7,0.7,3.2c0.5,0.5,1.5,0.8,2.9,0.8h8.9c0.4,0,0.6,0.2,0.6,0.6v1.6c0,0.4-0.2,0.6-0.6,0.6H177.4z M173.9,484.8h11.6
					v-1c0-1.6-0.2-2.6-0.7-3.1c-0.5-0.5-1.5-0.8-2.9-0.8h-4.3c-1.5,0-2.5,0.3-2.9,0.8c-0.5,0.5-0.7,1.6-0.7,3.1V484.8z"/>
			</g>
			<g>
				<path class="st0" d="M197.8,479.8v8c0,2.3-0.5,4.1-1.5,5.3c-1,1.2-2.3,1.8-4,1.8c-0.4,0-0.6-0.2-0.6-0.6v-1.6
					c0-0.4,0.2-0.6,0.6-0.6c0.6,0,1.1-0.3,1.7-0.9c0.5-0.6,0.8-1.6,0.8-3.1v-10.4c0-0.4,0.2-0.6,0.6-0.6h13.9c0.4,0,0.6,0.2,0.6,0.6
					v16.6c0,0.4-0.2,0.6-0.6,0.6h-1.7c-0.4,0-0.6-0.2-0.6-0.6v-14.4H197.8z"/>
			</g>
			<g>
				<path class="st0" d="M214.1,477h1.7c0.4,0,0.6,0.2,0.6,0.6v6.5h8.3c2.6,0,4.3,0.6,5.3,1.7c0.3,0.4,0.6,0.8,0.8,1.4
					c0.2,0.7,0.3,1.4,0.3,2.3c0,0.9-0.1,1.7-0.3,2.3c-0.2,0.6-0.5,1-0.8,1.4c-0.9,1.1-2.7,1.7-5.2,1.7h-10.7c-0.4,0-0.6-0.2-0.6-0.6
					v-16.6C213.5,477.2,213.7,477,214.1,477z M216.5,492h8.3c1.5,0,2.5-0.3,3-0.8c0.4-0.4,0.6-1,0.6-1.8c0-0.8-0.2-1.4-0.6-1.8
					c-0.4-0.4-1.1-0.6-2.1-0.7h-9.1V492z"/>
			</g>
			<g>
				<path class="st0" d="M238.1,487.4v6.9c0,0.4-0.2,0.6-0.6,0.6h-1.7c-0.4,0-0.6-0.2-0.6-0.6v-16.6c0-0.4,0.2-0.6,0.6-0.6h1.7
					c0.4,0,0.6,0.2,0.6,0.6v6.9h11.8v-6.9c0-0.4,0.2-0.6,0.6-0.6h1.7c0.4,0,0.6,0.2,0.6,0.6v16.6c0,0.4-0.2,0.6-0.6,0.6h-1.7
					c-0.4,0-0.6-0.2-0.6-0.6v-6.9H238.1z"/>
			</g>
			<g>
				<path class="st0" d="M262.7,494.8c-4.4,0-6.7-1.6-6.7-4.9c0-1.8,0.4-3,1.2-3.8c0.8-0.8,2.3-1.3,4.4-1.6l7.9-0.9
					c0.7-0.1,1-0.5,1-1.3c0-1-0.2-1.7-0.7-2c-0.4-0.3-1.3-0.5-2.6-0.5H258c-0.4,0-0.6-0.2-0.6-0.6v-1.6c0-0.4,0.2-0.6,0.6-0.6h9.3
					c2.2,0,3.8,0.4,4.8,1.2c0.9,0.8,1.4,2.2,1.4,4v12c0,0.4-0.2,0.6-0.6,0.6h-1.7c-0.4,0-0.6-0.2-0.6-0.6v-2.1c-0.4,1-1,1.7-1.8,2.1
					c-0.8,0.4-2,0.6-3.7,0.6H262.7z M262.7,492.1h3.6c1.6,0,2.8-0.3,3.4-0.9s0.9-1.7,0.9-3.2v-1.7l-8.4,0.9
					c-1.2,0.1-2.1,0.4-2.5,0.7c-0.4,0.4-0.6,1-0.6,1.8C259,491.3,260.2,492.1,262.7,492.1z"/>
			</g>
			<g>
				<path class="st0" d="M287.5,487.7L287.5,487.7l-5.8,6.8c-0.2,0.2-0.5,0.3-0.8,0.3h-2.4c-0.3,0-0.4-0.1-0.5-0.2
					c-0.1-0.2,0-0.3,0.2-0.6l5.6-6.3h-0.1c-2.6,0-4.3-0.6-5.3-1.7c-0.3-0.4-0.6-0.8-0.8-1.4c-0.2-0.7-0.3-1.4-0.3-2.3
					c0-0.9,0.1-1.7,0.3-2.3c0.2-0.6,0.5-1,0.8-1.4c0.9-1.1,2.7-1.7,5.2-1.7h10.7c0.4,0,0.6,0.2,0.6,0.6v16.6c0,0.4-0.2,0.6-0.6,0.6
					h-1.7c-0.4,0-0.6-0.2-0.6-0.6v-6.5H287.5z M291.9,479.8h-8.3c-1.5,0-2.5,0.3-3,0.8c-0.4,0.4-0.6,1-0.6,1.8
					c0,0.8,0.2,1.4,0.6,1.8c0.4,0.4,1.1,0.6,2.1,0.7h9.1V479.8z"/>
			</g>
		</g>
	</g>
	<g>
		<g>
			<path class="st0" d="M110.5,276.8h-8.1c-1.3,0-2.3,0.6-3,1.6l-32.3,51.7l-32.3-51.7c-0.7-1.1-1.7-1.6-3-1.6h-8.2
				c-1.7,0-2.6,0.9-2.6,2.6v75.8c0,1.7,0.9,2.6,2.6,2.6h6.6c1.7,0,2.6-0.9,2.6-2.6v-58.6l28.9,45.5c0.7,1.1,1.7,1.6,3,1.6h4.7
				c1.3,0,2.3-0.6,3-1.6l28.9-45.4v58.5c0,1.7,0.9,2.6,2.6,2.6h6.6c1.7,0,2.6-0.9,2.6-2.6v-75.8
				C113.1,277.7,112.2,276.8,110.5,276.8"/>
		</g>
		<g>
			<path class="st0" d="M145.5,332.4L145.5,332.4l21.4-42.4l21.2,42.4H145.5z M173.7,278.6c-0.6-1.2-1.6-1.8-2.9-1.8h-8
				c-1.3,0-2.3,0.6-2.9,1.8l-38.9,76c-0.4,0.9-0.4,1.6,0,2.3c0.4,0.6,1.1,0.9,2,0.9h7.6c1.3,0,2.3-0.6,2.9-1.8l6.9-13.5h52.9
				l6.7,13.4c0.7,1.2,1.6,1.9,2.9,1.9h7.6c0.9,0,1.6-0.3,2-0.9c0.4-0.6,0.4-1.4,0-2.3L173.7,278.6z"/>
		</g>
		<g>
			<path class="st0" d="M284.8,355.2c0,1.7,0.9,2.6,2.6,2.6h6.7c1.7,0,2.6-0.9,2.6-2.6v-75.8c0-1.7-0.9-2.6-2.6-2.6h-58.4
				c-1.7,0-2.6,0.9-2.6,2.6v50.7c0,6.2-1.1,10.5-3.4,12.7c-2.2,2.3-5.5,3.4-9.7,3.4c-1.7,0-2.6,0.9-2.6,2.6v6.3
				c0,1.7,0.9,2.6,2.6,2.6c7.9,0,14.2-2.4,18.4-7.1c4.3-4.7,6.5-11.7,6.5-20.9v-42h39.9V355.2z"/>
		</g>
		<g>
			<path class="st0" d="M396.9,276.8h-6.6c-1.7,0-2.6,0.9-2.6,2.6v75.8c0,1.7,0.9,2.6,2.6,2.6h6.6c1.7,0,2.6-0.9,2.6-2.6v-75.8
				C399.5,277.7,398.6,276.8,396.9,276.8"/>
		</g>
		<g>
			<path class="st0" d="M320.4,314L320.4,314h30.4c7.7,0,13.1,1.2,16.1,3.5c2.9,2.3,4.4,6.6,4.4,12.7c0,6.5-1.4,10.8-4.3,12.9
				c-2.9,2.1-8.3,3.2-16.2,3.2h-30.4V314z M383.1,330.2c0-9.4-2.4-16.4-7.2-20.8c-4.7-4.4-13-6.7-24.5-6.7h-31.1v-23.2
				c0-1.7-0.9-2.6-2.6-2.6h-6.6c-1.7,0-2.6,0.9-2.6,2.6v75.8c0,1.7,0.9,2.6,2.6,2.6h40.3c11.6,0,19.9-2.2,24.6-6.6
				C380.7,346.9,383.1,339.8,383.1,330.2z"/>
		</g>
		<g>
			<path class="st0" d="M479.6,355.2V349c0-1.7-0.9-2.6-2.6-2.6h-54.2v-24.3h36.8c1.7,0,2.6-0.9,2.6-2.6v-5.9c0-1.7-0.9-2.6-2.6-2.6
				h-36.8v-22.7H477c1.7,0,2.6-0.9,2.6-2.6v-6.3c0-1.7-0.9-2.6-2.6-2.6h-63.4c-1.7,0-2.6,0.9-2.6,2.6v75.8c0,1.7,0.9,2.6,2.6,2.6
				H477C478.7,357.8,479.6,356.9,479.6,355.2"/>
		</g>
	</g>
	<g>
		<g>
			<path class="st0" d="M72.7,377.6H47.8c-9.3,0-16.2,2.3-20.4,7c-4.2,4.6-6.3,11.5-6.3,20.6v0.9c0,1.7,0.9,2.5,2.5,2.5h6.5
				c2.1,0,2.5-1.1,2.5-2.1v-1.7c0-6.1,1.1-10.4,3.4-12.6c2.2-2.2,6.2-3.4,11.8-3.4h24.9c5.6,0,9.6,1.1,11.8,3.4
				c2.2,2.2,3.4,6.5,3.4,12.6v6.3h-36c-1.7,0-2.5,0.9-2.5,2.5v5.8c0,1.7,0.9,2.5,2.5,2.5h36v7.9c0,6.1-1.1,10.3-3.4,12.5
				c-2.2,2.2-6.2,3.4-11.8,3.4H47.8c-5.6,0-9.6-1.1-11.8-3.4c-2.2-2.2-3.4-6.4-3.4-12.5v-2.5c0-1.7-0.9-2.5-2.5-2.5h-6.5
				c-1.7,0-2.5,0.8-2.5,2.4v2.2c0,9,2.1,15.8,6.3,20.5c4.2,4.6,11.1,7,20.4,7h24.9c9.3,0,16.2-2.3,20.4-7c4.2-4.6,6.3-11.5,6.3-20.5
				v-24.4c0-9-2.1-16-6.3-20.6C88.9,380,82,377.6,72.7,377.6"/>
		</g>
		<g>
			<path class="st0" d="M175.7,377.6h-64.8c-1.7,0-2.5,0.9-2.5,2.5v6.1c0,1.7,0.9,2.5,2.5,2.5h26.6v65.6c0,1.7,0.9,2.5,2.5,2.5h6.6
				c1.7,0,2.5-0.9,2.5-2.5v-65.6h26.6c1.7,0,2.5-0.9,2.5-2.5v-6.1C178.2,378.5,177.4,377.6,175.7,377.6"/>
		</g>
		<g>
			<path class="st0" d="M198.5,432.1L198.5,432.1l21-41.6l20.8,41.6H198.5z M226.2,379.4c-0.6-1.2-1.5-1.7-2.8-1.7h-7.8
				c-1.3,0-2.3,0.6-2.8,1.7l-38.2,74.5c-0.4,0.8-0.4,1.6,0,2.2c0.4,0.6,1.1,0.9,2,0.9h7.5c1.3,0,2.3-0.6,2.8-1.7l6.7-13.2h51.8
				l6.6,13.1c0.7,1.2,1.6,1.8,2.8,1.8h7.5c0.9,0,1.6-0.3,2-0.9c0.4-0.6,0.4-1.4,0-2.2L226.2,379.4z"/>
		</g>
		<g>
			<path class="st0" d="M391.2,378.7c-0.3-0.7-1-1-2.1-1h-8.1c-1.1,0-2.1,0.4-3,1.3l-31.1,32.9H338v-31.7c0-1.7-0.9-2.5-2.5-2.5H329
				c-1.7,0-2.5,0.9-2.5,2.5v31.7h-8.7L286.6,379c-0.9-0.9-1.9-1.3-3-1.3h-8.1c-1.1,0-1.8,0.3-2.1,1c-0.3,0.7-0.1,1.5,0.7,2.3
				l33.9,36.1L274,453.7c-0.8,0.8-1,1.6-0.7,2.3c0.3,0.7,1,1,2.1,1h8c1.2,0,2.2-0.4,3-1.3l31.3-32.8h8.7v31.6c0,1.7,0.9,2.5,2.5,2.5
				h6.5c1.7,0,2.5-0.9,2.5-2.5v-31.6h8.7l31.2,32.8c0.8,0.9,1.8,1.3,3,1.3h8c1.1,0,1.8-0.3,2.1-1c0.3-0.7,0.1-1.5-0.7-2.3
				l-33.9-36.6l33.9-36.2C391.3,380.1,391.5,379.3,391.2,378.7"/>
		</g>
		<g>
			<path class="st0" d="M477,377.6h-7c-1.3,0-2.3,0.5-3,1.5l-50.2,60.8v-59.7c0-1.7-0.9-2.5-2.5-2.5h-6.5c-1.7,0-2.5,0.9-2.5,2.5
				v74.3c0,1.7,0.9,2.5,2.5,2.5h7.3c1.3,0,2.3-0.5,3-1.5l50-60.4v59.4c0,1.7,0.9,2.5,2.5,2.5h6.5c1.7,0,2.5-0.9,2.5-2.5v-74.3
				C479.6,378.5,478.7,377.6,477,377.6"/>
		</g>
	</g>
	<g>
		<g>
			<path class="st0" d="M307.8,494.8c-0.4,0-0.6-0.2-0.6-0.6v-16.6c0-0.4,0.2-0.6,0.6-0.6h1.7c0.4,0,0.6,0.2,0.6,0.6v6.9h3.9
				l6.7-7.2c0.2-0.2,0.5-0.4,0.8-0.4h2.3c0.3,0,0.4,0.1,0.5,0.2c0.1,0.2,0,0.3-0.2,0.6l-7.5,8.1l7.4,8.1c0.2,0.2,0.2,0.4,0.2,0.6
				c-0.1,0.2-0.2,0.2-0.5,0.2h-2.2c-0.3,0-0.6-0.1-0.8-0.3l-6.7-7.2h-3.9v6.9c0,0.4-0.2,0.6-0.6,0.6H307.8z"/>
		</g>
		<g>
			<path class="st0" d="M333.5,494.8c-2.5,0-4.3-0.6-5.2-1.7c-0.9-1.1-1.4-2.9-1.4-5.4V484c0-2.4,0.5-4.2,1.4-5.3
				c0.9-1.1,2.7-1.7,5.2-1.7h5.3c2.5,0,4.3,0.6,5.2,1.7s1.4,2.9,1.4,5.3v3.8c0,2.5-0.5,4.3-1.4,5.4s-2.6,1.7-5.2,1.7H333.5z
				 M333.5,492h5.1c1.5,0,2.5-0.3,2.9-0.8c0.5-0.5,0.7-1.6,0.7-3.2v-4.3c0-1.6-0.2-2.6-0.7-3.1c-0.5-0.5-1.5-0.8-2.9-0.8h-5.1
				c-1.5,0-2.5,0.3-2.9,0.8c-0.5,0.5-0.7,1.6-0.7,3.1v4.3c0,1.6,0.2,2.7,0.7,3.2C331.1,491.8,332,492,333.5,492z"/>
		</g>
		<g>
			<path class="st0" d="M370.1,477h1.8c0.4,0,0.5,0.3,0.5,0.6v16.6c0,0.4-0.2,0.6-0.6,0.6h-1.7c-0.4,0-0.6-0.2-0.6-0.6V482l-6.8,9.2
				c-0.2,0.3-0.4,0.5-0.7,0.5h-2.4c-0.3,0-0.6-0.2-0.7-0.5l-6.7-9.2v12.2c0,0.4-0.2,0.6-0.6,0.6h-1.7c-0.4,0-0.6-0.2-0.6-0.6v-16.6
				c0-0.4,0.2-0.6,0.5-0.6h1.8c0.3,0,0.5,0.2,0.7,0.5l8.6,11.3l8.6-11.3C369.5,477.2,369.8,477,370.1,477z"/>
		</g>
		<g>
			<path class="st0" d="M387.4,477c2.5,0,4.3,0.6,5.2,1.7c0.9,1.1,1.4,2.9,1.4,5.4v10.2c0,0.4-0.2,0.6-0.6,0.6h-1.7
				c-0.4,0-0.6-0.2-0.6-0.6v-10.4c0-1.6-0.2-2.7-0.7-3.2c-0.5-0.5-1.4-0.8-2.9-0.8h-4.5c-1.3,0-2.3,0.3-2.8,0.8
				c-0.6,0.5-0.8,1.6-0.8,3.2v10.4c0,0.4-0.2,0.6-0.6,0.6h-1.7c-0.4,0-0.6-0.2-0.6-0.6v-16.6c0-0.4,0.2-0.6,0.6-0.6h1.7
				c0.4,0,0.6,0.2,0.6,0.6v1.7c0.7-1.5,2.4-2.3,5-2.3H387.4z"/>
		</g>
		<g>
			<path class="st0" d="M403.8,494.8c-4.4,0-6.7-1.6-6.7-4.9c0-1.8,0.4-3,1.2-3.8c0.8-0.8,2.3-1.3,4.4-1.6l7.9-0.9
				c0.7-0.1,1-0.5,1-1.3c0-1-0.2-1.7-0.7-2s-1.3-0.5-2.6-0.5h-9.2c-0.4,0-0.6-0.2-0.6-0.6v-1.6c0-0.4,0.2-0.6,0.6-0.6h9.3
				c2.2,0,3.8,0.4,4.8,1.2c0.9,0.8,1.4,2.2,1.4,4v12c0,0.4-0.2,0.6-0.6,0.6h-1.7c-0.4,0-0.6-0.2-0.6-0.6v-2.1c-0.4,1-1,1.7-1.8,2.1
				c-0.8,0.4-2,0.6-3.7,0.6H403.8z M403.8,492.1h3.6c1.6,0,2.8-0.3,3.4-0.9s0.9-1.7,0.9-3.2v-1.7l-8.4,0.9c-1.2,0.1-2.1,0.4-2.5,0.7
				s-0.6,1-0.6,1.8C400.1,491.3,401.4,492.1,403.8,492.1z"/>
		</g>
		<g>
			<path class="st0" d="M421.7,487.4v6.9c0,0.4-0.2,0.6-0.6,0.6h-1.7c-0.4,0-0.6-0.2-0.6-0.6v-16.6c0-0.4,0.2-0.6,0.6-0.6h1.7
				c0.4,0,0.6,0.2,0.6,0.6v6.9h11.8v-6.9c0-0.4,0.2-0.6,0.6-0.6h1.7c0.4,0,0.6,0.2,0.6,0.6v16.6c0,0.4-0.2,0.6-0.6,0.6h-1.7
				c-0.4,0-0.6-0.2-0.6-0.6v-6.9H421.7z"/>
		</g>
		<g>
			<path class="st0" d="M455,477.7c0-0.4,0.2-0.6,0.6-0.6h1.7c0.4,0,0.6,0.2,0.6,0.6v16.6c0,0.4-0.2,0.6-0.6,0.6h-1.7
				c-0.4,0-0.6-0.2-0.6-0.6v-1.7c-0.7,1.6-2.4,2.3-5,2.3h-3c-2.5,0-4.2-0.6-5.2-1.7s-1.4-2.9-1.4-5.4v-10.2c0-0.4,0.2-0.6,0.6-0.6
				h1.7c0.4,0,0.6,0.2,0.6,0.6v10.4c0,1.6,0.2,2.7,0.7,3.2s1.5,0.7,2.9,0.7h4.3c1.4,0,2.3-0.3,2.8-0.8c0.5-0.5,0.8-1.6,0.8-3.2
				V477.7z"/>
		</g>
		<g>
			<path class="st0" d="M472.2,487.7L472.2,487.7l-5.8,6.8c-0.2,0.2-0.5,0.3-0.8,0.3h-2.4c-0.3,0-0.4-0.1-0.5-0.2
				c-0.1-0.2,0-0.3,0.2-0.6l5.6-6.3h-0.1c-2.6,0-4.3-0.6-5.3-1.7c-0.3-0.4-0.6-0.8-0.8-1.4c-0.2-0.7-0.3-1.4-0.3-2.3
				c0-0.9,0.1-1.7,0.3-2.3c0.2-0.6,0.5-1,0.8-1.4c0.9-1.1,2.7-1.7,5.2-1.7H479c0.4,0,0.6,0.2,0.6,0.6v16.6c0,0.4-0.2,0.6-0.6,0.6
				h-1.7c-0.4,0-0.6-0.2-0.6-0.6v-6.5H472.2z M476.6,479.8h-8.3c-1.5,0-2.5,0.3-3,0.8c-0.4,0.4-0.6,1-0.6,1.8c0,0.8,0.2,1.4,0.6,1.8
				c0.4,0.4,1.1,0.6,2.1,0.7h9.1V479.8z"/>
		</g>
	</g>
</g>
</svg>
