<?xml version="1.0" encoding="utf-8"?>
<!-- Generator: Adobe Illustrator 24.3.0, SVG Export Plug-In . SVG Version: 6.00 Build 0)  -->
<svg version="1.1" id="Слой_1" xmlns="http://www.w3.org/2000/svg" xmlns:xlink="http://www.w3.org/1999/xlink" x="0px" y="0px"
	 viewBox="0 0 460.9 46.9" style="enable-background:new 0 0 460.9 46.9;" xml:space="preserve">
<style type="text/css">
	.st0{fill:#E94C53;}
</style>
<g>
	<g>
		<path class="st0" d="M139.4,5.8h-3c-0.5,0-0.9,0.2-1.1,0.5l-11.9,16.7L111.6,6.3c-0.2-0.4-0.6-0.5-1.1-0.5h-3c-0.6,0-1,0.3-1,0.8
			v24.5c0,0.6,0.3,0.8,1,0.8h2.4c0.6,0,1-0.3,1-0.8v-19l10.6,14.7c0.2,0.4,0.6,0.5,1.1,0.5h1.7c0.5,0,0.9-0.2,1.1-0.5L136,12.2v18.9
			c0,0.6,0.3,0.8,1,0.8h2.4c0.6,0,1-0.3,1-0.8V6.7C140.4,6.1,140.1,5.8,139.4,5.8"/>
	</g>
	<g>
		<path class="st0" d="M152.3,23.8L152.3,23.8l7.9-13.7l7.8,13.7H152.3z M162.7,6.4c-0.2-0.4-0.6-0.6-1.1-0.6h-2.9
			c-0.5,0-0.9,0.2-1.1,0.6L143.3,31c-0.2,0.3-0.2,0.5,0,0.7c0.1,0.2,0.4,0.3,0.7,0.3h2.8c0.5,0,0.9-0.2,1.1-0.6l2.5-4.4h19.4
			l2.5,4.3c0.2,0.4,0.6,0.6,1.1,0.6h2.8c0.3,0,0.6-0.1,0.7-0.3c0.1-0.2,0.1-0.4,0-0.7L162.7,6.4z"/>
	</g>
	<g>
		<path class="st0" d="M203.5,31.2c0,0.6,0.3,0.8,1,0.8h2.5c0.6,0,1-0.3,1-0.8V6.7c0-0.6-0.3-0.8-1-0.8h-21.5c-0.6,0-1,0.3-1,0.8
			v16.4c0,2-0.4,3.4-1.2,4.1c-0.8,0.7-2,1.1-3.6,1.1c-0.6,0-1,0.3-1,0.8v2c0,0.6,0.3,0.8,1,0.8c2.9,0,5.2-0.8,6.8-2.3
			c1.6-1.5,2.4-3.8,2.4-6.8V9.4h14.7V31.2z"/>
	</g>
	<g>
		<path class="st0" d="M244.7,5.8h-2.4c-0.6,0-1,0.3-1,0.8v24.5c0,0.6,0.3,0.8,1,0.8h2.4c0.6,0,1-0.3,1-0.8V6.7
			C245.7,6.1,245.3,5.8,244.7,5.8"/>
	</g>
	<g>
		<path class="st0" d="M216.6,17.8L216.6,17.8h11.2c2.8,0,4.8,0.4,5.9,1.1c1.1,0.7,1.6,2.1,1.6,4.1c0,2.1-0.5,3.5-1.6,4.2
			c-1,0.7-3.1,1-6,1h-11.2V17.8z M239.6,23.1c0-3-0.9-5.3-2.6-6.7c-1.7-1.4-4.8-2.2-9-2.2h-11.4V6.7c0-0.6-0.3-0.8-1-0.8h-2.4
			c-0.6,0-1,0.3-1,0.8v24.5c0,0.6,0.3,0.8,1,0.8H228c4.3,0,7.3-0.7,9-2.1C238.8,28.5,239.6,26.2,239.6,23.1z"/>
	</g>
	<g>
		<path class="st0" d="M275.1,31.2v-2c0-0.6-0.3-0.8-1-0.8h-19.9v-7.9h13.5c0.6,0,1-0.3,1-0.8v-1.9c0-0.6-0.3-0.8-1-0.8h-13.5V9.5
			h19.9c0.6,0,1-0.3,1-0.8v-2c0-0.6-0.3-0.8-1-0.8h-23.3c-0.6,0-1,0.3-1,0.8v24.5c0,0.6,0.3,0.8,1,0.8h23.3
			C274.8,32,275.1,31.7,275.1,31.2"/>
	</g>
	<g>
		<path class="st0" d="M308.3,5.8H299c-3.5,0-6.1,0.8-7.7,2.3c-1.6,1.5-2.4,3.8-2.4,6.8v0.3c0,0.6,0.3,0.8,1,0.8h2.4
			c0.8,0,1-0.4,1-0.7v-0.6c0-2,0.4-3.4,1.3-4.2c0.8-0.7,2.3-1.1,4.4-1.1h9.3c2.1,0,3.6,0.4,4.4,1.1c0.8,0.7,1.3,2.1,1.3,4.2v2.1
			h-13.5c-0.6,0-1,0.3-1,0.8v1.9c0,0.6,0.3,0.8,1,0.8H314v2.6c0,2-0.4,3.4-1.3,4.1c-0.8,0.7-2.3,1.1-4.4,1.1H299
			c-2.1,0-3.6-0.4-4.4-1.1c-0.8-0.7-1.3-2.1-1.3-4.1v-0.8c0-0.6-0.3-0.8-1-0.8h-2.4c-0.6,0-1,0.3-1,0.8V23c0,3,0.8,5.2,2.4,6.8
			c1.6,1.5,4.2,2.3,7.7,2.3h9.3c3.5,0,6.1-0.8,7.7-2.3c1.6-1.5,2.4-3.8,2.4-6.8v-8.1c0-3-0.8-5.3-2.4-6.8
			C314.4,6.6,311.8,5.8,308.3,5.8"/>
	</g>
	<g>
		<path class="st0" d="M346.9,5.8h-24.3c-0.6,0-1,0.3-1,0.8v2c0,0.6,0.3,0.8,1,0.8h10v21.7c0,0.6,0.3,0.8,1,0.8h2.5
			c0.6,0,1-0.3,1-0.8V9.5h10c0.6,0,1-0.3,1-0.8v-2C347.9,6.1,347.6,5.8,346.9,5.8"/>
	</g>
	<g>
		<path class="st0" d="M355.5,23.8L355.5,23.8l7.9-13.7l7.8,13.7H355.5z M365.9,6.4c-0.2-0.4-0.6-0.6-1.1-0.6h-2.9
			c-0.5,0-0.9,0.2-1.1,0.6L346.5,31c-0.2,0.3-0.2,0.5,0,0.7c0.1,0.2,0.4,0.3,0.7,0.3h2.8c0.5,0,0.9-0.2,1.1-0.6l2.5-4.4H373l2.5,4.3
			c0.2,0.4,0.6,0.6,1.1,0.6h2.8c0.3,0,0.6-0.1,0.7-0.3c0.1-0.2,0.1-0.4,0-0.7L365.9,6.4z"/>
	</g>
	<g>
		<path class="st0" d="M427.7,6.2c-0.1-0.2-0.4-0.3-0.8-0.3h-3.1c-0.4,0-0.8,0.1-1.1,0.4l-11.7,10.9h-3.3V6.7c0-0.6-0.3-0.8-1-0.8
			h-2.4c-0.6,0-1,0.3-1,0.8v10.5h-3.3L388.5,6.2c-0.3-0.3-0.7-0.4-1.1-0.4h-3.1c-0.4,0-0.7,0.1-0.8,0.3c-0.1,0.2,0,0.5,0.3,0.8
			l12.7,11.9l-12.7,12.1c-0.3,0.3-0.4,0.5-0.2,0.8c0.1,0.2,0.4,0.3,0.8,0.3h3c0.5,0,0.8-0.1,1.1-0.4l11.7-10.8h3.3v10.4
			c0,0.6,0.3,0.8,1,0.8h2.4c0.6,0,1-0.3,1-0.8V20.8h3.3l11.7,10.8c0.3,0.3,0.7,0.4,1.1,0.4h3c0.4,0,0.7-0.1,0.8-0.3
			c0.1-0.2,0-0.5-0.3-0.8l-12.7-12.1l12.7-11.9C427.7,6.6,427.8,6.4,427.7,6.2"/>
	</g>
	<g>
		<path class="st0" d="M459.9,5.8h-2.6c-0.5,0-0.9,0.2-1.1,0.5l-18.8,20.1V6.7c0-0.6-0.3-0.8-1-0.8h-2.4c-0.6,0-1,0.3-1,0.8v24.5
			c0,0.6,0.3,0.8,1,0.8h2.7c0.5,0,0.9-0.2,1.1-0.5l18.7-20v19.6c0,0.6,0.3,0.8,1,0.8h2.4c0.6,0,1-0.3,1-0.8V6.7
			C460.9,6.1,460.5,5.8,459.9,5.8"/>
	</g>
	<g>
		<path class="st0" d="M108.3,39.8c0.2-0.2,0.7-0.3,1.4-0.3h2.4c0.7,0,1.1,0.1,1.3,0.3c0.2,0.2,0.3,0.6,0.4,1.2
			c0,0.2,0.1,0.3,0.3,0.3h0.8c0.2,0,0.3-0.1,0.3-0.3c0-1-0.3-1.6-0.7-2c-0.5-0.4-1.2-0.6-2.3-0.6h-2.4c-1.2,0-2,0.2-2.4,0.7
			c-0.4,0.5-0.6,1.2-0.6,2.2v1.6c0,1,0.2,1.8,0.6,2.2c0.4,0.5,1.2,0.7,2.4,0.7h2.4c1.1,0,1.9-0.2,2.3-0.6c0.5-0.4,0.7-1.1,0.7-2.1
			c0-0.2-0.1-0.3-0.3-0.3H114c-0.2,0-0.3,0.1-0.3,0.3c0,0.6-0.1,1-0.4,1.2c-0.2,0.2-0.7,0.3-1.3,0.3h-2.4c-0.7,0-1.1-0.1-1.4-0.3
			c-0.2-0.2-0.3-0.6-0.3-1.3v-1.8C107.9,40.5,108.1,40,108.3,39.8"/>
	</g>
	<g>
		<path class="st0" d="M133.3,38.4H133c-1.3,0-2.2,0.4-2.6,1.1c-0.4-0.7-1.2-1.1-2.6-1.1h-0.3c-1.2,0-2,0.3-2.3,0.9v-0.7
			c0-0.2-0.1-0.3-0.3-0.3H124c-0.2,0-0.3,0.1-0.3,0.3v6.8c0,0.2,0.1,0.3,0.3,0.3h0.8c0.2,0,0.3-0.1,0.3-0.3v-4.3
			c0-0.7,0.1-1.1,0.4-1.3c0.3-0.2,0.7-0.3,1.3-0.3h0.8c0.7,0,1.1,0.1,1.3,0.3c0.2,0.2,0.3,0.6,0.3,1.3v4.3c0,0.2,0.1,0.3,0.3,0.3
			h0.8c0.2,0,0.3-0.1,0.3-0.3v-4.3c0-0.7,0.1-1.1,0.4-1.3c0.3-0.2,0.7-0.3,1.3-0.3h0.8c0.7,0,1.1,0.1,1.4,0.3
			c0.2,0.2,0.3,0.6,0.3,1.3v4.3c0,0.2,0.1,0.3,0.3,0.3h0.8c0.2,0,0.3-0.1,0.3-0.3v-4.2c0-1-0.2-1.7-0.6-2.2
			C135.3,38.6,134.5,38.4,133.3,38.4"/>
	</g>
	<g>
		<path class="st0" d="M152.4,42.9L152.4,42.9c0,0.7-0.1,1.1-0.3,1.3c-0.2,0.2-0.7,0.3-1.3,0.3h-2.4c-0.6,0-1.1-0.1-1.3-0.3
			c-0.3-0.2-0.4-0.6-0.4-1.3v-1.8c0-0.6,0.1-1.1,0.4-1.3c0.3-0.2,0.7-0.3,1.3-0.3h2.4c0.7,0,1.1,0.1,1.3,0.3
			c0.2,0.2,0.3,0.6,0.3,1.3V42.9z M150.8,38.4H149c-1.2,0-2,0.3-2.3,0.9v-0.7c0-0.2-0.1-0.3-0.3-0.3h-0.8c-0.2,0-0.3,0.1-0.3,0.3
			v8.1c0,0.2,0.1,0.3,0.3,0.3h0.8c0.2,0,0.3-0.1,0.3-0.3v-2c0.3,0.6,1.1,0.9,2.3,0.9h1.8c1.2,0,2-0.2,2.4-0.7
			c0.4-0.5,0.6-1.2,0.6-2.2v-1.6c0-1-0.2-1.7-0.6-2.2C152.8,38.6,151.9,38.4,150.8,38.4z"/>
	</g>
	<g>
		<path class="st0" d="M169.7,42.9L169.7,42.9c0,0.7-0.1,1.1-0.3,1.3c-0.2,0.2-0.7,0.3-1.4,0.3h-2.4c-0.7,0-1.1-0.1-1.4-0.3
			c-0.2-0.2-0.3-0.6-0.3-1.3v-1.8c0-0.6,0.1-1.1,0.3-1.3c0.2-0.2,0.7-0.3,1.4-0.3h2.4c0.7,0,1.1,0.1,1.4,0.3
			c0.2,0.2,0.3,0.6,0.3,1.3V42.9z M168,38.4h-2.4c-1.2,0-2,0.2-2.4,0.7c-0.4,0.5-0.6,1.2-0.6,2.2v1.6c0,1,0.2,1.8,0.6,2.2
			c0.4,0.5,1.2,0.7,2.4,0.7h2.4c1.2,0,2-0.2,2.4-0.7c0.4-0.5,0.6-1.2,0.6-2.2v-1.6c0-1-0.2-1.7-0.6-2.2
			C170,38.6,169.2,38.4,168,38.4z"/>
	</g>
	<g>
		<path class="st0" d="M187.7,38.4h-0.8c-0.2,0-0.3,0.1-0.3,0.3v4.3c0,0.7-0.1,1.1-0.4,1.3c-0.3,0.2-0.7,0.3-1.3,0.3h-2
			c-0.7,0-1.1-0.1-1.4-0.3c-0.2-0.2-0.3-0.6-0.3-1.3v-4.3c0-0.2-0.1-0.3-0.3-0.3h-0.8c-0.2,0-0.3,0.1-0.3,0.3v4.2
			c0,1,0.2,1.7,0.6,2.2c0.4,0.5,1.2,0.7,2.4,0.7h1.4c1.2,0,2-0.3,2.3-1v0.7c0,0.2,0.1,0.3,0.3,0.3h0.8c0.2,0,0.3-0.1,0.3-0.3v-6.8
			C188,38.5,187.9,38.4,187.7,38.4"/>
	</g>
	<g>
		<path class="st0" d="M206.7,38.4h-0.3c-1.3,0-2.2,0.4-2.6,1.1c-0.4-0.7-1.2-1.1-2.6-1.1h-0.3c-1.2,0-2,0.3-2.3,0.9v-0.7
			c0-0.2-0.1-0.3-0.3-0.3h-0.8c-0.2,0-0.3,0.1-0.3,0.3v6.8c0,0.2,0.1,0.3,0.3,0.3h0.8c0.2,0,0.3-0.1,0.3-0.3v-4.3
			c0-0.7,0.1-1.1,0.4-1.3c0.3-0.2,0.7-0.3,1.3-0.3h0.8c0.7,0,1.1,0.1,1.3,0.3c0.2,0.2,0.3,0.6,0.3,1.3v4.3c0,0.2,0.1,0.3,0.3,0.3
			h0.8c0.2,0,0.3-0.1,0.3-0.3v-4.3c0-0.7,0.1-1.1,0.4-1.3c0.3-0.2,0.7-0.3,1.3-0.3h0.8c0.7,0,1.1,0.1,1.4,0.3
			c0.2,0.2,0.3,0.6,0.3,1.3v4.3c0,0.2,0.1,0.3,0.3,0.3h0.8c0.2,0,0.3-0.1,0.3-0.3v-4.2c0-1-0.2-1.7-0.6-2.2
			C208.6,38.6,207.8,38.4,206.7,38.4"/>
	</g>
	<g>
		<path class="st0" d="M225.2,41.5L225.2,41.5h-5.4v-0.4c0-0.6,0.1-1.1,0.3-1.3c0.2-0.2,0.7-0.3,1.4-0.3h2c0.7,0,1.1,0.1,1.4,0.3
			c0.2,0.2,0.3,0.6,0.3,1.3V41.5z M223.5,38.4h-2.1c-1.2,0-2,0.2-2.4,0.7c-0.4,0.5-0.6,1.2-0.6,2.2v1.6c0,1,0.2,1.8,0.6,2.2
			c0.4,0.5,1.2,0.7,2.4,0.7h4.2c0.2,0,0.3-0.1,0.3-0.3v-0.6c0-0.2-0.1-0.3-0.3-0.3h-4.1c-0.7,0-1.1-0.1-1.4-0.3
			c-0.2-0.2-0.3-0.6-0.3-1.3v-0.2h6.5c0.2,0,0.3-0.1,0.3-0.3v-1.2c0-1-0.2-1.7-0.6-2.2C225.5,38.6,224.7,38.4,223.5,38.4z"/>
	</g>
	<g>
		<path class="st0" d="M243.3,38.4h-6.5c-0.2,0-0.3,0.1-0.3,0.3v4.3c0,0.6-0.1,1-0.4,1.3c-0.2,0.2-0.5,0.4-0.8,0.4
			c-0.2,0-0.3,0.1-0.3,0.3v0.6c0,0.2,0.1,0.3,0.3,0.3c0.8,0,1.4-0.2,1.8-0.7c0.5-0.5,0.7-1.2,0.7-2.2v-3.3h4.3v5.9
			c0,0.2,0.1,0.3,0.3,0.3h0.8c0.2,0,0.3-0.1,0.3-0.3v-6.8C243.6,38.4,243.5,38.4,243.3,38.4"/>
	</g>
	<g>
		<path class="st0" d="M258.9,44.2L258.9,44.2c-0.2,0.2-0.7,0.3-1.4,0.3h-3.8v-2.1h4.2c0.5,0,0.8,0.1,1,0.3c0.2,0.1,0.3,0.4,0.3,0.7
			C259.2,43.8,259.1,44,258.9,44.2 M260,42c-0.4-0.5-1.2-0.7-2.4-0.7h-3.8v-2.7c0-0.2-0.1-0.3-0.3-0.3h-0.8c-0.2,0-0.3,0.1-0.3,0.3
			v6.8c0,0.2,0.1,0.3,0.3,0.3h5c1.2,0,2-0.2,2.4-0.7c0.1-0.2,0.3-0.3,0.4-0.6c0.1-0.3,0.2-0.6,0.2-0.9c0-0.4-0.1-0.7-0.2-0.9
			C260.2,42.3,260.1,42.1,260,42z"/>
	</g>
	<g>
		<path class="st0" d="M277.3,38.4h-0.8c-0.2,0-0.3,0.1-0.3,0.3v2.8h-5.5v-2.8c0-0.2-0.1-0.3-0.3-0.3h-0.8c-0.2,0-0.3,0.1-0.3,0.3
			v6.8c0,0.2,0.1,0.3,0.3,0.3h0.8c0.2,0,0.3-0.1,0.3-0.3v-2.8h5.5v2.8c0,0.2,0.1,0.3,0.3,0.3h0.8c0.2,0,0.3-0.1,0.3-0.3v-6.8
			C277.6,38.4,277.5,38.4,277.3,38.4"/>
	</g>
	<g>
		<path class="st0" d="M292.9,42.8L292.9,42.8c0,0.6-0.1,1.1-0.4,1.3c-0.3,0.3-0.8,0.4-1.6,0.4h-1.7c-1.1,0-1.7-0.3-1.7-1
			c0-0.4,0.1-0.6,0.3-0.8c0.2-0.1,0.6-0.2,1.2-0.3l3.9-0.4V42.8z M291.4,38.4h-4.3c-0.2,0-0.3,0.1-0.3,0.3v0.6
			c0,0.2,0.1,0.3,0.3,0.3h4.3c0.6,0,1,0.1,1.2,0.2c0.2,0.1,0.3,0.4,0.3,0.8c0,0.3-0.2,0.5-0.5,0.5l-3.7,0.4c-1,0.1-1.7,0.3-2.1,0.6
			c-0.4,0.3-0.6,0.9-0.6,1.6c0,1.3,1,2,3.1,2h1.1c0.8,0,1.4-0.1,1.7-0.3c0.4-0.2,0.7-0.5,0.8-0.9v0.9c0,0.2,0.1,0.3,0.3,0.3h0.8
			c0.2,0,0.3-0.1,0.3-0.3v-4.9c0-0.8-0.2-1.3-0.7-1.6C293.2,38.5,292.4,38.4,291.4,38.4z"/>
	</g>
	<g>
		<path class="st0" d="M339.4,38.6c0-0.1-0.1-0.1-0.2-0.1h-1c-0.1,0-0.3,0-0.4,0.1l-3.1,3h-1.8v-2.8c0-0.2-0.1-0.3-0.3-0.3h-0.8
			c-0.2,0-0.3,0.1-0.3,0.3v6.8c0,0.2,0.1,0.3,0.3,0.3h0.8c0.2,0,0.3-0.1,0.3-0.3v-2.8h1.8l3.1,2.9c0.1,0.1,0.2,0.1,0.4,0.1h1
			c0.1,0,0.2,0,0.2-0.1c0-0.1,0-0.1-0.1-0.2l-3.4-3.3l3.5-3.3C339.4,38.7,339.5,38.6,339.4,38.6"/>
	</g>
	<g>
		<path class="st0" d="M354.8,43L354.8,43c0,0.7-0.1,1.1-0.3,1.3c-0.2,0.2-0.7,0.3-1.4,0.3h-2.4c-0.7,0-1.1-0.1-1.4-0.3
			c-0.2-0.2-0.3-0.6-0.3-1.3v-1.8c0-0.6,0.1-1.1,0.3-1.3c0.2-0.2,0.7-0.3,1.4-0.3h2.4c0.7,0,1.1,0.1,1.4,0.3
			c0.2,0.2,0.3,0.6,0.3,1.3V43z M353.2,38.5h-2.4c-1.2,0-2,0.2-2.4,0.7c-0.4,0.5-0.6,1.2-0.6,2.2v1.6c0,1,0.2,1.8,0.6,2.2
			c0.4,0.5,1.2,0.7,2.4,0.7h2.4c1.2,0,2-0.2,2.4-0.7c0.4-0.5,0.6-1.2,0.6-2.2v-1.6c0-1-0.2-1.7-0.6-2.2
			C355.2,38.7,354.4,38.5,353.2,38.5z"/>
	</g>
	<g>
		<path class="st0" d="M375.6,38.5h-0.8c-0.1,0-0.2,0.1-0.3,0.2l-4,4.6l-4-4.6c-0.1-0.1-0.2-0.2-0.3-0.2h-0.8
			c-0.2,0-0.3,0.1-0.3,0.3v6.8c0,0.2,0.1,0.3,0.3,0.3h0.8c0.2,0,0.3-0.1,0.3-0.3v-5l3.1,3.8c0.1,0.1,0.2,0.2,0.3,0.2h1.1
			c0.1,0,0.3-0.1,0.3-0.2l3.1-3.8v5c0,0.2,0.1,0.3,0.3,0.3h0.8c0.2,0,0.3-0.1,0.3-0.3v-6.8C375.9,38.6,375.8,38.5,375.6,38.5"/>
	</g>
	<g>
		<path class="st0" d="M389.9,38.5h-1.5c-1.2,0-2,0.3-2.3,0.9v-0.7c0-0.2-0.1-0.3-0.3-0.3H385c-0.2,0-0.3,0.1-0.3,0.3v6.8
			c0,0.2,0.1,0.3,0.3,0.3h0.8c0.2,0,0.3-0.1,0.3-0.3v-4.3c0-0.7,0.1-1.1,0.4-1.3c0.3-0.2,0.7-0.3,1.3-0.3h2.1c0.7,0,1.1,0.1,1.3,0.3
			c0.2,0.2,0.3,0.6,0.3,1.3v4.3c0,0.2,0.1,0.3,0.3,0.3h0.8c0.2,0,0.3-0.1,0.3-0.3v-4.2c0-1-0.2-1.8-0.6-2.2
			C391.9,38.7,391.1,38.5,389.9,38.5"/>
	</g>
	<g>
		<path class="st0" d="M408.2,43L408.2,43c0,0.6-0.1,1.1-0.4,1.3c-0.3,0.3-0.8,0.4-1.6,0.4h-1.7c-1.1,0-1.7-0.3-1.7-1
			c0-0.4,0.1-0.6,0.3-0.8c0.2-0.1,0.6-0.2,1.2-0.3l3.9-0.4V43z M406.7,38.5h-4.3c-0.2,0-0.3,0.1-0.3,0.3v0.6c0,0.2,0.1,0.3,0.3,0.3
			h4.3c0.6,0,1,0.1,1.2,0.2c0.2,0.1,0.3,0.4,0.3,0.8c0,0.3-0.2,0.5-0.5,0.5l-3.7,0.4c-1,0.1-1.7,0.3-2.1,0.6
			c-0.4,0.3-0.6,0.9-0.6,1.6c0,1.3,1,2,3.1,2h1.1c0.8,0,1.4-0.1,1.7-0.3c0.4-0.2,0.7-0.5,0.8-0.9v0.9c0,0.2,0.1,0.3,0.3,0.3h0.8
			c0.2,0,0.3-0.1,0.3-0.3v-4.9c0-0.8-0.2-1.3-0.7-1.6C408.5,38.6,407.7,38.5,406.7,38.5z"/>
	</g>
	<g>
		<path class="st0" d="M426.5,38.5h-0.8c-0.2,0-0.3,0.1-0.3,0.3v2.8h-5.5v-2.8c0-0.2-0.1-0.3-0.3-0.3h-0.8c-0.2,0-0.3,0.1-0.3,0.3
			v6.8c0,0.2,0.1,0.3,0.3,0.3h0.8c0.2,0,0.3-0.1,0.3-0.3v-2.8h5.5v2.8c0,0.2,0.1,0.3,0.3,0.3h0.8c0.2,0,0.3-0.1,0.3-0.3v-6.8
			C426.8,38.6,426.7,38.5,426.5,38.5"/>
	</g>
	<g>
		<path class="st0" d="M443.5,38.5h-0.8c-0.2,0-0.3,0.1-0.3,0.3V43c0,0.7-0.1,1.1-0.4,1.3c-0.3,0.2-0.7,0.3-1.3,0.3h-2
			c-0.7,0-1.1-0.1-1.4-0.3c-0.2-0.2-0.3-0.6-0.3-1.3v-4.3c0-0.2-0.1-0.3-0.3-0.3h-0.8c-0.2,0-0.3,0.1-0.3,0.3v4.2
			c0,1,0.2,1.7,0.6,2.2c0.4,0.5,1.2,0.7,2.4,0.7h1.4c1.2,0,2-0.3,2.3-1v0.7c0,0.2,0.1,0.3,0.3,0.3h0.8c0.2,0,0.3-0.1,0.3-0.3v-6.8
			C443.8,38.6,443.7,38.5,443.5,38.5"/>
	</g>
	<g>
		<path class="st0" d="M459.5,41.7L459.5,41.7h-4.2c-0.5,0-0.8-0.1-1-0.3c-0.2-0.1-0.3-0.4-0.3-0.7c0-0.3,0.1-0.6,0.3-0.7
			c0.2-0.2,0.7-0.3,1.4-0.3h3.8V41.7z M460.6,38.5h-5c-1.2,0-2,0.2-2.4,0.7c-0.1,0.2-0.3,0.3-0.4,0.6c-0.1,0.3-0.2,0.6-0.2,0.9
			c0,0.4,0.1,0.7,0.2,0.9c0.1,0.2,0.2,0.4,0.4,0.6c0.4,0.5,1.2,0.7,2.4,0.7h0.1l-2.6,2.6c-0.1,0.1-0.1,0.2-0.1,0.2
			c0,0.1,0.1,0.1,0.2,0.1h1.1c0.1,0,0.3,0,0.4-0.1l2.7-2.8l0,0h2v2.7c0,0.2,0.1,0.3,0.3,0.3h0.8c0.2,0,0.3-0.1,0.3-0.3v-6.8
			C460.9,38.6,460.8,38.5,460.6,38.5z"/>
	</g>
	<g>
		<path class="st0" d="M309.9,41.6L309.9,41.6h-4.2c-0.5,0-0.8-0.1-1-0.3c-0.2-0.1-0.3-0.4-0.3-0.7c0-0.3,0.1-0.6,0.3-0.7
			c0.2-0.2,0.7-0.3,1.4-0.3h3.8V41.6z M310.9,38.4h-5c-1.2,0-2,0.2-2.4,0.7c-0.1,0.2-0.3,0.3-0.4,0.6c-0.1,0.3-0.2,0.6-0.2,0.9
			c0,0.4,0.1,0.7,0.2,0.9c0.1,0.2,0.2,0.4,0.4,0.6c0.4,0.5,1.2,0.7,2.4,0.7h0.1l-2.6,2.6c-0.1,0.1-0.1,0.2-0.1,0.2
			c0,0.1,0.1,0.1,0.2,0.1h1.1c0.1,0,0.3,0,0.4-0.1l2.7-2.8l0,0h2v2.7c0,0.2,0.1,0.3,0.3,0.3h0.8c0.2,0,0.3-0.1,0.3-0.3v-6.8
			C311.2,38.4,311.1,38.4,310.9,38.4z"/>
	</g>
	<g>
		<g>
			<path class="st0" d="M55.3,42.3L55.3,42.3V20.9L29.5,4.2L3.8,20.9v21.4H55.3z M0,45.7V19.2L29.5,0l29.5,19.2v26.4H0z"/>
		</g>
		<g>
			<polygon class="st0" points="63,45.7 63,42.3 88.3,42.3 88.3,20.9 62.5,4.2 52.4,10.4 49.3,8.3 62.5,0 92.1,19.2 92.1,45.7 			
				"/>
		</g>
	</g>
</g>
</svg>
