<svg width="46" height="42" viewBox="0 0 46 42" fill="none" xmlns="http://www.w3.org/2000/svg">
<path fill-rule="evenodd" clip-rule="evenodd" d="M5.95808 13.1383L18.6247 1.87904C21.0244 -0.25395 24.6404 -0.25395 27.04 1.87904L39.7067 13.1383C41.0588 14.3402 41.8324 16.0629 41.8324 17.8719V38.7778H43.9435C44.818 38.7778 45.5268 39.4867 45.5268 40.3611C45.5268 41.2356 44.818 41.9445 43.9435 41.9445H1.72127C0.846822 41.9445 0.137939 41.2356 0.137939 40.3611C0.137939 39.4867 0.846822 38.7778 1.72127 38.7778H3.83238V17.8719C3.83238 16.0629 4.60599 14.3402 5.95808 13.1383ZM17.0268 12.9167C17.0268 12.0422 17.7357 11.3334 18.6102 11.3334H27.0546C27.9291 11.3334 28.6379 12.0422 28.6379 12.9167C28.6379 13.7911 27.9291 14.5 27.0546 14.5H18.6102C17.7357 14.5 17.0268 13.7911 17.0268 12.9167ZM27.1644 17.6667C29.0612 17.6666 30.6429 17.6666 31.8985 17.8354C33.2239 18.0136 34.4204 18.4056 35.382 19.3671C36.3435 20.3286 36.7355 21.5252 36.9137 22.8506C37.0825 24.1062 37.0825 25.6879 37.0824 27.5847L37.0824 38.7778H33.9157V27.6945C33.9157 25.6593 33.9124 24.2923 33.7753 23.2725C33.6443 22.2983 33.4179 21.8814 33.1428 21.6063C32.8677 21.3312 32.4508 21.1048 31.4766 20.9738C30.4568 20.8367 29.0897 20.8334 27.0546 20.8334H18.6102C16.575 20.8334 15.208 20.8367 14.1882 20.9738C13.214 21.1048 12.7971 21.3312 12.522 21.6063C12.2469 21.8814 12.0205 22.2983 11.8895 23.2725C11.7524 24.2923 11.7491 25.6593 11.7491 27.6945V38.7778H8.58238L8.58238 27.5847C8.58232 25.6879 8.58227 24.1062 8.75109 22.8506C8.92927 21.5252 9.32125 20.3286 10.2828 19.3671C11.2443 18.4056 12.4409 18.0136 13.7663 17.8354C15.0219 17.6666 16.6036 17.6666 18.5004 17.6667H27.1644ZM14.9157 26.6389C14.9157 25.7645 15.6246 25.0556 16.4991 25.0556H29.1657C30.0402 25.0556 30.7491 25.7645 30.7491 26.6389C30.7491 27.5134 30.0402 28.2222 29.1657 28.2222H16.4991C15.6246 28.2222 14.9157 27.5134 14.9157 26.6389ZM14.9157 32.9722C14.9157 32.0978 15.6246 31.3889 16.4991 31.3889H29.1657C30.0402 31.3889 30.7491 32.0978 30.7491 32.9722C30.7491 33.8467 30.0402 34.5556 29.1657 34.5556H16.4991C15.6246 34.5556 14.9157 33.8467 14.9157 32.9722Z" fill="#F04B54"/>
</svg>
