<svg width="36" height="36" viewBox="0 0 36 36" fill="none" xmlns="http://www.w3.org/2000/svg">
<rect x="0.00012207" width="36" height="36" rx="18" fill="#FCDBDD"/>
<path d="M15.9207 13.4077L15.921 13.4083C16.0523 13.7008 16.2697 14.2302 16.4431 14.6526L16.4465 14.6609C16.515 14.8277 16.5768 14.9782 16.625 15.0939C16.6491 15.1518 16.6692 15.1997 16.6847 15.236C16.6985 15.2681 16.7055 15.2835 16.7075 15.288C16.7081 15.2891 16.7083 15.2895 16.7081 15.2893C16.8083 15.4887 16.9104 15.8118 16.7304 16.1808L15.9207 13.4077ZM15.9207 13.4077C15.8 13.1396 15.6433 12.9281 15.4224 12.8001M15.9207 13.4077L15.4224 12.8001M19.2542 19.965C19.1999 19.938 19.132 19.9087 19.0694 19.8817L19.0603 19.8778L19.0592 19.8773C18.7139 19.7283 18.0553 19.4441 17.2913 18.7639L17.2904 18.7631C16.6441 18.1904 16.1813 17.4832 16.0003 17.1828C16.0875 17.0945 16.1809 16.9816 16.2564 16.8903L16.2654 16.8795C16.3147 16.8199 16.3591 16.7663 16.4008 16.7184L16.4009 16.7183C16.5586 16.5371 16.6309 16.3871 16.6993 16.2451L16.7032 16.2371L16.7032 16.2371L16.7304 16.1809L15.9546 17.1104L15.9258 17.127L15.9256 17.1272L15.5241 17.3599M19.2542 19.965L19.245 19.9834C19.2495 19.9782 19.2541 19.9728 19.2589 19.9673M19.2542 19.965C19.2542 19.965 19.2542 19.9649 19.2541 19.9649L19.2448 19.9836C19.2326 19.9978 19.2215 20.0108 19.2116 20.0223L19.2116 20.0223C19.1987 20.0372 19.1991 20.0333 19.2136 20.0241C19.2136 20.0241 19.2136 20.0241 19.2136 20.0241C19.2142 20.0237 19.2147 20.0234 19.2153 20.023C19.2192 20.0207 19.2238 20.0181 19.229 20.0155L19.2214 20.0307L19.2214 20.0308L19.0314 20.4126M19.2542 19.965C19.2558 19.9658 19.2573 19.9665 19.2589 19.9673M19.2589 19.9673C19.2995 19.9872 19.3218 19.9942 19.3298 19.9963C19.3309 19.9966 19.3315 19.9967 19.3315 19.9967C19.3315 19.9967 19.3173 19.9938 19.2934 19.9966C19.2793 19.9983 19.2645 20.0016 19.2499 20.0068C19.2421 20.0095 19.2351 20.0125 19.229 20.0155L19.2214 20.0308L19.2214 20.0308L19.0314 20.4126M19.2589 19.9673C19.4479 19.747 19.8502 19.2736 19.9911 19.0662M19.0314 20.4126C19.2887 20.5406 19.442 20.5209 19.5904 20.3486C19.7389 20.1762 20.2335 19.6001 20.4067 19.3441M19.0314 20.4126C18.9896 20.3918 18.9326 20.3672 18.8623 20.3368C18.4999 20.1805 17.7831 19.8712 16.9588 19.1373C16.192 18.4579 15.6726 17.6159 15.5241 17.3599M19.9911 19.0662C19.9903 19.0673 19.9896 19.0685 19.9888 19.0696L20.4067 19.3441M19.9911 19.0662C19.9916 19.0654 19.9921 19.0647 19.9926 19.064L20.4067 19.3441M19.9911 19.0662C20.1288 18.858 20.3292 18.6876 20.6116 18.6544C20.8386 18.6276 21.0467 18.7053 21.1558 18.746L21.1603 18.7477L21.1603 18.7477C21.3064 18.8022 21.7097 18.9933 22.0754 19.1693C22.4555 19.3523 22.8384 19.5404 22.9692 19.6055L22.9693 19.6055C23.0164 19.629 23.0608 19.6502 23.1052 19.6715L22.889 20.1224M20.4067 19.3441C20.5749 19.0881 20.748 19.1275 20.9855 19.2161C21.2229 19.3047 22.4893 19.9251 22.7465 20.0531C22.7973 20.0784 22.8449 20.1012 22.889 20.1224M15.5241 17.3599L15.9255 17.1271L15.9258 17.127L15.9545 17.1103L16.0238 16.3899C15.9772 16.4435 15.9286 16.5022 15.8802 16.5607C15.7951 16.6636 15.7105 16.7658 15.638 16.838C15.5094 16.9659 15.3757 17.1039 15.5241 17.3599ZM22.889 20.1224C23.0679 20.2082 23.1896 20.2665 23.2412 20.3535M22.889 20.1224L23.1052 19.6715L23.1174 19.6774C23.1967 19.7154 23.2921 19.7611 23.3735 19.8108C23.4585 19.8627 23.5837 19.9509 23.6712 20.0984M23.2412 20.3535L23.6712 20.0984M23.2412 20.3535C23.3055 20.4618 23.3055 20.9739 23.0928 21.5746M23.2412 20.3535L23.0928 21.5746M23.2412 20.3535L23.6711 20.0982C23.6711 20.0983 23.6712 20.0983 23.6712 20.0984M23.2412 20.3535L13.4511 18.5726M23.6712 20.0984C23.7508 20.2325 23.7672 20.387 23.7735 20.4663C23.7818 20.5722 23.7801 20.6933 23.769 20.822C23.7469 21.0806 23.6848 21.4006 23.5641 21.7415L23.5629 21.7449C23.3961 22.2053 22.9608 22.5749 22.5894 22.8141C22.2116 23.0574 21.7512 23.2604 21.3984 23.2934M23.0928 21.5746C22.8752 22.1752 21.8264 22.7513 21.3515 22.7956M23.0928 21.5746L12.8034 15.6269C12.8034 16.8707 13.7043 18.0762 13.8516 18.2733L13.8571 18.2806M21.3515 22.7956C21.3065 22.7999 21.2618 22.8053 21.2157 22.8108M21.3515 22.7956L21.3979 23.2935C21.3981 23.2934 21.3983 23.2934 21.3984 23.2934M21.3515 22.7956L21.3984 23.2934M21.2157 22.8108C20.7805 22.8635 20.2281 22.9303 18.2597 22.1555M21.2157 22.8108L21.2758 23.3072C21.0359 23.3362 20.7355 23.3714 20.2299 23.2866C19.7428 23.2049 19.0763 23.0143 18.0766 22.6208M21.2157 22.8108L21.2758 23.3072C21.323 23.3015 21.3611 23.2969 21.3984 23.2934M18.2597 22.1555C15.8343 21.2018 14.2333 18.8354 13.9096 18.357M18.2597 22.1555L18.0766 22.6208M18.2597 22.1555L18.0768 22.6209C18.0767 22.6208 18.0767 22.6208 18.0766 22.6208M13.9096 18.357C13.8841 18.3192 13.8665 18.2932 13.8571 18.2806M13.9096 18.357L13.4955 18.6371L13.4648 18.5919L13.4565 18.5799C13.456 18.5791 13.4556 18.5786 13.4554 18.5783L13.4511 18.5726M13.9096 18.357L13.4955 18.6371L13.5012 18.6455C13.835 19.139 15.5065 21.61 18.0766 22.6208M13.8571 18.2806L13.4565 18.5799L13.4563 18.5796L13.8571 18.2806ZM13.4511 18.5726L13.4511 18.5725L13.451 18.5725C13.3719 18.4666 13.0894 18.0886 12.8261 17.5683C12.5663 17.0548 12.3034 16.3608 12.3034 15.6269C12.3034 14.2415 12.9997 13.5018 13.2938 13.191L13.2938 13.191C13.3112 13.1727 13.325 13.158 13.3372 13.145C13.3372 13.1449 13.3372 13.1449 13.3372 13.1449L13.4511 18.5726ZM15.4224 12.8001C15.2115 12.6778 15.0045 12.6726 14.9098 12.6703M15.4224 12.8001L14.9098 12.6703M14.9098 12.6703C14.9067 12.6702 14.9037 12.6701 14.9009 12.6701L14.9098 12.6703ZM13.5165 26.1816C13.405 26.1212 13.2747 26.1054 13.152 26.1375L8.71235 27.2971L9.89692 22.9973C9.93253 22.868 9.91474 22.7299 9.84755 22.6139C9.01924 21.1837 8.58361 19.562 8.5842 17.9115V17.9114C8.5842 12.7246 12.8299 8.5 18.0421 8.5C20.5763 8.5 22.9476 9.48164 24.7336 11.2593C26.5191 13.0364 27.5001 15.4003 27.5001 17.9163C27.5001 23.103 23.2544 27.3275 18.0422 27.3275H18.0372C16.4536 27.3275 14.898 26.93 13.5165 26.1816Z" fill="#F04B54" stroke="#F04B54" stroke-linejoin="round"/>
</svg>
