<svg width="15" height="15" viewBox="0 0 16 16" fill="none" xmlns="http://www.w3.org/2000/svg">
<path fill-rule="evenodd" clip-rule="evenodd" d="M15.5 8C15.5 12.1421 12.1421 15.5 8 15.5C3.85786 15.5 0.5 12.1421 0.5 8C0.5 3.85786 3.85786 0.5 8 0.5C12.1421 0.5 15.5 3.85786 15.5 8ZM8 4.8125C7.53401 4.8125 7.15625 5.19026 7.15625 5.65625C7.15625 5.96691 6.90441 6.21875 6.59375 6.21875C6.28309 6.21875 6.03125 5.96691 6.03125 5.65625C6.03125 4.56894 6.91269 3.6875 8 3.6875C9.08731 3.6875 9.96875 4.56894 9.96875 5.65625C9.96875 6.18938 9.7561 6.67399 9.41222 7.02797C9.34302 7.0992 9.27701 7.16515 9.21404 7.22807C9.05217 7.38981 8.91035 7.5315 8.78593 7.69137C8.62165 7.90244 8.5625 8.05757 8.5625 8.1875V8.75C8.5625 9.06066 8.31066 9.3125 8 9.3125C7.68934 9.3125 7.4375 9.06066 7.4375 8.75V8.1875C7.4375 7.69611 7.66626 7.29833 7.89813 7.00041C8.06969 6.77997 8.28533 6.56476 8.46033 6.3901C8.51312 6.33741 8.56222 6.28841 8.60529 6.24408C8.75344 6.09158 8.84375 5.88503 8.84375 5.65625C8.84375 5.19026 8.46599 4.8125 8 4.8125ZM8 11.75C8.41421 11.75 8.75 11.4142 8.75 11C8.75 10.5858 8.41421 10.25 8 10.25C7.58579 10.25 7.25 10.5858 7.25 11C7.25 11.4142 7.58579 11.75 8 11.75Z" fill="#868686"/>
</svg>
