<svg width="36" height="36" viewBox="0 0 36 36" fill="none" xmlns="http://www.w3.org/2000/svg">
<rect width="36" height="36" rx="18" fill="#F04B54"/>
<path fill-rule="evenodd" clip-rule="evenodd" d="M24.4833 25.79L24.484 25.7883L24.5014 25.7448L27.5002 10.6257V10.5766C27.5002 10.1999 27.361 9.87101 27.0581 9.67375C26.793 9.50109 26.4882 9.48879 26.2745 9.50501C26.0485 9.52217 25.8354 9.57858 25.6879 9.62554C25.612 9.6497 25.5484 9.67298 25.503 9.69059C25.4802 9.69943 25.4617 9.70692 25.4483 9.71251L25.4351 9.71807L8.71526 16.277L8.71066 16.2787C8.70163 16.2819 8.68969 16.2864 8.67526 16.292C8.64651 16.3032 8.60737 16.3192 8.56139 16.3401C8.47111 16.381 8.34637 16.4441 8.21987 16.5307C8.00502 16.6779 7.5959 17.0262 7.66499 17.5784C7.72221 18.0358 8.03751 18.3263 8.25008 18.4767C8.36403 18.5574 8.47304 18.6155 8.55287 18.6535C8.59332 18.6728 8.62767 18.6875 8.65326 18.6979C8.66609 18.7032 8.67682 18.7073 8.68512 18.7105L8.69574 18.7144L8.70253 18.717L11.6278 19.7018C11.6179 19.8853 11.6361 20.0724 11.6848 20.2571L13.1501 25.8155C13.3238 26.4745 13.92 26.9336 14.6016 26.9331C15.2125 26.9327 15.7544 26.5631 15.9845 26.0117L18.2722 23.5656L22.2012 26.5778L22.2571 26.6022C22.614 26.758 22.9475 26.8073 23.2525 26.7657C23.557 26.7241 23.7989 26.5964 23.9807 26.451C24.1595 26.3079 24.2821 26.1464 24.3592 26.0248C24.3984 25.963 24.4276 25.9087 24.4478 25.8679C24.458 25.8473 24.466 25.83 24.472 25.8164L24.4796 25.799L24.4822 25.7926L24.4833 25.79ZM13.1352 19.8747C13.1019 19.7484 13.1542 19.615 13.2644 19.545L23.1865 13.2441C23.1865 13.2441 23.77 12.8898 23.7492 13.2441C23.7492 13.2441 23.8533 13.3066 23.5406 13.5984C23.244 13.8754 16.4689 20.4165 15.7834 21.0784C15.7438 21.1166 15.7202 21.1604 15.7063 21.2136L14.6005 25.4331L13.1352 19.8747Z" fill="white"/>
</svg>
