<svg width="36" height="36" viewBox="0 0 36 36" fill="none" xmlns="http://www.w3.org/2000/svg">
<rect width="36" height="36" rx="18" fill="#FCDBDD"/>
<path fill-rule="evenodd" clip-rule="evenodd" d="M8.18406 27.3314C8.10224 27.6284 8.37273 27.9025 8.67078 27.8247L13.2781 26.6213C14.7325 27.409 16.3699 27.8275 18.037 27.8275H18.0419C23.5279 27.8275 27.9999 23.3815 27.9999 17.9163C27.9999 15.2673 26.9659 12.7759 25.0862 10.9049C23.2064 9.03397 20.7082 8 18.0419 8C12.556 8 8.08399 12.4461 8.08399 17.9114C8.08336 19.65 8.54228 21.3582 9.41467 22.8645L8.18406 27.3314ZM14.8858 13.1699C15.0688 13.1748 15.2716 13.1846 15.4646 13.613C15.5926 13.8982 15.8082 14.4232 15.9838 14.8509C16.1204 15.1837 16.2329 15.4575 16.261 15.5136C16.3253 15.6416 16.3649 15.7893 16.2808 15.9616C16.2709 15.9819 16.2615 16.0013 16.2525 16.02C16.1851 16.16 16.1371 16.2597 16.0236 16.3899C15.977 16.4435 15.9284 16.5022 15.88 16.5607C15.7948 16.6636 15.7102 16.7658 15.6377 16.838C15.5091 16.9659 15.3755 17.1039 15.5239 17.3599C15.6724 17.6159 16.1918 18.4579 16.9586 19.1373C17.7829 19.8712 18.4997 20.1805 18.8621 20.3368C18.9324 20.3672 18.9894 20.3918 19.0312 20.4126C19.2885 20.5406 19.4418 20.5209 19.5902 20.3486C19.7387 20.1762 20.2333 19.6001 20.4065 19.3441C20.5747 19.0881 20.7478 19.1275 20.9853 19.2161C21.2227 19.3047 22.4891 19.9251 22.7463 20.0531C22.7971 20.0784 22.8447 20.1012 22.8888 20.1224C23.0677 20.2082 23.1894 20.2665 23.241 20.3535C23.3053 20.4618 23.3053 20.9739 23.0926 21.5746C22.875 22.1752 21.8262 22.7513 21.3513 22.7956C21.3063 22.7999 21.2616 22.8053 21.2155 22.8108C20.7803 22.8635 20.2278 22.9303 18.2595 22.1555C15.8341 21.2018 14.2331 18.8354 13.9094 18.357C13.8839 18.3192 13.8663 18.2932 13.8569 18.2806L13.8514 18.2733C13.7041 18.0762 12.8032 16.8707 12.8032 15.6269C12.8032 14.4368 13.3894 13.8173 13.6568 13.5347C13.6737 13.5168 13.6894 13.5002 13.7036 13.4849C13.941 13.2289 14.218 13.1649 14.3911 13.1649C14.5643 13.1649 14.7375 13.1649 14.8858 13.1699Z" fill="#F04B54"/>
</svg>
