<svg width="57" height="58" viewBox="0 0 57 58" fill="none" xmlns="http://www.w3.org/2000/svg">
<path d="M47.5 36.1255C47.5 46.2299 41.282 50.6639 36.4771 52.1591C35.4525 52.4779 34.7791 51.2834 35.392 50.4026C37.483 47.3977 39.9 42.8132 39.9 38.5005C39.9 33.8678 35.9953 28.3984 32.9463 25.025C32.2492 24.2538 31.0333 24.7641 30.9953 25.803C30.8694 29.2448 30.3262 33.8497 27.9842 37.4587C27.6072 38.0396 26.807 38.0878 26.3775 37.5446C25.6457 36.6191 24.9139 35.4758 24.1822 34.5727C23.788 34.0862 23.0756 34.0795 22.6209 34.51C20.8484 36.1885 18.3667 38.8058 18.3667 42.063C18.3667 44.2714 19.2223 46.5868 20.1877 48.4497C20.7187 49.4745 19.7744 50.708 18.7523 50.1717C14.5185 47.9498 9.5 43.4491 9.5 36.1255C9.5 28.6527 19.7369 18.3007 23.6456 8.52066C24.2624 6.9774 26.1632 6.25223 27.4853 7.25932C35.4918 13.3585 47.5 25.1485 47.5 36.1255Z" fill="#F04B54"/>
</svg>
