<svg width="58" height="58" viewBox="0 0 58 58" fill="none" xmlns="http://www.w3.org/2000/svg">
<path d="M53.2919 4.93747C52.6422 4.28921 51.8567 3.79316 50.9921 3.48506C50.1275 3.17696 49.2054 3.06449 48.2921 3.15575C42.4856 3.71709 22.9581 6.13498 15.4157 13.6693C11.8103 17.2847 9.6724 22.1077 9.41477 27.2071C9.15714 32.3065 10.7981 37.3205 14.0207 41.2808L37.0138 18.2868C37.4059 17.9081 37.9311 17.6986 38.4762 17.7033C39.0212 17.708 39.5427 17.9267 39.9281 18.3122C40.3136 18.6976 40.5322 19.2191 40.537 19.7642C40.5417 20.3093 40.3321 20.8345 39.9534 21.2266L16.9687 44.2205C20.9274 47.4452 25.9409 49.0882 31.0403 48.8321C36.1397 48.576 40.9633 46.4389 44.5791 42.8338C52.2213 35.1892 54.558 15.7213 55.0965 9.9375C55.1845 9.02247 55.0683 8.09931 54.7562 7.23464C54.4442 6.36997 53.944 5.58537 53.2919 4.93747ZM15.4157 42.8338C15.9119 43.3286 16.4268 43.7936 16.9604 44.2288L8.76932 52.4201C8.37618 52.7979 7.8504 53.0061 7.30524 52.9999C6.76008 52.9936 6.23918 52.7735 5.85476 52.3869C5.47034 52.0003 5.25317 51.4781 5.25003 50.9329C5.2469 50.3877 5.45806 49.8631 5.83801 49.4721L14.029 41.2808C14.4642 41.813 14.9265 42.3307 15.4157 42.8338Z" fill="#F04B54"/>
</svg>
