<svg width="46" height="46" viewBox="0 0 46 46" fill="none" xmlns="http://www.w3.org/2000/svg">
<path fill-rule="evenodd" clip-rule="evenodd" d="M46 23C46 35.7025 35.7025 46 23 46C10.2974 46 0 35.7025 0 23C0 10.2974 10.2974 0 23 0C35.7025 0 46 10.2974 46 23ZM25.3698 14.8802C24.6961 14.2066 23.6039 14.2066 22.9302 14.8802C22.2566 15.5539 22.2566 16.6461 22.9302 17.3198L28.6105 23L22.9302 28.6802C22.2566 29.3539 22.2566 30.4461 22.9302 31.1198C23.6039 31.7934 24.6961 31.7934 25.3698 31.1198L32.2698 24.2198C32.9434 23.5461 32.9434 22.4539 32.2698 21.7802L25.3698 14.8802ZM13.7302 14.8802C14.4039 14.2066 15.4961 14.2066 16.1698 14.8802L23.0698 21.7802C23.7434 22.4539 23.7434 23.5461 23.0698 24.2198L16.1698 31.1198C15.4961 31.7934 14.4039 31.7934 13.7302 31.1198C13.0566 30.4461 13.0566 29.3539 13.7302 28.6802L19.4105 23L13.7302 17.3198C13.0566 16.6461 13.0566 15.5539 13.7302 14.8802Z" fill="#f04b54"/>
</svg>
