<svg width="19" height="18" viewBox="0 0 19 18" fill="none" xmlns="http://www.w3.org/2000/svg">
<path fill-rule="evenodd" clip-rule="evenodd" d="M11.8849 12.4458C9.23463 14.5685 5.3552 14.4014 2.89842 11.9446C0.262377 9.30856 0.262377 5.0347 2.89842 2.39866C5.53445 -0.237379 9.80832 -0.237379 12.4444 2.39866C14.9011 4.85544 15.0682 8.73487 12.9456 11.3851L18.1012 16.5408C18.3941 16.8337 18.3941 17.3085 18.1012 17.6014C17.8083 17.8943 17.3334 17.8943 17.0405 17.6014L11.8849 12.4458ZM3.95908 10.8839C1.90882 8.83369 1.90882 5.50957 3.95908 3.45932C6.00933 1.40907 9.33344 1.40907 11.3837 3.45932C13.4324 5.50807 13.4339 8.82881 11.3882 10.8794C11.3867 10.8809 11.3852 10.8824 11.3837 10.8839C11.3822 10.8854 11.3807 10.8869 11.3792 10.8884C9.32857 12.9342 6.00783 12.9327 3.95908 10.8839Z" fill="#2F3D61"/>
</svg>
