<svg width="57" height="57" viewBox="0 0 57 57" fill="none" xmlns="http://www.w3.org/2000/svg">
<path fill-rule="evenodd" clip-rule="evenodd" d="M27.3135 4.75C17.4759 4.75 9.50098 12.9104 9.50098 22.9767C9.50098 28.3736 11.7953 33.2243 15.4351 36.5593C16.6483 37.6709 17.5471 38.4944 18.184 39.0919C18.5025 39.3907 18.746 39.624 18.9257 39.8032C19.0153 39.8925 19.0838 39.9631 19.1348 40.0179C19.1601 40.045 19.1791 40.0661 19.1929 40.0819C19.2064 40.0973 19.2128 40.1053 19.2128 40.1053C19.7745 40.8146 19.8961 40.9976 19.9685 41.1634C20.0409 41.3292 20.093 41.5439 20.2348 42.4453C20.2907 42.8012 20.2964 43.4107 20.2964 45.0698L20.2964 45.141C20.2964 46.1126 20.2964 46.9507 20.3573 47.6384C20.4217 48.3657 20.5643 49.0858 20.9473 49.7645C21.3736 50.5202 21.9869 51.1477 22.7254 51.584C23.3887 51.9759 24.0925 52.1218 24.8032 52.1877C25.4753 52.2501 26.2943 52.25 27.2439 52.25H27.3831C28.3326 52.25 29.1516 52.2501 29.8237 52.1877C30.5345 52.1218 31.2382 51.9759 31.9015 51.584C32.64 51.1477 33.2533 50.5202 33.6797 49.7645C34.0626 49.0858 34.2053 48.3657 34.2697 47.6384C34.3306 46.9507 34.3306 46.1126 34.3305 45.1409V45.0698C34.3305 43.4107 34.3362 42.8012 34.3922 42.4453C34.5339 41.5439 34.586 41.3292 34.6584 41.1634C34.7308 40.9976 34.8524 40.8146 35.4141 40.1053C35.4141 40.1053 35.42 40.098 35.4341 40.0819C35.4479 40.0661 35.4669 40.045 35.4921 40.0179C35.5432 39.9631 35.6117 39.8925 35.7013 39.8032C35.881 39.624 36.1245 39.3907 36.443 39.0919C37.0799 38.4944 37.9787 37.6709 39.1918 36.5593C42.8317 33.2243 45.126 28.3736 45.126 22.9767C45.126 12.9104 37.151 4.75 27.3135 4.75ZM31.078 46.7267H23.549C23.556 46.957 23.5667 47.1582 23.5827 47.3393C23.6268 47.8367 23.7011 48.0173 23.752 48.1076C23.8941 48.3595 24.0986 48.5686 24.3447 48.7141C24.433 48.7662 24.6094 48.8422 25.0955 48.8873C25.6039 48.9345 26.2747 48.9361 27.3135 48.9361C28.3522 48.9361 29.023 48.9345 29.5314 48.8873C30.0175 48.8422 30.194 48.7662 30.2822 48.7141C30.5284 48.5686 30.7328 48.3595 30.8749 48.1076C30.9259 48.0173 31.0002 47.8367 31.0443 47.3393C31.0603 47.1582 31.0709 46.957 31.078 46.7267ZM29.9508 19.4191C30.6786 19.951 30.8471 20.9859 30.3273 21.7305L27.5296 25.7384H30.8603C31.4668 25.7384 32.0225 26.0853 32.3001 26.6371C32.5777 27.189 32.5305 27.8534 32.178 28.3584L27.5513 34.9864C27.0315 35.731 26.0202 35.9035 25.2924 35.3716C24.5647 34.8397 24.3961 33.8048 24.9159 33.0602L27.7136 29.0523H24.383C23.7764 29.0523 23.2207 28.7054 22.9431 28.1536C22.6656 27.6017 22.7127 26.9373 23.0653 26.4323L27.6919 19.8043C28.2117 19.0597 29.2231 18.8872 29.9508 19.4191Z" fill="#F04B54"/>
</svg>
