<svg width="43" height="43" viewBox="0 0 43 43" fill="none" xmlns="http://www.w3.org/2000/svg">
<path fill-rule="evenodd" clip-rule="evenodd" d="M21.3328 0.138672C13.3713 0.138672 9.39054 0.138672 6.91722 2.61199C4.67291 4.8563 4.46511 8.34181 4.44587 14.9165H2.33279C1.16686 14.9165 0.22168 15.8616 0.22168 17.0276V19.1387C0.22168 19.8032 0.534534 20.4289 1.06612 20.8276L4.4439 23.3609C4.46314 29.9355 4.67291 33.421 6.91722 35.6654C7.42849 36.1766 8.00418 36.5822 8.66612 36.9039V40.2496C8.66612 41.4155 9.6113 42.3607 10.7772 42.3607H13.9439C15.1098 42.3607 16.055 41.4155 16.055 40.2496V38.0997C17.5899 38.1387 19.3362 38.1387 21.3328 38.1387C23.3294 38.1387 25.0757 38.1387 26.6106 38.0997V40.2496C26.6106 41.4155 27.5557 42.3607 28.7217 42.3607H31.8883C33.0543 42.3607 33.9995 41.4155 33.9995 40.2496V36.9039C34.6614 36.5822 35.2371 36.1766 35.7484 35.6654C37.9927 33.421 38.2024 29.9355 38.2217 23.3609L41.5995 20.8276C42.1311 20.4289 42.4439 19.8032 42.4439 19.1387V17.0276C42.4439 15.8616 41.4987 14.9165 40.3328 14.9165H38.2197C38.2005 8.34181 37.9927 4.8563 35.7484 2.61199C33.275 0.138672 29.2943 0.138672 21.3328 0.138672ZM7.61057 15.972C7.61057 18.9576 7.61057 20.4503 8.53806 21.3778C9.46556 22.3053 10.9583 22.3053 13.9439 22.3053H21.3328H28.7217C31.7072 22.3053 33.2 22.3053 34.1275 21.3778C35.055 20.4503 35.055 18.9576 35.055 15.972V10.6942C35.055 7.70867 35.055 6.21588 34.1275 5.28839C33.2 4.36089 31.7072 4.36089 28.7217 4.36089H21.3328H13.9439C10.9583 4.36089 9.46556 4.36089 8.53806 5.28839C7.61057 6.21588 7.61057 7.70867 7.61057 10.6942V15.972ZM9.1939 29.6942C9.1939 28.8198 9.90278 28.1109 10.7772 28.1109H13.9439C14.8184 28.1109 15.5272 28.8198 15.5272 29.6942C15.5272 30.5687 14.8184 31.2776 13.9439 31.2776H10.7772C9.90278 31.2776 9.1939 30.5687 9.1939 29.6942ZM33.4717 29.6942C33.4717 28.8198 32.7628 28.1109 31.8883 28.1109H28.7217C27.8472 28.1109 27.1383 28.8198 27.1383 29.6942C27.1383 30.5687 27.8472 31.2776 28.7217 31.2776H31.8883C32.7628 31.2776 33.4717 30.5687 33.4717 29.6942Z" fill="#F04B54"/>
</svg>
