<svg width="16" height="17" viewBox="0 0 16 17" fill="none" xmlns="http://www.w3.org/2000/svg">
<path d="M6.03759 1.81617L6.6866 2.9791C7.2723 4.02858 7.03718 5.40532 6.11471 6.3278C6.11471 6.3278 6.11471 6.3278 6.11471 6.3278C6.11459 6.32792 4.99588 7.44685 7.02451 9.47548C9.05248 11.5035 10.1714 10.3861 10.1722 10.3853C10.1722 10.3853 10.1722 10.3853 10.1722 10.3853C11.0947 9.46281 12.4714 9.2277 13.5209 9.81339L14.6838 10.4624C16.2686 11.3468 16.4557 13.5692 15.0628 14.9622C14.2258 15.7992 13.2004 16.4505 12.0669 16.4934C10.1588 16.5658 6.91828 16.0829 3.6677 12.8323C0.417128 9.58172 -0.0657854 6.34122 0.00655165 4.43309C0.0495219 3.2996 0.700803 2.27423 1.53781 1.43723C2.93076 0.044282 5.15317 0.231437 6.03759 1.81617Z" fill="white"/>
</svg>
