<svg width="286" height="39" viewBox="0 0 286 39" fill="none" xmlns="http://www.w3.org/2000/svg">
<g clip-path="url(#clip0_0_243)">
<path d="M0.0703125 32.9026V14.5408L18.3592 0.904053L36.6445 14.5408V32.9026H0.0703125ZM34.287 30.5253V15.7183L18.3592 3.87583L2.4278 15.7183V30.5253H34.287Z" fill="#F04B54"/>
<path d="M36.5792 32.8383H0.152344V14.5879L18.3676 1.00684L36.5792 14.5879V32.8383ZM2.36249 30.6095H34.3691V15.6949L18.3676 3.80773L2.36249 15.6949V30.6095Z" fill="#F04B54"/>
<path d="M39.0763 32.9026V30.5253H54.7167V15.7183L38.789 3.89069L32.5306 8.31121L30.582 6.81789L38.789 0.904053L57.0743 14.5408V32.9026H39.0763Z" fill="#F04B54"/>
<path d="M38.7866 1.00342L30.7012 6.82439L32.5282 8.22484L38.7866 3.80432L54.788 15.6915V30.606H39.1476V32.8349H56.9982V14.5844L38.7866 1.00342Z" fill="#F04B54"/>
<path d="M86.4029 9.20213H84.5612C84.4243 9.1956 84.2882 9.22662 84.1675 9.2921C84.0468 9.35749 83.946 9.45481 83.876 9.57363L76.5346 21.4347L69.1932 9.57734C69.1229 9.4588 69.0221 9.36176 68.9015 9.29636C68.7809 9.23097 68.6449 9.19968 68.5081 9.20585H66.6442C66.5639 9.1956 66.4824 9.20394 66.4057 9.23043C66.3291 9.25682 66.2596 9.30054 66.2023 9.35831C66.1451 9.41599 66.1017 9.48619 66.0755 9.56347C66.0493 9.64065 66.0409 9.72291 66.0512 9.80391V27.1926C66.0409 27.2734 66.0491 27.3555 66.0753 27.4327C66.1015 27.5098 66.145 27.5798 66.2023 27.6372C66.2597 27.6947 66.3294 27.7381 66.406 27.764C66.4826 27.79 66.5641 27.7979 66.6442 27.7869H68.1435C68.2235 27.7979 68.3051 27.79 68.3817 27.764C68.4584 27.7381 68.5281 27.6947 68.5854 27.6372C68.6427 27.5798 68.6862 27.5098 68.7124 27.4327C68.7386 27.3555 68.7469 27.2734 68.7365 27.1926V13.7378L75.308 24.1762C75.378 24.2949 75.4788 24.3923 75.5995 24.4577C75.7202 24.5231 75.8562 24.5543 75.9931 24.5476H77.0577C77.1943 24.5557 77.3304 24.5251 77.4507 24.4596C77.5712 24.3939 77.671 24.2959 77.7392 24.1762L84.3107 13.775V27.1926C84.3003 27.2734 84.3085 27.3555 84.3348 27.4327C84.361 27.5098 84.4044 27.5798 84.4618 27.6372C84.5191 27.6947 84.5888 27.7381 84.6654 27.764C84.742 27.79 84.8236 27.7979 84.9037 27.7869H86.4066C86.4864 27.7972 86.5676 27.7889 86.6437 27.7627C86.7198 27.7365 86.7891 27.693 86.8459 27.6356C86.9028 27.5782 86.9459 27.5085 86.972 27.4316C86.998 27.3548 87.0062 27.273 86.9959 27.1926V9.80019C87.0069 9.7191 86.9992 9.63648 86.9732 9.55884C86.9473 9.4813 86.9039 9.41082 86.8465 9.35287C86.7891 9.295 86.7192 9.2512 86.6422 9.22507C86.5653 9.19895 86.4834 9.19106 86.4029 9.20213Z" fill="#F04B54"/>
<path d="M100.788 9.60745C100.73 9.48129 100.637 9.37527 100.519 9.30307C100.402 9.23097 100.265 9.19596 100.129 9.20258H98.312C98.1744 9.19541 98.0386 9.23024 97.9207 9.30244C97.8029 9.37463 97.7094 9.48093 97.6527 9.60745L88.8124 27.0667C88.7652 27.145 88.7402 27.235 88.7402 27.3267C88.7402 27.4184 88.7652 27.5083 88.8124 27.5867C88.864 27.6607 88.9341 27.7197 89.0156 27.7575C89.0971 27.7953 89.1871 27.8107 89.2764 27.8021H91.0118C91.1494 27.8093 91.2852 27.7745 91.403 27.7023C91.5208 27.6301 91.6144 27.5238 91.671 27.3973L93.2323 24.3029H105.26L106.796 27.3712C106.854 27.4985 106.947 27.6065 107.064 27.6828C107.18 27.759 107.316 27.8004 107.455 27.8021H109.19C109.279 27.8107 109.369 27.7953 109.451 27.7575C109.533 27.7197 109.603 27.6607 109.654 27.5867C109.701 27.5083 109.726 27.4184 109.726 27.3267C109.726 27.235 109.701 27.145 109.654 27.0667L100.788 9.60745ZM94.3709 21.9478L99.2482 12.2115L104.077 21.9478H94.3709Z" fill="#F04B54"/>
<path d="M126.077 27.1926C126.068 27.2732 126.076 27.355 126.102 27.4317C126.128 27.5085 126.171 27.5784 126.228 27.6357C126.284 27.6931 126.354 27.7365 126.43 27.7628C126.506 27.7891 126.587 27.7973 126.667 27.787H128.195C128.276 27.7979 128.357 27.7901 128.434 27.7642C128.511 27.7383 128.58 27.6948 128.638 27.6374C128.696 27.5799 128.739 27.5099 128.765 27.4328C128.791 27.3557 128.799 27.2735 128.789 27.1926V9.80035C128.799 9.71935 128.791 9.63709 128.765 9.55982C128.739 9.48254 128.695 9.41243 128.638 9.35466C128.58 9.29697 128.511 9.25317 128.435 9.22677C128.357 9.20038 128.276 9.19195 128.195 9.20229H114.913C114.833 9.19195 114.751 9.20038 114.674 9.22677C114.598 9.25317 114.529 9.29697 114.471 9.35466C114.414 9.41243 114.37 9.48254 114.344 9.55982C114.318 9.63709 114.309 9.71935 114.32 9.80035V21.4459C114.32 22.865 114.062 23.8494 113.55 24.3695C113.254 24.6451 112.905 24.8571 112.525 24.9925C112.145 25.1279 111.742 25.1839 111.339 25.157C111.259 25.1467 111.178 25.1551 111.101 25.1815C111.025 25.2079 110.955 25.2517 110.898 25.3094C110.84 25.3671 110.797 25.4373 110.771 25.5145C110.745 25.5918 110.737 25.6741 110.747 25.7551V27.1926C110.736 27.2735 110.745 27.3557 110.771 27.4328C110.797 27.5099 110.84 27.5799 110.898 27.6374C110.955 27.6948 111.025 27.7383 111.101 27.7642C111.178 27.7901 111.259 27.7979 111.339 27.787C113.145 27.787 114.559 27.241 115.535 26.1562C116.512 25.0716 117.009 23.4668 117.009 21.3679V11.7282H126.081L126.077 27.1926Z" fill="#F04B54"/>
<path d="M150.072 9.20166H151.575C151.653 9.20166 151.73 9.21708 151.802 9.24719C151.874 9.27721 151.94 9.32129 151.994 9.3768C152.049 9.4323 152.093 9.49824 152.123 9.5708C152.153 9.64336 152.168 9.72118 152.168 9.79972V27.192C152.168 27.2705 152.153 27.3484 152.123 27.4209C152.093 27.4935 152.049 27.5594 151.994 27.6149C151.94 27.6704 151.874 27.7145 151.802 27.7445C151.73 27.7746 151.653 27.7901 151.575 27.7901H150.072C149.916 27.7901 149.766 27.7275 149.655 27.616C149.544 27.5045 149.482 27.3533 149.482 27.1957V9.79972C149.482 9.64173 149.544 9.49017 149.655 9.37807C149.766 9.26606 149.916 9.20257 150.072 9.20166Z" fill="#F04B54"/>
<path d="M148.44 21.4461C148.44 19.2915 147.895 17.6831 146.812 16.6653C145.73 15.6474 143.866 15.131 141.247 15.131H134.174V9.80044C134.184 9.71944 134.176 9.63718 134.15 9.5599C134.124 9.48263 134.08 9.41252 134.023 9.35475C133.966 9.29706 133.897 9.25326 133.82 9.22686C133.743 9.20047 133.662 9.19204 133.581 9.20237H132.078C131.998 9.19194 131.917 9.2002 131.841 9.22668C131.763 9.25308 131.694 9.29688 131.637 9.35475C131.581 9.41252 131.537 9.48281 131.511 9.56009C131.486 9.63745 131.478 9.71962 131.489 9.80044V27.1927C131.479 27.2733 131.487 27.3551 131.513 27.4319C131.539 27.5086 131.582 27.5784 131.639 27.6358C131.696 27.6932 131.765 27.7367 131.841 27.7629C131.917 27.7891 131.999 27.7974 132.078 27.7871H141.247C143.895 27.7871 145.777 27.2819 146.838 26.2789C147.899 25.2759 148.44 23.6489 148.44 21.4461ZM134.174 17.7313H141.092C142.845 17.7313 144.076 18.0025 144.75 18.5374C145.424 19.0724 145.756 20.0456 145.756 21.4424C145.756 22.9282 145.431 23.9238 144.791 24.4141C144.149 24.9045 142.897 25.1571 141.107 25.1571H134.174V17.7313Z" fill="#F04B54"/>
<path d="M170.402 27.1941V25.7564C170.412 25.6754 170.404 25.5932 170.378 25.516C170.352 25.4387 170.308 25.3685 170.251 25.3108C170.193 25.2531 170.124 25.2093 170.047 25.183C169.97 25.1565 169.889 25.1481 169.809 25.1584H157.48V19.5864H165.849C165.93 19.5968 166.01 19.5885 166.087 19.562C166.163 19.5356 166.233 19.4918 166.29 19.4339C166.347 19.3761 166.39 19.3058 166.416 19.2286C166.441 19.1513 166.449 19.069 166.439 18.9882V17.6249C166.449 17.5441 166.441 17.462 166.416 17.3847C166.39 17.3074 166.347 17.2371 166.29 17.1792C166.233 17.1215 166.163 17.0777 166.087 17.0512C166.01 17.0248 165.93 17.0164 165.849 17.0269H157.48V11.8263H169.809C169.889 11.8365 169.97 11.8282 170.047 11.8018C170.124 11.7754 170.193 11.7316 170.251 11.6739C170.308 11.6161 170.352 11.5459 170.378 11.4687C170.404 11.3915 170.412 11.3092 170.402 11.2282V9.80172C170.412 9.72073 170.404 9.63846 170.378 9.56128C170.352 9.484 170.308 9.4138 170.251 9.35612C170.193 9.29835 170.124 9.25463 170.047 9.22824C169.97 9.20175 169.889 9.19341 169.809 9.20366H155.388C155.306 9.19087 155.223 9.19731 155.144 9.22261C155.066 9.24792 154.994 9.29127 154.936 9.34932C154.876 9.40736 154.831 9.47847 154.804 9.55702C154.777 9.63556 154.769 9.71937 154.78 9.80172V27.1941C154.769 27.2749 154.777 27.3571 154.804 27.4343C154.83 27.5113 154.874 27.5814 154.931 27.6388C154.989 27.6963 155.058 27.7396 155.134 27.7656C155.211 27.7915 155.293 27.7994 155.373 27.7884H169.809C169.889 27.7994 169.97 27.7915 170.047 27.7656C170.123 27.7396 170.193 27.6963 170.251 27.6388C170.308 27.5814 170.352 27.5113 170.378 27.4343C170.404 27.3571 170.412 27.2749 170.402 27.1941Z" fill="#F04B54"/>
<path d="M190.969 9.20166H185.193C183.023 9.20166 181.429 9.75138 180.452 10.8324C179.476 11.9133 178.979 13.533 178.979 15.6615V15.8733C178.969 15.9537 178.977 16.0355 179.003 16.1124C179.029 16.1892 179.072 16.2589 179.129 16.3163C179.186 16.3738 179.255 16.4172 179.331 16.4434C179.407 16.4696 179.489 16.4779 179.568 16.4676H181.071C181.561 16.4676 181.664 16.2002 181.664 15.9773V15.5686C181.664 14.1348 181.926 13.1429 182.445 12.6191C182.965 12.0954 183.886 11.8316 185.189 11.8316H190.965C192.265 11.8316 193.175 12.0954 193.709 12.6191C194.244 13.1429 194.49 14.1348 194.49 15.5686V17.0545H186.125C186.048 17.045 185.969 17.053 185.894 17.0778C185.82 17.1025 185.752 17.1435 185.695 17.1978C185.639 17.2521 185.594 17.3184 185.567 17.3918C185.539 17.4654 185.526 17.5442 185.532 17.6229V18.9788C185.522 19.0598 185.53 19.142 185.556 19.2193C185.583 19.2965 185.626 19.3667 185.683 19.4245C185.74 19.4822 185.809 19.5259 185.887 19.5524C185.963 19.5787 186.044 19.5871 186.125 19.5768H194.494V21.4342C194.494 22.8532 194.228 23.8376 193.713 24.3577C193.198 24.8778 192.269 25.1452 190.969 25.1452H185.193C183.889 25.1452 182.965 24.8815 182.448 24.3577C181.933 23.8339 181.668 22.8718 181.668 21.4342V20.8696C181.678 20.7887 181.67 20.7066 181.644 20.6294C181.617 20.5523 181.574 20.4823 181.517 20.4249C181.459 20.3674 181.39 20.324 181.313 20.2981C181.236 20.2721 181.155 20.2642 181.075 20.2752H179.572C179.494 20.2634 179.415 20.2698 179.339 20.2938C179.265 20.3177 179.195 20.3588 179.139 20.4136C179.082 20.4685 179.038 20.5358 179.011 20.6103C178.984 20.6848 178.974 20.7646 178.982 20.8435V21.3673C178.982 23.4661 179.476 25.0821 180.455 26.1556C181.436 27.2292 183.034 27.7863 185.197 27.7863H190.973C193.142 27.7863 194.737 27.2403 195.713 26.1556C196.689 25.0709 197.186 23.4661 197.186 21.3673V15.6466C197.186 13.533 196.693 11.9319 195.713 10.8175C194.733 9.70313 193.138 9.20166 190.969 9.20166Z" fill="#F04B54"/>
<path d="M214.881 9.20237H199.834C199.754 9.19204 199.672 9.20047 199.596 9.22686C199.518 9.25326 199.449 9.29706 199.392 9.35475C199.335 9.41252 199.292 9.48263 199.265 9.5599C199.239 9.63718 199.231 9.71944 199.24 9.80044V11.2343C199.231 11.3153 199.239 11.3975 199.265 11.4748C199.292 11.5521 199.335 11.6222 199.392 11.68C199.449 11.7376 199.518 11.7815 199.596 11.8078C199.672 11.8342 199.754 11.8427 199.834 11.8323H206V27.1927C205.99 27.2736 205.998 27.3558 206.024 27.4329C206.05 27.51 206.094 27.58 206.151 27.6375C206.209 27.6949 206.278 27.7383 206.355 27.7643C206.432 27.7902 206.513 27.798 206.593 27.7871H208.122C208.202 27.7974 208.283 27.7891 208.359 27.7629C208.435 27.7366 208.504 27.6932 208.561 27.6358C208.618 27.5784 208.661 27.5086 208.687 27.4318C208.713 27.3551 208.722 27.2733 208.711 27.1927V11.8323H214.881C214.961 11.8428 215.043 11.8345 215.12 11.808C215.196 11.7816 215.265 11.7378 215.322 11.68C215.38 11.6222 215.422 11.5519 215.448 11.4746C215.474 11.3973 215.481 11.3151 215.47 11.2343V9.80044C215.481 9.71962 215.474 9.63745 215.448 9.56009C215.422 9.48281 215.38 9.41252 215.322 9.35475C215.265 9.29688 215.196 9.25308 215.12 9.22668C215.043 9.2002 214.961 9.19194 214.881 9.20237Z" fill="#F04B54"/>
<path d="M226.609 9.60716C226.551 9.481 226.456 9.37516 226.338 9.30305C226.221 9.23095 226.084 9.19585 225.945 9.20229H224.133C223.996 9.19585 223.859 9.23095 223.741 9.30305C223.623 9.37516 223.529 9.481 223.47 9.60716L214.629 27.0664C214.582 27.1445 214.557 27.2345 214.557 27.3264C214.557 27.4183 214.582 27.5083 214.629 27.5864C214.681 27.6602 214.75 27.7189 214.831 27.7568C214.912 27.7946 215.002 27.8102 215.09 27.8018H216.825C216.963 27.8087 217.1 27.7739 217.218 27.7017C217.337 27.6296 217.43 27.5235 217.489 27.397L219.046 24.3026H231.077L232.61 27.3709C232.667 27.491 232.756 27.5931 232.868 27.6663C232.978 27.7395 233.107 27.7812 233.239 27.7871H234.974C235.066 27.8009 235.159 27.7876 235.242 27.7485C235.327 27.7095 235.397 27.6466 235.445 27.5675C235.494 27.4883 235.518 27.3966 235.516 27.3036C235.514 27.2105 235.484 27.1203 235.431 27.0441L226.609 9.60716ZM220.181 21.9475L225.058 12.2112L229.884 21.9475H220.181Z" fill="#F04B54"/>
<path d="M264.918 9.44816C264.868 9.36381 264.795 9.29633 264.707 9.25397C264.619 9.21171 264.521 9.19656 264.425 9.21035H262.535C262.403 9.21143 262.272 9.23964 262.151 9.29334C262.031 9.34694 261.922 9.42494 261.832 9.52244L254.604 17.2156H252.585V9.78619C252.596 9.70519 252.587 9.62293 252.561 9.54566C252.535 9.46838 252.492 9.39827 252.434 9.3405C252.378 9.28281 252.307 9.23901 252.231 9.21261C252.155 9.18622 252.073 9.17779 251.993 9.18813H250.493C250.413 9.17779 250.332 9.18622 250.255 9.21261C250.179 9.23901 250.109 9.28281 250.052 9.3405C249.994 9.39827 249.951 9.46838 249.925 9.54566C249.898 9.62293 249.89 9.70519 249.901 9.78619V17.2156H247.864L240.633 9.50756C240.543 9.41106 240.434 9.33388 240.314 9.28091C240.194 9.22794 240.063 9.2001 239.932 9.19928H238.028C237.932 9.18541 237.834 9.20055 237.746 9.24282C237.658 9.28517 237.585 9.35265 237.534 9.437C237.461 9.59672 237.513 9.77875 237.689 9.97565L245.568 18.4415L237.704 27.0076C237.527 27.2045 237.476 27.3791 237.55 27.5462C237.598 27.6312 237.672 27.6993 237.76 27.7418C237.848 27.7841 237.946 27.7988 238.043 27.784H239.907C240.039 27.7864 240.17 27.7601 240.292 27.7069C240.413 27.6537 240.522 27.5748 240.61 27.4757L247.864 19.7936H249.882V27.1896C249.872 27.2705 249.88 27.3527 249.906 27.4298C249.932 27.5069 249.975 27.5769 250.033 27.6344C250.091 27.6918 250.16 27.7353 250.237 27.7612C250.314 27.7871 250.395 27.7949 250.475 27.784H251.974C252.054 27.7949 252.136 27.7871 252.212 27.7612C252.289 27.7353 252.359 27.6918 252.416 27.6344C252.474 27.5769 252.517 27.5069 252.543 27.4298C252.569 27.3527 252.577 27.2705 252.567 27.1896V19.7936H254.604L261.857 27.472C261.945 27.5724 262.053 27.6524 262.174 27.7062C262.297 27.7601 262.428 27.7867 262.56 27.784H264.425C264.521 27.7988 264.62 27.7841 264.708 27.7418C264.796 27.6993 264.869 27.6312 264.918 27.5462C264.992 27.3865 264.94 27.2045 264.764 27.0076L256.866 18.4415L264.745 9.97565C264.918 9.77875 264.973 9.59672 264.918 9.44816Z" fill="#F04B54"/>
<path d="M284.836 9.20201H283.205C283.068 9.19693 282.933 9.22541 282.811 9.285C282.688 9.3445 282.582 9.43338 282.501 9.54376L270.849 23.7711V9.80007C270.86 9.71908 270.852 9.63682 270.825 9.55954C270.799 9.48236 270.756 9.41216 270.698 9.35447C270.642 9.2967 270.571 9.25298 270.495 9.2265C270.419 9.20011 270.337 9.19176 270.257 9.20201H268.757C268.677 9.19176 268.596 9.20011 268.519 9.2265C268.443 9.25298 268.373 9.2967 268.316 9.35447C268.258 9.41216 268.215 9.48236 268.189 9.55954C268.163 9.63682 268.154 9.71908 268.165 9.80007V27.1924C268.154 27.2732 268.162 27.3554 268.189 27.4325C268.215 27.5097 268.258 27.5797 268.316 27.6371C268.373 27.6946 268.443 27.738 268.519 27.7639C268.596 27.7899 268.677 27.7977 268.757 27.7868H270.445C270.58 27.7919 270.715 27.7634 270.839 27.7038C270.961 27.6442 271.067 27.5554 271.148 27.445L282.748 13.2957V27.1924C282.737 27.2732 282.745 27.3554 282.771 27.4325C282.798 27.5097 282.842 27.5797 282.899 27.6371C282.956 27.6946 283.026 27.738 283.102 27.7639C283.179 27.7899 283.261 27.7977 283.341 27.7868H284.84C284.92 27.7977 285.002 27.7899 285.078 27.7639C285.155 27.738 285.225 27.6946 285.282 27.6371C285.339 27.5797 285.382 27.5097 285.409 27.4325C285.435 27.3554 285.443 27.2732 285.433 27.1924V9.80007C285.443 9.71872 285.435 9.63609 285.408 9.55854C285.382 9.481 285.338 9.41062 285.281 9.35275C285.223 9.29498 285.153 9.25126 285.076 9.22514C284.999 9.19902 284.917 9.19113 284.836 9.20201Z" fill="#F04B54"/>
<path d="M67.1109 33.3158C67.3544 33.1378 67.6559 33.0595 67.9544 33.0966H69.4278C69.7183 33.0611 70.0118 33.1337 70.2529 33.3009C70.4269 33.5466 70.5067 33.8474 70.4777 34.1479C70.4742 34.1734 70.4765 34.1994 70.4844 34.2239C70.4923 34.2484 70.5056 34.2708 70.5234 34.2894C70.5411 34.308 70.5627 34.3223 70.5868 34.3312C70.6107 34.3402 70.6364 34.3435 70.6619 34.341H71.1628C71.2843 34.341 71.3433 34.2742 71.3433 34.1479C71.3794 33.6258 71.2204 33.109 70.8976 32.6991C70.6176 32.4169 70.1351 32.2756 69.4536 32.2756H67.936C67.1993 32.2756 66.702 32.4354 66.4442 32.7549C66.1411 33.2066 66.0006 33.7493 66.0463 34.2928V35.4072C65.9986 35.9601 66.1389 36.5129 66.4442 36.9748C66.7093 37.2942 67.2067 37.454 67.936 37.454H69.4536C69.967 37.5049 70.4801 37.3546 70.8865 37.0342C71.2192 36.6148 71.3823 36.084 71.3433 35.5484C71.3433 35.4183 71.2843 35.3515 71.1628 35.3515H70.6691C70.5476 35.3515 70.485 35.4183 70.485 35.5484C70.5116 35.8509 70.4349 36.1537 70.2677 36.4065C70.0255 36.5777 69.7287 36.6519 69.4352 36.6144H67.9618C67.6632 36.6515 67.3618 36.5733 67.1182 36.3953C66.9475 36.1167 66.8748 35.7883 66.9119 35.4629V34.2296C66.8733 33.911 66.9435 33.5888 67.1109 33.3158Z" fill="#F04B54"/>
<path d="M82.6364 32.2742H82.4338C81.6063 32.2742 81.0709 32.5218 80.8278 33.0171C80.5969 32.5218 80.0555 32.2742 79.2034 32.2742H79.0007C78.2346 32.2742 77.7484 32.5008 77.5494 32.9466V32.46C77.5532 32.4347 77.5509 32.4089 77.543 32.3847C77.5351 32.3604 77.5216 32.3383 77.5037 32.3203C77.4858 32.3022 77.464 32.2886 77.44 32.2807C77.4159 32.2727 77.3903 32.2705 77.3652 32.2742H76.8716C76.8469 32.2711 76.8217 32.2738 76.7982 32.2821C76.7746 32.2904 76.7533 32.3041 76.7358 32.322C76.7183 32.34 76.7052 32.3617 76.6974 32.3857C76.6897 32.4096 76.6875 32.435 76.6911 32.46V37.2668C76.6875 37.2917 76.6897 37.3171 76.6974 37.341C76.7052 37.365 76.7183 37.3868 76.7358 37.4047C76.7533 37.4228 76.7746 37.4364 76.7982 37.4447C76.8217 37.453 76.8469 37.4557 76.8716 37.4525H77.3652C77.3903 37.4563 77.4159 37.4541 77.44 37.4461C77.464 37.4381 77.4858 37.4245 77.5037 37.4064C77.5216 37.3884 77.5351 37.3664 77.543 37.3421C77.5509 37.3178 77.5532 37.2921 77.5494 37.2668V34.2467C77.5077 33.9194 77.592 33.5882 77.7851 33.3218C78.0192 33.1468 78.3094 33.066 78.5992 33.0952H79.1186C79.4148 33.0585 79.7138 33.1368 79.9548 33.3143C80.1256 33.5929 80.1982 33.9214 80.1611 34.2467V37.2779C80.1573 37.3027 80.1594 37.3281 80.1671 37.3518C80.1749 37.3757 80.1881 37.3973 80.2056 37.4151C80.2232 37.4327 80.2447 37.4461 80.2683 37.4539C80.2919 37.4617 80.317 37.4638 80.3416 37.46H80.8352C80.8599 37.4636 80.8851 37.4614 80.9088 37.4536C80.9325 37.4458 80.9542 37.4326 80.972 37.415C80.9898 37.3974 81.0034 37.3758 81.0115 37.352C81.0198 37.3283 81.0224 37.303 81.0194 37.2779V34.2467C80.9776 33.9194 81.062 33.5882 81.2551 33.3218C81.4891 33.1468 81.7793 33.066 82.0692 33.0952H82.5812C82.8809 33.0578 83.1835 33.1361 83.4284 33.3143C83.5976 33.5935 83.669 33.9218 83.631 34.2467V37.2779C83.6279 37.303 83.6306 37.3283 83.6388 37.352C83.647 37.3758 83.6606 37.3974 83.6784 37.415C83.6963 37.4326 83.7178 37.4458 83.7416 37.4536C83.7653 37.4614 83.7905 37.4636 83.8152 37.46H84.3088C84.3335 37.4636 84.3586 37.4614 84.3824 37.4536C84.4061 37.4458 84.4277 37.4326 84.4456 37.415C84.4634 37.3974 84.4769 37.3758 84.4852 37.352C84.4934 37.3283 84.4961 37.303 84.4929 37.2779V34.3396C84.5399 33.7879 84.3996 33.2365 84.0951 32.7757C83.8373 32.4377 83.3474 32.2742 82.6364 32.2742Z" fill="#F04B54"/>
<path d="M93.4231 32.2741H92.3177C91.5524 32.2741 91.0658 32.5007 90.867 32.9464V32.4598C90.8706 32.4345 90.8679 32.4088 90.8608 32.3846C90.8527 32.3603 90.8392 32.3382 90.8212 32.3202C90.8032 32.3021 90.7816 32.2885 90.7573 32.2805C90.733 32.2726 90.7079 32.2704 90.6827 32.2741H90.2078C90.1826 32.271 90.1574 32.2736 90.1341 32.282C90.1107 32.2902 90.0891 32.3039 90.072 32.3219C90.054 32.3399 90.0414 32.3616 90.0333 32.3856C90.0252 32.4095 90.0234 32.4349 90.027 32.4598V38.1768C90.0234 38.2016 90.0252 38.2269 90.0333 38.2507C90.0405 38.2745 90.054 38.2962 90.072 38.3138C90.0891 38.3316 90.1107 38.3449 90.1341 38.3527C90.1574 38.3605 90.1826 38.3626 90.2078 38.3588H90.6863C90.7115 38.3625 90.7366 38.3603 90.76 38.3525C90.7834 38.3447 90.805 38.3314 90.823 38.3138C90.841 38.2962 90.8545 38.2747 90.8626 38.2509C90.8706 38.2271 90.8733 38.2017 90.8706 38.1768V36.7801C91.0694 37.2258 91.556 37.4524 92.3222 37.4524H93.4267C94.1632 37.4524 94.6606 37.2927 94.9187 36.9732C95.2236 36.5114 95.3639 35.9585 95.3162 35.4056V34.2912C95.3621 33.7478 95.2218 33.205 94.9187 32.7533C94.6507 32.4338 94.1525 32.2741 93.4231 32.2741ZM94.4546 35.4799C94.4942 35.8053 94.4214 36.1346 94.2487 36.4123C94.0077 36.5905 93.7082 36.6689 93.4123 36.6315H91.9391C91.6486 36.6606 91.359 36.5799 91.1243 36.4048C90.9318 36.1384 90.8473 35.8073 90.8886 35.4799V34.228C90.8482 33.9042 90.9327 33.5768 91.1243 33.3142C91.3617 33.1453 91.6504 33.0675 91.9391 33.0951H93.4123C93.7082 33.0576 94.0077 33.136 94.2487 33.3142C94.4196 33.5855 94.4933 33.9086 94.4546 34.228V35.4799Z" fill="#F04B54"/>
<path d="M104.095 32.2764H102.578C101.841 32.2764 101.35 32.4361 101.105 32.7555C100.802 33.2072 100.661 33.75 100.706 34.2934V35.4079C100.659 35.9608 100.799 36.5136 101.105 36.9754C101.37 37.2949 101.861 37.4547 102.578 37.4547H104.095C104.833 37.4547 105.329 37.2949 105.587 36.9754C105.893 36.5136 106.033 35.9608 105.986 35.4079V34.2934C106.031 33.75 105.89 33.2072 105.587 32.7555C105.322 32.4361 104.825 32.2764 104.095 32.2764ZM105.127 35.4822C105.166 35.8076 105.094 36.1367 104.921 36.4145C104.677 36.5929 104.376 36.6712 104.077 36.6337H102.604C102.305 36.6709 102.004 36.5925 101.76 36.4145C101.59 36.136 101.517 35.8075 101.554 35.4822V34.2303C101.518 33.9108 101.59 33.5885 101.76 33.3165C102.004 33.1385 102.305 33.0602 102.604 33.0973H104.077C104.376 33.0598 104.677 33.1382 104.921 33.3165C105.093 33.5878 105.165 33.9107 105.127 34.2303V35.4822Z" fill="#F04B54"/>
<path d="M116.305 32.2856H115.816C115.69 32.2856 115.631 32.345 115.631 32.4677V35.4914C115.672 35.817 115.588 36.146 115.399 36.4127C115.162 36.5834 114.871 36.6612 114.581 36.6319H113.34C113.041 36.6695 112.738 36.5926 112.493 36.4164C112.323 36.1404 112.252 35.814 112.29 35.4914V32.4602C112.294 32.435 112.292 32.4092 112.284 32.3849C112.276 32.3607 112.262 32.3387 112.244 32.3205C112.226 32.3025 112.205 32.289 112.18 32.2809C112.156 32.2729 112.131 32.2707 112.106 32.2745H111.612C111.587 32.2707 111.562 32.2729 111.537 32.2809C111.514 32.289 111.492 32.3025 111.474 32.3205C111.456 32.3387 111.442 32.3607 111.435 32.3849C111.427 32.4092 111.424 32.435 111.429 32.4602V35.432C111.382 35.9835 111.525 36.5344 111.833 36.9922C112.099 37.3154 112.596 37.4751 113.306 37.4751H114.165C114.932 37.4751 115.414 37.2485 115.616 36.7953V37.293C115.616 37.4157 115.675 37.4751 115.8 37.4751H116.291C116.416 37.4751 116.475 37.4157 116.475 37.293V32.4825C116.489 32.345 116.431 32.2856 116.305 32.2856Z" fill="#F04B54"/>
<path d="M128.027 32.2742H127.824C126.997 32.2742 126.462 32.5218 126.218 33.0171C125.985 32.5218 125.442 32.2742 124.59 32.2742H124.392C123.625 32.2742 123.139 32.5008 122.94 32.9466V32.46C122.944 32.4347 122.942 32.4089 122.934 32.3847C122.926 32.3604 122.912 32.3383 122.894 32.3203C122.876 32.3022 122.854 32.2886 122.83 32.2807C122.807 32.2727 122.781 32.2705 122.756 32.2742H122.262C122.238 32.2705 122.211 32.2727 122.187 32.2807C122.164 32.2886 122.141 32.3022 122.123 32.3203C122.106 32.3383 122.093 32.3604 122.085 32.3847C122.077 32.4089 122.074 32.4347 122.078 32.46V37.2668C122.074 37.2921 122.077 37.3178 122.085 37.3421C122.093 37.3664 122.106 37.3884 122.123 37.4064C122.141 37.4245 122.164 37.4381 122.187 37.4461C122.211 37.4541 122.238 37.4563 122.262 37.4525H122.756C122.781 37.4563 122.807 37.4541 122.83 37.4461C122.854 37.4381 122.876 37.4245 122.894 37.4064C122.912 37.3884 122.926 37.3664 122.934 37.3421C122.942 37.3178 122.944 37.2921 122.94 37.2668V34.2467C122.899 33.9194 122.982 33.5882 123.176 33.3218C123.409 33.1468 123.7 33.066 123.99 33.0952H124.509C124.805 33.0585 125.105 33.1368 125.346 33.3143C125.516 33.5929 125.589 33.9214 125.552 34.2467V37.2779C125.548 37.3027 125.55 37.3281 125.558 37.3518C125.565 37.3757 125.579 37.3973 125.596 37.4151C125.614 37.4327 125.635 37.4461 125.659 37.4539C125.682 37.4617 125.707 37.4638 125.732 37.46H126.225C126.251 37.4636 126.276 37.4614 126.299 37.4536C126.323 37.4458 126.345 37.4326 126.362 37.415C126.38 37.3974 126.394 37.3758 126.403 37.352C126.411 37.3283 126.413 37.303 126.41 37.2779V34.2467C126.368 33.9194 126.453 33.5882 126.645 33.3218C126.879 33.1468 127.17 33.066 127.459 33.0952H127.979C128.278 33.0577 128.579 33.136 128.823 33.3143C128.995 33.5921 129.068 33.9213 129.029 34.2467V37.2779C129.026 37.303 129.029 37.3283 129.037 37.352C129.045 37.3758 129.058 37.3974 129.076 37.415C129.094 37.4326 129.116 37.4458 129.139 37.4536C129.164 37.4614 129.189 37.4636 129.213 37.46H129.707C129.731 37.4638 129.756 37.4617 129.78 37.4539C129.804 37.4461 129.825 37.4327 129.843 37.4151C129.861 37.3973 129.873 37.3757 129.881 37.3518C129.888 37.3281 129.891 37.3027 129.888 37.2779V34.3396C129.933 33.7885 129.794 33.2378 129.493 32.7757C129.227 32.4377 128.738 32.2742 128.027 32.2742Z" fill="#F04B54"/>
<path d="M138.482 32.2756H137.197C136.461 32.2756 135.967 32.4354 135.723 32.7549C135.42 33.2066 135.28 33.7493 135.326 34.2928V35.4072C135.278 35.9601 135.418 36.5129 135.723 36.9748C135.985 37.2942 136.486 37.454 137.197 37.454H139.776C139.8 37.4571 139.825 37.4544 139.849 37.4461C139.873 37.4379 139.894 37.4242 139.912 37.4062C139.929 37.3883 139.942 37.3664 139.949 37.3425C139.957 37.3185 139.959 37.2931 139.956 37.2683V36.8188C139.959 36.7938 139.957 36.7684 139.949 36.7445C139.942 36.7205 139.929 36.6988 139.912 36.6808C139.894 36.6629 139.873 36.6492 139.849 36.6409C139.825 36.6326 139.8 36.6299 139.776 36.633H137.197C136.898 36.6699 136.595 36.5918 136.35 36.4139C136.181 36.1347 136.109 35.8064 136.147 35.4814V35.3068H140.192C140.216 35.3107 140.243 35.3084 140.267 35.3004C140.29 35.2924 140.313 35.2788 140.331 35.2608C140.348 35.2427 140.361 35.2207 140.369 35.1965C140.377 35.1722 140.379 35.1464 140.376 35.1211V34.2928C140.421 33.7493 140.281 33.2066 139.978 32.7549C139.713 32.4354 139.215 32.2756 138.482 32.2756ZM139.518 34.5045H136.166V34.2296C136.129 33.9106 136.2 33.5884 136.368 33.3158C136.614 33.1379 136.916 33.0596 137.215 33.0966H138.468C138.767 33.0595 139.068 33.1378 139.312 33.3158C139.482 33.5878 139.554 33.9102 139.518 34.2296V34.5045Z" fill="#F04B54"/>
<path d="M150.729 32.2745H146.744C146.719 32.2707 146.693 32.2729 146.669 32.2809C146.645 32.289 146.624 32.3025 146.606 32.3205C146.588 32.3387 146.574 32.3607 146.566 32.3849C146.558 32.4092 146.556 32.435 146.56 32.4602V35.4803C146.589 35.7954 146.511 36.1112 146.338 36.3755C146.282 36.4513 146.209 36.5134 146.125 36.5577C146.043 36.602 145.95 36.6273 145.856 36.6319C145.831 36.6288 145.806 36.6314 145.783 36.6397C145.759 36.648 145.738 36.6617 145.721 36.6797C145.703 36.6976 145.69 36.7194 145.682 36.7433C145.674 36.7673 145.672 36.7927 145.676 36.8176V37.2671C145.672 37.292 145.674 37.3173 145.682 37.3413C145.69 37.3652 145.703 37.3871 145.721 37.4051C145.738 37.423 145.759 37.4367 145.783 37.445C145.806 37.4532 145.831 37.4559 145.856 37.4529C146.073 37.4625 146.289 37.4211 146.487 37.3321C146.685 37.2432 146.86 37.109 146.998 36.9401C147.308 36.4926 147.455 35.9505 147.414 35.406V33.0955H150.063V37.2783C150.059 37.3032 150.062 37.3286 150.071 37.3524C150.079 37.3761 150.092 37.3976 150.11 37.4152C150.127 37.4329 150.149 37.446 150.173 37.4538C150.197 37.4617 150.222 37.4638 150.247 37.4602H150.729C150.754 37.4638 150.78 37.4617 150.803 37.4538C150.826 37.446 150.849 37.4329 150.866 37.4152C150.884 37.3976 150.897 37.3761 150.905 37.3524C150.914 37.3286 150.916 37.3032 150.914 37.2783V32.4491C150.915 32.4247 150.912 32.4002 150.903 32.3774C150.895 32.3546 150.88 32.334 150.863 32.3173C150.845 32.3005 150.824 32.288 150.801 32.2805C150.778 32.2731 150.753 32.2711 150.729 32.2745Z" fill="#F04B54"/>
<path d="M161.041 34.8265C160.772 34.5071 160.266 34.3473 159.522 34.3473H157.139V32.4602C157.143 32.435 157.141 32.4092 157.133 32.3849C157.125 32.3607 157.111 32.3387 157.093 32.3205C157.075 32.3025 157.054 32.289 157.029 32.2809C157.006 32.2729 156.98 32.2707 156.955 32.2745H156.462C156.437 32.2714 156.411 32.274 156.388 32.2824C156.365 32.2906 156.343 32.3043 156.325 32.3223C156.308 32.3402 156.295 32.3621 156.287 32.386C156.279 32.4099 156.277 32.4354 156.281 32.4602V37.2671C156.277 37.292 156.279 37.3173 156.287 37.3413C156.295 37.3652 156.308 37.3871 156.325 37.4051C156.343 37.423 156.365 37.4367 156.388 37.445C156.411 37.4532 156.437 37.4559 156.462 37.4529H159.541C160.278 37.4529 160.772 37.293 161.041 36.9736C161.138 36.8518 161.214 36.7151 161.268 36.5687C161.339 36.3518 161.372 36.1245 161.368 35.8964C161.372 35.6706 161.338 35.4458 161.268 35.2314C161.209 35.0878 161.132 34.9519 161.041 34.8265ZM160.373 36.4127C160.127 36.5905 159.824 36.6687 159.522 36.6319H157.139V35.1683H159.77C159.989 35.1651 160.203 35.24 160.373 35.38C160.436 35.4483 160.485 35.5292 160.514 35.6176C160.544 35.706 160.555 35.7997 160.547 35.8927C160.555 35.9864 160.543 36.0808 160.514 36.1701C160.486 36.2595 160.439 36.342 160.377 36.4127H160.373Z" fill="#F04B54"/>
<path d="M171.792 32.2745H171.299C171.274 32.2707 171.247 32.2729 171.224 32.2809C171.2 32.289 171.178 32.3025 171.16 32.3205C171.142 32.3387 171.129 32.3607 171.121 32.3849C171.113 32.4092 171.111 32.435 171.114 32.4602V34.4587H167.729V32.4602C167.733 32.435 167.731 32.4092 167.723 32.3849C167.715 32.3607 167.701 32.3387 167.683 32.3205C167.665 32.3025 167.644 32.289 167.619 32.2809C167.595 32.2729 167.57 32.2707 167.545 32.2745H167.051C167.026 32.2707 167.001 32.2729 166.976 32.2809C166.953 32.289 166.93 32.3025 166.912 32.3205C166.894 32.3387 166.881 32.3607 166.874 32.3849C166.866 32.4092 166.863 32.435 166.867 32.4602V37.2671C166.863 37.2923 166.866 37.3182 166.874 37.3424C166.881 37.3666 166.894 37.3886 166.912 37.4067C166.93 37.4248 166.953 37.4383 166.976 37.4463C167.001 37.4544 167.026 37.4566 167.051 37.4529H167.545C167.57 37.4566 167.595 37.4544 167.619 37.4463C167.644 37.4383 167.665 37.4248 167.683 37.4067C167.701 37.3886 167.715 37.3666 167.723 37.3424C167.731 37.3182 167.733 37.2923 167.729 37.2671V35.2797H171.114V37.2783C171.111 37.3032 171.113 37.3286 171.122 37.3524C171.131 37.3761 171.144 37.3976 171.162 37.4152C171.179 37.4329 171.201 37.446 171.225 37.4538C171.248 37.4617 171.274 37.4638 171.299 37.4602H171.792C171.817 37.4638 171.842 37.4617 171.865 37.4538C171.89 37.446 171.911 37.4329 171.929 37.4152C171.946 37.3976 171.96 37.3761 171.969 37.3524C171.977 37.3286 171.98 37.3032 171.976 37.2783V32.4491C171.978 32.4247 171.974 32.4002 171.966 32.3774C171.957 32.3546 171.944 32.334 171.926 32.3173C171.908 32.3005 171.887 32.288 171.864 32.2805C171.84 32.2731 171.816 32.2711 171.792 32.2745Z" fill="#F04B54"/>
<path d="M180.499 32.274H177.821C177.795 32.2708 177.77 32.2735 177.747 32.2818C177.723 32.2901 177.702 32.3037 177.685 32.3218C177.667 32.3397 177.654 32.3615 177.646 32.3855C177.639 32.4094 177.636 32.4348 177.64 32.4597V32.9091C177.636 32.9341 177.639 32.9595 177.646 32.9834C177.654 33.0074 177.667 33.0291 177.685 33.0471C177.702 33.0651 177.723 33.0787 177.747 33.0871C177.77 33.0953 177.795 33.0981 177.821 33.0949H180.48C180.741 33.0683 181.004 33.1214 181.236 33.2472C181.307 33.327 181.361 33.4214 181.392 33.524C181.424 33.6267 181.433 33.7349 181.42 33.8416C181.427 33.8856 181.424 33.9306 181.414 33.9738C181.403 34.0169 181.383 34.0574 181.355 34.0924C181.328 34.1273 181.294 34.1561 181.254 34.1769C181.216 34.1978 181.173 34.21 181.129 34.213L178.863 34.4619C178.401 34.4718 177.953 34.6291 177.585 34.9114C177.452 35.0622 177.35 35.2387 177.286 35.4304C177.223 35.622 177.199 35.8246 177.216 36.0258C177.216 36.9793 177.857 37.456 179.136 37.456H179.828C180.192 37.4776 180.557 37.414 180.893 37.2702C181.131 37.1357 181.316 36.9217 181.415 36.6648V37.2702C181.412 37.2956 181.415 37.3213 181.423 37.3455C181.43 37.3698 181.443 37.3919 181.461 37.4099C181.479 37.428 181.501 37.4416 181.525 37.4496C181.549 37.4575 181.575 37.4597 181.6 37.456H182.094C182.119 37.4591 182.144 37.4565 182.167 37.4481C182.191 37.4399 182.212 37.4262 182.229 37.4082C182.247 37.3902 182.26 37.3685 182.268 37.3445C182.275 37.3206 182.278 37.2952 182.274 37.2702V33.7933C182.294 33.582 182.268 33.3689 182.198 33.1687C182.129 32.9686 182.016 32.7862 181.869 32.6343C181.468 32.3578 180.983 32.2305 180.499 32.274ZM181.42 35.4538C181.454 35.7869 181.358 36.1206 181.151 36.3824C180.871 36.5916 180.524 36.6871 180.178 36.6499H179.146C178.447 36.6499 178.097 36.4159 178.097 35.9515C178.087 35.8545 178.097 35.7563 178.128 35.6639C178.16 35.5715 178.21 35.487 178.278 35.4166C178.499 35.2793 178.754 35.206 179.014 35.2049L181.434 34.9449L181.42 35.4538Z" fill="#F04B54"/>
<path d="M210.232 32.4193C210.21 32.3747 210.158 32.3524 210.08 32.3524H209.433C209.39 32.3527 209.347 32.3618 209.308 32.379C209.269 32.3962 209.233 32.4213 209.204 32.4527L207.278 34.5516H206.173V32.5344C206.175 32.5095 206.173 32.4841 206.165 32.4603C206.157 32.4366 206.143 32.4151 206.125 32.3974C206.107 32.3798 206.085 32.3666 206.062 32.3588C206.039 32.351 206.014 32.3488 205.988 32.3524H205.495C205.47 32.3486 205.445 32.3508 205.422 32.3586C205.398 32.3664 205.377 32.3796 205.359 32.3974C205.342 32.4151 205.328 32.4368 205.32 32.4605C205.313 32.4844 205.31 32.5097 205.315 32.5344V37.3413C205.315 37.4676 205.373 37.5271 205.495 37.5271H205.981C206.006 37.5308 206.031 37.5286 206.056 37.5206C206.08 37.5126 206.102 37.499 206.12 37.4809C206.138 37.4629 206.151 37.4408 206.159 37.4166C206.166 37.3924 206.169 37.3665 206.165 37.3413V35.3428H207.27L209.186 37.4268C209.215 37.4581 209.25 37.4833 209.29 37.5005C209.329 37.5177 209.371 37.5267 209.414 37.5271H210.055C210.133 37.5271 210.184 37.5048 210.206 37.4564C210.228 37.4082 210.206 37.3598 210.154 37.2967L208.025 34.9378L210.173 32.5828C210.235 32.5196 210.25 32.4825 210.232 32.4193Z" fill="#F04B54"/>
<path d="M218.75 32.3542H217.232C216.495 32.3542 216.004 32.514 215.758 32.8335C215.455 33.2849 215.315 33.8279 215.361 34.3714V35.4858C215.313 36.0376 215.453 36.5894 215.758 37.0497C216.024 37.3691 216.515 37.5288 217.232 37.5288H218.75C219.486 37.5288 219.983 37.3691 220.242 37.0497C220.546 36.5894 220.688 36.0376 220.639 35.4858V34.3714C220.686 33.8279 220.545 33.2849 220.242 32.8335C219.976 32.514 219.479 32.3542 218.75 32.3542ZM219.781 35.5563C219.819 35.8818 219.746 36.2104 219.574 36.4887C219.331 36.667 219.029 36.7454 218.732 36.7079H217.257C216.959 36.7454 216.658 36.667 216.414 36.4887C216.243 36.2104 216.17 35.8818 216.208 35.5563V34.3045C216.171 33.9863 216.244 33.6648 216.414 33.3944C216.656 33.2127 216.959 33.1328 217.257 33.1715H218.732C219.03 33.1328 219.332 33.2127 219.574 33.3944C219.745 33.6648 219.818 33.9863 219.781 34.3045V35.5563Z" fill="#F04B54"/>
<path d="M232.639 32.3546H232.134C232.091 32.357 232.048 32.3708 232.011 32.395C231.974 32.4191 231.944 32.4526 231.925 32.492L229.45 35.7685L226.977 32.4846C226.957 32.4451 226.928 32.4117 226.891 32.3875C226.854 32.3634 226.812 32.3495 226.768 32.3472H226.241C226.138 32.3472 226.086 32.414 226.086 32.5292V37.3434C226.086 37.4698 226.145 37.5292 226.267 37.5292H226.76C226.786 37.533 226.811 37.5307 226.835 37.5227C226.859 37.5148 226.881 37.5012 226.899 37.4831C226.917 37.4651 226.93 37.443 226.938 37.4188C226.946 37.3945 226.948 37.3687 226.944 37.3434V33.7996L228.878 36.4779C228.896 36.5191 228.926 36.5543 228.963 36.5792C229 36.6042 229.044 36.618 229.088 36.6191H229.784C229.829 36.6189 229.873 36.6055 229.91 36.5804C229.948 36.5553 229.977 36.5196 229.995 36.4779L231.939 33.7996V37.3546C231.936 37.3796 231.939 37.4049 231.947 37.4287C231.955 37.4525 231.969 37.474 231.987 37.4916C232.005 37.5092 232.026 37.5225 232.05 37.5303C232.074 37.5381 232.099 37.5402 232.123 37.5366H232.614C232.739 37.5366 232.798 37.4772 232.798 37.3546V32.5255C232.799 32.5036 232.796 32.4816 232.789 32.4609C232.782 32.4402 232.77 32.4213 232.756 32.4052C232.74 32.3893 232.722 32.3765 232.703 32.3678C232.683 32.3591 232.661 32.3545 232.639 32.3546Z" fill="#F04B54"/>
<path d="M241.484 32.3524H240.581C239.811 32.3524 239.329 32.5753 239.125 33.0248V32.5344C239.13 32.5097 239.127 32.4844 239.12 32.4605C239.112 32.4368 239.098 32.4151 239.081 32.3974C239.063 32.3796 239.042 32.3664 239.018 32.3586C238.995 32.3508 238.97 32.3486 238.946 32.3524H238.452C238.427 32.3488 238.401 32.351 238.378 32.3588C238.355 32.3666 238.333 32.3798 238.315 32.3974C238.297 32.4151 238.284 32.4366 238.275 32.4603C238.267 32.4841 238.265 32.5095 238.267 32.5344V37.3413C238.264 37.3665 238.266 37.3924 238.274 37.4166C238.282 37.4408 238.295 37.4629 238.313 37.4809C238.331 37.499 238.353 37.5126 238.377 37.5206C238.401 37.5286 238.427 37.5308 238.452 37.5271H238.946C239.067 37.5271 239.125 37.4676 239.125 37.3413V34.3398C239.086 34.012 239.171 33.6811 239.366 33.4148C239.598 33.2398 239.887 33.1589 240.176 33.1883H241.475C241.771 33.1505 242.07 33.2305 242.308 33.4111C242.482 33.6873 242.555 34.0155 242.514 34.3398V37.371C242.512 37.396 242.514 37.4213 242.522 37.4451C242.53 37.4689 242.544 37.4904 242.562 37.508C242.58 37.5256 242.601 37.5389 242.625 37.5467C242.649 37.5545 242.674 37.5566 242.699 37.553H243.189C243.213 37.5568 243.238 37.5547 243.262 37.5469C243.286 37.5391 243.307 37.5258 243.325 37.5081C243.343 37.4903 243.355 37.4688 243.363 37.4449C243.371 37.4211 243.373 37.3957 243.37 37.371V34.3993C243.417 33.8474 243.277 33.2956 242.971 32.8354C242.714 32.5121 242.213 32.3524 241.484 32.3524Z" fill="#F04B54"/>
<path d="M251.894 32.3528H249.216C249.191 32.349 249.166 32.3511 249.143 32.3589C249.119 32.3667 249.098 32.38 249.08 32.3977C249.063 32.4155 249.049 32.4371 249.041 32.4609C249.034 32.4847 249.031 32.5101 249.035 32.5348V32.988C249.031 33.0128 249.034 33.0381 249.041 33.0619C249.049 33.0857 249.063 33.1073 249.08 33.1251C249.098 33.1428 249.119 33.1561 249.143 33.1639C249.166 33.1717 249.191 33.1738 249.216 33.17H251.875C252.131 33.1465 252.387 33.1995 252.612 33.3224C252.685 33.4017 252.739 33.4961 252.771 33.5986C252.803 33.7013 252.813 33.8098 252.8 33.9167C252.8 34.1396 252.704 34.2622 252.509 34.2881L250.244 34.5371C249.781 34.5462 249.333 34.705 248.966 34.9902C248.832 35.141 248.731 35.3175 248.667 35.5092C248.604 35.7008 248.58 35.9034 248.597 36.1046C248.597 37.0557 249.236 37.5311 250.516 37.5311H251.202C251.565 37.5548 251.928 37.4911 252.262 37.3454C252.502 37.2113 252.688 36.9972 252.789 36.7399V37.3454C252.785 37.3707 252.787 37.3964 252.795 37.4206C252.803 37.4449 252.817 37.467 252.835 37.485C252.853 37.5031 252.874 37.5167 252.899 37.5247C252.923 37.5326 252.948 37.5348 252.973 37.5311H253.499C253.525 37.5348 253.551 37.5326 253.574 37.5247C253.598 37.5167 253.621 37.5031 253.638 37.485C253.656 37.467 253.669 37.4449 253.677 37.4206C253.686 37.3964 253.687 37.3707 253.684 37.3454V33.8721C253.703 33.6603 253.677 33.447 253.606 33.2464C253.536 33.0458 253.425 32.8627 253.279 32.7094C252.873 32.4308 252.382 32.3047 251.894 32.3528ZM252.815 35.5289C252.85 35.8621 252.753 36.1957 252.546 36.4575C252.266 36.6668 251.919 36.7622 251.573 36.725H250.553C249.85 36.725 249.504 36.491 249.504 36.0266C249.493 35.9296 249.503 35.8314 249.535 35.739C249.566 35.6466 249.617 35.5622 249.683 35.4918C249.906 35.3538 250.16 35.2805 250.42 35.28L252.84 35.0237L252.815 35.5289Z" fill="#F04B54"/>
<path d="M264.117 32.3525H263.627C263.502 32.3525 263.443 32.412 263.443 32.5346V34.5331H260.054V32.5346C260.059 32.5098 260.056 32.4845 260.049 32.4607C260.041 32.4369 260.027 32.4152 260.01 32.3975C259.992 32.3797 259.97 32.3665 259.947 32.3587C259.924 32.3509 259.899 32.3487 259.874 32.3525H259.391C259.367 32.3489 259.342 32.3511 259.318 32.3589C259.294 32.3667 259.273 32.3799 259.255 32.3975C259.237 32.4152 259.223 32.4367 259.215 32.4605C259.207 32.4842 259.204 32.5096 259.207 32.5346V37.3415C259.203 37.3667 259.206 37.3925 259.213 37.4167C259.221 37.4409 259.235 37.463 259.253 37.481C259.271 37.4991 259.292 37.5127 259.317 37.5207C259.341 37.5287 259.366 37.5309 259.391 37.5272H259.885C260.006 37.5272 260.066 37.4677 260.066 37.3415V35.3541H263.443V37.3526C263.443 37.4751 263.502 37.5346 263.627 37.5346H264.117C264.242 37.5346 264.302 37.4751 264.302 37.3526V32.5234C264.302 32.412 264.242 32.3525 264.117 32.3525Z" fill="#F04B54"/>
<path d="M274.677 32.3599H274.184C274.158 32.3561 274.133 32.3583 274.109 32.3663C274.085 32.3744 274.063 32.3879 274.045 32.4059C274.027 32.424 274.014 32.446 274.006 32.4703C273.997 32.4945 273.996 32.5203 273.999 32.5456V35.5657C274.041 35.8913 273.958 36.2206 273.767 36.487C273.53 36.6576 273.239 36.7355 272.95 36.7061H271.709C271.409 36.7437 271.107 36.6668 270.861 36.4906C270.69 36.2146 270.619 35.8883 270.658 35.5657V32.5344C270.662 32.5095 270.659 32.4841 270.651 32.4603C270.642 32.4366 270.628 32.4151 270.611 32.3974C270.593 32.3798 270.572 32.3666 270.547 32.3588C270.524 32.351 270.499 32.3488 270.474 32.3524H269.981C269.956 32.3486 269.93 32.3508 269.907 32.3586C269.884 32.3664 269.862 32.3796 269.845 32.3974C269.827 32.4151 269.814 32.4368 269.806 32.4605C269.798 32.4844 269.796 32.5097 269.8 32.5344V35.5062C269.752 36.0573 269.894 36.6082 270.201 37.0664C270.466 37.3896 270.964 37.5493 271.675 37.5493H272.533C273.299 37.5493 273.786 37.3227 273.985 36.8695V37.3673C273.981 37.3923 273.984 37.4176 273.992 37.4414C274 37.4651 274.014 37.4867 274.032 37.5043C274.05 37.5219 274.071 37.5352 274.095 37.543C274.119 37.5508 274.144 37.5529 274.168 37.5493H274.662C274.687 37.5531 274.712 37.551 274.736 37.5432C274.759 37.5354 274.781 37.5221 274.798 37.5044C274.816 37.4866 274.829 37.465 274.837 37.4412C274.845 37.4174 274.846 37.3921 274.843 37.3673V32.5456C274.846 32.522 274.844 32.498 274.837 32.4753C274.83 32.4525 274.819 32.4316 274.802 32.4139C274.787 32.3962 274.767 32.3822 274.746 32.3729C274.724 32.3636 274.701 32.3591 274.677 32.3599Z" fill="#F04B54"/>
<path d="M285.247 32.3543H282.171C281.434 32.3543 280.941 32.514 280.672 32.8335C280.574 32.9547 280.497 33.0916 280.443 33.2384C280.373 33.4552 280.339 33.6826 280.344 33.9108C280.34 34.1353 280.374 34.3588 280.443 34.572C280.498 34.7185 280.575 34.8551 280.672 34.9769C280.941 35.2964 281.445 35.4561 282.19 35.4561H282.227L280.617 37.3135C280.569 37.3766 280.554 37.4286 280.573 37.4732C280.591 37.5177 280.638 37.5438 280.72 37.5438H281.401C281.444 37.5449 281.487 37.5365 281.527 37.5192C281.566 37.5019 281.602 37.476 281.629 37.4435L283.294 35.4896H284.554V37.3766C284.554 37.5029 284.614 37.5624 284.735 37.5624H285.229C285.254 37.5661 285.279 37.5639 285.303 37.5559C285.327 37.5479 285.349 37.5343 285.367 37.5163C285.385 37.4982 285.399 37.4762 285.406 37.4519C285.414 37.4277 285.417 37.4018 285.413 37.3766V32.5364C285.415 32.513 285.413 32.4895 285.406 32.4672C285.399 32.4448 285.387 32.4244 285.371 32.4071C285.356 32.3899 285.336 32.3762 285.315 32.3671C285.294 32.358 285.27 32.3536 285.247 32.3543ZM284.573 34.6352H281.942C281.723 34.641 281.508 34.5657 281.339 34.4234C281.276 34.3557 281.228 34.2753 281.198 34.1876C281.168 34.0999 281.157 34.0068 281.165 33.9145C281.157 33.8205 281.169 33.7259 281.199 33.6364C281.228 33.5469 281.276 33.4646 281.339 33.3944C281.584 33.2137 281.889 33.134 282.19 33.1715H284.573V34.6352Z" fill="#F04B54"/>
<path d="M192.602 32.2757H189.523C188.786 32.2757 188.296 32.4354 188.027 32.755C187.929 32.8758 187.852 33.0127 187.799 33.1598C187.728 33.3768 187.695 33.6041 187.7 33.8322C187.695 34.0579 187.728 34.2828 187.799 34.4972C187.852 34.6442 187.929 34.7811 188.027 34.902C188.298 35.2215 188.802 35.3812 189.542 35.3812H189.578L187.972 37.2386C187.951 37.2585 187.935 37.284 187.928 37.3122C187.92 37.3404 187.92 37.3702 187.928 37.3983C187.928 37.4467 187.994 37.4689 188.071 37.4689H188.756C188.8 37.4701 188.843 37.4616 188.881 37.4443C188.921 37.427 188.956 37.4011 188.985 37.3686L190.646 35.4147H191.91V37.3017C191.906 37.3267 191.909 37.3521 191.916 37.376C191.924 37.3999 191.937 37.4217 191.955 37.4397C191.972 37.4576 191.993 37.4713 192.017 37.4797C192.04 37.4879 192.065 37.4906 192.09 37.4875H192.584C192.609 37.4913 192.634 37.489 192.659 37.481C192.682 37.473 192.705 37.4594 192.723 37.4414C192.741 37.4233 192.753 37.4013 192.761 37.377C192.769 37.3528 192.772 37.327 192.768 37.3017V32.4615C192.771 32.4379 192.769 32.4139 192.762 32.3912C192.756 32.3684 192.743 32.3475 192.728 32.3298C192.712 32.3121 192.693 32.298 192.671 32.2888C192.649 32.2794 192.625 32.275 192.602 32.2757ZM191.928 34.5603H189.298C189.077 34.5661 188.863 34.4908 188.694 34.3485C188.631 34.2809 188.584 34.2005 188.553 34.1128C188.523 34.0251 188.513 33.9319 188.521 33.8396C188.513 33.745 188.524 33.6499 188.554 33.5599C188.584 33.4698 188.631 33.3868 188.694 33.3158C188.939 33.1387 189.241 33.0605 189.542 33.0967H191.928V34.5603Z" fill="#F04B54"/>
</g>
<defs>
<clipPath id="clip0_0_243">
<rect width="286" height="39" fill="white"/>
</clipPath>
</defs>
</svg>
