<svg width="43" height="43" viewBox="0 0 43 43" fill="none" xmlns="http://www.w3.org/2000/svg">
<path d="M42.4435 13.8609C42.4435 6.28232 36.2998 0.138672 28.7212 0.138672C24.3241 0.138672 20.41 2.21242 17.8986 5.43167C28.6095 5.84577 37.1657 14.6597 37.1657 25.472C37.1657 25.7049 37.1617 25.9368 37.1538 26.1678L37.8553 26.3555C39.8953 26.9013 41.7617 25.035 41.2158 22.9949L40.9469 21.99C40.7297 21.1781 40.8603 20.3205 41.2095 19.5561C42.0019 17.8213 42.4435 15.8927 42.4435 13.8609Z" fill="#F04B54"/>
<path fill-rule="evenodd" clip-rule="evenodd" d="M33.999 25.472C33.999 34.7995 26.4376 42.3609 17.1101 42.3609C14.5018 42.3609 12.0316 41.7696 9.82628 40.7138C9.06829 40.3509 8.20954 40.2235 7.39772 40.4407L4.80942 41.1333C2.76938 41.6791 0.90303 39.8128 1.44887 37.7727L2.14141 35.1844C2.35862 34.3726 2.23121 33.5138 1.86833 32.7559C0.812508 30.5505 0.221237 28.0803 0.221237 25.472C0.221237 16.1445 7.78265 8.58312 17.1101 8.58312C26.4376 8.58312 33.999 16.1445 33.999 25.472ZM9.72124 27.5831C10.8872 27.5831 11.8323 26.6379 11.8323 25.472C11.8323 24.3061 10.8872 23.3609 9.72124 23.3609C8.5553 23.3609 7.61013 24.3061 7.61013 25.472C7.61013 26.6379 8.5553 27.5831 9.72124 27.5831ZM17.1101 27.5831C18.2761 27.5831 19.2212 26.6379 19.2212 25.472C19.2212 24.3061 18.2761 23.3609 17.1101 23.3609C15.9442 23.3609 14.999 24.3061 14.999 25.472C14.999 26.6379 15.9442 27.5831 17.1101 27.5831ZM24.499 27.5831C25.6649 27.5831 26.6101 26.6379 26.6101 25.472C26.6101 24.3061 25.6649 23.3609 24.499 23.3609C23.3331 23.3609 22.3879 24.3061 22.3879 25.472C22.3879 26.6379 23.3331 27.5831 24.499 27.5831Z" fill="#F04B54"/>
</svg>
