<svg width="41" height="43" viewBox="0 0 41 43" fill="none" xmlns="http://www.w3.org/2000/svg">
<path fill-rule="evenodd" clip-rule="evenodd" d="M24.6434 0.460069C23.8616 0.138672 22.8704 0.138672 20.8881 0.138672C18.9058 0.138672 17.9147 0.138672 17.1329 0.460069C16.0904 0.888599 15.2622 1.71056 14.8304 2.74512C14.6333 3.21739 14.5562 3.76662 14.526 4.56776C14.4816 5.74511 13.8732 6.83489 12.8452 7.42397C11.8171 8.01304 10.5619 7.99103 9.51239 7.4405C8.79818 7.06586 8.28034 6.85754 7.76967 6.79082C6.65099 6.64465 5.51963 6.94551 4.62446 7.6272C3.95309 8.13847 3.45752 8.99034 2.46638 10.6941C1.47523 12.3978 0.97966 13.2497 0.869202 14.0824C0.721926 15.1926 1.02507 16.3154 1.71196 17.2038C2.02548 17.6093 2.4661 17.9502 3.14996 18.3766C4.15529 19.0035 4.80215 20.0715 4.80208 21.2498C4.80202 22.4281 4.15518 23.4959 3.14995 24.1227C2.46598 24.5492 2.0253 24.8901 1.71175 25.2956C1.02487 26.184 0.721717 27.3068 0.868994 28.4171C0.979451 29.2497 1.47502 30.1016 2.46617 31.8053C3.45731 33.5091 3.95288 34.361 4.62426 34.8722C5.51942 35.5539 6.65078 35.8548 7.76946 35.7086C8.28011 35.6419 8.79792 35.4336 9.51205 35.059C10.5617 34.5084 11.8169 34.4864 12.8451 35.0755C13.8732 35.6646 14.4816 36.7545 14.526 37.9319C14.5562 38.733 14.6333 39.2822 14.8304 39.7544C15.2622 40.789 16.0904 41.611 17.1329 42.0395C17.9147 42.3609 18.9058 42.3609 20.8881 42.3609C22.8704 42.3609 23.8616 42.3609 24.6434 42.0395C25.6858 41.611 26.5141 40.789 26.9458 39.7544C27.143 39.2822 27.2201 38.7329 27.2503 37.9317C27.2946 36.7544 27.903 35.6647 28.931 35.0755C29.9591 34.4863 31.2144 34.5083 32.2641 35.0589C32.9782 35.4335 33.496 35.6417 34.0066 35.7085C35.1253 35.8546 36.2566 35.5538 37.1518 34.8721C37.8232 34.3608 38.3187 33.5089 39.3099 31.8052C40.301 30.1015 40.7966 29.2496 40.9071 28.4169C41.0543 27.3067 40.7512 26.1839 40.0643 25.2955C39.7508 24.89 39.3101 24.5491 38.6262 24.1226C37.6209 23.4957 36.9741 22.4278 36.9742 21.2496C36.9743 20.0715 37.621 19.0037 38.6262 18.377C39.3102 17.9504 39.751 17.6095 40.0645 17.2039C40.7514 16.3155 41.0546 15.1927 40.9073 14.0825C40.7968 13.2498 40.3012 12.398 39.3101 10.6942C38.319 8.99049 37.8234 8.13862 37.152 7.62735C36.2569 6.94566 35.1255 6.6448 34.0068 6.79096C33.4962 6.85768 32.9784 7.06598 32.2642 7.44058C31.2146 7.99115 29.9594 8.01316 28.9312 7.42404C27.9031 6.83492 27.2947 5.74507 27.2503 4.56765C27.2201 3.76657 27.1429 3.21737 26.9458 2.74512C26.5141 1.71056 25.6858 0.888599 24.6434 0.460069ZM20.8881 27.5831C24.4126 27.5831 27.2697 24.7476 27.2697 21.2498C27.2697 17.752 24.4126 14.9165 20.8881 14.9165C17.3637 14.9165 14.5066 17.752 14.5066 21.2498C14.5066 24.7476 17.3637 27.5831 20.8881 27.5831Z" fill="#F04B54"/>
</svg>
