<svg width="36" height="36" viewBox="0 0 36 36" fill="none" xmlns="http://www.w3.org/2000/svg">
<rect x="0.00012207" width="36" height="36" rx="18" fill="#FCDBDD"/>
<path fill-rule="evenodd" clip-rule="evenodd" d="M24.4832 25.7901L24.4839 25.7884L24.5013 25.7449L27.5001 10.6258V10.5767C27.5001 10.2 27.3609 9.87113 27.0581 9.67387C26.7929 9.50121 26.4882 9.48892 26.2745 9.50514C26.0485 9.52229 25.8353 9.57871 25.6878 9.62567C25.6119 9.64983 25.5484 9.67311 25.5029 9.69071C25.4801 9.69955 25.4617 9.70705 25.4482 9.71263L25.435 9.71819L8.7152 16.2771L8.7106 16.2788C8.70157 16.2821 8.68963 16.2865 8.6752 16.2921C8.64645 16.3033 8.60731 16.3193 8.56133 16.3402C8.47105 16.3811 8.34631 16.4442 8.21981 16.5309C8.00496 16.678 7.59584 17.0263 7.66493 17.5785C7.72215 18.036 8.03745 18.3265 8.25002 18.4769C8.36397 18.5575 8.47298 18.6156 8.55281 18.6536C8.59326 18.6729 8.62761 18.6876 8.6532 18.6981C8.66603 18.7033 8.67676 18.7075 8.68505 18.7106L8.69568 18.7146L8.70247 18.7171L11.6277 19.7019C11.6178 19.8854 11.636 20.0726 11.6847 20.2572L13.15 25.8156C13.3237 26.4747 13.92 26.9337 14.6015 26.9333C15.2125 26.9328 15.7543 26.5632 15.9845 26.0118L18.2722 23.5657L22.2011 26.578L22.257 26.6023C22.614 26.7581 22.9475 26.8075 23.2524 26.7658C23.5569 26.7242 23.7989 26.5965 23.9806 26.4511C24.1595 26.308 24.2821 26.1465 24.3592 26.0249C24.3983 25.9631 24.4275 25.9088 24.4478 25.868C24.4579 25.8475 24.466 25.8301 24.472 25.8166L24.4795 25.7991L24.4822 25.7927L24.4832 25.7901ZM13.1351 19.8748C13.1018 19.7485 13.1541 19.6151 13.2644 19.5451L23.1864 13.2442C23.1864 13.2442 23.77 12.8899 23.7491 13.2442C23.7491 13.2442 23.8533 13.3068 23.5406 13.5985C23.2439 13.8756 16.4689 20.4166 15.7833 21.0785C15.7438 21.1167 15.7201 21.1605 15.7062 21.2137L14.6004 25.4332L13.1351 19.8748Z" fill="#F04B54"/>
</svg>
