<svg width="36" height="36" viewBox="0 0 36 36" fill="none" xmlns="http://www.w3.org/2000/svg">
<rect x="0.00012207" width="36" height="36" rx="18" fill="#FCDBDD"/>
<path d="M27.5036 24.381H25.2221C24.3589 24.381 24.0993 23.682 22.5512 22.1339C21.2001 20.8313 20.6293 20.6686 20.2869 20.6686C19.8146 20.6686 19.6848 20.7984 19.6848 21.4505V23.5021C19.6848 24.0573 19.505 24.3825 18.0554 24.3825C16.6486 24.288 15.2843 23.8606 14.0751 23.1355C12.8658 22.4104 11.846 21.4084 11.0999 20.212C9.32841 18.0071 8.09582 15.4193 7.50012 12.6544C7.50012 12.312 7.62991 12.0023 8.282 12.0023H10.5619C11.1483 12.0023 11.3595 12.2635 11.5893 12.8655C12.6965 16.1244 14.5855 18.9579 15.3517 18.9579C15.6457 18.9579 15.7739 18.8281 15.7739 18.0947V14.7389C15.677 13.208 14.8638 13.0782 14.8638 12.5246C14.8743 12.3786 14.9412 12.2424 15.0503 12.1449C15.1595 12.0474 15.3024 11.9963 15.4487 12.0023H19.0328C19.5222 12.0023 19.6848 12.2463 19.6848 12.8327V17.3613C19.6848 17.8508 19.8959 18.0134 20.0429 18.0134C20.3369 18.0134 20.5637 17.8508 21.1016 17.3128C22.257 15.9038 23.201 14.334 23.9038 12.6529C23.9757 12.4509 24.1116 12.278 24.2909 12.1606C24.4702 12.0431 24.683 11.9876 24.8968 12.0023H27.1783C27.8617 12.0023 28.0071 12.3448 27.8617 12.8327C27.0321 14.6911 26.0056 16.4552 24.7999 18.0947C24.5544 18.47 24.4558 18.6655 24.7999 19.1049C25.0266 19.4473 25.8257 20.1151 26.3636 20.7499C27.1453 21.5297 27.7945 22.4319 28.2855 23.4208C28.4809 24.0557 28.1541 24.381 27.5036 24.381Z" fill="#F04B54"/>
</svg>
