<svg xmlns="http://www.w3.org/2000/svg" version="1.1" viewBox="0 0 24 24">
<g stroke-width="2.00" fill="none" stroke-linecap="butt">
<path stroke="#fcdbdd" vector-effect="non-scaling-stroke" d="   M 20.25 3.46   L 19.74 3.63   A 1.11 1.10 0.4 0 0 19.03 4.32   Q 17.84 7.76 15.73 10.66   A 0.48 0.48 0.0 0 1 14.99 10.71   Q 13.31 8.98 11.04 8.75"/>
<path stroke="#fcdbdd" vector-effect="non-scaling-stroke" d="   M 11.04 8.75   L 10.34 6.91   Q 9.53 4.82 7.75 6.19   C 4.30 8.83 7.16 11.90 8.75 14.46"/>
<path stroke="#fcdbdd" vector-effect="non-scaling-stroke" d="   M 8.75 14.46   Q 7.73 18.66 5.00 22.04"/>
<path stroke="#fcdbdd" vector-effect="non-scaling-stroke" d="   M 8.75 14.46   C 11.20 16.71 17.19 20.42 17.99 15.08   A 1.02 1.02 0.0 0 0 17.69 14.21   Q 15.85 12.45 13.71 13.50   A 1.18 1.17 42.8 0 1 12.75 13.53   Q 9.34 12.13 11.04 8.75"/>
</g>
<path fill="#fcdbdd" d="   M 10.81 0.00   L 13.31 0.00   Q 17.39 0.56 20.25 3.46   L 19.74 3.63   A 1.11 1.10 0.4 0 0 19.03 4.32   Q 17.84 7.76 15.73 10.66   A 0.48 0.48 0.0 0 1 14.99 10.71   Q 13.31 8.98 11.04 8.75   L 10.34 6.91   Q 9.53 4.82 7.75 6.19   C 4.30 8.83 7.16 11.90 8.75 14.46   Q 7.73 18.66 5.00 22.04   L 0.69 23.63   Q -0.04 23.90 0.25 23.18   L 1.77 19.36   A 1.33 1.30 -44.4 0 0 1.79 18.42   L 0.00 13.44   L 0.00 10.69   Q 1.73 1.64 10.81 0.00   Z"/>
<path fill="#fcdbdd" d="   M 20.25 3.46   Q 23.58 6.64 24.00 11.31   L 24.00 12.81   Q 22.45 22.55 12.69 24.00   L 10.69 24.00   L 5.00 22.04   Q 7.73 18.66 8.75 14.46   C 11.20 16.71 17.19 20.42 17.99 15.08   A 1.02 1.02 0.0 0 0 17.69 14.21   Q 15.85 12.45 13.71 13.50   A 1.18 1.17 42.8 0 1 12.75 13.53   Q 9.34 12.13 11.04 8.75   Q 13.31 8.98 14.99 10.71   A 0.48 0.48 0.0 0 0 15.73 10.66   Q 17.84 7.76 19.03 4.32   A 1.11 1.10 0.4 0 1 19.74 3.63   L 20.25 3.46   Z"/>
<path fill="#F04B54" d="   M 11.04 8.75   Q 9.34 12.13 12.75 13.53   A 1.18 1.17 42.8 0 0 13.71 13.50   Q 15.85 12.45 17.69 14.21   A 1.02 1.02 0.0 0 1 17.99 15.08   C 17.19 20.42 11.20 16.71 8.75 14.46   C 7.16 11.90 4.30 8.83 7.75 6.19   Q 9.53 4.82 10.34 6.91   L 11.04 8.75   Z"/>
</svg>