<svg width="57" height="57" viewBox="0 0 57 57" fill="none" xmlns="http://www.w3.org/2000/svg">
<path d="M4.75098 28.5C4.75098 17.3041 4.75098 11.7062 8.22908 8.22811C11.7072 4.75 17.3051 4.75 28.501 4.75C39.6968 4.75 45.2948 4.75 48.7729 8.22811C52.251 11.7062 52.251 17.3041 52.251 28.5C52.251 39.6959 52.251 45.2938 48.7729 48.7719C45.2948 52.25 39.6968 52.25 28.501 52.25C17.3051 52.25 11.7072 52.25 8.22908 48.7719C4.75098 45.2938 4.75098 39.6959 4.75098 28.5Z" fill="#F04B54"/>
<path fill-rule="evenodd" clip-rule="evenodd" d="M28.501 17.2188C29.4847 17.2188 30.2822 18.0162 30.2822 19V27.7622L35.698 33.178C36.3936 33.8736 36.3936 35.0014 35.698 35.697C35.0024 36.3927 33.8746 36.3927 33.1789 35.697L27.2414 29.7595C26.9074 29.4255 26.7197 28.9724 26.7197 28.5V19C26.7197 18.0162 27.5172 17.2188 28.501 17.2188Z" fill="white"/>
</svg>
