<svg width="24" height="24" viewBox="0 0 24 24" fill="none" xmlns="http://www.w3.org/2000/svg">
<g id="icon/social networks">
<path id="Subtract" fill-rule="evenodd" clip-rule="evenodd" d="M2.18406 21.3314C2.10224 21.6284 2.37273 21.9025 2.67078 21.8247L7.27812 20.6213C8.73247 21.409 10.3699 21.8275 12.037 21.8275H12.0419C17.5279 21.8275 21.9999 17.3815 21.9999 11.9163C21.9999 9.26735 20.9659 6.77594 19.0862 4.90491C17.2064 3.03397 14.7082 2 12.0419 2C6.55595 2 2.08399 6.44605 2.08399 11.9114C2.08336 13.65 2.54228 15.3582 3.41467 16.8645L2.18406 21.3314ZM8.88584 7.16985C9.0688 7.17475 9.27164 7.18465 9.46463 7.61303C9.5926 7.89821 9.80818 8.4232 9.98379 8.85087C10.1204 9.18366 10.2329 9.45751 10.261 9.51356C10.3253 9.64156 10.3649 9.78926 10.2808 9.96156C10.2709 9.98188 10.2615 10.0013 10.2525 10.02C10.1851 10.16 10.1371 10.2597 10.0236 10.3899C9.97698 10.4435 9.92839 10.5022 9.87998 10.5607C9.79484 10.6636 9.71025 10.7658 9.63774 10.838C9.50914 10.9659 9.37553 11.1039 9.52392 11.3599C9.6724 11.6159 10.1918 12.4579 10.9586 13.1373C11.7829 13.8712 12.4997 14.1805 12.8621 14.3368C12.9324 14.3672 12.9894 14.3918 13.0312 14.4126C13.2885 14.5406 13.4418 14.5209 13.5902 14.3486C13.7387 14.1762 14.2333 13.6001 14.4065 13.3441C14.5747 13.0881 14.7478 13.1275 14.9853 13.2161C15.2227 13.3047 16.4891 13.9251 16.7463 14.0531C16.7971 14.0784 16.8447 14.1012 16.8888 14.1224C17.0677 14.2082 17.1894 14.2665 17.241 14.3535C17.3053 14.4618 17.3053 14.9739 17.0926 15.5746C16.875 16.1752 15.8262 16.7513 15.3513 16.7956C15.3063 16.7999 15.2616 16.8053 15.2155 16.8108C14.7803 16.8635 14.2278 16.9303 12.2595 16.1555C9.83414 15.2018 8.23311 12.8354 7.90942 12.357C7.88387 12.3192 7.86628 12.2932 7.85687 12.2806L7.85139 12.2733C7.70413 12.0762 6.80318 10.8707 6.80318 9.62685C6.80318 8.43682 7.3894 7.81726 7.65679 7.53467C7.67373 7.51676 7.6894 7.50021 7.70355 7.48494C7.94096 7.22895 8.21804 7.16495 8.39115 7.16495C8.56434 7.16495 8.73745 7.16495 8.88584 7.16985Z" fill="#F04B54"/>
</g>
</svg>
