<svg width="57" height="57" viewBox="0 0 57 57" fill="none" xmlns="http://www.w3.org/2000/svg">
<path d="M5.78613 12.2229C4.75 13.4023 4.75 15.4245 4.75 19.4688V41.7778C4.75 44.642 4.75 46.0741 5.49717 47.1523C6.24433 48.2305 7.55062 48.6833 10.1632 49.5891L13.2369 50.6547C14.9016 51.2318 16.1826 51.6759 17.2575 51.9618C17.9588 52.1484 18.6042 51.5979 18.6042 50.8723V14.8906C18.6042 14.2995 18.1679 13.8005 17.5949 13.6552C16.6705 13.4207 15.5593 13.0355 14.0363 12.5075C10.3473 11.2286 8.50283 10.5891 7.09939 11.2385C6.6011 11.469 6.154 11.8042 5.78613 12.2229Z" fill="#F04B54"/>
<path d="M29.9734 8.26642L26.3255 10.7958C25.0058 11.7108 24.0386 12.3815 23.2127 12.8596C22.8212 13.0861 22.5625 13.4961 22.5625 13.9483V49.6848C22.5625 50.5649 23.4745 51.1145 24.2159 50.6402C25.0117 50.1311 25.9229 49.4993 27.0266 48.734L30.6745 46.2046C31.9942 45.2896 32.9614 44.619 33.7873 44.1409C34.1788 43.9143 34.4375 43.5044 34.4375 43.0521V7.31565C34.4375 6.4355 33.5256 5.88597 32.7841 6.36026C31.9883 6.86933 31.0771 7.50115 29.9734 8.26642Z" fill="#F04B54"/>
<path d="M46.8368 7.41136L43.7631 6.34575C42.0982 5.76857 40.8175 5.32456 39.7425 5.0386C39.0412 4.85205 38.3958 5.4025 38.3958 6.12817V42.1098C38.3958 42.701 38.8321 43.1999 39.4051 43.3453C40.3295 43.5797 41.4408 43.965 42.9637 44.493C46.6527 45.7719 48.4972 46.4113 49.9006 45.762C50.3989 45.5314 50.846 45.1962 51.2139 44.7775C52.25 43.5981 52.25 41.576 52.25 37.5317V15.2226C52.25 12.3584 52.25 10.9263 51.5028 9.84814C50.7557 8.76998 49.4494 8.31711 46.8368 7.41136Z" fill="#F04B54"/>
</svg>
