<svg width="57" height="57" viewBox="0 0 57 57" fill="none" xmlns="http://www.w3.org/2000/svg">
<path d="M26.7185 4.94629C26.1404 5.07515 25.5726 5.26749 25.0253 5.52332C15.5639 9.94566 9.49976 22.3121 9.49976 32.9098C9.49976 42.9797 17.0603 51.2522 26.7185 52.1663V4.94629Z" fill="#F04B54"/>
<path d="M30.281 52.1663C39.9392 51.2522 47.4998 42.9797 47.4998 32.9098C47.4998 31.9455 47.4496 30.9666 47.3511 29.9803L30.281 47.0505V52.1663Z" fill="#F04B54"/>
<path d="M43.3665 17.0518C42.4428 15.3304 41.3776 13.6995 40.1847 12.2093L30.281 22.1129V30.1373L43.3665 17.0518Z" fill="#F04B54"/>
<path d="M37.7823 9.57351C36.0361 7.89857 34.0901 6.5123 31.9742 5.52332C31.4269 5.26749 30.8591 5.07515 30.281 4.94629V17.0748L37.7823 9.57351Z" fill="#F04B54"/>
<path d="M44.9738 20.4827L30.281 35.1754V42.0123L46.3123 25.9811L46.6256 25.6677C46.2125 23.9157 45.6582 22.1739 44.9738 20.4827Z" fill="#F04B54"/>
</svg>
