<svg width="200" height="85" viewBox="0 0 200 85" fill="none" xmlns="http://www.w3.org/2000/svg">
<path d="M53.8522 60.0899H41.0493V54.6798H53.8239V60.0899H53.8522ZM56.4298 51.9606H38.5V65.5H41.0493V62.7808H56.3732V51.9606H56.4298ZM41.0493 27.6293L46.1761 22.2192V41.1687H41.0493V27.6293ZM38.5 43.8596H48.697V19.5H44.9015L38.5 26.2697V43.8596ZM53.8522 22.2192H58.9791V41.1687H53.8522V22.2192ZM51.303 43.8596H61.5V19.5H51.303V43.8596ZM79.3732 43.8596H81.9224V19.5H78.0702V19.5283L74.218 23.5788V19.5H70.3658L64.0209 26.2697V43.8596H66.5702V27.6293L71.697 22.2192V43.8596H74.2463V27.6293L79.3732 22.2192V43.8596ZM38.5 49.2697H81.9507V46.5505H38.5V49.2697ZM71.7254 54.6798H79.3732V60.0899H71.7254V54.6798ZM69.1761 60.0899H61.5V54.6798H69.1761V60.0899ZM71.7254 62.7808H81.9507V51.9606H58.9791V62.7808H69.1761V65.5H71.7254V62.7808ZM119.963 43.4064H122.201C123.192 43.4064 123.787 44.1145 123.787 45.0776C123.787 46.0973 123.192 46.7488 122.201 46.7488H119.963V43.4064ZM119.963 41.282V38.8461H125.288V36.7217H117.669V48.9015H122.286C124.58 48.9015 126.025 47.3153 126.025 45.1059C126.025 42.8966 124.608 41.3103 122.286 41.3103C122.314 41.282 119.963 41.282 119.963 41.282ZM134.324 44.7377H131.463L132.936 40.319L134.324 44.7377ZM135.627 48.9015H137.978L133.814 36.7217H132.058L127.894 48.9015H130.245L130.953 46.7488H135.004L135.627 48.9015ZM146.447 48.9015H148.685V36.7217H146.447V41.7069H142.566V36.7217H140.329V48.9015H142.566V43.803H146.447V48.9015ZM156.927 42.415L160.78 36.7217H158.117L154.435 42.5V36.7217H152.197V48.9015H154.435V42.5283L158.457 48.9015H161.204L156.927 42.415Z" fill="#384249"/>
<path d="M101.807 24.6835H99.8242V60.3165H101.807V24.6835Z" fill="#99C45A"/>
</svg>
