<svg width="58" height="58" viewBox="0 0 58 58" fill="none" xmlns="http://www.w3.org/2000/svg">
<path d="M43.0111 53C48.2578 53 52.5111 48.7467 52.5111 43.5C52.5111 38.2533 48.2578 34 43.0111 34H42.4893L28.7104 47.7702C28.1355 48.3447 27.8125 49.0553 27.8125 49.868C27.8125 51.5598 29.1839 53 30.8757 53H43.0111Z" fill="#F04B54"/>
<path d="M32.0491 12.5272L29.5441 15.0322C28.4377 16.1425 27.8153 17.6453 27.8125 19.2128L27.8125 38.7783C27.8125 41.2831 27.8125 42.5355 28.5571 42.8348C29.3018 43.134 30.1685 42.23 31.9019 40.422L45.7674 25.9593C49.382 22.1889 49.3191 16.2205 45.6258 12.5272C41.8767 8.77813 35.7982 8.77812 32.0491 12.5272Z" fill="#F04B54"/>
<path fill-rule="evenodd" clip-rule="evenodd" d="M24.25 15V43.5C24.25 48.7467 19.9967 53 14.75 53C9.50329 53 5.25 48.7467 5.25 43.5V15C5.25 9.75329 9.50329 5.5 14.75 5.5C19.9967 5.5 24.25 9.75329 24.25 15ZM14.75 45.875C16.0617 45.875 17.125 44.8117 17.125 43.5C17.125 42.1883 16.0617 41.125 14.75 41.125C13.4383 41.125 12.375 42.1883 12.375 43.5C12.375 44.8117 13.4383 45.875 14.75 45.875Z" fill="#F04B54"/>
</svg>
