<svg width="57" height="58" viewBox="0 0 57 58" fill="none" xmlns="http://www.w3.org/2000/svg">
<path d="M5.78613 12.9729C4.75 14.1523 4.75 16.1745 4.75 20.2188V42.5278C4.75 45.392 4.75 46.8241 5.49717 47.9023C6.24433 48.9805 7.55062 49.4333 10.1632 50.3391L13.2369 51.4047C14.9016 51.9818 16.1826 52.4259 17.2575 52.7118C17.9588 52.8984 18.6042 52.3479 18.6042 51.6223V15.6406C18.6042 15.0495 18.1679 14.5505 17.5949 14.4052C16.6705 14.1707 15.5593 13.7855 14.0363 13.2575C10.3473 11.9786 8.50283 11.3391 7.09939 11.9885C6.6011 12.219 6.154 12.5542 5.78613 12.9729Z" fill="#F04B54"/>
<path d="M29.9734 9.01642L26.3255 11.5458C25.0058 12.4608 24.0386 13.1315 23.2127 13.6096C22.8212 13.8361 22.5625 14.2461 22.5625 14.6983V50.4348C22.5625 51.3149 23.4745 51.8645 24.2159 51.3902C25.0117 50.8811 25.9229 50.2493 27.0266 49.484L30.6745 46.9546C31.9942 46.0396 32.9614 45.369 33.7873 44.8909C34.1788 44.6643 34.4375 44.2544 34.4375 43.8021V8.06565C34.4375 7.1855 33.5256 6.63597 32.7841 7.11026C31.9883 7.61933 31.0771 8.25115 29.9734 9.01642Z" fill="#F04B54"/>
<path d="M46.8368 8.16136L43.7631 7.09575C42.0982 6.51857 40.8175 6.07456 39.7425 5.7886C39.0412 5.60205 38.3958 6.1525 38.3958 6.87817V42.8598C38.3958 43.451 38.8321 43.9499 39.4051 44.0953C40.3295 44.3297 41.4408 44.715 42.9637 45.243C46.6527 46.5219 48.4972 47.1613 49.9006 46.512C50.3989 46.2814 50.846 45.9462 51.2139 45.5275C52.25 44.3481 52.25 42.326 52.25 38.2817V15.9726C52.25 13.1084 52.25 11.6763 51.5028 10.5981C50.7557 9.51998 49.4494 9.06711 46.8368 8.16136Z" fill="#F04B54"/>
</svg>
