<svg width="57" height="58" viewBox="0 0 57 58" fill="none" xmlns="http://www.w3.org/2000/svg">
<path d="M14.25 10.9375C14.25 8.71779 14.25 7.60793 14.7273 6.78125C15.04 6.23968 15.4897 5.78996 16.0312 5.47728C16.8579 5 17.9678 5 20.1875 5H36.8125C39.0322 5 40.1421 5 40.9688 5.47728C41.5103 5.78996 41.96 6.23968 42.2727 6.78125C42.75 7.60793 42.75 8.71779 42.75 10.9375C42.75 13.1572 42.75 14.2671 42.2727 15.0938C41.96 15.6353 41.5103 16.085 40.9688 16.3977C40.1421 16.875 39.0322 16.875 36.8125 16.875H20.1875C17.9678 16.875 16.8579 16.875 16.0312 16.3977C15.4897 16.085 15.04 15.6353 14.7273 15.0938C14.25 14.2671 14.25 13.1572 14.25 10.9375Z" fill="#F04B54"/>
<path d="M11.8801 9.60547C11.5127 9.93176 11.2812 10.4077 11.2812 10.9377C11.2812 11.4677 11.5127 11.9436 11.8801 12.2699C11.8749 11.8786 11.875 11.465 11.875 11.0332V10.8422C11.875 10.4104 11.8749 9.99679 11.8801 9.60547Z" fill="#F04B54"/>
<path d="M23.75 38.25V47.75C23.75 49.9892 23.75 51.1088 24.4456 51.8044C25.1412 52.5 26.2608 52.5 28.5 52.5C30.7392 52.5 31.8588 52.5 32.5544 51.8044C33.25 51.1088 33.25 49.9892 33.25 47.75V38.25C33.25 36.0108 33.25 34.8912 32.5544 34.1956C31.8588 33.5 30.7392 33.5 28.5 33.5C26.2608 33.5 25.1412 33.5 24.4456 34.1956C23.75 34.8912 23.75 36.0108 23.75 38.25Z" fill="#F04B54"/>
<path d="M45.1112 12.7188H45.232C46.3119 12.7188 47.0366 12.7196 47.5983 12.7563C48.145 12.7919 48.4122 12.8559 48.588 12.9251C49.3544 13.2269 49.961 13.8335 50.2628 14.5999C50.332 14.7757 50.396 15.0429 50.4317 15.5896C50.4683 16.1513 50.4692 16.876 50.4692 17.9559C50.4692 19.9445 50.444 20.4894 50.2997 20.8981C50.052 21.5993 49.5502 22.1821 48.8934 22.531C48.5107 22.7344 47.9756 22.8401 46.0089 23.135L36.2159 24.604C34.3808 24.8792 32.8404 25.1102 31.6232 25.4525C30.3334 25.8151 29.1922 26.3568 28.3014 27.3911C27.3915 28.4478 27.0158 29.7131 26.854 31.1397C27.3389 31.1248 27.8511 31.1249 28.3708 31.125H28.6293C29.2586 31.1249 29.8768 31.1248 30.4491 31.1512C30.5678 30.3893 30.7515 30.0054 31.0009 29.7159C31.2608 29.414 31.6599 29.1428 32.5875 28.882C33.5634 28.6076 34.8799 28.4068 36.8554 28.1104L46.8204 26.6159C48.3659 26.3854 49.5697 26.2058 50.565 25.677C52.0099 24.9093 53.1139 23.6272 53.6588 22.0845C54.0342 21.0217 54.0332 19.8046 54.0318 18.242L54.0317 17.8986C54.0317 16.8907 54.0317 16.0493 53.9866 15.3578C53.9397 14.6383 53.8386 13.9578 53.5776 13.2949C52.9138 11.6087 51.5792 10.2741 49.893 9.61029C49.2301 9.34928 48.5496 9.24821 47.8301 9.2013C47.1386 9.15622 46.2972 9.15623 45.2893 9.15625H45.1112C45.1251 9.6756 45.125 10.2412 45.125 10.8419V11.0331C45.125 11.6338 45.1251 12.1994 45.1112 12.7188Z" fill="#F04B54"/>
</svg>
