<svg width="58" height="58" viewBox="0 0 58 58" fill="none" xmlns="http://www.w3.org/2000/svg">
<path d="M44.4376 7.375H38.5001C37.8442 7.375 37.3126 7.90666 37.3126 8.5625V8.70241L45.6251 15.3524V8.5625C45.6251 7.90666 45.0934 7.375 44.4376 7.375Z" fill="#F04B54"/>
<path fill-rule="evenodd" clip-rule="evenodd" d="M26.0313 22.8125C26.0313 21.1729 27.3605 19.8438 29.0001 19.8438C30.6397 19.8438 31.9688 21.1729 31.9688 22.8125C31.9688 24.4521 30.6397 25.7812 29.0001 25.7812C27.3605 25.7812 26.0313 24.4521 26.0313 22.8125Z" fill="#F04B54"/>
<path fill-rule="evenodd" clip-rule="evenodd" d="M49.7813 26.2811L51.6373 27.7659C52.4055 28.3805 53.5264 28.2559 54.141 27.4877C54.7555 26.7196 54.631 25.5986 53.8628 24.9841L34.5638 9.54484C31.311 6.94266 26.6891 6.94266 23.4364 9.54484L4.13733 24.9841C3.36914 25.5986 3.24459 26.7196 3.85914 27.4877C4.47369 28.2559 5.59462 28.3805 6.3628 27.7659L8.21882 26.2811V50.7188H5.25007C4.26631 50.7188 3.46882 51.5162 3.46882 52.5C3.46882 53.4838 4.26631 54.2812 5.25007 54.2812H52.7501C53.7338 54.2812 54.5313 53.4838 54.5313 52.5C54.5313 51.5162 53.7338 50.7188 52.7501 50.7188H49.7813V26.2811ZM22.4688 22.8125C22.4688 19.2054 25.393 16.2812 29.0001 16.2812C32.6072 16.2812 35.5313 19.2054 35.5313 22.8125C35.5313 26.4196 32.6072 29.3438 29.0001 29.3438C25.393 29.3438 22.4688 26.4196 22.4688 22.8125ZM29.1173 31.7187C30.6964 31.7187 32.0569 31.7186 33.1464 31.8651C34.3141 32.022 35.4333 32.3761 36.3412 33.2839C37.249 34.1917 37.603 35.311 37.76 36.4786C37.8973 37.5 37.9058 38.7597 37.9063 40.2142C37.9063 40.3112 37.9063 40.4091 37.9063 40.5077L37.9063 50.7188H34.3438V40.625C34.3438 38.8953 34.34 37.7772 34.2293 36.9533C34.1254 36.1807 33.9577 35.9386 33.8221 35.803C33.6865 35.6674 33.4443 35.4997 32.6718 35.3958C31.8479 35.285 30.7298 35.2812 29.0001 35.2812C27.2703 35.2812 26.1522 35.285 25.3284 35.3958C24.5558 35.4997 24.3136 35.6674 24.178 35.803C24.0424 35.9386 23.8747 36.1807 23.7709 36.9533C23.6601 37.7772 23.6563 38.8953 23.6563 40.625V50.7188H20.0938L20.0938 40.5077C20.0937 38.9287 20.0936 37.5681 20.2401 36.4786C20.3971 35.311 20.7511 34.1917 21.659 33.2839C22.5668 32.3761 23.686 32.022 24.8537 31.8651C25.9432 31.7186 27.3038 31.7187 28.8828 31.7187H29.1173Z" fill="#F04B54"/>
<path fill-rule="evenodd" clip-rule="evenodd" d="M26.0313 22.8125C26.0313 21.1729 27.3605 19.8438 29.0001 19.8438C30.6397 19.8438 31.9688 21.1729 31.9688 22.8125C31.9688 24.4521 30.6397 25.7812 29.0001 25.7812C27.3605 25.7812 26.0313 24.4521 26.0313 22.8125Z" fill="#F04B54"/>
</svg>
