<svg width="57" height="58" viewBox="0 0 57 58" fill="none" xmlns="http://www.w3.org/2000/svg">
<path d="M18.108 11.3161C22.5654 9.53265 25.2243 8.46875 28.5 8.46875C31.7757 8.46875 34.4346 9.53265 38.892 11.3161L45.9445 14.1372C48.2116 15.044 50.0479 15.7784 51.3084 16.4393C51.9463 16.7737 52.5643 17.1529 53.0409 17.61C53.5305 18.0796 54.0312 18.7919 54.0312 19.75C54.0312 20.7081 53.5305 21.4204 53.0409 21.89C52.5643 22.3471 51.9463 22.7263 51.3084 23.0607C50.0479 23.7216 48.2117 24.456 45.9445 25.3628L38.892 28.1839C34.4346 29.9674 31.7757 31.0312 28.5 31.0312C25.2243 31.0312 22.5654 29.9674 18.108 28.1839L11.0555 25.3628C8.78838 24.456 6.95211 23.7216 5.69161 23.0607C5.05368 22.7263 4.43568 22.3471 3.95914 21.89C3.46951 21.4204 2.96875 20.7081 2.96875 19.75C2.96875 18.7919 3.46951 18.0796 3.95914 17.61C4.43568 17.1529 5.05368 16.7737 5.69161 16.4393C6.95212 15.7784 8.78838 15.044 11.0555 14.1371L18.108 11.3161Z" fill="#F04B54"/>
<path fill-rule="evenodd" clip-rule="evenodd" d="M5.93875 27.9235C5.93875 27.9235 5.93875 27.9235 5.93875 27.9235L5.93542 27.9205L5.94371 27.9277C5.95417 27.9368 5.97365 27.9535 6.00215 27.9773C6.05917 28.0249 6.15225 28.1008 6.28137 28.2006C6.53965 28.4002 6.94186 28.695 7.48789 29.0491C8.58003 29.7574 10.2462 30.7022 12.4863 31.5982L19.1564 34.2663C23.9653 36.1899 25.9815 36.9688 28.5 36.9688C31.0185 36.9688 33.0347 36.1899 37.8436 34.2663L44.5137 31.5982C46.7538 30.7022 48.42 29.7574 49.5121 29.0491C50.0581 28.695 50.4604 28.4002 50.7186 28.2006C50.8478 28.1008 50.9408 28.0249 50.9978 27.9773C51.0264 27.9535 51.0458 27.9368 51.0563 27.9277L51.0612 27.9235C51.0625 27.9223 51.0638 27.9212 51.0651 27.92C51.7975 27.2674 52.9204 27.3298 53.5759 28.0606C54.2328 28.7929 54.1717 29.919 53.4394 30.5759L52.25 29.25C53.4394 30.5759 53.4398 30.5756 53.4394 30.5759L53.4361 30.5789L53.432 30.5826L53.421 30.5923L53.3884 30.6207C53.362 30.6436 53.3263 30.6742 53.2811 30.7119C53.1907 30.7874 53.0627 30.8914 52.897 31.0195C52.5658 31.2755 52.0836 31.6275 51.4505 32.038C50.1844 32.8591 48.3132 33.9153 45.8368 34.9059L39.1667 37.574C39.0744 37.6109 38.9828 37.6475 38.892 37.6839C34.4346 39.4674 31.7757 40.5312 28.5 40.5312C25.2243 40.5312 22.5654 39.4674 18.108 37.6839C18.0172 37.6475 17.9256 37.6109 17.8333 37.574L11.1632 34.9059C8.68677 33.9153 6.81557 32.8591 5.54947 32.038C4.91638 31.6275 4.43425 31.2755 4.10297 31.0195C3.93731 30.8914 3.80931 30.7874 3.71893 30.7119C3.67374 30.6742 3.63795 30.6436 3.61156 30.6207L3.57902 30.5923L3.56803 30.5826L3.56386 30.5789L3.56131 30.5766C3.56093 30.5763 3.56056 30.5759 4.75 29.25L3.56131 30.5766C2.82901 29.9197 2.76716 28.7929 3.42407 28.0606C4.07966 27.3297 5.20303 27.2678 5.93542 27.9205M5.93875 27.9235C5.93875 27.9235 5.93875 27.9235 5.93875 27.9235V27.9235ZM5.93503 37.4201C5.20263 36.7674 4.07966 36.8297 3.42407 37.5606L5.93503 37.4201ZM5.93503 37.4201L5.94371 37.4277C5.95417 37.4368 5.97365 37.4535 6.00215 37.4773C6.05917 37.5249 6.15225 37.6008 6.28137 37.7006C6.53965 37.9002 6.94186 38.195 7.48789 38.5491C8.58003 39.2574 10.2462 40.2022 12.4863 41.0982L19.1564 43.7663C23.9653 45.6899 25.9815 46.4688 28.5 46.4688C31.0185 46.4688 33.0347 45.6899 37.8436 43.7663L44.5137 41.0982C46.7538 40.2022 48.42 39.2574 49.5121 38.5491C50.0581 38.195 50.4604 37.9002 50.7186 37.7006C50.8478 37.6008 50.9408 37.5249 50.9978 37.4773C51.0264 37.4535 51.0458 37.4368 51.0563 37.4277L51.0612 37.4235C51.0625 37.4223 51.0638 37.4212 51.0651 37.42C51.7975 36.7674 52.9204 36.8298 53.5759 37.5606C54.2328 38.2929 54.1717 39.419 53.4394 40.0759L52.2895 38.794C53.4394 40.0759 53.4398 40.0756 53.4394 40.0759L53.4361 40.0789L53.432 40.0826L53.421 40.0923L53.3884 40.1207C53.362 40.1436 53.3263 40.1742 53.2811 40.2119C53.1907 40.2874 53.0627 40.3914 52.897 40.5195C52.5658 40.7755 52.0836 41.1275 51.4505 41.538C50.1844 42.3591 48.3132 43.4153 45.8368 44.4059L39.1667 47.074C39.0744 47.1109 38.9828 47.1475 38.892 47.1839C34.4346 48.9674 31.7757 50.0312 28.5 50.0312C25.2243 50.0312 22.5654 48.9674 18.108 47.1839C18.0172 47.1475 17.9256 47.1109 17.8333 47.074L11.1632 44.4059C8.68677 43.4153 6.81557 42.3591 5.54947 41.538C4.91638 41.1275 4.43425 40.7755 4.10297 40.5195C3.93731 40.3914 3.80931 40.2874 3.71893 40.2119C3.67374 40.1742 3.63795 40.1436 3.61156 40.1207L3.57902 40.0923L3.56803 40.0826L3.56386 40.0789L3.56131 40.0766C3.56093 40.0763 3.56057 40.0759 4.75 38.75L3.56131 40.0766C2.82901 39.4197 2.76716 38.2929 3.42407 37.5606" fill="#F04B54"/>
</svg>
