<svg width="191" height="191" viewBox="0 0 191 191" fill="none" xmlns="http://www.w3.org/2000/svg">
<rect width="191" height="191" rx="95.5" fill="white"/>
<path d="M77.8155 64.9808C85.4009 61.9458 89.9258 60.1353 95.5002 60.1353C101.075 60.1353 105.599 61.9457 113.185 64.9808L125.186 69.7815C129.045 71.3247 132.169 72.5746 134.314 73.6991C135.4 74.2683 136.452 74.9135 137.263 75.6914C138.096 76.4906 138.948 77.7027 138.948 79.3332C138.948 80.9637 138.096 82.1757 137.263 82.975C136.452 83.7528 135.4 84.3981 134.314 84.9672C132.169 86.0918 129.045 87.3417 125.186 88.8848L113.185 93.6856C105.599 96.7206 101.075 98.5311 95.5002 98.5311C89.9258 98.5311 85.4009 96.7206 77.8156 93.6855L65.8139 88.8849C61.9558 87.3417 58.8309 86.0918 56.6859 84.9672C55.6003 84.3981 54.5486 83.7528 53.7376 82.975C52.9044 82.1757 52.0522 80.9637 52.0522 79.3332C52.0522 77.7027 52.9044 76.4906 53.7376 75.6914C54.5486 74.9135 55.6003 74.2683 56.6859 73.6991C58.831 72.5745 61.9558 71.3247 65.814 69.7815L77.8155 64.9808Z" fill="#F04B54"/>
<path fill-rule="evenodd" clip-rule="evenodd" d="M57.1065 93.2424C57.1065 93.2424 57.1065 93.2424 57.1065 93.2424L57.1008 93.2373L57.1149 93.2496C57.1327 93.265 57.1658 93.2934 57.2144 93.3339C57.3114 93.415 57.4698 93.5442 57.6895 93.714C58.129 94.0537 58.8135 94.5553 59.7427 95.1579C61.6013 96.3632 64.4367 97.9711 68.2487 99.4959L79.5996 104.036C87.7833 107.31 91.2143 108.635 95.5002 108.635C99.786 108.635 103.217 107.31 111.401 104.036L122.752 99.4959C126.564 97.9711 129.399 96.3632 131.258 95.1579C132.187 94.5553 132.871 94.0537 133.311 93.714C133.531 93.5442 133.689 93.415 133.786 93.3339C133.834 93.2934 133.868 93.265 133.885 93.2496L133.894 93.2424C133.896 93.2404 133.898 93.2385 133.9 93.2365C135.147 92.126 137.058 92.2321 138.173 93.4757C139.291 94.7219 139.187 96.6384 137.941 97.7562L135.917 95.4998C137.941 97.7562 137.942 97.7557 137.941 97.7562L137.935 97.7613L137.928 97.7676L137.91 97.7841L137.854 97.8325C137.809 97.8714 137.748 97.9234 137.671 97.9876C137.518 98.1161 137.3 98.2932 137.018 98.511C136.454 98.9467 135.634 99.5457 134.556 100.244C132.402 101.642 129.217 103.439 125.003 105.125L113.652 109.665C113.495 109.728 113.339 109.79 113.185 109.852C105.599 112.887 101.075 114.698 95.5002 114.698C89.9258 114.698 85.4009 112.887 77.8155 109.852C77.661 109.79 77.5052 109.728 77.348 109.665L65.9972 105.125C61.7829 103.439 58.5986 101.642 56.444 100.244C55.3666 99.5457 54.5462 98.9467 53.9824 98.511C53.7005 98.2932 53.4827 98.1161 53.3289 97.9876C53.252 97.9234 53.1911 97.8714 53.1462 97.8325L53.0908 97.7841L53.0721 97.7676L53.065 97.7613L53.0606 97.7574C53.06 97.7568 53.0594 97.7562 55.0835 95.4998L53.0606 97.7574C51.8144 96.6395 51.7092 94.7219 52.8271 93.4757C53.9427 92.232 55.8544 92.1266 57.1008 93.2373M57.1065 93.2424C57.1065 93.2424 57.1065 93.2424 57.1065 93.2424V93.2424ZM57.1001 109.403C55.8538 108.293 53.9427 108.399 52.8271 109.642L57.1001 109.403ZM57.1001 109.403L57.1149 109.416C57.1327 109.432 57.1658 109.46 57.2144 109.501C57.3114 109.582 57.4698 109.711 57.6895 109.881C58.129 110.22 58.8135 110.722 59.7427 111.325C61.6013 112.53 64.4367 114.138 68.2487 115.663L79.5996 120.203C87.7833 123.476 91.2143 124.802 95.5002 124.802C99.786 124.802 103.217 123.476 111.401 120.203L122.752 115.663C126.564 114.138 129.399 112.53 131.258 111.325C132.187 110.722 132.871 110.22 133.311 109.881C133.531 109.711 133.689 109.582 133.786 109.501C133.834 109.46 133.868 109.432 133.885 109.416L133.894 109.409C133.896 109.407 133.898 109.405 133.9 109.403C135.147 108.293 137.058 108.399 138.173 109.642C139.291 110.889 139.187 112.805 137.941 113.923L135.984 111.741C137.941 113.923 137.942 113.922 137.941 113.923L137.935 113.928L137.928 113.934L137.91 113.951L137.854 113.999C137.809 114.038 137.748 114.09 137.671 114.154C137.518 114.283 137.3 114.46 137.018 114.678C136.454 115.113 135.634 115.712 134.556 116.411C132.402 117.808 129.217 119.606 125.003 121.291L113.652 125.832C113.495 125.895 113.339 125.957 113.185 126.019C105.599 129.054 101.075 130.864 95.5002 130.864C89.9258 130.864 85.4009 129.054 77.8156 126.019C77.661 125.957 77.5052 125.895 77.348 125.832L65.9972 121.291C61.7829 119.606 58.5986 117.808 56.444 116.411C55.3666 115.712 54.5462 115.113 53.9824 114.678C53.7005 114.46 53.4827 114.283 53.3289 114.154C53.252 114.09 53.1911 114.038 53.1462 113.999L53.0908 113.951L53.0721 113.934L53.065 113.928L53.0606 113.924C53.06 113.923 53.0594 113.923 55.0835 111.667L53.0606 113.924C51.8144 112.806 51.7092 110.889 52.8271 109.642" fill="#F04B54"/>
</svg>
