<svg width="200" height="85" viewBox="0 0 200 85" fill="none" xmlns="http://www.w3.org/2000/svg">
<path fill-rule="evenodd" clip-rule="evenodd" d="M63.4257 41.8902H66.5488C67.7938 41.8902 68.8062 40.8464 68.8062 39.5647C68.8062 38.2823 67.7938 37.2385 66.5488 37.2385H63.4257V41.8902ZM63.4257 35.7519H66.5488V35.7557C68.6548 35.7557 70.3617 37.4625 70.3617 39.5678C70.3617 41.673 68.6548 43.3799 66.5488 43.3799H61.8696V30.8967H69.3194V32.3833H63.4257V35.7519ZM72.9961 38.8874C73.0053 40.6898 74.4735 42.1428 76.2759 42.1336L76.2767 42.1344C76.3004 42.1344 76.3234 42.1344 76.3471 42.1336C78.125 42.1091 79.5466 40.6478 79.5221 38.8706V38.853C79.5122 37.0513 78.044 35.5976 76.2415 35.6076C74.4399 35.6167 72.9861 37.085 72.9961 38.8874ZM79.5221 42.0388C78.7161 43.0276 77.5285 43.5858 76.1903 43.5858C74.9606 43.5889 73.7815 43.0987 72.9166 42.2254C71.0897 40.3625 71.0897 37.3802 72.9166 35.5166C73.7822 34.6433 74.9614 34.1538 76.191 34.1569C77.5285 34.1569 78.7161 34.7144 79.5229 35.7039V34.3649H81.0072V43.3801H79.5221V42.0388ZM89.4583 38.1457H84.8058V34.365H83.32V43.3771H84.8058V39.5972H89.4583V43.3771H90.9442V34.365H89.4583V38.1457ZM98.8366 43.3771L94.7408 39.4289V43.3771H93.2557V34.365H94.7408V37.9767L98.6301 34.365H100.693L96.0324 38.7002L100.853 43.3771H98.8366ZM61.9294 53.7586C61.9294 55.7843 61.6266 57.0339 61.0041 57.5806C60.6623 57.8835 60.2096 57.9882 59.5902 57.9064L59.3975 57.8819V59.3081L59.5542 59.3211C59.7255 59.3364 59.896 59.3433 60.0559 59.3433C60.9552 59.3433 61.6319 59.1108 62.1596 58.6252C63.0512 57.8047 63.4848 56.2248 63.4848 53.793V48.3261H68.5885V59.3196H70.1462V46.8426H61.9294V53.7586ZM79.7616 54.1081C79.4366 52.2269 78.0004 51.5539 76.8388 51.5539C75.2238 51.5539 73.9819 52.5725 73.6928 54.1081H79.7616ZM72.1405 54.8162C72.1405 52.0847 74.1172 50.1018 76.8388 50.1018C78.0907 50.0849 79.2875 50.6156 80.1149 51.5547C80.8995 52.4716 81.3246 53.6416 81.3101 54.8476C81.3101 55.0318 81.2917 55.2314 81.2749 55.402L81.2596 55.5557H73.6951C73.9895 57.0935 75.2437 58.0761 76.9413 58.0761C78.1251 58.0761 79.0886 57.5699 79.5842 56.689L79.6698 56.5376L80.9767 57.3061L80.8842 57.4552C80.0698 58.7736 78.626 59.5306 76.9245 59.5306C75.5625 59.5306 74.3275 59.0466 73.4703 58.1909C72.6123 57.3359 72.1405 56.1376 72.1405 54.8162ZM87.4331 57.8731H84.5348V55.5101H87.4331C88.3278 55.5101 88.8409 55.9284 88.8409 56.6572C88.8409 57.6605 88.0754 57.8715 87.4331 57.8715V57.8731ZM87.0867 54.0579H84.5348V51.7623H87.0867C88.197 51.7623 88.4249 52.3664 88.4249 52.8726C88.4257 53.658 87.9753 54.0579 87.0867 54.0579ZM89.0849 54.6621C89.627 54.2346 89.9107 53.5976 89.9107 52.8046C89.9107 51.2897 88.8004 50.3108 87.0867 50.3108H83.0497V59.3222H87.4331C89.1911 59.3222 90.3275 58.3028 90.3275 56.7237C90.3275 55.8015 89.8779 55.065 89.0849 54.6621ZM92.9109 54.8341C92.92 56.6358 94.3883 58.0887 96.1907 58.0795H96.2611C98.039 58.055 99.4606 56.5945 99.4369 54.8165C99.4369 54.8111 99.4362 54.805 99.4362 54.7997C99.427 52.9972 97.9588 51.5443 96.1563 51.5535C94.3546 51.5634 92.901 53.0317 92.9109 54.8341ZM91.4594 54.8165C91.4594 52.1729 93.5379 50.1021 96.1907 50.1021C98.8473 50.1021 100.922 52.1729 100.922 54.8165C100.922 57.4601 98.8435 59.5309 96.1907 59.5309C93.5379 59.5309 91.4594 57.4601 91.4594 54.8165ZM106.768 58.0441C105.066 58.0441 103.778 56.8205 103.778 55.1978C103.778 53.8917 104.927 52.5427 106.854 52.5427C108.556 52.5427 109.7 53.6531 109.7 55.3018C109.701 56.8909 108.467 58.0441 106.768 58.0441ZM107.011 51.0913C106.162 51.0913 105.064 51.3559 104.203 52.0579C104.586 51.3689 105.234 50.8978 106.403 50.3946C106.621 50.2993 106.844 50.2067 107.06 50.1167L107.061 50.1164L107.109 50.0964L107.113 50.0948C108.613 49.4737 110.03 48.8868 110.283 47.2999L110.302 47.1844L109.078 46.4786L109.044 46.7294C108.894 47.7893 108.003 48.1663 106.77 48.687L106.711 48.7122C106.373 48.8557 106.024 49.0041 105.653 49.1826C102.722 50.5942 102.227 52.0869 102.227 54.9057C102.227 57.5875 104.137 59.533 106.768 59.533C107.995 59.533 109.117 59.1062 109.929 58.3369C110.748 57.5439 111.205 56.4473 111.188 55.3064C111.187 52.8616 109.431 51.0913 107.011 51.0913ZM119.939 54.1081C119.614 52.2269 118.178 51.5539 117.016 51.5539C115.399 51.5539 114.158 52.5725 113.869 54.1081H119.939ZM112.318 54.8162C112.318 52.0847 114.294 50.1018 117.016 50.1018C118.266 50.0849 119.462 50.6164 120.289 51.5547C121.074 52.4716 121.499 53.6416 121.485 54.8476C121.485 55.0318 121.467 55.2314 121.45 55.402L121.434 55.5557H113.868C114.166 57.0935 115.421 58.0761 117.118 58.0761C118.301 58.0761 119.265 57.5699 119.761 56.689L119.846 56.5376L121.153 57.3061L121.062 57.4552C120.247 58.7736 118.804 59.5306 117.101 59.5306C115.74 59.5306 114.504 59.0466 113.647 58.1909C112.79 57.3359 112.318 56.1376 112.318 54.8162ZM127.577 51.5542C129.379 51.5451 130.847 52.998 130.857 54.8004C130.866 56.6021 129.413 58.0711 127.611 58.0803C125.809 58.0895 124.34 56.6365 124.331 54.8348V54.8165C124.307 53.0385 125.729 51.578 127.508 51.5542H127.575H127.577ZM127.662 50.1021C126.324 50.1021 125.136 50.6603 124.331 51.6491V50.3108H122.845V62.7901H124.331V57.987C125.137 58.9765 126.325 59.534 127.662 59.534C128.893 59.5378 130.072 59.0476 130.938 58.1743C132.763 56.3107 132.763 53.3291 130.938 51.4655C130.072 50.5915 128.893 50.1005 127.662 50.1021ZM141.234 54.1081C140.908 52.2269 139.473 51.554 138.311 51.554C136.693 51.554 135.453 52.5726 135.164 54.1081H141.234ZM133.613 54.8162C133.613 52.0847 135.59 50.1018 138.311 50.1018C139.564 50.0842 140.762 50.6149 141.59 51.5555C142.375 52.4724 142.799 53.6424 142.785 54.8483C142.785 55.0334 142.768 55.2322 142.75 55.4028L142.735 55.5565H135.168C135.462 57.0943 136.717 58.077 138.414 58.077C139.598 58.077 140.56 57.5707 141.058 56.6898L141.142 56.5376L142.449 57.3061L142.357 57.4552C141.542 58.7736 140.099 59.5307 138.396 59.5307C137.036 59.5307 135.799 59.0466 134.943 58.1909C134.085 57.336 133.613 56.1377 133.613 54.8162ZM154.504 50.3108H152.658L149.542 53.8759V50.3108H148.056V53.8759L144.941 50.3108H143.096L146.96 54.6452L142.93 59.3222H144.77L148.056 55.439V59.3222H149.542V55.439L152.83 59.3222H154.669L150.639 54.6452L154.504 50.3108ZM157.433 54.0908H162.085V50.3108H163.571V59.3222H162.085V55.543H157.433V59.3222H155.947V50.3108H157.433V54.0908ZM173.546 59.3222H175.032V50.3108H173.546V59.3222ZM167.403 57.8715H169.607C170.694 57.8715 171.189 57.1428 171.189 56.4645C171.189 55.7862 170.694 55.0566 169.607 55.0566H167.403V57.8715ZM167.403 53.6052H169.607C171.356 53.6052 172.674 54.8356 172.674 56.4645C172.674 58.0933 171.356 59.3222 169.607 59.3222H165.916V50.3108H167.403V53.6052ZM178.767 49.2647H183.616V47.9181H178.767V49.2647ZM178.865 56.6572L183.778 50.3108H185V59.3222H183.517V52.9759L178.605 59.3222H177.379V50.3108H178.865V56.6572Z" fill="#3F4C54"/>
<path d="M40.8396 46.3701H22.6448L42.3002 26.5801C42.5411 26.3369 42.6749 26.0066 42.6711 25.664V22.9041C42.6711 22.1042 41.7114 21.6913 41.1478 22.2725L15.3434 48.2635C14.6131 48.9854 15.1254 50.2372 16.1494 50.2372H38.6372C38.9768 50.2342 39.3026 50.1003 39.5457 49.8625L41.4797 47.9156C41.8314 47.5569 41.8253 46.9818 41.4674 46.6301C41.2992 46.4657 41.0744 46.3724 40.8396 46.3701Z" fill="#FFCA8C"/>
<path d="M49.7649 22.4267L27.7779 44.5758H33.2074L47.883 29.7985V55.3452H22.5137L25.792 52.0425H20.3625L15.4324 57.0085C14.6249 57.8214 15.2023 59.2147 16.3417 59.2147H50.0723C50.993 59.2131 51.7386 58.4653 51.7371 57.5446C51.7371 57.5423 51.7371 57.54 51.7371 57.5377V23.2519C51.7241 22.2072 50.4815 21.6911 49.7649 22.4267Z" fill="#1EAAA2"/>
</svg>
