<svg width="286" height="39" viewBox="0 0 286 39" fill="none" xmlns="http://www.w3.org/2000/svg">
<g clip-path="url(#clip0_1428_1205)">
<path d="M0.0708008 32.9026V14.5408L18.3597 0.904053L36.645 14.5408V32.9026H0.0708008ZM34.2875 30.5253V15.7183L18.3597 3.87583L2.42828 15.7183V30.5253H34.2875Z" fill="#F04B54"/>
<path d="M36.5782 32.8383H0.151367V14.5879L18.3667 1.00684L36.5782 14.5879V32.8383ZM2.36151 30.6095H34.3681V15.6949L18.3667 3.80773L2.36151 15.6949V30.6095Z" fill="#F04B54"/>
<path d="M39.0768 32.9026V30.5253H54.7172V15.7183L38.7895 3.89069L32.5311 8.31121L30.5825 6.81789L38.7895 0.904053L57.0748 14.5408V32.9026H39.0768Z" fill="#F04B54"/>
<path d="M38.7876 1.0033L30.7021 6.82426L32.5292 8.22472L38.7876 3.80419L54.789 15.6913V30.6059H39.1486V32.8347H56.9991V14.5843L38.7876 1.0033Z" fill="#F04B54"/>
<path d="M86.4034 9.20213H84.5616C84.4248 9.1956 84.2887 9.22662 84.168 9.2921C84.0473 9.35749 83.9465 9.45481 83.8765 9.57363L76.5351 21.4347L69.1937 9.57734C69.1234 9.4588 69.0226 9.36176 68.902 9.29636C68.7814 9.23097 68.6454 9.19968 68.5086 9.20585H66.6447C66.5644 9.1956 66.4828 9.20394 66.4062 9.23043C66.3296 9.25682 66.2601 9.30054 66.2028 9.35831C66.1456 9.41599 66.1021 9.48619 66.076 9.56347C66.0498 9.64065 66.0414 9.72291 66.0517 9.80391V27.1926C66.0413 27.2734 66.0496 27.3555 66.0758 27.4327C66.102 27.5098 66.1455 27.5798 66.2028 27.6372C66.2602 27.6947 66.3299 27.7381 66.4065 27.764C66.4831 27.79 66.5646 27.7979 66.6447 27.7869H68.144C68.224 27.7979 68.3056 27.79 68.3822 27.764C68.4589 27.7381 68.5286 27.6947 68.5858 27.6372C68.6432 27.5798 68.6867 27.5098 68.7128 27.4327C68.7391 27.3555 68.7474 27.2734 68.737 27.1926V13.7378L75.3085 24.1762C75.3785 24.2949 75.4793 24.3923 75.6 24.4577C75.7206 24.5231 75.8567 24.5543 75.9936 24.5476H77.0582C77.1948 24.5557 77.3309 24.5251 77.4512 24.4596C77.5716 24.3939 77.6715 24.2959 77.7396 24.1762L84.3112 13.775V27.1926C84.3008 27.2734 84.309 27.3555 84.3353 27.4327C84.3614 27.5098 84.4049 27.5798 84.4623 27.6372C84.5196 27.6947 84.5893 27.7381 84.6659 27.764C84.7425 27.79 84.8241 27.7979 84.9042 27.7869H86.4071C86.4869 27.7972 86.5681 27.7889 86.6441 27.7627C86.7203 27.7365 86.7896 27.693 86.8464 27.6356C86.9033 27.5782 86.9464 27.5085 86.9725 27.4316C86.9985 27.3548 87.0067 27.273 86.9964 27.1926V9.80019C87.0074 9.7191 86.9997 9.63648 86.9737 9.55884C86.9478 9.4813 86.9044 9.41082 86.847 9.35287C86.7896 9.295 86.7197 9.2512 86.6427 9.22507C86.5658 9.19895 86.4839 9.19106 86.4034 9.20213Z" fill="#F04B54"/>
<path d="M100.787 9.60733C100.729 9.48117 100.636 9.37515 100.518 9.30295C100.401 9.23085 100.264 9.19584 100.128 9.20246H98.311C98.1734 9.19529 98.0376 9.23012 97.9198 9.30232C97.802 9.37451 97.7084 9.48081 97.6518 9.60733L88.8114 27.0665C88.7643 27.1449 88.7393 27.2349 88.7393 27.3266C88.7393 27.4183 88.7643 27.5082 88.8114 27.5866C88.863 27.6606 88.9331 27.7196 89.0147 27.7574C89.0961 27.7952 89.1862 27.8106 89.2755 27.802H91.0108C91.1484 27.8092 91.2842 27.7743 91.402 27.7022C91.5198 27.63 91.6134 27.5237 91.67 27.3971L93.2314 24.3028H105.259L106.795 27.3711C106.853 27.4984 106.946 27.6064 107.063 27.6827C107.179 27.7588 107.315 27.8003 107.454 27.802H109.189C109.278 27.8106 109.368 27.7952 109.45 27.7574C109.532 27.7196 109.602 27.6606 109.653 27.5866C109.7 27.5082 109.725 27.4183 109.725 27.3266C109.725 27.2349 109.7 27.1449 109.653 27.0665L100.787 9.60733ZM94.37 21.9477L99.2472 12.2114L104.076 21.9477H94.37Z" fill="#F04B54"/>
<path d="M126.077 27.1926C126.067 27.2732 126.076 27.355 126.102 27.4317C126.128 27.5085 126.171 27.5784 126.228 27.6357C126.284 27.6931 126.353 27.7365 126.43 27.7628C126.506 27.7891 126.587 27.7973 126.667 27.787H128.195C128.275 27.7979 128.357 27.7901 128.434 27.7642C128.511 27.7383 128.58 27.6948 128.638 27.6374C128.695 27.5799 128.739 27.5099 128.765 27.4328C128.791 27.3557 128.799 27.2735 128.789 27.1926V9.80035C128.799 9.71935 128.791 9.63709 128.765 9.55982C128.739 9.48254 128.695 9.41243 128.638 9.35466C128.58 9.29697 128.511 9.25317 128.435 9.22677C128.357 9.20038 128.276 9.19195 128.195 9.20229H114.913C114.832 9.19195 114.751 9.20038 114.674 9.22677C114.598 9.25317 114.529 9.29697 114.471 9.35466C114.413 9.41243 114.37 9.48254 114.344 9.55982C114.318 9.63709 114.309 9.71935 114.32 9.80035V21.4459C114.32 22.865 114.062 23.8494 113.55 24.3695C113.254 24.6451 112.905 24.8571 112.525 24.9925C112.145 25.1279 111.742 25.1839 111.339 25.157C111.259 25.1467 111.177 25.1551 111.101 25.1815C111.025 25.2079 110.955 25.2517 110.898 25.3094C110.84 25.3671 110.797 25.4373 110.771 25.5145C110.745 25.5918 110.737 25.6741 110.747 25.7551V27.1926C110.736 27.2735 110.745 27.3557 110.771 27.4328C110.797 27.5099 110.84 27.5799 110.898 27.6374C110.955 27.6948 111.025 27.7383 111.101 27.7642C111.178 27.7901 111.259 27.7979 111.339 27.787C113.144 27.787 114.559 27.241 115.535 26.1562C116.512 25.0716 117.009 23.4668 117.009 21.3679V11.7282H126.081L126.077 27.1926Z" fill="#F04B54"/>
<path d="M150.072 9.20154H151.575C151.652 9.20154 151.729 9.21696 151.801 9.24707C151.873 9.27709 151.939 9.32117 151.994 9.37668C152.049 9.43218 152.093 9.49812 152.122 9.57068C152.152 9.64324 152.167 9.72105 152.167 9.7996V27.1919C152.167 27.2704 152.152 27.3482 152.122 27.4208C152.093 27.4934 152.049 27.5593 151.994 27.6148C151.939 27.6703 151.873 27.7144 151.801 27.7444C151.729 27.7745 151.652 27.7899 151.575 27.7899H150.072C149.915 27.7899 149.765 27.7274 149.655 27.6159C149.544 27.5044 149.482 27.3532 149.482 27.1956V9.7996C149.482 9.6416 149.544 9.49005 149.655 9.37795C149.765 9.26593 149.915 9.20245 150.072 9.20154Z" fill="#F04B54"/>
<path d="M148.44 21.4461C148.44 19.2915 147.895 17.6831 146.813 16.6653C145.73 15.6474 143.866 15.131 141.247 15.131H134.175V9.80044C134.184 9.71944 134.176 9.63718 134.15 9.5599C134.124 9.48263 134.08 9.41252 134.023 9.35475C133.966 9.29706 133.897 9.25326 133.82 9.22686C133.743 9.20047 133.662 9.19204 133.581 9.20237H132.078C131.998 9.19194 131.917 9.2002 131.841 9.22668C131.763 9.25308 131.694 9.29688 131.637 9.35475C131.581 9.41252 131.538 9.48281 131.512 9.56009C131.486 9.63745 131.478 9.71962 131.489 9.80044V27.1927C131.479 27.2733 131.487 27.3551 131.513 27.4319C131.539 27.5086 131.583 27.5784 131.639 27.6358C131.696 27.6932 131.765 27.7367 131.842 27.7629C131.917 27.7891 131.999 27.7974 132.078 27.7871H141.247C143.895 27.7871 145.777 27.2819 146.839 26.2789C147.899 25.2759 148.44 23.6489 148.44 21.4461ZM134.175 17.7313H141.093C142.845 17.7313 144.076 18.0025 144.75 18.5374C145.424 19.0724 145.756 20.0456 145.756 21.4424C145.756 22.9282 145.431 23.9238 144.791 24.4141C144.149 24.9045 142.897 25.1571 141.107 25.1571H134.175V17.7313Z" fill="#F04B54"/>
<path d="M170.403 27.1941V25.7564C170.413 25.6754 170.405 25.5932 170.379 25.516C170.353 25.4387 170.309 25.3685 170.252 25.3108C170.194 25.2531 170.125 25.2093 170.048 25.183C169.971 25.1565 169.89 25.1481 169.809 25.1584H157.481V19.5864H165.85C165.931 19.5968 166.011 19.5885 166.088 19.562C166.164 19.5356 166.234 19.4918 166.291 19.4339C166.348 19.3761 166.391 19.3058 166.417 19.2286C166.442 19.1513 166.45 19.069 166.44 18.9882V17.6249C166.45 17.5441 166.442 17.462 166.417 17.3847C166.391 17.3074 166.348 17.2371 166.291 17.1792C166.234 17.1215 166.164 17.0777 166.088 17.0512C166.011 17.0248 165.931 17.0164 165.85 17.0269H157.481V11.8263H169.809C169.89 11.8365 169.971 11.8282 170.048 11.8018C170.125 11.7754 170.194 11.7316 170.252 11.6739C170.309 11.6161 170.353 11.5459 170.379 11.4687C170.405 11.3915 170.413 11.3092 170.403 11.2282V9.80172C170.413 9.72073 170.405 9.63846 170.379 9.56128C170.353 9.484 170.309 9.4138 170.252 9.35612C170.194 9.29835 170.125 9.25463 170.048 9.22824C169.971 9.20175 169.89 9.19341 169.809 9.20366H155.389C155.307 9.19087 155.223 9.19731 155.145 9.22261C155.067 9.24792 154.995 9.29127 154.937 9.34932C154.877 9.40736 154.832 9.47847 154.805 9.55702C154.778 9.63556 154.77 9.71937 154.781 9.80172V27.1941C154.77 27.2749 154.778 27.3571 154.805 27.4343C154.831 27.5113 154.875 27.5814 154.932 27.6388C154.99 27.6963 155.059 27.7396 155.135 27.7656C155.212 27.7915 155.294 27.7994 155.374 27.7884H169.809C169.89 27.7994 169.971 27.7915 170.048 27.7656C170.124 27.7396 170.194 27.6963 170.252 27.6388C170.309 27.5814 170.353 27.5113 170.379 27.4343C170.405 27.3571 170.413 27.2749 170.403 27.1941Z" fill="#F04B54"/>
<path d="M190.97 9.20154H185.194C183.024 9.20154 181.429 9.75126 180.452 10.8323C179.477 11.9132 178.979 13.5329 178.979 15.6614V15.8732C178.969 15.9536 178.977 16.0354 179.003 16.1122C179.03 16.1891 179.073 16.2588 179.129 16.3162C179.186 16.3736 179.255 16.4171 179.332 16.4433C179.407 16.4695 179.489 16.4778 179.568 16.4675H181.071C181.561 16.4675 181.665 16.2 181.665 15.9772V15.5685C181.665 14.1347 181.926 13.1428 182.445 12.619C182.965 12.0952 183.886 11.8315 185.189 11.8315H190.966C192.266 11.8315 193.176 12.0952 193.71 12.619C194.244 13.1428 194.491 14.1347 194.491 15.5685V17.0544H186.126C186.048 17.0449 185.969 17.0529 185.894 17.0776C185.821 17.1024 185.752 17.1434 185.696 17.1977C185.639 17.252 185.595 17.3183 185.567 17.3917C185.539 17.4653 185.527 17.5441 185.532 17.6228V18.9787C185.522 19.0596 185.53 19.1419 185.556 19.2192C185.583 19.2964 185.626 19.3666 185.683 19.4243C185.741 19.482 185.81 19.5257 185.887 19.5522C185.964 19.5786 186.045 19.587 186.126 19.5767H194.494V21.4341C194.494 22.8531 194.229 23.8375 193.714 24.3576C193.198 24.8776 192.269 25.1451 190.97 25.1451H185.194C183.89 25.1451 182.965 24.8814 182.449 24.3576C181.934 23.8338 181.668 22.8717 181.668 21.4341V20.8694C181.678 20.7886 181.67 20.7064 181.644 20.6293C181.618 20.5522 181.575 20.4822 181.517 20.4247C181.46 20.3672 181.39 20.3239 181.314 20.2979C181.237 20.272 181.156 20.2641 181.076 20.2751H179.573C179.495 20.2633 179.415 20.2696 179.34 20.2937C179.265 20.3176 179.196 20.3587 179.139 20.4135C179.083 20.4684 179.039 20.5357 179.012 20.6102C178.985 20.6847 178.975 20.7645 178.983 20.8434V21.3672C178.983 23.466 179.477 25.082 180.456 26.1555C181.436 27.2291 183.034 27.7862 185.197 27.7862H190.973C193.142 27.7862 194.738 27.2402 195.714 26.1555C196.69 25.0708 197.187 23.466 197.187 21.3672V15.6465C197.187 13.5329 196.693 11.9318 195.714 10.8174C194.733 9.70301 193.139 9.20154 190.97 9.20154Z" fill="#F04B54"/>
<path d="M214.88 9.20237H199.833C199.753 9.19204 199.671 9.20047 199.595 9.22686C199.517 9.25326 199.448 9.29706 199.391 9.35475C199.334 9.41252 199.291 9.48263 199.264 9.5599C199.238 9.63718 199.23 9.71944 199.239 9.80044V11.2343C199.23 11.3153 199.238 11.3975 199.264 11.4748C199.291 11.5521 199.334 11.6222 199.391 11.68C199.448 11.7376 199.517 11.7815 199.595 11.8078C199.671 11.8342 199.753 11.8427 199.833 11.8323H205.999V27.1927C205.989 27.2736 205.997 27.3558 206.023 27.4329C206.049 27.51 206.093 27.58 206.15 27.6375C206.208 27.6949 206.277 27.7383 206.354 27.7643C206.431 27.7902 206.512 27.798 206.592 27.7871H208.121C208.201 27.7974 208.282 27.7891 208.358 27.7629C208.434 27.7366 208.503 27.6932 208.561 27.6358C208.617 27.5784 208.66 27.5086 208.686 27.4318C208.713 27.3551 208.721 27.2733 208.71 27.1927V11.8323H214.88C214.96 11.8428 215.042 11.8345 215.119 11.808C215.195 11.7816 215.264 11.7378 215.321 11.68C215.379 11.6222 215.421 11.5519 215.447 11.4746C215.473 11.3973 215.48 11.3151 215.469 11.2343V9.80044C215.48 9.71962 215.473 9.63745 215.447 9.56009C215.421 9.48281 215.379 9.41252 215.321 9.35475C215.264 9.29688 215.195 9.25308 215.119 9.22668C215.042 9.2002 214.96 9.19194 214.88 9.20237Z" fill="#F04B54"/>
<path d="M226.609 9.60716C226.551 9.481 226.456 9.37516 226.338 9.30305C226.221 9.23095 226.084 9.19585 225.945 9.20229H224.133C223.996 9.19585 223.859 9.23095 223.741 9.30305C223.623 9.37516 223.529 9.481 223.47 9.60716L214.629 27.0664C214.582 27.1445 214.557 27.2345 214.557 27.3264C214.557 27.4183 214.582 27.5083 214.629 27.5864C214.681 27.6602 214.75 27.7189 214.831 27.7568C214.912 27.7946 215.002 27.8102 215.09 27.8018H216.825C216.963 27.8087 217.1 27.7739 217.218 27.7017C217.337 27.6296 217.43 27.5235 217.489 27.397L219.046 24.3026H231.077L232.61 27.3709C232.667 27.491 232.756 27.5931 232.868 27.6663C232.978 27.7395 233.107 27.7812 233.239 27.7871H234.974C235.066 27.8009 235.159 27.7876 235.242 27.7485C235.327 27.7095 235.397 27.6466 235.445 27.5675C235.494 27.4883 235.518 27.3966 235.516 27.3036C235.514 27.2105 235.484 27.1203 235.431 27.0441L226.609 9.60716ZM220.181 21.9475L225.058 12.2112L229.884 21.9475H220.181Z" fill="#F04B54"/>
<path d="M264.918 9.44816C264.868 9.36381 264.795 9.29633 264.707 9.25397C264.618 9.21171 264.52 9.19656 264.424 9.21035H262.535C262.402 9.21143 262.272 9.23964 262.151 9.29334C262.03 9.34694 261.921 9.42494 261.831 9.52244L254.604 17.2156H252.585V9.78619C252.596 9.70519 252.587 9.62293 252.561 9.54566C252.535 9.46838 252.491 9.39827 252.434 9.3405C252.377 9.28281 252.307 9.23901 252.231 9.21261C252.154 9.18622 252.072 9.17779 251.992 9.18813H250.493C250.413 9.17779 250.331 9.18622 250.255 9.21261C250.178 9.23901 250.108 9.28281 250.051 9.3405C249.994 9.39827 249.951 9.46838 249.925 9.54566C249.898 9.62293 249.889 9.70519 249.9 9.78619V17.2156H247.863L240.632 9.50756C240.542 9.41106 240.433 9.33388 240.314 9.28091C240.193 9.22794 240.063 9.2001 239.932 9.19928H238.028C237.931 9.18541 237.833 9.20055 237.745 9.24282C237.657 9.28517 237.584 9.35265 237.534 9.437C237.46 9.59672 237.512 9.77875 237.689 9.97565L245.568 18.4415L237.704 27.0076C237.527 27.2045 237.475 27.3791 237.549 27.5462C237.598 27.6312 237.672 27.6993 237.76 27.7418C237.848 27.7841 237.946 27.7988 238.042 27.784H239.906C240.039 27.7864 240.17 27.7601 240.291 27.7069C240.413 27.6537 240.522 27.5748 240.61 27.4757L247.863 19.7936H249.881V27.1896C249.871 27.2705 249.88 27.3527 249.906 27.4298C249.932 27.5069 249.975 27.5769 250.032 27.6344C250.09 27.6918 250.159 27.7353 250.237 27.7612C250.313 27.7871 250.394 27.7949 250.474 27.784H251.973C252.053 27.7949 252.135 27.7871 252.212 27.7612C252.289 27.7353 252.358 27.6918 252.416 27.6344C252.473 27.5769 252.517 27.5069 252.543 27.4298C252.569 27.3527 252.577 27.2705 252.567 27.1896V19.7936H254.604L261.857 27.472C261.945 27.5724 262.053 27.6524 262.174 27.7062C262.296 27.7601 262.428 27.7867 262.56 27.784H264.424C264.52 27.7988 264.619 27.7841 264.708 27.7418C264.796 27.6993 264.868 27.6312 264.918 27.5462C264.992 27.3865 264.94 27.2045 264.763 27.0076L256.866 18.4415L264.744 9.97565C264.918 9.77875 264.973 9.59672 264.918 9.44816Z" fill="#F04B54"/>
<path d="M284.837 9.20201H283.205C283.069 9.19693 282.934 9.22541 282.812 9.285C282.688 9.3445 282.582 9.43338 282.501 9.54376L270.85 23.7711V9.80007C270.861 9.71908 270.853 9.63682 270.826 9.55954C270.8 9.48236 270.756 9.41216 270.699 9.35447C270.642 9.2967 270.572 9.25298 270.496 9.2265C270.419 9.20011 270.337 9.19176 270.257 9.20201H268.758C268.678 9.19176 268.596 9.20011 268.52 9.2265C268.443 9.25298 268.373 9.2967 268.316 9.35447C268.259 9.41216 268.216 9.48236 268.19 9.55954C268.163 9.63682 268.154 9.71908 268.165 9.80007V27.1924C268.154 27.2732 268.163 27.3554 268.19 27.4325C268.216 27.5097 268.259 27.5797 268.316 27.6371C268.374 27.6946 268.443 27.738 268.52 27.7639C268.596 27.7899 268.678 27.7977 268.758 27.7868H270.445C270.581 27.7919 270.716 27.7634 270.839 27.7038C270.961 27.6442 271.068 27.5554 271.148 27.445L282.749 13.2957V27.1924C282.738 27.2732 282.746 27.3554 282.772 27.4325C282.799 27.5097 282.842 27.5797 282.9 27.6371C282.956 27.6946 283.026 27.738 283.103 27.7639C283.179 27.7899 283.261 27.7977 283.341 27.7868H284.84C284.921 27.7977 285.002 27.7899 285.079 27.7639C285.155 27.738 285.225 27.6946 285.282 27.6371C285.34 27.5797 285.383 27.5097 285.41 27.4325C285.436 27.3554 285.444 27.2732 285.433 27.1924V9.80007C285.444 9.71872 285.436 9.63609 285.409 9.55854C285.383 9.481 285.339 9.41062 285.281 9.35275C285.224 9.29498 285.153 9.25126 285.076 9.22514C285 9.19902 284.918 9.19113 284.837 9.20201Z" fill="#F04B54"/>
<path d="M67.1108 33.3158C67.3544 33.1378 67.6558 33.0595 67.9543 33.0966H69.4278C69.7183 33.0611 70.0117 33.1337 70.2529 33.3009C70.4269 33.5466 70.5067 33.8474 70.4776 34.1479C70.4741 34.1734 70.4764 34.1994 70.4843 34.2239C70.4923 34.2484 70.5056 34.2708 70.5233 34.2894C70.541 34.308 70.5627 34.3223 70.5867 34.3312C70.6106 34.3402 70.6363 34.3435 70.6618 34.341H71.1627C71.2843 34.341 71.3432 34.2742 71.3432 34.1479C71.3793 33.6258 71.2203 33.109 70.8975 32.6991C70.6175 32.4169 70.135 32.2756 69.4536 32.2756H67.9359C67.1992 32.2756 66.702 32.4354 66.4441 32.7549C66.141 33.2066 66.0005 33.7493 66.0462 34.2928V35.4072C65.9986 35.9601 66.1389 36.5129 66.4441 36.9748C66.7092 37.2942 67.2066 37.454 67.9359 37.454H69.4536C69.9669 37.5049 70.48 37.3546 70.8865 37.0342C71.2191 36.6148 71.3823 36.084 71.3432 35.5484C71.3432 35.4183 71.2843 35.3515 71.1627 35.3515H70.6691C70.5476 35.3515 70.485 35.4183 70.485 35.5484C70.5115 35.8509 70.4349 36.1537 70.2676 36.4065C70.0254 36.5777 69.7286 36.6519 69.4351 36.6144H67.9617C67.6631 36.6515 67.3617 36.5733 67.1182 36.3953C66.9474 36.1167 66.8747 35.7883 66.9119 35.4629V34.2296C66.8733 33.911 66.9434 33.5888 67.1108 33.3158Z" fill="#F04B54"/>
<path d="M82.6359 32.2741H82.4333C81.6058 32.2741 81.0704 32.5217 80.8273 33.017C80.5964 32.5217 80.055 32.2741 79.2029 32.2741H79.0002C78.2341 32.2741 77.7479 32.5007 77.5489 32.9464V32.4598C77.5527 32.4345 77.5505 32.4088 77.5425 32.3846C77.5346 32.3603 77.5211 32.3382 77.5032 32.3202C77.4853 32.3021 77.4635 32.2885 77.4395 32.2805C77.4154 32.2726 77.3898 32.2704 77.3647 32.2741H76.8712C76.8464 32.271 76.8212 32.2736 76.7977 32.282C76.7741 32.2902 76.7528 32.3039 76.7353 32.3219C76.7178 32.3399 76.7047 32.3616 76.6969 32.3856C76.6892 32.4095 76.6871 32.4349 76.6907 32.4598V37.2666C76.6871 37.2916 76.6892 37.317 76.6969 37.3409C76.7047 37.3649 76.7178 37.3866 76.7353 37.4046C76.7528 37.4226 76.7741 37.4362 76.7977 37.4446C76.8212 37.4528 76.8464 37.4556 76.8712 37.4524H77.3647C77.3898 37.4562 77.4154 37.4539 77.4395 37.446C77.4635 37.438 77.4853 37.4244 77.5032 37.4063C77.5211 37.3883 77.5346 37.3662 77.5425 37.342C77.5505 37.3177 77.5527 37.2919 77.5489 37.2666V34.2466C77.5072 33.9193 77.5916 33.5881 77.7847 33.3217C78.0187 33.1467 78.3089 33.0659 78.5988 33.0951H79.1181C79.4143 33.0584 79.7133 33.1367 79.9543 33.3142C80.1251 33.5928 80.1978 33.9213 80.1606 34.2466V37.2778C80.1568 37.3026 80.1589 37.328 80.1666 37.3517C80.1744 37.3756 80.1876 37.3972 80.2051 37.4149C80.2228 37.4326 80.2442 37.446 80.2678 37.4538C80.2914 37.4616 80.3166 37.4636 80.3411 37.4598H80.8347C80.8594 37.4635 80.8846 37.4613 80.9083 37.4535C80.932 37.4457 80.9537 37.4324 80.9715 37.4148C80.9893 37.3972 81.0029 37.3757 81.0111 37.3519C81.0193 37.3281 81.0219 37.3028 81.0189 37.2778V34.2466C80.9772 33.9193 81.0615 33.5881 81.2546 33.3217C81.4886 33.1467 81.7788 33.0659 82.0687 33.0951H82.5807C82.8804 33.0577 83.183 33.136 83.4279 33.3142C83.5971 33.5934 83.6685 33.9217 83.6305 34.2466V37.2778C83.6274 37.3028 83.6301 37.3281 83.6383 37.3519C83.6465 37.3757 83.6601 37.3972 83.6779 37.4148C83.6958 37.4324 83.7174 37.4457 83.7411 37.4535C83.7648 37.4613 83.79 37.4635 83.8147 37.4598H84.3083C84.333 37.4635 84.3582 37.4613 84.3819 37.4535C84.4056 37.4457 84.4272 37.4324 84.4451 37.4148C84.4629 37.3972 84.4764 37.3757 84.4847 37.3519C84.4929 37.3281 84.4956 37.3028 84.4924 37.2778V34.3395C84.5394 33.7878 84.3991 33.2364 84.0946 32.7756C83.8368 32.4375 83.3469 32.2741 82.6359 32.2741Z" fill="#F04B54"/>
<path d="M93.4232 32.2741H92.3179C91.5525 32.2741 91.0659 32.5007 90.8672 32.9464V32.4598C90.8708 32.4345 90.8681 32.4088 90.8609 32.3846C90.8528 32.3603 90.8393 32.3382 90.8213 32.3202C90.8033 32.3021 90.7817 32.2885 90.7574 32.2805C90.7332 32.2726 90.708 32.2704 90.6828 32.2741H90.2079C90.1828 32.271 90.1576 32.2736 90.1342 32.282C90.1108 32.2902 90.0892 32.3039 90.0721 32.3219C90.0541 32.3399 90.0415 32.3616 90.0335 32.3856C90.0254 32.4095 90.0236 32.4349 90.0272 32.4598V38.1768C90.0236 38.2016 90.0254 38.2269 90.0335 38.2507C90.0407 38.2745 90.0541 38.2962 90.0721 38.3138C90.0892 38.3316 90.1108 38.3449 90.1342 38.3527C90.1576 38.3605 90.1828 38.3626 90.2079 38.3588H90.6864C90.7116 38.3625 90.7368 38.3603 90.7601 38.3525C90.7835 38.3447 90.8051 38.3314 90.8231 38.3138C90.8411 38.2962 90.8546 38.2747 90.8627 38.2509C90.8708 38.2271 90.8735 38.2017 90.8708 38.1768V36.7801C91.0695 37.2258 91.5561 37.4524 92.3224 37.4524H93.4268C94.1634 37.4524 94.6607 37.2927 94.9188 36.9732C95.2237 36.5114 95.364 35.9585 95.3164 35.4056V34.2912C95.3622 33.7478 95.2219 33.205 94.9188 32.7533C94.6508 32.4338 94.1526 32.2741 93.4232 32.2741ZM94.4548 35.4799C94.4943 35.8053 94.4215 36.1346 94.2488 36.4123C94.0078 36.5905 93.7083 36.6689 93.4124 36.6315H91.9392C91.6487 36.6606 91.3591 36.5799 91.1244 36.4048C90.9319 36.1384 90.8474 35.8073 90.8888 35.4799V34.228C90.8483 33.9042 90.9328 33.5768 91.1244 33.3142C91.3618 33.1453 91.6505 33.0675 91.9392 33.0951H93.4124C93.7083 33.0576 94.0078 33.136 94.2488 33.3142C94.4197 33.5855 94.4934 33.9086 94.4548 34.228V35.4799Z" fill="#F04B54"/>
<path d="M104.096 32.2764H102.578C101.842 32.2764 101.351 32.4361 101.105 32.7555C100.802 33.2072 100.662 33.75 100.707 34.2934V35.4079C100.659 35.9608 100.8 36.5136 101.105 36.9754C101.371 37.2949 101.862 37.4547 102.578 37.4547H104.096C104.833 37.4547 105.33 37.2949 105.588 36.9754C105.894 36.5136 106.034 35.9608 105.986 35.4079V34.2934C106.031 33.75 105.891 33.2072 105.588 32.7555C105.322 32.4361 104.825 32.2764 104.096 32.2764ZM105.127 35.4822C105.167 35.8076 105.094 36.1367 104.921 36.4145C104.678 36.5929 104.376 36.6712 104.078 36.6337H102.605C102.306 36.6709 102.005 36.5925 101.761 36.4145C101.59 36.136 101.517 35.8075 101.554 35.4822V34.2303C101.518 33.9108 101.591 33.5885 101.761 33.3165C102.005 33.1385 102.306 33.0602 102.605 33.0973H104.078C104.376 33.0598 104.678 33.1382 104.921 33.3165C105.093 33.5878 105.166 33.9107 105.127 34.2303V35.4822Z" fill="#F04B54"/>
<path d="M116.306 32.2856H115.817C115.691 32.2856 115.632 32.345 115.632 32.4677V35.4914C115.673 35.817 115.589 36.146 115.4 36.4127C115.163 36.5834 114.872 36.6612 114.582 36.6319H113.341C113.042 36.6695 112.739 36.5926 112.494 36.4164C112.324 36.1404 112.253 35.814 112.291 35.4914V32.4602C112.295 32.435 112.293 32.4092 112.285 32.3849C112.277 32.3607 112.263 32.3387 112.245 32.3205C112.227 32.3025 112.206 32.289 112.181 32.2809C112.157 32.2729 112.132 32.2707 112.107 32.2745H111.613C111.588 32.2707 111.563 32.2729 111.538 32.2809C111.515 32.289 111.493 32.3025 111.475 32.3205C111.457 32.3387 111.443 32.3607 111.436 32.3849C111.428 32.4092 111.425 32.435 111.43 32.4602V35.432C111.383 35.9835 111.526 36.5344 111.834 36.9922C112.1 37.3154 112.597 37.4751 113.307 37.4751H114.166C114.933 37.4751 115.415 37.2485 115.617 36.7953V37.293C115.617 37.4157 115.676 37.4751 115.801 37.4751H116.292C116.417 37.4751 116.476 37.4157 116.476 37.293V32.4825C116.49 32.345 116.432 32.2856 116.306 32.2856Z" fill="#F04B54"/>
<path d="M128.027 32.2741H127.825C126.997 32.2741 126.462 32.5217 126.219 33.017C125.986 32.5217 125.442 32.2741 124.591 32.2741H124.392C123.626 32.2741 123.139 32.5007 122.94 32.9464V32.4598C122.944 32.4345 122.942 32.4088 122.934 32.3846C122.926 32.3603 122.913 32.3382 122.895 32.3202C122.877 32.3021 122.855 32.2885 122.831 32.2805C122.807 32.2726 122.781 32.2704 122.756 32.2741H122.262C122.238 32.2704 122.212 32.2726 122.188 32.2805C122.164 32.2885 122.142 32.3021 122.124 32.3202C122.107 32.3382 122.093 32.3603 122.085 32.3846C122.077 32.4088 122.074 32.4345 122.079 32.4598V37.2666C122.074 37.2919 122.077 37.3177 122.085 37.342C122.093 37.3662 122.107 37.3883 122.124 37.4063C122.142 37.4244 122.164 37.438 122.188 37.446C122.212 37.4539 122.238 37.4562 122.262 37.4524H122.756C122.781 37.4562 122.807 37.4539 122.831 37.446C122.855 37.438 122.877 37.4244 122.895 37.4063C122.913 37.3883 122.926 37.3662 122.934 37.342C122.942 37.3177 122.944 37.2919 122.94 37.2666V34.2466C122.899 33.9193 122.983 33.5881 123.176 33.3217C123.41 33.1467 123.7 33.0659 123.99 33.0951H124.51C124.806 33.0584 125.105 33.1367 125.346 33.3142C125.516 33.5928 125.589 33.9213 125.552 34.2466V37.2778C125.549 37.3026 125.55 37.328 125.558 37.3517C125.566 37.3756 125.579 37.3972 125.596 37.4149C125.614 37.4326 125.636 37.446 125.659 37.4538C125.683 37.4616 125.708 37.4636 125.733 37.4598H126.226C126.251 37.4635 126.276 37.4613 126.3 37.4535C126.324 37.4457 126.345 37.4324 126.363 37.4148C126.381 37.3972 126.394 37.3757 126.403 37.3519C126.411 37.3281 126.414 37.3028 126.41 37.2778V34.2466C126.369 33.9193 126.453 33.5881 126.646 33.3217C126.88 33.1467 127.17 33.0659 127.46 33.0951H127.98C128.278 33.0575 128.579 33.1359 128.823 33.3142C128.996 33.592 129.069 33.9212 129.029 34.2466V37.2778C129.026 37.3028 129.029 37.3281 129.037 37.3519C129.045 37.3757 129.059 37.3972 129.077 37.4148C129.095 37.4324 129.116 37.4457 129.14 37.4535C129.164 37.4613 129.189 37.4635 129.214 37.4598H129.707C129.732 37.4636 129.757 37.4616 129.78 37.4538C129.804 37.446 129.825 37.4326 129.843 37.4149C129.861 37.3972 129.874 37.3756 129.882 37.3517C129.889 37.328 129.892 37.3026 129.888 37.2778V34.3395C129.934 33.7884 129.795 33.2377 129.493 32.7756C129.228 32.4375 128.739 32.2741 128.027 32.2741Z" fill="#F04B54"/>
<path d="M138.482 32.2756H137.197C136.461 32.2756 135.967 32.4354 135.723 32.7549C135.42 33.2066 135.28 33.7493 135.326 34.2928V35.4072C135.278 35.9601 135.418 36.5129 135.723 36.9748C135.985 37.2942 136.486 37.454 137.197 37.454H139.776C139.8 37.4571 139.825 37.4544 139.848 37.4461C139.873 37.4379 139.893 37.4242 139.911 37.4062C139.929 37.3883 139.942 37.3664 139.949 37.3425C139.957 37.3185 139.959 37.2931 139.955 37.2683V36.8188C139.959 36.7938 139.957 36.7684 139.949 36.7445C139.942 36.7205 139.929 36.6988 139.911 36.6808C139.893 36.6629 139.873 36.6492 139.848 36.6409C139.825 36.6326 139.8 36.6299 139.776 36.633H137.197C136.898 36.6699 136.595 36.5918 136.35 36.4139C136.181 36.1347 136.109 35.8064 136.147 35.4814V35.3068H140.192C140.216 35.3107 140.242 35.3084 140.267 35.3004C140.29 35.2924 140.313 35.2788 140.331 35.2608C140.348 35.2427 140.361 35.2207 140.369 35.1965C140.377 35.1722 140.379 35.1464 140.375 35.1211V34.2928C140.421 33.7493 140.281 33.2066 139.978 32.7549C139.713 32.4354 139.215 32.2756 138.482 32.2756ZM139.517 34.5045H136.166V34.2296C136.129 33.9106 136.2 33.5884 136.368 33.3158C136.613 33.1379 136.916 33.0596 137.215 33.0966H138.468C138.767 33.0595 139.068 33.1378 139.312 33.3158C139.482 33.5878 139.554 33.9102 139.517 34.2296V34.5045Z" fill="#F04B54"/>
<path d="M150.729 32.2745H146.744C146.719 32.2707 146.693 32.2729 146.669 32.2809C146.645 32.289 146.624 32.3025 146.606 32.3205C146.588 32.3387 146.574 32.3607 146.566 32.3849C146.558 32.4092 146.556 32.435 146.56 32.4602V35.4803C146.589 35.7954 146.511 36.1112 146.338 36.3755C146.282 36.4513 146.209 36.5134 146.125 36.5577C146.043 36.602 145.95 36.6273 145.856 36.6319C145.831 36.6288 145.806 36.6314 145.783 36.6397C145.759 36.648 145.738 36.6617 145.721 36.6797C145.703 36.6976 145.69 36.7194 145.682 36.7433C145.674 36.7673 145.672 36.7927 145.676 36.8176V37.2671C145.672 37.292 145.674 37.3173 145.682 37.3413C145.69 37.3652 145.703 37.3871 145.721 37.4051C145.738 37.423 145.759 37.4367 145.783 37.445C145.806 37.4532 145.831 37.4559 145.856 37.4529C146.073 37.4625 146.289 37.4211 146.487 37.3321C146.685 37.2432 146.86 37.109 146.998 36.9401C147.308 36.4926 147.455 35.9505 147.414 35.406V33.0955H150.063V37.2783C150.059 37.3032 150.062 37.3286 150.071 37.3524C150.079 37.3761 150.092 37.3976 150.11 37.4152C150.127 37.4329 150.149 37.446 150.173 37.4538C150.197 37.4617 150.222 37.4638 150.247 37.4602H150.729C150.754 37.4638 150.78 37.4617 150.803 37.4538C150.826 37.446 150.849 37.4329 150.866 37.4152C150.884 37.3976 150.897 37.3761 150.905 37.3524C150.914 37.3286 150.916 37.3032 150.914 37.2783V32.4491C150.915 32.4247 150.912 32.4002 150.903 32.3774C150.895 32.3546 150.88 32.334 150.863 32.3173C150.845 32.3005 150.824 32.288 150.801 32.2805C150.778 32.2731 150.753 32.2711 150.729 32.2745Z" fill="#F04B54"/>
<path d="M161.042 34.8265C160.773 34.5071 160.267 34.3473 159.523 34.3473H157.14V32.4602C157.144 32.435 157.142 32.4092 157.134 32.3849C157.126 32.3607 157.112 32.3387 157.094 32.3205C157.076 32.3025 157.055 32.289 157.03 32.2809C157.007 32.2729 156.981 32.2707 156.956 32.2745H156.463C156.438 32.2714 156.412 32.274 156.389 32.2824C156.366 32.2906 156.344 32.3043 156.326 32.3223C156.309 32.3402 156.296 32.3621 156.288 32.386C156.28 32.4099 156.278 32.4354 156.282 32.4602V37.2671C156.278 37.292 156.28 37.3173 156.288 37.3413C156.296 37.3652 156.309 37.3871 156.326 37.4051C156.344 37.423 156.366 37.4367 156.389 37.445C156.412 37.4532 156.438 37.4559 156.463 37.4529H159.542C160.279 37.4529 160.773 37.293 161.042 36.9736C161.139 36.8518 161.215 36.7151 161.269 36.5687C161.34 36.3518 161.373 36.1245 161.369 35.8964C161.373 35.6706 161.339 35.4458 161.269 35.2314C161.21 35.0878 161.133 34.9519 161.042 34.8265ZM160.374 36.4127C160.128 36.5905 159.825 36.6687 159.523 36.6319H157.14V35.1683H159.771C159.99 35.1651 160.204 35.24 160.374 35.38C160.437 35.4483 160.486 35.5292 160.515 35.6176C160.545 35.706 160.556 35.7997 160.548 35.8927C160.556 35.9864 160.544 36.0808 160.515 36.1701C160.487 36.2595 160.44 36.342 160.378 36.4127H160.374Z" fill="#F04B54"/>
<path d="M171.792 32.2745H171.299C171.274 32.2707 171.248 32.2729 171.224 32.2809C171.2 32.289 171.178 32.3025 171.16 32.3205C171.142 32.3387 171.129 32.3607 171.121 32.3849C171.113 32.4092 171.111 32.435 171.115 32.4602V34.4587H167.729V32.4602C167.733 32.435 167.731 32.4092 167.723 32.3849C167.715 32.3607 167.701 32.3387 167.683 32.3205C167.665 32.3025 167.644 32.289 167.62 32.2809C167.595 32.2729 167.57 32.2707 167.545 32.2745H167.051C167.026 32.2707 167.001 32.2729 166.977 32.2809C166.953 32.289 166.931 32.3025 166.913 32.3205C166.895 32.3387 166.881 32.3607 166.874 32.3849C166.866 32.4092 166.863 32.435 166.867 32.4602V37.2671C166.863 37.2923 166.866 37.3182 166.874 37.3424C166.881 37.3666 166.895 37.3886 166.913 37.4067C166.931 37.4248 166.953 37.4383 166.977 37.4463C167.001 37.4544 167.026 37.4566 167.051 37.4529H167.545C167.57 37.4566 167.595 37.4544 167.62 37.4463C167.644 37.4383 167.665 37.4248 167.683 37.4067C167.701 37.3886 167.715 37.3666 167.723 37.3424C167.731 37.3182 167.733 37.2923 167.729 37.2671V35.2797H171.115V37.2783C171.111 37.3032 171.114 37.3286 171.123 37.3524C171.131 37.3761 171.144 37.3976 171.162 37.4152C171.179 37.4329 171.201 37.446 171.225 37.4538C171.249 37.4617 171.274 37.4638 171.299 37.4602H171.792C171.817 37.4638 171.842 37.4617 171.866 37.4538C171.89 37.446 171.911 37.4329 171.929 37.4152C171.946 37.3976 171.96 37.3761 171.969 37.3524C171.977 37.3286 171.98 37.3032 171.976 37.2783V32.4491C171.978 32.4247 171.974 32.4002 171.966 32.3774C171.957 32.3546 171.944 32.334 171.926 32.3173C171.908 32.3005 171.887 32.288 171.864 32.2805C171.84 32.2731 171.816 32.2711 171.792 32.2745Z" fill="#F04B54"/>
<path d="M180.499 32.274H177.821C177.796 32.2708 177.771 32.2735 177.747 32.2818C177.724 32.2901 177.702 32.3037 177.685 32.3218C177.667 32.3397 177.655 32.3615 177.647 32.3855C177.639 32.4094 177.637 32.4348 177.64 32.4597V32.9091C177.637 32.9341 177.639 32.9595 177.647 32.9834C177.655 33.0074 177.667 33.0291 177.685 33.0471C177.702 33.0651 177.724 33.0787 177.747 33.0871C177.771 33.0953 177.796 33.0981 177.821 33.0949H180.481C180.741 33.0683 181.005 33.1214 181.236 33.2472C181.307 33.327 181.361 33.4214 181.393 33.524C181.424 33.6267 181.434 33.7349 181.42 33.8416C181.428 33.8856 181.425 33.9306 181.414 33.9738C181.403 34.0169 181.384 34.0574 181.356 34.0924C181.329 34.1273 181.294 34.1561 181.255 34.1769C181.216 34.1978 181.173 34.21 181.129 34.213L178.863 34.4619C178.401 34.4718 177.953 34.6291 177.585 34.9114C177.452 35.0622 177.351 35.2387 177.287 35.4304C177.224 35.622 177.2 35.8246 177.217 36.0258C177.217 36.9793 177.857 37.456 179.136 37.456H179.829C180.193 37.4776 180.557 37.414 180.893 37.2702C181.132 37.1357 181.317 36.9217 181.416 36.6648V37.2702C181.412 37.2956 181.415 37.3213 181.423 37.3455C181.43 37.3698 181.444 37.3919 181.462 37.4099C181.48 37.428 181.501 37.4416 181.526 37.4496C181.55 37.4575 181.575 37.4597 181.6 37.456H182.094C182.119 37.4591 182.144 37.4565 182.168 37.4481C182.191 37.4399 182.213 37.4262 182.23 37.4082C182.248 37.3902 182.26 37.3685 182.269 37.3445C182.276 37.3206 182.278 37.2952 182.275 37.2702V33.7933C182.295 33.582 182.269 33.3689 182.198 33.1687C182.129 32.9686 182.017 32.7862 181.869 32.6343C181.468 32.3578 180.983 32.2305 180.499 32.274ZM181.42 35.4538C181.455 35.7869 181.358 36.1206 181.151 36.3824C180.872 36.5916 180.525 36.6871 180.178 36.6499H179.147C178.447 36.6499 178.097 36.4159 178.097 35.9515C178.087 35.8545 178.097 35.7563 178.129 35.6639C178.16 35.5715 178.211 35.487 178.278 35.4166C178.499 35.2793 178.755 35.206 179.015 35.2049L181.435 34.9449L181.42 35.4538Z" fill="#F04B54"/>
<path d="M210.233 32.4194C210.211 32.3748 210.159 32.3525 210.081 32.3525H209.434C209.391 32.3528 209.348 32.3619 209.309 32.3791C209.27 32.3963 209.234 32.4215 209.205 32.4528L207.279 34.5517H206.174V32.5346C206.176 32.5096 206.174 32.4842 206.166 32.4605C206.157 32.4367 206.144 32.4152 206.126 32.3975C206.108 32.3799 206.086 32.3667 206.063 32.3589C206.04 32.3511 206.014 32.3489 205.989 32.3525H205.496C205.471 32.3487 205.446 32.3509 205.423 32.3587C205.399 32.3665 205.378 32.3797 205.36 32.3975C205.343 32.4152 205.329 32.4369 205.321 32.4607C205.314 32.4845 205.311 32.5098 205.316 32.5346V37.3415C205.316 37.4677 205.374 37.5272 205.496 37.5272H205.982C206.007 37.5309 206.032 37.5287 206.057 37.5207C206.081 37.5127 206.103 37.4991 206.121 37.481C206.139 37.463 206.152 37.4409 206.16 37.4167C206.167 37.3925 206.17 37.3667 206.166 37.3415V35.3429H207.271L209.187 37.4269C209.216 37.4583 209.251 37.4834 209.291 37.5006C209.33 37.5179 209.372 37.5268 209.415 37.5272H210.056C210.134 37.5272 210.185 37.5049 210.207 37.4565C210.229 37.4083 210.207 37.36 210.155 37.2968L208.026 34.938L210.174 32.5829C210.236 32.5197 210.251 32.4826 210.233 32.4194Z" fill="#F04B54"/>
<path d="M218.749 32.3542H217.231C216.494 32.3542 216.003 32.514 215.757 32.8335C215.454 33.2849 215.314 33.8279 215.36 34.3714V35.4858C215.312 36.0376 215.452 36.5894 215.757 37.0497C216.023 37.3691 216.514 37.5288 217.231 37.5288H218.749C219.485 37.5288 219.982 37.3691 220.241 37.0497C220.545 36.5894 220.687 36.0376 220.638 35.4858V34.3714C220.685 33.8279 220.544 33.2849 220.241 32.8335C219.975 32.514 219.478 32.3542 218.749 32.3542ZM219.78 35.5563C219.818 35.8818 219.745 36.2104 219.573 36.4887C219.33 36.667 219.028 36.7454 218.731 36.7079H217.256C216.958 36.7454 216.657 36.667 216.413 36.4887C216.242 36.2104 216.169 35.8818 216.207 35.5563V34.3045C216.17 33.9863 216.243 33.6648 216.413 33.3944C216.655 33.2127 216.958 33.1328 217.256 33.1715H218.731C219.029 33.1328 219.331 33.2127 219.573 33.3944C219.744 33.6648 219.817 33.9863 219.78 34.3045V35.5563Z" fill="#F04B54"/>
<path d="M232.639 32.3546H232.135C232.092 32.357 232.048 32.3708 232.011 32.395C231.975 32.4191 231.945 32.4526 231.925 32.492L229.45 35.7685L226.978 32.4846C226.958 32.4451 226.928 32.4117 226.891 32.3875C226.854 32.3634 226.812 32.3495 226.768 32.3472H226.241C226.139 32.3472 226.086 32.414 226.086 32.5292V37.3434C226.086 37.4698 226.146 37.5292 226.267 37.5292H226.761C226.786 37.533 226.811 37.5307 226.836 37.5227C226.859 37.5148 226.881 37.5012 226.899 37.4831C226.917 37.4651 226.931 37.443 226.938 37.4188C226.946 37.3945 226.949 37.3687 226.944 37.3434V33.7996L228.879 36.4779C228.897 36.5191 228.927 36.5543 228.964 36.5792C229 36.6042 229.044 36.618 229.089 36.6191H229.785C229.83 36.6189 229.874 36.6055 229.911 36.5804C229.948 36.5553 229.977 36.5196 229.995 36.4779L231.94 33.7996V37.3546C231.937 37.3796 231.94 37.4049 231.948 37.4287C231.956 37.4525 231.969 37.474 231.987 37.4916C232.005 37.5092 232.027 37.5225 232.05 37.5303C232.074 37.5381 232.1 37.5402 232.124 37.5366H232.614C232.739 37.5366 232.798 37.4772 232.798 37.3546V32.5255C232.799 32.5036 232.797 32.4816 232.789 32.4609C232.782 32.4402 232.771 32.4213 232.756 32.4052C232.741 32.3893 232.723 32.3765 232.703 32.3678C232.683 32.3591 232.662 32.3545 232.639 32.3546Z" fill="#F04B54"/>
<path d="M241.485 32.3525H240.582C239.812 32.3525 239.33 32.5755 239.126 33.0249V32.5346C239.131 32.5098 239.128 32.4845 239.121 32.4607C239.113 32.4369 239.099 32.4152 239.082 32.3975C239.064 32.3797 239.043 32.3665 239.019 32.3587C238.996 32.3509 238.971 32.3487 238.946 32.3525H238.453C238.428 32.3489 238.402 32.3511 238.379 32.3589C238.356 32.3667 238.334 32.3799 238.316 32.3975C238.298 32.4152 238.285 32.4367 238.276 32.4605C238.268 32.4842 238.266 32.5096 238.268 32.5346V37.3415C238.265 37.3667 238.267 37.3925 238.275 37.4167C238.283 37.4409 238.296 37.463 238.314 37.481C238.332 37.4991 238.354 37.5127 238.378 37.5207C238.402 37.5287 238.428 37.5309 238.453 37.5272H238.946C239.068 37.5272 239.126 37.4677 239.126 37.3415V34.3399C239.087 34.0121 239.172 33.6813 239.366 33.415C239.599 33.2399 239.888 33.159 240.177 33.1884H241.476C241.772 33.1506 242.071 33.2306 242.309 33.4113C242.483 33.6874 242.556 34.0157 242.515 34.3399V37.3711C242.512 37.3961 242.515 37.4215 242.523 37.4452C242.531 37.469 242.545 37.4906 242.563 37.5082C242.581 37.5258 242.602 37.539 242.626 37.5468C242.65 37.5546 242.675 37.5568 242.7 37.5531H243.19C243.214 37.557 243.239 37.5549 243.263 37.5471C243.287 37.5393 243.308 37.5259 243.326 37.5082C243.344 37.4905 243.356 37.4689 243.364 37.445C243.372 37.4213 243.374 37.3959 243.371 37.3711V34.3994C243.418 33.8475 243.278 33.2957 242.972 32.8355C242.715 32.5123 242.214 32.3525 241.485 32.3525Z" fill="#F04B54"/>
<path d="M251.894 32.3528H249.216C249.192 32.349 249.166 32.3511 249.143 32.3589C249.119 32.3667 249.098 32.38 249.08 32.3977C249.063 32.4155 249.05 32.4371 249.041 32.4609C249.034 32.4847 249.032 32.5101 249.035 32.5348V32.988C249.032 33.0128 249.034 33.0381 249.041 33.0619C249.05 33.0857 249.063 33.1073 249.08 33.1251C249.098 33.1428 249.119 33.1561 249.143 33.1639C249.166 33.1717 249.192 33.1738 249.216 33.17H251.875C252.131 33.1465 252.387 33.1995 252.612 33.3224C252.685 33.4017 252.739 33.4961 252.771 33.5986C252.803 33.7013 252.813 33.8098 252.8 33.9167C252.8 34.1396 252.705 34.2622 252.509 34.2881L250.244 34.5371C249.781 34.5462 249.333 34.705 248.966 34.9902C248.832 35.141 248.731 35.3175 248.667 35.5092C248.604 35.7008 248.58 35.9034 248.597 36.1046C248.597 37.0557 249.237 37.5311 250.516 37.5311H251.202C251.565 37.5548 251.928 37.4911 252.262 37.3454C252.502 37.2113 252.688 36.9972 252.789 36.7399V37.3454C252.785 37.3707 252.787 37.3964 252.795 37.4206C252.803 37.4449 252.817 37.467 252.835 37.485C252.853 37.5031 252.875 37.5167 252.899 37.5247C252.923 37.5326 252.948 37.5348 252.973 37.5311H253.5C253.525 37.5348 253.551 37.5326 253.574 37.5247C253.599 37.5167 253.621 37.5031 253.638 37.485C253.656 37.467 253.67 37.4449 253.678 37.4206C253.686 37.3964 253.688 37.3707 253.684 37.3454V33.8721C253.703 33.6603 253.677 33.447 253.607 33.2464C253.536 33.0458 253.425 32.8627 253.279 32.7094C252.873 32.4308 252.383 32.3047 251.894 32.3528ZM252.815 35.5289C252.85 35.8621 252.753 36.1957 252.546 36.4575C252.267 36.6668 251.919 36.7622 251.573 36.725H250.553C249.85 36.725 249.504 36.491 249.504 36.0266C249.493 35.9296 249.504 35.8314 249.535 35.739C249.566 35.6466 249.617 35.5622 249.684 35.4918C249.906 35.3538 250.16 35.2805 250.42 35.28L252.84 35.0237L252.815 35.5289Z" fill="#F04B54"/>
<path d="M264.117 32.3525H263.627C263.502 32.3525 263.443 32.412 263.443 32.5346V34.5331H260.054V32.5346C260.058 32.5098 260.056 32.4845 260.048 32.4607C260.04 32.4369 260.027 32.4152 260.01 32.3975C259.992 32.3797 259.97 32.3665 259.947 32.3587C259.923 32.3509 259.898 32.3487 259.874 32.3525H259.391C259.367 32.3489 259.342 32.3511 259.317 32.3589C259.294 32.3667 259.272 32.3799 259.254 32.3975C259.236 32.4152 259.223 32.4367 259.215 32.4605C259.207 32.4842 259.204 32.5096 259.207 32.5346V37.3415C259.203 37.3667 259.206 37.3925 259.213 37.4167C259.221 37.4409 259.235 37.463 259.253 37.481C259.271 37.4991 259.292 37.5127 259.316 37.5207C259.341 37.5287 259.366 37.5309 259.391 37.5272H259.885C260.006 37.5272 260.066 37.4677 260.066 37.3415V35.3541H263.443V37.3526C263.443 37.4751 263.502 37.5346 263.627 37.5346H264.117C264.242 37.5346 264.302 37.4751 264.302 37.3526V32.5234C264.302 32.412 264.242 32.3525 264.117 32.3525Z" fill="#F04B54"/>
<path d="M274.677 32.36H274.183C274.158 32.3563 274.133 32.3584 274.108 32.3664C274.084 32.3745 274.063 32.388 274.045 32.406C274.027 32.4241 274.013 32.4461 274.005 32.4704C273.997 32.4947 273.995 32.5204 273.999 32.5457V35.5658C274.04 35.8915 273.957 36.2207 273.767 36.4871C273.529 36.6577 273.239 36.7356 272.949 36.7062H271.708C271.409 36.7438 271.106 36.6669 270.861 36.4907C270.69 36.2147 270.619 35.8884 270.658 35.5658V32.5346C270.661 32.5096 270.658 32.4842 270.65 32.4605C270.641 32.4367 270.628 32.4152 270.611 32.3975C270.593 32.3799 270.571 32.3667 270.547 32.3589C270.524 32.3511 270.498 32.3489 270.473 32.3525H269.98C269.955 32.3487 269.93 32.3509 269.907 32.3587C269.883 32.3665 269.862 32.3797 269.845 32.3975C269.827 32.4152 269.813 32.4369 269.806 32.4607C269.798 32.4845 269.796 32.5098 269.8 32.5346V35.5064C269.752 36.0574 269.894 36.6083 270.201 37.0665C270.466 37.3897 270.963 37.5494 271.675 37.5494H272.533C273.299 37.5494 273.786 37.3229 273.984 36.8696V37.3674C273.981 37.3924 273.983 37.4177 273.992 37.4415C274 37.4653 274.014 37.4868 274.031 37.5044C274.049 37.522 274.071 37.5353 274.095 37.5431C274.118 37.5509 274.144 37.5531 274.168 37.5494H274.662C274.687 37.5532 274.712 37.5511 274.735 37.5433C274.759 37.5355 274.78 37.5222 274.797 37.5045C274.815 37.4868 274.829 37.4652 274.836 37.4413C274.844 37.4175 274.846 37.3922 274.842 37.3674V32.5457C274.846 32.5221 274.843 32.4981 274.837 32.4754C274.83 32.4527 274.818 32.4317 274.802 32.414C274.787 32.3963 274.767 32.3823 274.745 32.373C274.724 32.3637 274.7 32.3593 274.677 32.36Z" fill="#F04B54"/>
<path d="M285.247 32.3543H282.171C281.435 32.3543 280.941 32.514 280.672 32.8335C280.574 32.9547 280.498 33.0916 280.444 33.2384C280.374 33.4552 280.339 33.6826 280.345 33.9108C280.34 34.1353 280.374 34.3588 280.444 34.572C280.499 34.7185 280.575 34.8551 280.672 34.9769C280.941 35.2964 281.446 35.4561 282.19 35.4561H282.227L280.617 37.3135C280.57 37.3766 280.554 37.4286 280.573 37.4732C280.591 37.5177 280.639 37.5438 280.721 37.5438H281.402C281.445 37.5449 281.488 37.5365 281.527 37.5192C281.566 37.5019 281.602 37.476 281.63 37.4435L283.295 35.4896H284.555V37.3766C284.555 37.5029 284.614 37.5624 284.736 37.5624H285.229C285.254 37.5661 285.28 37.5639 285.304 37.5559C285.327 37.5479 285.35 37.5343 285.368 37.5163C285.386 37.4982 285.399 37.4762 285.406 37.4519C285.415 37.4277 285.417 37.4018 285.414 37.3766V32.5364C285.415 32.513 285.414 32.4895 285.406 32.4672C285.399 32.4448 285.388 32.4244 285.371 32.4071C285.356 32.3899 285.336 32.3762 285.316 32.3671C285.294 32.358 285.271 32.3536 285.247 32.3543ZM284.574 34.6352H281.943C281.724 34.641 281.509 34.5657 281.339 34.4234C281.277 34.3557 281.229 34.2753 281.198 34.1876C281.169 34.0999 281.158 34.0068 281.166 33.9145C281.158 33.8205 281.169 33.7259 281.199 33.6364C281.229 33.5469 281.277 33.4646 281.339 33.3944C281.584 33.2137 281.889 33.134 282.19 33.1715H284.574V34.6352Z" fill="#F04B54"/>
<path d="M192.601 32.2757H189.522C188.785 32.2757 188.295 32.4354 188.026 32.755C187.928 32.8758 187.851 33.0127 187.798 33.1598C187.727 33.3768 187.694 33.6041 187.699 33.8322C187.694 34.0579 187.727 34.2828 187.798 34.4972C187.851 34.6442 187.928 34.7811 188.026 34.902C188.297 35.2215 188.801 35.3812 189.541 35.3812H189.577L187.971 37.2386C187.95 37.2585 187.934 37.284 187.927 37.3122C187.919 37.3404 187.919 37.3702 187.927 37.3983C187.927 37.4467 187.993 37.4689 188.07 37.4689H188.755C188.799 37.4701 188.842 37.4616 188.88 37.4443C188.92 37.427 188.955 37.4011 188.984 37.3686L190.645 35.4147H191.909V37.3017C191.905 37.3267 191.908 37.3521 191.915 37.376C191.923 37.3999 191.936 37.4217 191.954 37.4397C191.971 37.4576 191.992 37.4713 192.016 37.4797C192.039 37.4879 192.064 37.4906 192.089 37.4875H192.583C192.608 37.4913 192.634 37.489 192.658 37.481C192.681 37.473 192.704 37.4594 192.722 37.4414C192.74 37.4233 192.752 37.4013 192.76 37.377C192.768 37.3528 192.771 37.327 192.767 37.3017V32.4615C192.77 32.4379 192.768 32.4139 192.761 32.3912C192.755 32.3684 192.742 32.3475 192.727 32.3298C192.711 32.3121 192.692 32.298 192.67 32.2888C192.648 32.2794 192.625 32.275 192.601 32.2757ZM191.927 34.5603H189.297C189.076 34.5661 188.862 34.4908 188.693 34.3485C188.63 34.2809 188.583 34.2005 188.552 34.1128C188.522 34.0251 188.512 33.9319 188.52 33.8396C188.512 33.745 188.523 33.6499 188.553 33.5599C188.583 33.4698 188.63 33.3868 188.693 33.3158C188.938 33.1387 189.24 33.0605 189.541 33.0967H191.927V34.5603Z" fill="#F04B54"/>
</g>
<defs>
<clipPath id="clip0_1428_1205">
<rect width="286" height="39" fill="white"/>
</clipPath>
</defs>
</svg>
