<svg width="53" height="43" viewBox="0 0 53 43" fill="none" xmlns="http://www.w3.org/2000/svg">
<path d="M16.108 3.31614C20.5654 1.53265 23.2243 0.46875 26.5 0.46875C29.7757 0.46875 32.4346 1.53265 36.892 3.31613L43.9445 6.13716C46.2116 7.04397 48.0479 7.77844 49.3084 8.43928C49.9463 8.77372 50.5643 9.15288 51.0409 9.60997C51.5305 10.0796 52.0312 10.7919 52.0312 11.75C52.0312 12.7081 51.5305 13.4204 51.0409 13.89C50.5643 14.3471 49.9463 14.7263 49.3084 15.0607C48.0479 15.7216 46.2117 16.456 43.9445 17.3628L36.892 20.1839C32.4346 21.9674 29.7757 23.0312 26.5 23.0312C23.2243 23.0312 20.5654 21.9674 16.108 20.1839L9.05551 17.3628C6.78838 16.456 4.95211 15.7216 3.69161 15.0607C3.05368 14.7263 2.43568 14.3471 1.95914 13.89C1.46951 13.4204 0.96875 12.7081 0.96875 11.75C0.96875 10.7919 1.46951 10.0796 1.95914 9.60997C2.43568 9.15288 3.05368 8.77372 3.69161 8.43928C4.95212 7.77844 6.78838 7.04396 9.05553 6.13714L16.108 3.31614Z" fill="#F04B54"/>
<path fill-rule="evenodd" clip-rule="evenodd" d="M3.93875 19.9235C3.93875 19.9235 3.93875 19.9235 3.93875 19.9235L3.93542 19.9205L3.94371 19.9277C3.95417 19.9368 3.97365 19.9535 4.00215 19.9773C4.05917 20.0249 4.15225 20.1008 4.28137 20.2006C4.53965 20.4002 4.94186 20.695 5.48789 21.0491C6.58003 21.7574 8.2462 22.7022 10.4863 23.5982L17.1564 26.2663C21.9653 28.1899 23.9815 28.9688 26.5 28.9688C29.0185 28.9688 31.0347 28.1899 35.8436 26.2663L42.5137 23.5982C44.7538 22.7022 46.42 21.7574 47.5121 21.0491C48.0581 20.695 48.4604 20.4002 48.7186 20.2006C48.8478 20.1008 48.9408 20.0249 48.9978 19.9773C49.0264 19.9535 49.0458 19.9368 49.0563 19.9277L49.0612 19.9235C49.0625 19.9223 49.0638 19.9212 49.0651 19.92C49.7975 19.2674 50.9204 19.3298 51.5759 20.0606C52.2328 20.7929 52.1717 21.919 51.4394 22.5759L50.25 21.25C51.4394 22.5759 51.4398 22.5756 51.4394 22.5759L51.4361 22.5789L51.432 22.5826L51.421 22.5923L51.3884 22.6207C51.362 22.6436 51.3263 22.6742 51.2811 22.7119C51.1907 22.7874 51.0627 22.8914 50.897 23.0195C50.5658 23.2755 50.0836 23.6275 49.4505 24.038C48.1844 24.8591 46.3132 25.9153 43.8368 26.9059L37.1667 29.574C37.0744 29.6109 36.9828 29.6475 36.892 29.6839C32.4346 31.4674 29.7757 32.5312 26.5 32.5312C23.2243 32.5312 20.5654 31.4674 16.108 29.6839C16.0172 29.6475 15.9256 29.6109 15.8333 29.574L9.16318 26.9059C6.68677 25.9153 4.81557 24.8591 3.54947 24.038C2.91638 23.6275 2.43425 23.2755 2.10297 23.0195C1.93731 22.8914 1.80931 22.7874 1.71893 22.7119C1.67374 22.6742 1.63795 22.6436 1.61156 22.6207L1.57902 22.5923L1.56803 22.5826L1.56386 22.5789L1.56131 22.5766C1.56093 22.5763 1.56056 22.5759 2.75 21.25L1.56131 22.5766C0.829014 21.9197 0.767162 20.7929 1.42407 20.0606C2.07966 19.3297 3.20303 19.2678 3.93542 19.9205M3.93875 19.9235C3.93875 19.9235 3.93875 19.9235 3.93875 19.9235V19.9235ZM3.93503 29.4201C3.20263 28.7674 2.07966 28.8297 1.42407 29.5606L3.93503 29.4201ZM3.93503 29.4201L3.94371 29.4277C3.95417 29.4368 3.97365 29.4535 4.00215 29.4773C4.05917 29.5249 4.15225 29.6008 4.28137 29.7006C4.53965 29.9002 4.94186 30.195 5.48789 30.5491C6.58003 31.2574 8.2462 32.2022 10.4863 33.0982L17.1564 35.7663C21.9653 37.6899 23.9815 38.4688 26.5 38.4688C29.0185 38.4688 31.0347 37.6899 35.8436 35.7663L42.5137 33.0982C44.7538 32.2022 46.42 31.2574 47.5121 30.5491C48.0581 30.195 48.4604 29.9002 48.7186 29.7006C48.8478 29.6008 48.9408 29.5249 48.9978 29.4773C49.0264 29.4535 49.0458 29.4368 49.0563 29.4277L49.0612 29.4235C49.0625 29.4223 49.0638 29.4212 49.0651 29.42C49.7975 28.7674 50.9204 28.8298 51.5759 29.5606C52.2328 30.2929 52.1717 31.419 51.4394 32.0759L50.2895 30.794C51.4394 32.0759 51.4398 32.0756 51.4394 32.0759L51.4361 32.0789L51.432 32.0826L51.421 32.0923L51.3884 32.1207C51.362 32.1436 51.3263 32.1742 51.2811 32.2119C51.1907 32.2874 51.0627 32.3914 50.897 32.5195C50.5658 32.7755 50.0836 33.1275 49.4505 33.538C48.1844 34.3591 46.3132 35.4153 43.8368 36.4059L37.1667 39.074C37.0744 39.1109 36.9828 39.1475 36.892 39.1839C32.4346 40.9674 29.7757 42.0312 26.5 42.0312C23.2243 42.0312 20.5654 40.9674 16.108 39.1839C16.0172 39.1475 15.9256 39.1109 15.8333 39.074L9.16318 36.4059C6.68677 35.4153 4.81557 34.3591 3.54947 33.538C2.91638 33.1275 2.43425 32.7755 2.10297 32.5195C1.93731 32.3914 1.80931 32.2874 1.71893 32.2119C1.67374 32.1742 1.63795 32.1436 1.61156 32.1207L1.57902 32.0923L1.56803 32.0826L1.56386 32.0789L1.56131 32.0766C1.56093 32.0763 1.56057 32.0759 2.75 30.75L1.56131 32.0766C0.829014 31.4197 0.767162 30.2929 1.42407 29.5606" fill="#F04B54"/>
</svg>
