<svg width="46" height="46" viewBox="0 0 46 46" fill="none" xmlns="http://www.w3.org/2000/svg">
<path fill-rule="evenodd" clip-rule="evenodd" d="M23 46C35.7025 46 46 35.7025 46 23C46 10.2975 35.7025 0 23 0C10.2975 0 0 10.2975 0 23C0 35.7025 10.2975 46 23 46ZM19.8896 14.4271C20.5633 13.7535 21.6555 13.7535 22.3292 14.4271L29.2292 21.3271C29.9028 22.0008 29.9028 23.093 29.2292 23.7667L22.3292 30.6667C21.6555 31.3403 20.5633 31.3403 19.8896 30.6667C19.4765 30.2535 19.3167 29.6828 19.4104 29.1479L19.3924 15.8131C19.3819 15.7041 19.3818 15.5944 19.3919 15.4854C19.428 15.0992 19.5939 14.7229 19.8896 14.4271Z" fill="#F04B54"/>
<path d="M22.3292 14.4271C21.6555 13.7535 20.5633 13.7535 19.8896 14.4271C19.5939 14.7229 19.428 15.0992 19.3919 15.4854L19.3924 15.8131C19.4294 16.1976 19.8305 16.5722 20.125 16.8667L25.8052 22.5469L20.125 28.2271C19.8645 28.4876 19.4694 28.8107 19.4104 29.1479C19.3167 29.6828 19.4765 30.2535 19.8896 30.6667C20.5633 31.3403 21.6555 31.3403 22.3292 30.6667L29.2292 23.7667C29.9028 23.093 29.9028 22.0008 29.2292 21.3271L22.3292 14.4271Z" fill="white"/>
<path d="M20.125 28.2271L25.8052 22.5469L20.125 16.8667C19.8305 16.5722 19.4294 16.1976 19.3924 15.8131L19.4104 29.1479C19.4694 28.8107 19.8645 28.4876 20.125 28.2271Z" fill="white"/>
</svg>
