<svg width="200" height="85" viewBox="0 0 200 85" fill="none" xmlns="http://www.w3.org/2000/svg">
<path d="M49 18H98V67H49V18Z" fill="#15008F"/>
<path d="M101.14 18H150.14V67H101.14V18Z" fill="#DD002E"/>
<path d="M63.9198 33.8299C64.5125 34.9598 65.4052 35.9044 66.4998 36.5599C66.7339 36.707 66.9066 36.9341 66.9857 37.199C67.0648 37.4639 67.0449 37.7485 66.9298 37.9999C66.6498 38.7099 66.0998 39.7399 66.3698 40.1699C66.7331 40.4311 67.1609 40.5878 67.6069 40.623C68.0529 40.6583 68.5 40.5707 68.8998 40.3699C69.0665 40.7334 69.2535 41.0873 69.4598 41.4299C69.3669 41.5345 69.2423 41.6059 69.1051 41.6329C68.9678 41.66 68.8255 41.6414 68.6998 41.5799C68.8274 41.6915 68.9064 41.8485 68.92 42.0175C68.9335 42.1864 68.8805 42.354 68.7722 42.4844C68.6639 42.6149 68.509 42.6979 68.3404 42.7157C68.1718 42.7335 68.003 42.6848 67.8698 42.5799C67.7763 42.5078 67.707 42.4088 67.6713 42.2962C67.6355 42.1836 67.635 42.0628 67.6698 41.9499C67.4877 42.2334 67.2222 42.4535 66.9098 42.5799C66.7429 42.4545 66.6194 42.2801 66.5567 42.0811C66.4939 41.882 66.495 41.6683 66.5598 41.4699C66.4213 41.7143 66.2283 41.9234 65.996 42.0812C65.7636 42.239 65.498 42.3412 65.2198 42.3799C65.0493 42.1266 64.9712 41.8224 64.9985 41.5183C65.0258 41.2142 65.1569 40.9288 65.3698 40.7099C65.1619 40.8652 64.9178 40.965 64.6607 41C64.4035 41.035 64.1417 41.004 63.8998 40.9099C63.8998 40.9099 63.7498 40.4299 64.6098 39.7199C64.327 39.7098 64.0512 39.6285 63.8082 39.4834C63.5652 39.3383 63.3628 39.1341 63.2198 38.8899C63.4222 38.7212 63.6572 38.596 63.9101 38.522C64.163 38.448 64.4284 38.4269 64.6898 38.4599C64.3885 38.3655 64.1186 38.1909 63.909 37.9549C63.6994 37.7188 63.5579 37.4302 63.4998 37.1199C63.7854 36.9911 64.1025 36.949 64.4118 36.9987C64.7211 37.0485 65.009 37.188 65.2398 37.3999C65.0572 37.1403 64.8458 36.9021 64.6098 36.6899C64.2677 36.3032 64.0266 35.8378 63.908 35.3353C63.7893 34.8328 63.7968 34.3088 63.9298 33.8099L63.9198 33.8299ZM67.8498 45.2899C67.6957 45.1294 67.5765 44.9387 67.4998 44.7299C67.6498 46.1199 67.6998 47.0299 68.4998 47.9399C68.795 47.3146 68.8485 46.6022 68.6498 45.9399C68.5115 45.863 68.3678 45.7961 68.2198 45.7399C68.322 46.1279 68.3492 46.5318 68.2998 46.9299C68.0739 46.4153 67.9289 45.8688 67.8698 45.3099L67.8498 45.2899ZM66.6098 45.1599C66.4557 44.9994 66.3365 44.8087 66.2598 44.5999C66.1798 45.4299 65.9798 47.5299 66.6898 48.1699C66.6898 48.1699 67.1698 47.8199 67.3198 44.7299C67.1698 44.8799 67.1198 45.0799 66.9698 45.2099C67.0415 45.7745 66.9728 46.3482 66.7698 46.8799C66.7698 46.8799 66.4198 46.6999 66.6198 45.1599H66.6098ZM64.9298 46.7799C65.5598 46.0699 65.6898 43.9199 65.6898 43.9199L65.9698 43.7199L66.0498 43.6399V43.8399C66.0487 44.9602 65.8594 46.0723 65.4898 47.1299C65.2048 47.5469 64.8242 47.8898 64.3798 48.1299C63.6698 46.9399 64.5298 45.3199 65.2098 44.1299L65.4898 43.9799C65.2098 44.9799 64.7298 45.9799 64.9298 46.7899V46.7799ZM63.2598 43.0699C63.2493 43.1701 63.278 43.2704 63.3398 43.3499V43.4299C62.6699 44.1265 62.061 44.8792 61.5198 45.6799C61.2636 46.0212 60.9374 46.3039 60.5632 46.5091C60.189 46.7143 59.7753 46.8373 59.3498 46.8699C59.44 45.9296 59.829 45.043 60.4598 44.3399C61.1475 43.5875 61.9192 42.9164 62.7598 42.3399C62.9816 42.4427 63.2307 42.4707 63.4698 42.4199H63.5498C63.4565 42.5128 63.4027 42.6382 63.3998 42.7699C62.3333 43.2593 61.4206 44.0303 60.7598 44.9999C60.6298 45.0999 61.5898 44.8199 63.2098 43.0799L63.2598 43.0699ZM62.1498 41.9699L62.2298 41.8899L62.3098 41.8099C61.7498 42.0099 59.7798 42.8099 59.1498 43.0699C58.6593 43.3424 58.2292 43.7115 57.8855 44.155C57.5417 44.5984 57.2914 45.107 57.1498 45.6499C57.577 45.6865 58.0073 45.6382 58.4157 45.5077C58.8242 45.3773 59.2028 45.1673 59.5298 44.8899C60.6398 43.9799 61.9098 42.7199 62.3898 42.3099L62.2398 42.1599C61.3186 42.9098 60.3115 43.5476 59.2398 44.0599C59.4741 43.6248 59.8191 43.2592 60.2398 42.9999C60.8432 42.5527 61.52 42.2143 62.2398 41.9999L62.1498 41.9699ZM60.9998 40.9999L61.0798 40.8499C60.4498 40.9999 58.8298 41.1999 58.0798 41.4099C57.481 41.5697 56.922 41.8522 56.4383 42.2395C55.9545 42.6269 55.5566 43.1106 55.2698 43.6599C55.2698 43.6599 56.3798 44.0099 58.5598 43.0299C59.588 42.489 60.6622 42.0406 61.7698 41.6899C61.5192 41.6899 61.2735 41.6207 61.0598 41.4899C60.0712 41.9715 58.9974 42.2535 57.8998 42.3199C58.2399 42.0746 58.6094 41.873 58.9998 41.7199C59.6288 41.3859 60.3023 41.1435 60.9998 40.9999ZM60.9998 39.9999C61.1998 40.0852 61.4128 40.1359 61.6298 40.1499C61.469 40.2433 61.3239 40.3614 61.1998 40.4999C59.8235 40.8455 58.4169 41.0565 56.9998 41.1299C55.9273 41.2812 54.8352 41.2132 53.7898 40.9299C54.6422 40.4432 55.5623 40.0859 56.5198 39.8699C57.2798 39.7199 59.3798 39.7199 60.3598 39.5899C60.447 39.6648 60.5407 39.7317 60.6398 39.7899C59.52 39.7967 58.4088 39.9858 57.3498 40.3499C58.5776 40.4899 59.821 40.3707 60.9998 39.9999ZM60.8698 38.7399C61.0081 38.663 61.1518 38.5961 61.2998 38.5399C59.7645 38.0091 58.1687 37.6732 56.5498 37.5399C55.4027 37.4006 54.2404 37.4513 53.1098 37.6899C54.0783 38.3262 55.1463 38.796 56.2698 39.0799C57.6155 39.2938 58.982 39.3442 60.3398 39.2299C60.4173 39.1014 60.5114 38.9837 60.6198 38.8799C59.32 38.8724 58.0276 38.6839 56.7798 38.3199C58.1593 38.2126 59.547 38.348 60.8798 38.7199L60.8698 38.7399ZM60.8798 37.4799C61.0205 37.9059 61.317 38.2631 61.7098 38.4799C60.1698 37.8499 57.2298 37.4199 55.6198 36.8099C53.4498 35.8999 53.0898 34.8099 53.0898 34.8099C54.637 34.8219 56.1727 35.0784 57.6398 35.5699C59.0298 35.9999 61.0798 36.7599 61.8398 37.1099C61.5401 37.1106 61.2487 37.2089 61.0098 37.3899C60.2498 37.0399 59.3898 36.8299 58.6298 36.5599C58.0693 36.3687 57.482 36.2674 56.8898 36.2599C57.416 36.5754 57.9762 36.8304 58.5598 37.0199C59.3398 37.2199 60.0998 37.3699 60.8898 37.5299L60.8798 37.4799ZM60.8098 35.9099C60.8898 36.0599 61.0098 36.2599 61.0898 36.3899C58.845 35.9132 56.8141 34.7242 55.2998 32.9999C54.7989 32.1542 54.6014 31.163 54.7398 30.1899C55.8447 30.691 56.8403 31.4045 57.6698 32.2899C58.5098 33.1814 59.423 34.0009 60.3998 34.7399L60.6798 35.5699C59.9198 34.9399 58.9398 34.2299 58.3798 33.7499C57.8225 33.3179 57.2105 32.9615 56.5598 32.6899C56.8969 33.1161 57.2681 33.5141 57.6698 33.8799C58.1877 34.308 58.7472 34.6832 59.3398 34.9999C59.7842 35.3739 60.2877 35.6713 60.8298 35.8799" fill="white"/>
<path d="M67.5602 42.5001L67.7602 42.3001C68.0402 42.6501 68.2402 43.0101 68.4702 43.3601C68.612 43.7727 68.7289 44.1935 68.8202 44.6201C68.8951 45.0383 69.0405 45.4407 69.2502 45.8101C69.0625 45.8136 68.8763 45.7771 68.7038 45.703C68.5314 45.6288 68.3767 45.5188 68.2502 45.3801C67.9168 44.9527 67.6998 44.4463 67.6202 43.9101C67.4835 43.4494 67.4561 42.9632 67.5402 42.4901L67.5602 42.5001ZM66.5402 42.5701L66.7402 42.7701L66.8202 42.8501H66.9002L67.1002 42.7701C67.1917 42.9431 67.243 43.1345 67.2502 43.3301C67.3257 43.6794 67.3257 44.0408 67.2502 44.3901C67.1557 44.6998 66.9915 44.9837 66.7702 45.2201C66.5671 44.9967 66.4047 44.7395 66.2902 44.4601C66.1382 44.078 66.1382 43.6522 66.2902 43.2701C66.3902 42.9701 66.4702 42.7601 66.5402 42.5601V42.5701ZM65.2802 42.6101C65.6058 42.5626 65.9167 42.4431 66.1902 42.2601C66.2401 42.3434 66.2729 42.4359 66.2866 42.532C66.3004 42.6282 66.2948 42.7261 66.2702 42.8201C66.1751 43.109 66.0103 43.3701 65.7902 43.5801C65.5893 43.7537 65.3559 43.8855 65.1035 43.9679C64.8511 44.0503 64.5848 44.0817 64.3202 44.0601C64.2202 44.1101 64.0902 43.6801 65.3202 42.6201L65.2802 42.6101ZM64.8402 41.8601C64.8693 42.0931 64.9668 42.3123 65.1202 42.4901C64.9475 42.771 64.6994 42.9977 64.4042 43.1445C64.1089 43.2912 63.7784 43.3521 63.4502 43.3201C63.3722 43.122 63.3734 42.9015 63.4534 42.7042C63.5335 42.5069 63.6863 42.3479 63.8802 42.2601C64.2102 42.1301 64.4902 41.9801 64.8802 41.8601" fill="white"/>
<path d="M65 41.16C64.6507 41.2355 64.2893 41.2355 63.94 41.16H63.79V41C63.23 41.43 62.68 41.48 62.45 41.91C62.5615 42.0662 62.7136 42.1889 62.8899 42.2647C63.0662 42.3405 63.2599 42.3666 63.45 42.34C63.7499 42.3149 64.0415 42.2283 64.3065 42.0855C64.5714 41.9426 64.8041 41.7468 64.99 41.51C64.9602 41.4565 64.9446 41.3962 64.9446 41.335C64.9446 41.2738 64.9602 41.2135 64.99 41.16H65ZM63.8 40.53C63.8703 40.3181 63.9903 40.1261 64.15 39.97C63.6898 39.8943 63.2202 39.8943 62.76 39.97C62.3978 39.9672 62.0443 40.0815 61.7524 40.296C61.4605 40.5104 61.2456 40.8135 61.14 41.16C61.4738 41.3583 61.868 41.4294 62.25 41.36C62.5504 41.3367 62.8426 41.2508 63.1078 41.1079C63.373 40.9649 63.6054 40.7681 63.79 40.53H63.8ZM63.51 39.53C63.3544 39.3531 63.2108 39.166 63.08 38.97L63 38.86C62.4805 38.6073 61.8863 38.5539 61.33 38.71C60.9865 38.8133 60.6918 39.0369 60.5 39.34C60.8922 39.6369 61.3532 39.8296 61.84 39.9C62.4178 39.9759 63.0045 39.86 63.51 39.57V39.53ZM63.66 38.43C63.74 38.35 63.86 38.35 64.01 38.35C63.7193 38.0622 63.5239 37.6923 63.45 37.29C63.0805 37.3766 62.6933 37.3487 62.34 37.21C62.144 37.1384 61.9338 37.1147 61.7268 37.1408C61.5198 37.1669 61.3221 37.242 61.15 37.36C61.2228 37.5962 61.361 37.8071 61.5486 37.9681C61.7361 38.1291 61.9655 38.2338 62.21 38.27C62.4216 38.4057 62.6621 38.4899 62.9122 38.516C63.1622 38.542 63.4149 38.5092 63.65 38.42L63.66 38.43ZM63.34 37L63.49 36.92C63.663 36.8285 63.8544 36.7772 64.05 36.77C63.5909 36.3757 63.0991 36.021 62.58 35.71C61.9868 35.366 61.3468 35.11 60.68 34.95C60.8681 35.5232 61.1786 36.0487 61.59 36.49C61.7978 36.7367 62.0736 36.9166 62.3831 37.0073C62.6926 37.098 63.022 37.0955 63.33 37H63.34ZM64.24 36.52C64.0087 36.1851 63.8456 35.8079 63.76 35.41C63.61 34.93 63.48 34.35 63.28 33.87C62.9313 33.2325 62.3515 32.753 61.66 32.53C61.5057 33.2006 61.576 33.9033 61.86 34.53C62.4778 35.3813 63.295 36.068 64.24 36.53V36.52ZM69.7 41.53C69.8246 41.6494 69.9704 41.7444 70.13 41.81C70.2232 42.0239 70.2646 42.2567 70.2507 42.4896C70.2368 42.7225 70.168 42.9488 70.05 43.15C69.7103 43.7539 69.4322 44.3904 69.22 45.05C69.22 45.05 69.02 45.05 68.79 43.86C68.7199 43.4183 68.5257 43.0056 68.23 42.67C68.3599 42.7524 68.507 42.8037 68.66 42.82H68.81L68.89 42.67C69.014 42.4552 69.0665 42.2066 69.04 41.96V41.76C69.1605 41.785 69.2856 41.7768 69.4018 41.7363C69.518 41.6958 69.6211 41.6245 69.7 41.53Z" fill="white"/>
<path d="M61.3898 33V33.63C60.8298 32.92 60.1298 32.01 59.3898 31.18C59.045 30.7204 58.6259 30.3216 58.1498 30C58.4327 30.8809 58.9392 31.6733 59.6198 32.3C60.1638 32.8526 60.7452 33.3672 61.3598 33.84L61.4398 34.04C61.5198 34.24 61.5898 34.47 61.6398 34.6C61.7909 34.8777 61.9793 35.1334 62.1998 35.36C61.9998 35.28 61.7698 35.16 61.5698 35.08H61.3898C59.6358 34.0855 58.1843 32.634 57.1898 30.88C56.6964 29.6613 56.6294 28.3116 56.9998 27.05C57.9079 27.8736 58.7289 28.7884 59.4498 29.78C60.1874 30.7959 60.8364 31.8731 61.3898 33ZM86.0898 38.74C85.9515 38.6631 85.8078 38.5962 85.6598 38.54C87.1951 38.0092 88.7909 37.6733 90.4098 37.54C91.5569 37.4007 92.7192 37.4514 93.8498 37.69C92.8813 38.3263 91.8133 38.7961 90.6898 39.08C89.3441 39.2939 87.9776 39.3443 86.6198 39.23C86.5423 39.1015 86.4482 38.9838 86.3398 38.88C87.6396 38.8725 88.932 38.684 90.1798 38.32C88.8003 38.2127 87.4126 38.3481 86.0798 38.72L86.0898 38.74ZM86.0798 37.48C85.9391 37.906 85.6426 38.2632 85.2498 38.48C86.7898 37.85 89.7298 37.42 91.3398 36.81C93.5098 35.9 93.8698 34.81 93.8698 34.81C92.3226 34.822 90.7869 35.0785 89.3198 35.57C87.9298 36 85.8798 36.76 85.1198 37.11C85.4195 37.1107 85.7109 37.209 85.9498 37.39C86.7098 37.04 87.5698 36.83 88.3298 36.56C88.8943 36.3876 89.4797 36.2934 90.0698 36.28C89.5436 36.5955 88.9834 36.8505 88.3998 37.04C87.6198 37.22 86.8598 37.37 86.0698 37.52L86.0798 37.48ZM86.2198 35.9C86.1398 36.05 86.0198 36.25 85.9398 36.38C88.2014 35.9161 90.2509 34.7299 91.7798 33C92.2807 32.1543 92.4782 31.1631 92.3398 30.19C91.2349 30.6911 90.2393 31.4046 89.4098 32.29C88.5759 33.1877 87.6621 34.0077 86.6798 34.74L86.3998 35.57C87.1598 34.94 88.1398 34.23 88.6998 33.75C89.2571 33.318 89.8691 32.9616 90.5198 32.69C90.1827 33.1162 89.8115 33.5141 89.4098 33.88C88.8887 34.3086 88.3259 34.6838 87.7298 35C87.262 35.3396 86.7631 35.6342 86.2398 35.88L86.2198 35.9ZM85.6098 33V33.63C86.1698 32.92 86.8698 32.01 87.6098 31.18C87.9546 30.7204 88.3737 30.3216 88.8498 30C88.5669 30.8809 88.0604 31.6733 87.3798 32.3C86.8358 32.8526 86.2544 33.3672 85.6398 33.84L85.5598 34.04C85.4798 34.24 85.4098 34.47 85.3598 34.6C85.2087 34.8777 85.0203 35.1334 84.7998 35.36C84.9998 35.28 85.2298 35.16 85.4298 35.08L85.6298 35C87.3838 34.0055 88.8353 32.554 89.8298 30.8C90.3097 29.588 90.3696 28.25 89.9998 27C89.0917 27.8236 88.2707 28.7384 87.5498 29.73C86.7952 30.7531 86.1262 31.8368 85.5498 32.97L85.6098 33ZM63.5498 43.61C62.8398 44.32 61.2998 45.99 61.4498 47.73C62.2605 47.4742 62.9637 46.9574 63.4498 46.26C63.8003 45.5669 64.1979 44.8987 64.6398 44.26H64.0098C63.6033 45.0873 63.0071 45.8069 62.2698 46.36C62.2698 46.36 62.1198 45.53 64.0098 43.71C64.0098 43.63 64.0898 43.56 64.1598 43.51C63.9559 43.5722 63.7428 43.5993 63.5298 43.59L63.5498 43.61ZM83.0498 33.81C82.4571 34.9399 81.5644 35.8845 80.4698 36.54C80.2496 36.704 80.0959 36.942 80.0371 37.2102C79.9784 37.4785 80.0184 37.7589 80.1498 38C80.4298 38.71 80.9798 39.74 80.7098 40.17C80.4398 40.6 79.0898 40.8 78.0598 40.37C77.8931 40.7335 77.7061 41.0874 77.4998 41.43C77.5927 41.5346 77.7173 41.606 77.8545 41.633C77.9918 41.6601 78.1341 41.6415 78.2598 41.58C78.1977 41.7523 78.1727 41.9359 78.1865 42.1186C78.2003 42.3012 78.2525 42.4789 78.3398 42.64C78.5473 42.5994 78.7438 42.5151 78.9162 42.3927C79.0887 42.2702 79.233 42.1125 79.3398 41.93C79.5219 42.2135 79.7874 42.4336 80.0998 42.56C80.2667 42.4346 80.3902 42.2602 80.4529 42.0612C80.5157 41.8621 80.5146 41.6484 80.4498 41.45C80.5883 41.6943 80.7813 41.9035 81.0136 42.0613C81.246 42.2191 81.5116 42.3213 81.7898 42.36C81.9603 42.1067 82.0384 41.8025 82.0111 41.4984C81.9838 41.1943 81.8527 40.9089 81.6398 40.69C81.8477 40.8453 82.0918 40.9451 82.3489 40.9801C82.6061 41.0151 82.8679 40.9841 83.1098 40.89C83.1098 40.89 83.2598 40.41 82.3998 39.7C82.6826 39.6899 82.9584 39.6086 83.2014 39.4635C83.4444 39.3184 83.6468 39.1142 83.7898 38.87C83.5874 38.7013 83.3524 38.5761 83.0995 38.5021C82.8466 38.4281 82.5812 38.407 82.3198 38.44C82.6183 38.3546 82.8841 38.1809 83.0822 37.9418C83.2803 37.7027 83.4014 37.4092 83.4298 37.1C83.1442 36.9712 82.8271 36.9291 82.5178 36.9788C82.2085 37.0286 81.9206 37.1681 81.6898 37.38C81.8724 37.1204 82.0838 36.8822 82.3198 36.67C82.6941 36.3012 82.9691 35.8439 83.1195 35.3404C83.2698 34.8369 83.2906 34.3036 83.1798 33.79L83.0498 33.81ZM79.1798 45.27C79.3231 45.1014 79.4411 44.9127 79.5298 44.71C79.3798 46.1 79.3298 47.01 78.5298 47.92C78.2346 47.2947 78.1811 46.5823 78.3798 45.92C78.5181 45.8431 78.6618 45.7762 78.8098 45.72C78.7076 46.108 78.6804 46.5119 78.7298 46.91C78.9557 46.3953 79.1007 45.8489 79.1598 45.29L79.1798 45.27ZM80.4198 45.14C80.5739 44.9795 80.6931 44.7888 80.7698 44.58C80.8498 45.41 81.0498 47.51 80.3398 48.15C80.3398 48.15 79.8598 47.8 79.7098 44.71C79.8598 44.86 79.9098 45.06 80.0598 45.19C79.9881 45.7546 80.0568 46.3283 80.2598 46.86C80.2598 46.86 80.6098 46.68 80.4098 45.14H80.4198ZM82.0798 46.76C81.4498 46.05 81.3198 43.9 81.3198 43.9C81.2423 43.8136 81.1467 43.7453 81.0398 43.7L80.9998 43.64V43.84C81.0009 44.9603 81.1902 46.0724 81.5598 47.13C81.8253 47.5636 82.2109 47.911 82.6698 48.13C83.3798 46.94 82.5198 45.32 81.8398 44.13C81.7329 44.1111 81.6348 44.0585 81.5598 43.98C81.8398 44.98 82.3398 45.98 82.1198 46.79L82.0798 46.76ZM83.8098 43.07C83.8203 43.1702 83.7916 43.2705 83.7298 43.35V43.43C84.3997 44.1266 85.0086 44.8793 85.5498 45.68C85.806 46.0213 86.1322 46.304 86.5064 46.5092C86.8806 46.7144 87.2943 46.8374 87.7198 46.87C87.6296 45.9297 87.2406 45.0431 86.6098 44.34C85.9221 43.5876 85.1504 42.9165 84.3098 42.34C84.088 42.4428 83.8389 42.4708 83.5998 42.42H83.5198C83.6131 42.5129 83.6669 42.6383 83.6698 42.77C84.7106 43.2699 85.5982 44.04 86.2398 45C86.3698 45.1 85.3798 44.82 83.7898 43.08L83.8098 43.07ZM84.7898 41.97V41.82L84.7098 41.74C85.2698 41.94 87.2398 42.74 87.8698 43C88.3603 43.2725 88.7904 43.6416 89.1341 44.0851C89.4779 44.5285 89.7282 45.0371 89.8698 45.58C89.4426 45.6166 89.0123 45.5683 88.6038 45.4378C88.1954 45.3074 87.8168 45.0974 87.4898 44.82C86.4298 43.91 85.1098 42.65 84.6298 42.24L84.7798 42.09C85.701 42.8399 86.7081 43.4777 87.7798 43.99C87.5455 43.5549 87.2005 43.1892 86.7798 42.93C86.1632 42.5047 85.49 42.1681 84.7798 41.93L84.7898 41.97ZM85.9998 41C85.9998 40.92 85.9198 40.92 85.9198 40.85C86.5498 41 88.1698 41.2 88.9198 41.41C89.5186 41.5698 90.0776 41.8523 90.5613 42.2396C91.0451 42.627 91.443 43.1107 91.7298 43.66C91.7298 43.66 90.6198 44.01 88.4398 43.03C87.4116 42.4891 86.3374 42.0407 85.2298 41.69C85.4804 41.69 85.7261 41.6208 85.9398 41.49C86.9284 41.9716 88.0022 42.2536 89.0998 42.32C88.7597 42.0747 88.3902 41.8731 87.9998 41.72C87.3626 41.4048 86.6916 41.1633 85.9998 41ZM85.9998 40C85.7998 40.0853 85.5868 40.136 85.3698 40.15C85.5306 40.2434 85.6757 40.3615 85.7998 40.5C87.1761 40.8456 88.5827 41.0566 89.9998 41.13C91.0723 41.2813 92.1644 41.2133 93.2098 40.93C92.3574 40.4433 91.4373 40.086 90.4798 39.87C89.7198 39.72 87.6198 39.72 86.6398 39.59C86.5526 39.6649 86.4589 39.7318 86.3598 39.79C87.4796 39.7968 88.5908 39.9859 89.6498 40.35C88.422 40.4877 87.179 40.3685 85.9998 40Z" fill="white"/>
<path d="M79.4399 42.5001L79.2399 42.3001C78.9843 42.6242 78.7724 42.9806 78.6099 43.3601C78.4681 43.7727 78.3512 44.1935 78.2599 44.6201C78.1505 45.0282 78.0066 45.4263 77.8299 45.8101C78.0262 45.8118 78.2209 45.7747 78.4028 45.7009C78.5847 45.6271 78.7503 45.5181 78.8899 45.3801C79.2233 44.9527 79.4403 44.4463 79.5199 43.9101C79.6137 43.4376 79.5861 42.9491 79.4399 42.4901V42.5001ZM80.4399 42.5701L80.2399 42.7701L80.1599 42.8501H80.0799L79.7999 42.7701C79.7084 42.9431 79.6571 43.1345 79.6499 43.3301C79.5744 43.6794 79.5744 44.0408 79.6499 44.3901C79.7444 44.6998 79.9086 44.9837 80.1299 45.2201C80.333 44.9967 80.4954 44.7395 80.6099 44.4601C80.7619 44.078 80.7619 43.6522 80.6099 43.2701C80.6112 43.022 80.5493 42.7776 80.4299 42.5601L80.4399 42.5701ZM81.6899 42.6101C81.3643 42.5626 81.0534 42.4431 80.7799 42.2601C80.73 42.3434 80.6972 42.4359 80.6834 42.532C80.6697 42.6282 80.6753 42.7261 80.6999 42.8201C80.795 43.109 80.9599 43.3701 81.1799 43.5801C81.3808 43.7537 81.6142 43.8855 81.8666 43.9679C82.119 44.0503 82.3853 44.0817 82.6499 44.0601C82.7299 44.1101 82.8799 43.6801 81.6499 42.6201L81.6899 42.6101ZM82.1299 41.8601C82.1008 42.0931 82.0033 42.3123 81.8499 42.4901C82.0226 42.771 82.2707 42.9977 82.5659 43.1445C82.8612 43.2912 83.1917 43.3521 83.5199 43.3201C83.5978 43.122 83.5967 42.9015 83.5167 42.7042C83.4366 42.5069 83.2838 42.3479 83.0899 42.2601C82.7599 42.1301 82.4799 41.9801 82.0899 41.8601H82.1299ZM81.9999 41.1601C82.3492 41.2356 82.7106 41.2356 83.0599 41.1601H83.2099V41.0001C83.7699 41.4301 84.3199 41.4801 84.5999 41.9101C84.4998 42.0558 84.3628 42.1724 84.2029 42.2479C84.0431 42.3235 83.8661 42.3553 83.6899 42.3401C83.3899 42.315 83.0984 42.2284 82.8334 42.0856C82.5685 41.9427 82.3358 41.7469 82.1499 41.5101C82.0557 41.4178 82.0018 41.292 81.9999 41.1601ZM83.1899 40.5301C83.1196 40.3182 82.9995 40.1262 82.8399 39.9701C83.3001 39.8944 83.7697 39.8944 84.2299 39.9701C84.5921 39.9673 84.9456 40.0816 85.2375 40.2961C85.5295 40.5105 85.7443 40.8136 85.8499 41.1601C85.5161 41.3584 85.1219 41.4295 84.7399 41.3601C84.4371 41.3475 84.1411 41.2662 83.8743 41.1224C83.6075 40.9786 83.3769 40.7761 83.1999 40.5301H83.1899ZM83.4799 39.5301C83.6507 39.3663 83.7957 39.1774 83.9099 38.9701L83.9899 38.8201C84.5094 38.5674 85.1036 38.514 85.6599 38.6701C86.0034 38.7734 86.2981 38.997 86.4899 39.3001C86.0977 39.597 85.6367 39.7897 85.1499 39.8601C84.5767 39.8633 84.0088 39.7511 83.4799 39.5301ZM83.2499 38.3901C83.1699 38.3101 83.0499 38.3101 82.8999 38.3101C83.1872 38.0088 83.4025 37.6464 83.5299 37.2501C83.8994 37.3367 84.2866 37.3088 84.6399 37.1701C84.8359 37.0985 85.0461 37.0748 85.2531 37.1009C85.4601 37.127 85.6578 37.2021 85.8299 37.3201C85.7571 37.5563 85.6189 37.7672 85.4313 37.9282C85.2438 38.0892 85.0144 38.1939 84.7699 38.2301C84.5444 38.3684 84.2904 38.4537 84.0271 38.4797C83.7639 38.5057 83.4981 38.4716 83.2499 38.3801V38.3901ZM83.6399 37.0001H83.4899C83.3169 36.9086 83.1255 36.8573 82.9299 36.8501C83.389 36.4558 83.8808 36.1011 84.3999 35.7901C84.9771 35.4144 85.6228 35.1561 86.2999 35.0301C86.0823 35.5895 85.7749 36.1097 85.3899 36.5701C85.1838 36.8189 84.908 37.0005 84.5979 37.0913C84.2879 37.1822 83.9577 37.1783 83.6499 37.0801L83.6399 37.0001ZM82.7399 36.6001C82.9712 36.2652 83.1343 35.888 83.2199 35.4901C83.3699 35.0101 83.4999 34.4301 83.6999 33.9501C84.0486 33.3126 84.6284 32.8331 85.3199 32.6101C85.4742 33.2807 85.4039 33.9834 85.1199 34.6101C84.5083 35.4672 83.6895 36.1553 82.7399 36.6101V36.6001ZM77.2799 41.6101C77.1553 41.7295 77.0095 41.8245 76.8499 41.8901C76.7567 42.104 76.7153 42.3368 76.7292 42.5697C76.7431 42.8026 76.8119 43.0289 76.9299 43.2301C77.2696 43.834 77.5477 44.4705 77.7599 45.1301C77.7599 45.1301 77.9599 45.1301 78.1899 43.9401C78.26 43.4984 78.4542 43.0857 78.7499 42.7501C78.62 42.8325 78.4729 42.8838 78.3199 42.9001H78.1699L78.0899 42.7501C77.9659 42.5353 77.9134 42.2867 77.9399 42.0401V41.8401C77.8194 41.861 77.6956 41.8508 77.5801 41.8106C77.4646 41.7703 77.3613 41.7013 77.2799 41.6101Z" fill="white"/>
<path d="M83.3598 43.61C84.0698 44.32 85.6098 45.99 85.4598 47.73C84.6491 47.4742 83.9459 46.9574 83.4598 46.26C83.1093 45.5669 82.7117 44.8987 82.2698 44.26H82.8998C83.3063 45.0873 83.9025 45.8069 84.6398 46.36C84.6398 46.36 84.7898 45.53 82.8998 43.71C82.8998 43.63 82.8198 43.56 82.7498 43.51C82.9537 43.5722 83.1668 43.5993 83.3798 43.59L83.3598 43.61ZM68.5898 30.82C69.0407 30.6683 69.529 30.6683 69.9799 30.82C69.5252 30.9467 69.0445 30.9467 68.5898 30.82ZM73.6998 30C73.6998 30.15 73.6198 30.2 73.4998 30.2C73.4732 30.2014 73.4465 30.1973 73.4216 30.1877C73.3967 30.1782 73.374 30.1635 73.3552 30.1446C73.3363 30.1258 73.3216 30.1031 73.3121 30.0782C73.3025 30.0533 73.2985 30.0266 73.2999 30C73.2999 29.85 73.3798 29.8 73.4998 29.8C73.5264 29.7986 73.5531 29.8027 73.578 29.8123C73.6029 29.8218 73.6256 29.8365 73.6444 29.8554C73.6633 29.8742 73.678 29.8969 73.6875 29.9218C73.6971 29.9467 73.7012 29.9734 73.6998 30ZM72.3098 29.24C72.0332 28.6863 71.8218 28.1024 71.6798 27.5C71.7598 27.35 71.8298 27.22 72.0298 27.22C72.2298 27.22 72.3098 27.14 72.3798 27.22C72.6264 27.7976 72.7718 28.4132 72.8098 29.04C72.6341 29.091 72.4634 29.1579 72.2999 29.24H72.3098ZM72.9799 29.09H73.2598C73.1875 28.5676 73.0705 28.0523 72.9099 27.55C72.8917 27.4304 72.8436 27.3174 72.7702 27.2212C72.6968 27.1251 72.6004 27.049 72.4898 27C72.5698 27.28 72.6898 27.56 72.7698 27.83C72.8696 28.2555 72.9464 28.6862 72.9998 29.12L72.9799 29.09ZM72.4398 30.59C72.0746 30.7862 71.6642 30.8828 71.2498 30.87C71.4098 30.5933 71.6241 30.3518 71.8798 30.16C72.231 29.9291 72.6525 29.8299 73.0698 29.88C72.914 30.1597 72.699 30.402 72.4398 30.59ZM71.8098 30.67C72.1242 30.5465 72.4076 30.3554 72.6398 30.11C72.2999 30.1794 72.0014 30.3808 71.8098 30.67Z" fill="white"/>
<path d="M68.4701 30.95C68.919 31.094 69.3888 31.1616 69.8601 31.15C70.6851 31.1567 71.5079 31.0627 72.3101 30.87C72.2782 30.9709 72.2224 31.0626 72.1476 31.1375C72.0727 31.2123 71.981 31.2681 71.8801 31.3C72.0118 31.3029 72.1372 31.3567 72.2301 31.45C72.1865 31.5349 72.1258 31.6098 72.0518 31.6701C71.9778 31.7303 71.8921 31.7746 71.8001 31.8C72.0966 32.0939 72.4929 32.2653 72.9101 32.28C72.7987 32.3787 72.6647 32.4485 72.52 32.4834C72.3753 32.5182 72.2243 32.5171 72.0801 32.48C71.72 32.4071 71.3975 32.2086 71.1701 31.92C71.2334 32.054 71.2609 32.2022 71.2501 32.35C71.1555 32.3375 71.0644 32.3062 70.982 32.2582C70.8996 32.2101 70.8276 32.1461 70.7701 32.07C70.8602 32.2146 70.9118 32.3798 70.9201 32.55C70.7644 32.5471 70.6138 32.4946 70.4901 32.4C70.5519 32.5058 70.5798 32.6279 70.5701 32.75C70.1923 32.6139 69.8355 32.4254 69.5101 32.19V32.54C69.5901 32.62 68.5101 32.46 68.5101 30.92L68.4701 30.95ZM70.3301 31.55H69.1001C69.1126 31.6446 69.1439 31.7357 69.1919 31.8181C69.24 31.9005 69.304 31.9725 69.3801 32.03C69.3801 31.55 70.2901 31.55 70.2901 31.55H70.3301ZM68.2901 31.07C68.2959 31.3836 68.3639 31.6929 68.4901 31.98C68.277 31.8463 68.1096 31.651 68.0101 31.42C67.9301 31.07 67.9301 30.91 68.2901 31.07ZM68.5201 32.07L69.0801 32.5C68.8739 32.578 68.6636 32.6448 68.4501 32.7C68.2436 32.5284 67.9836 32.4345 67.7151 32.4345C67.4466 32.4345 67.1866 32.5284 66.9801 32.7C66.8776 32.646 66.7878 32.5707 66.7169 32.479C66.646 32.3874 66.5955 32.2816 66.569 32.1688C66.5424 32.056 66.5404 31.9388 66.563 31.8252C66.5857 31.7115 66.6324 31.604 66.7001 31.51C66.8236 31.3743 66.9873 31.2818 67.1673 31.2458C67.3472 31.2098 67.5339 31.2323 67.7001 31.31C67.7773 31.4879 67.8911 31.6475 68.0341 31.7785C68.1771 31.9094 68.3461 32.0087 68.5301 32.07H68.5201ZM67.5301 32.22C67.5598 32.22 67.5888 32.2112 67.6134 32.1947C67.6381 32.1782 67.6573 32.1548 67.6687 32.1274C67.68 32.1 67.683 32.0698 67.6772 32.0407C67.6714 32.0116 67.6571 31.9849 67.6362 31.9639C67.6152 31.943 67.5885 31.9287 67.5594 31.9229C67.5303 31.9171 67.5001 31.9201 67.4727 31.9314C67.4453 31.9428 67.4219 31.962 67.4054 31.9867C67.3889 32.0113 67.3801 32.0403 67.3801 32.07C67.3801 32.15 67.3801 32.22 67.5301 32.22ZM69.1201 32.62C69.2682 32.8165 69.4286 33.0035 69.6001 33.18C69.3028 33.1695 69.0095 33.2514 68.7606 33.4143C68.5117 33.5773 68.3194 33.8133 68.2101 34.09C68.1099 33.9451 68.0497 33.7764 68.0356 33.6008C68.0216 33.4252 68.0542 33.249 68.1301 33.09C68.2541 32.9447 68.4071 32.8269 68.5793 32.7443C68.7516 32.6616 68.9392 32.6159 69.1301 32.61L69.1201 32.62ZM70.3401 32.84L70.8201 32.99V32.71C70.9701 32.71 71.0201 32.79 71.1701 32.79C71.2918 33.2258 71.4917 33.6358 71.7601 34C71.7438 34.153 71.6925 34.3001 71.6101 34.43C71.4409 34.1419 71.2539 33.8647 71.0501 33.6C70.8697 33.3079 70.6046 33.0777 70.2901 32.94L70.3401 32.84ZM69.3801 32.79C69.7384 32.8663 70.0782 33.0124 70.3801 33.22C70.5501 33.3261 70.6905 33.4733 70.7884 33.6481C70.8863 33.823 70.9385 34.0196 70.9401 34.22C70.7869 34.0026 70.5975 33.8132 70.3801 33.66C69.9721 33.4737 69.6253 33.1755 69.3801 32.8V32.79ZM69.3801 29.23C69.5301 29.23 69.6601 29.31 69.6601 29.43C69.5751 29.6967 69.4575 29.952 69.3101 30.19C69.1485 29.9599 69.03 29.7024 68.9601 29.43C69.006 29.3599 69.0706 29.3041 69.1466 29.2688C69.2226 29.2334 69.3069 29.22 69.3901 29.23H69.3801ZM69.1601 30.57C69.1013 30.2279 69.0075 29.8928 68.8801 29.57C68.7502 29.4876 68.6031 29.4363 68.4501 29.42C68.3986 29.4245 68.3503 29.447 68.3137 29.4836C68.2771 29.5202 68.2546 29.5685 68.2501 29.62V29.7C68.4182 30.0144 68.6052 30.3183 68.8101 30.61C68.9211 30.5657 69.0411 30.5485 69.1601 30.56V30.57ZM69.5101 30.56C69.5689 30.2179 69.6627 29.8828 69.7901 29.56C69.92 29.4776 70.0671 29.4263 70.2201 29.41C70.2716 29.4145 70.3199 29.437 70.3565 29.4736C70.3931 29.5102 70.4156 29.5585 70.4201 29.61V29.69C70.2694 30.0141 70.0815 30.3195 69.8601 30.6C69.7496 30.5537 69.6291 30.5364 69.5101 30.55V30.56ZM69.8601 28.38H69.4301V28H69.2301V28.35H68.8001V28.63H69.2301V29H69.4301V28.6H69.8601V28.38ZM65.5901 30.88V30.2C65.4196 30.2563 65.2633 30.3489 65.1321 30.4715C65.0008 30.5941 64.8978 30.7437 64.8301 30.91C64.8301 30.91 65.3901 30.56 65.5901 30.91V30.88ZM66.0701 31.82C66.1501 31.54 66.2201 31.19 66.2701 30.91C66.3408 30.7021 66.364 30.481 66.3381 30.263C66.3121 30.0449 66.2376 29.8355 66.1201 29.65C65.9719 29.3383 65.9032 28.9947 65.9201 28.65L65.4401 28.85C65.4618 29.1994 65.5572 29.5402 65.7201 29.85C65.8206 30.1145 65.8482 30.4012 65.8001 30.68C65.7615 30.879 65.7665 31.0839 65.8148 31.2808C65.8632 31.4776 65.9537 31.6616 66.0801 31.82H66.0701ZM66.0801 28.82V28.62C66.3411 28.3264 66.6934 28.1291 67.0801 28.06C67.2801 27.98 67.4301 28.06 67.6401 28.21C67.5084 28.2129 67.383 28.2667 67.2901 28.36C67.0762 28.5513 66.8373 28.7128 66.5801 28.84C66.4203 28.8281 66.2599 28.8281 66.1001 28.84" fill="white"/>
<path d="M67.6096 28.1399C67.7804 28.2867 67.9024 28.4821 67.9596 28.6999C67.8971 28.9964 67.7783 29.2782 67.6096 29.5299C67.4395 29.7286 67.341 29.9786 67.3296 30.2399C67.3296 30.3899 67.4796 30.5199 67.5296 30.6699C67.3802 30.6278 67.2407 30.5567 67.1188 30.4606C66.997 30.3645 66.8953 30.2453 66.8196 30.1099C66.7816 29.9769 66.7802 29.8362 66.8153 29.7025C66.8505 29.5687 66.9211 29.447 67.0196 29.3499C67.1435 29.0755 67.3051 28.8197 67.4996 28.5899C67.5789 28.4503 67.6138 28.2898 67.5996 28.1299L67.6096 28.1399ZM71.3196 32.5499C71.4383 32.9751 71.6276 33.3774 71.8796 33.7399C72.054 34.045 72.1502 34.3886 72.1596 34.7399C72.305 34.4068 72.3568 34.0403 72.3096 33.6799C72.1322 33.1946 71.7738 32.7968 71.3096 32.5699L71.3196 32.5499ZM72.0196 32.6999C72.2366 32.7139 72.4496 32.7646 72.6496 32.8499C72.9718 33.0978 73.1951 33.4523 73.2796 33.8499C73.0572 33.7874 72.845 33.6931 72.6496 33.5699C72.3657 33.3455 72.1479 33.0483 72.0196 32.7099V32.6999ZM69.7696 33.5699C69.6196 33.5699 69.4896 33.6499 69.3396 33.6499C69.5359 33.7225 69.7237 33.8164 69.8996 33.9299C70.0032 34.0182 70.0877 34.1267 70.1478 34.2488C70.208 34.3709 70.2427 34.504 70.2496 34.6399C70.3468 35.0262 70.4912 35.399 70.6796 35.7499C70.6849 35.3714 70.7525 34.9964 70.8796 34.6399C70.7188 34.5466 70.5737 34.4284 70.4496 34.2899C70.314 33.9803 70.073 33.7288 69.7696 33.5799V33.5699ZM71.7696 34.5799C71.9277 34.9034 72.0065 35.2599 71.9996 35.6199C71.8371 35.9994 71.6252 36.3558 71.3696 36.6799C71.2826 36.2651 71.2324 35.8435 71.2196 35.4199C71.2126 35.236 71.2566 35.0537 71.3465 34.8931C71.4365 34.7326 71.5691 34.6 71.7296 34.5099L71.7696 34.5799ZM72.4896 34.5099C72.7054 34.8854 72.8765 35.2847 72.9996 35.6999C73.0342 35.8296 73.0387 35.9656 73.0127 36.0973C72.9867 36.229 72.9309 36.3531 72.8496 36.4599C72.6496 36.7399 72.4196 37.0199 72.2196 37.2899C72.0863 37.126 71.9907 36.9348 71.9396 36.7299C71.9223 36.4518 71.9425 36.1726 71.9996 35.8999C72.2183 35.4559 72.3892 34.99 72.5096 34.5099H72.4896ZM72.7896 37.2399C72.5195 37.5156 72.2814 37.8209 72.0796 38.1499C72.0052 38.2627 71.9655 38.3948 71.9655 38.5299C71.9655 38.665 72.0052 38.7971 72.0796 38.9099C72.2998 39.2187 72.5826 39.4777 72.9096 39.6699C72.7124 39.3748 72.6143 39.0245 72.6296 38.6699C72.7051 38.4266 72.7987 38.1892 72.9096 37.9599C72.9219 37.7099 72.8774 37.4603 72.7796 37.2299L72.7896 37.2399ZM71.7796 36.8799C71.9157 37.0612 71.9863 37.2833 71.9796 37.5099C71.9661 37.7919 71.9157 38.071 71.8296 38.3399C71.6788 38.7525 71.4914 39.1507 71.2696 39.5299C71.1248 39.3368 71.007 39.1249 70.9196 38.8999C71.1196 38.6199 71.2696 38.3399 71.4796 38.0699C71.6091 37.6813 71.7094 37.2835 71.7796 36.8799ZM71.6296 36.6799C71.4863 37.4255 71.2048 38.1378 70.7996 38.7799C70.6859 38.9905 70.5276 39.1738 70.336 39.3171C70.1443 39.4604 69.9237 39.5603 69.6896 39.6099C69.4831 39.6001 69.2848 39.5266 69.1218 39.3994C68.9589 39.2723 68.8393 39.0978 68.7796 38.8999C68.7089 38.7173 68.6855 38.5197 68.7118 38.3256C68.738 38.1315 68.8129 37.9472 68.9296 37.7899C68.9735 37.9665 69.0618 38.129 69.186 38.262C69.3103 38.395 69.4664 38.4941 69.6396 38.5499C70.1696 38.4999 70.8796 37.8699 71.6396 36.6799" fill="white"/>
<path d="M71 36.2C71.0695 36.4621 71.0695 36.7379 71 37C70.9732 37.145 70.9168 37.283 70.8342 37.4052C70.7516 37.5273 70.6446 37.6311 70.52 37.71C70.3576 37.8044 70.1663 37.8361 69.9821 37.7993C69.798 37.7624 69.6336 37.6596 69.52 37.51L69.44 37.43C69.7901 37.3946 70.1228 37.26 70.3991 37.0422C70.6754 36.8243 70.8839 36.5322 71 36.2ZM72.72 41C72.9871 41.3346 73.1997 41.7092 73.35 42.11C73.3363 42.629 73.1881 43.1355 72.92 43.58C72.6004 43.3141 72.3557 42.9694 72.21 42.58C72.1728 42.2953 72.1992 42.0059 72.2874 41.7327C72.3756 41.4595 72.5234 41.2092 72.72 41ZM72.04 41.48C72.1617 41.1412 72.3523 40.8313 72.6 40.57C72.6736 40.2708 72.6434 39.9556 72.5144 39.6758C72.3854 39.396 72.1653 39.1683 71.89 39.03C71.6345 39.3611 71.4444 39.7378 71.33 40.14C71.25 40.72 71.81 41 72.04 41.48ZM70.78 39.1C70.6268 39.3174 70.4374 39.5068 70.22 39.66V40.37C70.3294 40.7781 70.4733 41.1762 70.65 41.56C70.8679 41.2909 71.031 40.9818 71.13 40.65C71.1877 40.3772 71.2145 40.0988 71.21 39.82C71.0856 39.5724 70.9418 39.335 70.78 39.11V39.1ZM69.59 41.11C69.2919 40.6855 69.0906 40.2008 69 39.69C69.151 39.7747 69.3186 39.8257 69.4912 39.8395C69.6639 39.8533 69.8374 39.8296 70 39.77C70.0758 40.0686 70.0758 40.3814 70 40.68C69.8688 40.8504 69.725 41.0109 69.57 41.16L69.59 41.11ZM69.65 41.31L70 41C70.08 40.92 70.35 41.63 70.43 41.83C70.28 41.83 70.15 41.83 70.08 41.75C69.9501 41.6029 69.8061 41.469 69.65 41.35V41.31ZM71.25 41C71.0374 41.3498 70.8001 41.684 70.54 42C70.6155 42.2433 70.7091 42.4807 70.82 42.71C70.989 43.0155 71.2012 43.2952 71.45 43.5401C71.6208 43.2786 71.7648 43.0004 71.88 42.71C71.9964 42.4928 72.0385 42.2434 72 42C71.85 41.65 71.44 41.29 71.29 40.94L71.25 41ZM72 42.9C72.232 43.2058 72.4205 43.5424 72.56 43.9C72.609 44.1128 72.5806 44.3362 72.48 44.53C72.4 44.68 72.2 45.01 72.05 45.2901C71.7679 45.0764 71.5499 44.7892 71.42 44.46C71.3771 44.3233 71.3621 44.1795 71.3758 44.0369C71.3896 43.8944 71.4318 43.756 71.5 43.63C71.65 43.43 71.93 43.23 72.01 42.92L72 42.9ZM70.59 42.87C70.7869 43.1236 70.9484 43.4029 71.07 43.7001C71.1438 43.8258 71.1828 43.9691 71.1828 44.115C71.1828 44.2609 71.1438 44.4042 71.07 44.53C70.92 44.81 70.79 45.01 70.72 45.16C70.5169 44.9366 70.3545 44.6794 70.24 44.4C70.165 44.1284 70.165 43.8417 70.24 43.57C70.406 43.361 70.5253 43.1189 70.59 42.8601V42.87ZM72.59 44.8601C72.304 45.2395 72.1028 45.676 72 46.14C72.1093 46.5709 72.2531 46.9922 72.43 47.4C72.6325 47.195 72.7953 46.9543 72.91 46.69C73.0834 46.4204 73.1543 46.0975 73.11 45.78C73.1186 45.6077 73.087 45.4357 73.0176 45.2777C72.9481 45.1198 72.8428 44.9802 72.71 44.87L72.59 44.8601ZM71.37 44.7901C71.5849 45.1031 71.7063 45.4706 71.72 45.85C71.5702 46.2027 71.3825 46.538 71.16 46.85C71.0119 46.5877 70.8945 46.3092 70.81 46.0201C70.8037 45.7889 70.851 45.5593 70.9482 45.3494C71.0453 45.1395 71.1897 44.9549 71.37 44.81V44.7901ZM78.45 30.81C77.9991 30.6583 77.5109 30.6583 77.06 30.81C77.5147 30.9367 77.9953 30.9367 78.45 30.81ZM73.5 28.57C73.6775 28.135 73.8213 27.6871 73.93 27.23C73.93 27.116 73.8847 27.0066 73.8041 26.926C73.7234 26.8454 73.614 26.8 73.5 26.8C73.386 26.8 73.2766 26.8454 73.1959 26.926C73.1153 27.0066 73.07 27.116 73.07 27.23C73.1675 27.6901 73.3116 28.1391 73.5 28.57ZM74.69 29.28C74.9666 28.7263 75.178 28.1424 75.32 27.54C75.24 27.39 75.17 27.26 75.04 27.26C74.91 27.26 74.76 27.18 74.69 27.26C74.4434 27.8376 74.298 28.4532 74.26 29.08C74.34 29.13 74.54 29.21 74.69 29.28ZM74 29.12H73.7C73.7723 28.5976 73.8894 28.0823 74.05 27.58C74.0496 27.4485 74.0925 27.3205 74.172 27.2157C74.2515 27.1109 74.3632 27.0351 74.49 27C74.41 27.28 74.29 27.56 74.21 27.83C74.13 28.26 74.06 28.69 73.98 29.09L74 29.12ZM74.06 29.87C74.4744 29.8572 74.8848 29.9538 75.25 30.15C75.5224 30.3229 75.7408 30.5689 75.88 30.86C75.4656 30.8728 75.0552 30.7762 74.69 30.58C74.5344 30.5231 74.3954 30.4284 74.2854 30.3045C74.1754 30.1806 74.098 30.0313 74.06 29.87ZM74.34 30.07C74.572 30.3156 74.8554 30.5068 75.17 30.63C75.0806 30.482 74.9601 30.3552 74.8168 30.2585C74.6734 30.1617 74.5107 30.0974 74.34 30.07ZM77.42 32.6V32.25C77.1142 32.482 76.7776 32.6705 76.42 32.81C76.4103 32.6879 76.4382 32.5658 76.5 32.46C76.3701 32.5424 76.223 32.5937 76.07 32.61C76.15 32.46 76.15 32.26 76.27 32.13C76.2142 32.2078 76.1426 32.273 76.0599 32.3213C75.9772 32.3695 75.8852 32.3998 75.79 32.41C75.7792 32.2622 75.8067 32.114 75.87 31.98C75.6739 32.2647 75.3774 32.4647 75.04 32.54C74.8958 32.5771 74.7448 32.5782 74.6001 32.5434C74.4554 32.5085 74.3214 32.4387 74.21 32.34C74.6283 32.3303 75.0264 32.1582 75.32 31.86C75.1592 31.7666 75.0141 31.6485 74.89 31.51C74.9829 31.4167 75.1083 31.3629 75.24 31.36C75.1391 31.3281 75.0474 31.2723 74.9725 31.1975C74.8977 31.1226 74.8419 31.0309 74.81 30.93C75.6115 31.1269 76.4348 31.221 77.26 31.21C77.7306 31.211 78.1988 31.1436 78.65 31.01C78.45 32.48 77.41 32.63 77.41 32.63L77.42 32.6ZM77.61 32C77.6878 31.9442 77.753 31.8726 77.8013 31.7899C77.8495 31.7072 77.8798 31.6152 77.89 31.52C77.4685 31.5309 77.0468 31.5041 76.63 31.44V31.52C76.71 31.57 77.63 31.57 77.63 32H77.61ZM78.74 31.09C78.7342 31.4036 78.6662 31.7129 78.54 32C78.7531 31.8663 78.9205 31.671 79.02 31.44C79.1 31.14 79.1 30.93 78.74 31.09ZM79.45 31.42C79.6162 31.3423 79.8029 31.3198 79.9828 31.3558C80.1628 31.3918 80.3265 31.4844 80.45 31.62C80.5415 31.8214 80.5637 32.0474 80.513 32.2628C80.4623 32.4781 80.3417 32.6706 80.17 32.81C79.9635 32.6384 79.7035 32.5445 79.435 32.5445C79.1665 32.5445 78.9065 32.6384 78.7 32.81C78.5025 32.7089 78.2896 32.6413 78.07 32.61C78.227 32.4317 78.4172 32.2856 78.63 32.18C78.9886 32.034 79.283 31.7644 79.46 31.42H79.45ZM79.74 32.2C79.74 32.1703 79.7312 32.1413 79.7147 32.1167C79.6982 32.092 79.6748 32.0728 79.6474 32.0614C79.62 32.0501 79.5898 32.0471 79.5607 32.0529C79.5316 32.0587 79.5049 32.073 79.4839 32.0939C79.463 32.1149 79.4487 32.1416 79.4429 32.1707C79.4371 32.1998 79.4401 32.23 79.4514 32.2574C79.4628 32.2848 79.482 32.3082 79.5067 32.3247C79.5313 32.3412 79.5603 32.35 79.59 32.35C79.67 32.35 79.74 32.27 79.74 32.2ZM77.92 32.68C77.7719 32.8765 77.6115 33.0635 77.44 33.24C77.7373 33.2295 78.0306 33.3114 78.2795 33.4743C78.5284 33.6373 78.7207 33.8733 78.83 34.15C78.9302 34.0051 78.9904 33.8364 79.0045 33.6608C79.0185 33.4852 78.9859 33.309 78.91 33.15C78.79 33.0001 78.6378 32.8791 78.4647 32.7961C78.2916 32.713 78.102 32.6699 77.91 32.67" fill="white"/>
<path d="M76.71 32.9199L76.23 33.0699V32.7899C76.08 32.7899 76.03 32.8699 75.88 32.8699C75.7344 33.2811 75.5178 33.6636 75.24 33.9999C75.2563 34.1529 75.3076 34.3 75.39 34.4299C75.5592 34.1418 75.7462 33.8646 75.95 33.5999C76.1452 33.3207 76.4062 33.094 76.71 32.9399V32.9199ZM77.62 32.7899C77.2617 32.8662 76.9219 33.0123 76.62 33.2199C76.45 33.326 76.3096 33.4732 76.2117 33.648C76.1138 33.8229 76.0616 34.0196 76.06 34.2199C76.2132 34.0025 76.4026 33.8131 76.62 33.6599C77.013 33.451 77.3546 33.1572 77.62 32.7999V32.7899ZM77.62 29.2299C77.47 29.2299 77.34 29.3099 77.34 29.4299C77.425 29.6966 77.5426 29.9519 77.69 30.1899C77.8516 29.9598 77.9701 29.7023 78.04 29.4299C77.9258 29.313 77.7729 29.2419 77.61 29.2299H77.62ZM77.81 30.5699C77.8317 30.2205 77.9271 29.8797 78.09 29.5699C78.2199 29.4875 78.367 29.4362 78.52 29.4199C78.6 29.4199 78.72 29.4999 78.67 29.6199V29.6999C78.5019 30.0143 78.3149 30.3182 78.11 30.6099C78.11 30.5599 77.96 30.5599 77.81 30.5599V30.5699ZM77.48 30.5599C77.4212 30.2178 77.3274 29.8828 77.2 29.5599C77.0701 29.4775 76.923 29.4262 76.77 29.4099C76.7185 29.4144 76.6702 29.4369 76.6336 29.4735C76.597 29.5101 76.5745 29.5584 76.57 29.6099V29.6899C76.7381 30.0043 76.9251 30.3082 77.13 30.5999C77.2405 30.5536 77.361 30.5363 77.48 30.5499V30.5599ZM77.13 28.3799H77.53V27.9999H77.81V28.3499H78.16V28.6299H77.81V28.9999H77.53V28.5999H77.13V28.3799ZM73 26.1199H73.35V25.6899H73.63V26.1199H74V26.3199H73.65V26.8299H73.37V26.3199H73V26.1199ZM81.42 30.8699V30.1899C81.5905 30.2462 81.7468 30.3388 81.878 30.4614C82.0093 30.584 82.1123 30.7336 82.18 30.8999C82.18 30.8999 81.62 30.5499 81.42 30.8999V30.8699ZM80.91 31.8099C80.83 31.5299 80.76 31.1799 80.71 30.8999C80.5827 30.4841 80.6112 30.0362 80.79 29.6399C80.9747 29.3414 81.0457 28.9864 80.99 28.6399L81.47 28.8399C81.4483 29.1893 81.3529 29.5301 81.19 29.8399C81.0895 30.1044 81.0619 30.3911 81.11 30.6699C81.1871 30.8595 81.2092 31.067 81.1738 31.2686C81.1384 31.4703 81.047 31.6578 80.91 31.8099ZM80.91 28.8099V28.6099C80.649 28.3163 80.2967 28.119 79.91 28.0499C79.71 27.9699 79.56 28.0499 79.35 28.1999C79.4817 28.2028 79.6071 28.2566 79.7 28.3499C79.9139 28.5412 80.1528 28.7027 80.41 28.8299C80.5699 28.8208 80.7301 28.8208 80.89 28.8299" fill="white"/>
<path d="M79.3701 28.1399C79.1993 28.2867 79.0772 28.4821 79.0201 28.6999C79.0826 28.9964 79.2014 29.2782 79.3701 29.5299C79.5402 29.7286 79.6388 29.9786 79.6501 30.2399C79.6501 30.3899 79.5001 30.5199 79.4501 30.6699C79.5994 30.6278 79.739 30.5567 79.8609 30.4606C79.9827 30.3645 80.0844 30.2453 80.1601 30.1099C80.1981 29.9769 80.1996 29.8362 80.1644 29.7025C80.1292 29.5687 80.0586 29.447 79.9601 29.3499C79.8362 29.0755 79.6746 28.8197 79.4801 28.5899C79.4008 28.4503 79.3659 28.2898 79.3801 28.1299L79.3701 28.1399ZM75.6901 32.5499C75.5714 32.9751 75.3821 33.3774 75.1301 33.7399C74.9352 34.0583 74.8378 34.4268 74.8501 34.7999C74.7047 34.4668 74.6528 34.1003 74.7001 33.7399C74.7545 33.474 74.8745 33.2258 75.0491 33.018C75.2237 32.8102 75.4475 32.6493 75.7001 32.5499H75.6901ZM74.9901 32.6799C74.7731 32.6939 74.5601 32.7446 74.3601 32.8299C74.0379 33.0778 73.8146 33.4323 73.7301 33.8299C73.9525 33.7674 74.1647 33.6731 74.3601 33.5499C74.638 33.3198 74.8545 33.0243 74.9901 32.6899V32.6799ZM77.2401 33.5499C77.3901 33.5499 77.5201 33.6299 77.6701 33.6299C77.4737 33.7025 77.286 33.7964 77.1101 33.9099C77.0065 33.9982 76.922 34.1067 76.8619 34.2288C76.8017 34.3509 76.7671 34.484 76.7601 34.6199C76.6629 35.0062 76.5185 35.379 76.3301 35.7299C76.3248 35.3514 76.2572 34.9764 76.1301 34.6199C76.2909 34.5266 76.436 34.4084 76.5601 34.2699C76.6196 34.1117 76.7105 33.9673 76.8274 33.8452C76.9442 33.7232 77.0846 33.6261 77.2401 33.5599V33.5499ZM75.2401 34.5599C75.0754 34.8886 74.9931 35.2524 75.0001 35.6199C75.1626 35.9994 75.3745 36.3558 75.6301 36.6799C75.7171 36.2651 75.7673 35.8435 75.7801 35.4199C75.777 35.2379 75.7288 35.0594 75.6398 34.9006C75.5508 34.7418 75.4238 34.6075 75.2701 34.5099L75.2401 34.5599ZM73.5001 35.7699C73.5001 35.4899 74.1301 34.8599 74.1301 34.5099C74.0809 34.3633 73.9984 34.2302 73.8891 34.1209C73.7798 34.0116 73.6467 33.9291 73.5001 33.8799C73.2319 34.0223 73.0125 34.2417 72.8701 34.5099C72.8701 34.8599 73.5001 35.5699 73.5001 35.7699ZM74.5001 34.5099C74.2878 34.8858 74.12 35.2852 74.0001 35.6999C73.9655 35.8296 73.961 35.9656 73.987 36.0973C74.013 36.229 74.0688 36.3531 74.1501 36.4599C74.3501 36.7399 74.5801 37.0199 74.7801 37.2899C74.9134 37.126 75.009 36.9348 75.0601 36.7299C75.0774 36.4518 75.0572 36.1726 75.0001 35.8999C74.7703 35.4608 74.5988 34.9935 74.4901 34.5099H74.5001ZM73.4901 37.7999C73.6831 37.6572 73.8321 37.4632 73.9201 37.2399C73.9635 37.1491 73.9791 37.0474 73.9649 36.9478C73.9506 36.8481 73.9072 36.7549 73.8401 36.6799C73.6697 36.5046 73.5489 36.2872 73.4901 36.0499C73.4027 36.2749 73.2849 36.4868 73.1401 36.6799C73.0718 36.7543 73.0276 36.8475 73.0133 36.9475C72.999 37.0475 73.0153 37.1494 73.0601 37.2399C73.1547 37.4594 73.3025 37.6518 73.4901 37.7999ZM74.2001 37.2399C74.4702 37.5156 74.7084 37.8209 74.9101 38.1499C74.9845 38.2627 75.0242 38.3948 75.0242 38.5299C75.0242 38.665 74.9845 38.7971 74.9101 38.9099C74.6899 39.2187 74.4071 39.4777 74.0801 39.6699C74.2773 39.3748 74.3754 39.0245 74.3601 38.6699C74.2846 38.4266 74.191 38.1892 74.0801 37.9599C74.0678 37.7099 74.1123 37.4603 74.2101 37.2299L74.2001 37.2399ZM75.2101 36.8799C75.0739 37.0612 75.0034 37.2833 75.0101 37.5099C75.0236 37.7919 75.074 38.071 75.1601 38.3399C75.3109 38.7525 75.4983 39.1507 75.7201 39.5299C75.8649 39.3368 75.9827 39.1249 76.0701 38.8999C75.8701 38.6199 75.7201 38.3399 75.5101 38.0699C75.3001 37.7999 75.2801 37.2399 75.2101 36.8799ZM75.4401 36.6799C75.5834 37.4255 75.8649 38.1378 76.2701 38.7799C76.3838 38.9905 76.5421 39.1738 76.7337 39.3171C76.9254 39.4604 77.146 39.5603 77.3801 39.6099C77.5866 39.6001 77.7849 39.5266 77.9479 39.3994C78.1108 39.2723 78.2304 39.0978 78.2901 38.8999C78.3608 38.7173 78.3842 38.5197 78.3579 38.3256C78.3317 38.1315 78.2568 37.9472 78.1401 37.7899C78.0962 37.9665 78.0079 38.129 77.8837 38.262C77.7594 38.395 77.6033 38.4941 77.4301 38.5499C76.9001 38.4999 76.1901 37.8699 75.4301 36.6799" fill="white"/>
<path d="M76 36.2C75.9305 36.4621 75.9305 36.7379 76 37C76.0268 37.145 76.0832 37.2829 76.1658 37.4051C76.2484 37.5272 76.3554 37.631 76.48 37.7099C76.6424 37.8043 76.8337 37.836 77.0179 37.7992C77.202 37.7623 77.3664 37.6596 77.48 37.51L77.56 37.43C77.2088 37.3982 76.8743 37.265 76.5974 37.0466C76.3204 36.8282 76.1129 36.5341 76 36.2ZM73.5 39.69C73.6818 39.6308 73.8351 39.506 73.93 39.34C74.0666 39.085 74.1355 38.7992 74.13 38.51C74.0537 38.28 73.935 38.0662 73.78 37.8799C73.7025 37.9663 73.6069 38.0347 73.5 38.08C73.4128 38.0051 73.3191 37.9381 73.22 37.8799C73.0752 38.073 72.9574 38.285 72.87 38.51C72.84 38.6545 72.8424 38.8038 72.877 38.9473C72.9115 39.0908 72.9775 39.225 73.07 39.34C73.15 39.57 73.3 39.62 73.5 39.69ZM73.5 41.79C73.58 41.44 74.21 40.88 74.21 40.53C74.21 40.18 73.78 40.1 73.5 39.9C73.22 40.1 72.94 40.05 72.79 40.53C72.79 40.81 73.42 41.44 73.5 41.79ZM74.26 41.03C73.9929 41.3646 73.7803 41.7392 73.63 42.1399C73.6437 42.6588 73.7919 43.1655 74.06 43.61C74.3796 43.3441 74.6243 42.9994 74.77 42.61C74.8181 42.3204 74.7969 42.0235 74.7083 41.7437C74.6196 41.4639 74.466 41.2091 74.26 41V41.03ZM74.97 41.4799C74.8483 41.1411 74.6577 40.8313 74.41 40.57C74.3364 40.2708 74.3666 39.9556 74.4956 39.6758C74.6246 39.396 74.8447 39.1683 75.12 39.03C75.3464 39.3786 75.5342 39.7506 75.68 40.1399C75.73 40.7199 75.17 40.9999 74.97 41.4799ZM76.23 39.1C76.3832 39.3174 76.5726 39.5068 76.79 39.66V40.37C76.6806 40.7781 76.5367 41.1761 76.36 41.5599C76.1421 41.2908 75.979 40.9818 75.88 40.65C75.8223 40.3772 75.7955 40.0988 75.8 39.82C75.88 39.74 76.08 39.31 76.23 39.11V39.1ZM77.42 41.11C77.7145 40.6846 77.9125 40.1999 78 39.69C77.849 39.7747 77.6814 39.8257 77.5088 39.8395C77.3361 39.8533 77.1626 39.8296 77 39.77C76.9242 40.0686 76.9242 40.3814 77 40.68C77.124 40.8564 77.2683 41.0175 77.43 41.16L77.42 41.11ZM77.35 41.3099C77.2 41.1599 77.07 41.1099 77 40.9599C76.85 41.2399 76.72 41.52 76.57 41.79C76.72 41.79 76.85 41.7899 76.92 41.7099C77.0499 41.5628 77.1939 41.4288 77.35 41.3099ZM75.72 41C75.9326 41.3498 76.1699 41.684 76.43 42C76.3545 42.2433 76.2609 42.4806 76.15 42.7099C75.981 43.0154 75.7688 43.2951 75.52 43.54C75.3492 43.2784 75.2051 43.0003 75.09 42.7099C74.9839 42.4892 74.9523 42.2402 75 42C75.15 41.65 75.58 41.29 75.71 40.94L75.72 41ZM73.5 45.43C73.6806 45.162 73.8475 44.8849 74 44.6C74.0678 44.4057 74.0678 44.1942 74 44C73.92 43.8 73.57 43.29 73.52 43.17C73.3262 43.4333 73.1524 43.7108 73 44C72.925 44.2033 72.925 44.4266 73 44.6299C73.13 45.0599 73.48 45.2599 73.48 45.4599L73.5 45.43ZM74.87 42.93C74.638 43.2358 74.4495 43.5724 74.31 43.93C74.261 44.1428 74.2894 44.366 74.39 44.5599C74.47 44.7099 74.67 45.04 74.82 45.32C75.1021 45.1062 75.3201 44.8191 75.45 44.49C75.4929 44.3533 75.5079 44.2095 75.4942 44.0669C75.4804 43.9243 75.4382 43.7859 75.37 43.66C75.29 43.46 75.02 43.26 74.86 42.95L74.87 42.93ZM76.33 42.9C76.1331 43.1536 75.9716 43.4327 75.85 43.7299C75.7762 43.8558 75.7372 43.9991 75.7372 44.145C75.7372 44.2909 75.7762 44.4341 75.85 44.5599C76 44.8399 76.13 45.04 76.2 45.19C76.4031 44.9666 76.5655 44.7094 76.68 44.43C76.755 44.1584 76.755 43.8716 76.68 43.6C76.5334 43.3793 76.4157 43.1406 76.33 42.8899V42.9ZM73.5 49.5C73.7792 48.8977 73.9679 48.2575 74.06 47.6C73.9859 47.1142 73.7936 46.6541 73.5 46.26C73.1729 46.6341 72.9763 47.1044 72.94 47.6C73.0097 48.2621 73.1995 48.9059 73.5 49.5ZM74.33 44.87C74.6433 45.2394 74.872 45.6728 75 46.1399C74.8907 46.5708 74.7469 46.9922 74.57 47.4C74.3675 47.195 74.2047 46.9543 74.09 46.69C73.9933 46.5616 73.9254 46.4137 73.8909 46.2568C73.8564 46.0998 73.8561 45.9371 73.89 45.78C73.8715 45.6066 73.8988 45.4313 73.9689 45.2717C74.0391 45.112 74.1498 44.9736 74.29 44.87H74.33ZM75.63 44.79C75.4151 45.103 75.2937 45.4706 75.28 45.85C75.4298 46.2027 75.6175 46.538 75.84 46.85C75.9881 46.5877 76.1055 46.3092 76.19 46.02C76.1963 45.7888 76.149 45.5592 76.0518 45.3493C75.9547 45.1395 75.8103 44.9549 75.63 44.8099" fill="white"/>
<path d="M74.0005 50.89C74.0911 50.4055 74.2529 49.9371 74.4805 49.5C74.524 49.2932 74.5214 49.0795 74.473 48.8738C74.4247 48.6682 74.3316 48.4757 74.2005 48.31C74.0098 48.9336 73.7725 49.542 73.4905 50.13C73.2191 49.5374 72.9821 48.9298 72.7805 48.31C72.6494 48.4757 72.5563 48.6682 72.508 48.8738C72.4596 49.0795 72.457 49.2932 72.5005 49.5C72.7086 49.9473 72.876 50.4126 73.0005 50.89C72.9907 51.0965 72.9172 51.2948 72.79 51.4578C72.6629 51.6207 72.4884 51.7403 72.2905 51.8C72.4649 51.8687 72.657 51.8785 72.8375 51.828C73.0181 51.7774 73.1771 51.6693 73.2905 51.52C73.3769 51.4425 73.4452 51.3469 73.4905 51.24C73.5654 51.3272 73.6323 51.4209 73.6905 51.52C73.8028 51.6706 73.9618 51.7798 74.1428 51.8305C74.3237 51.8811 74.5163 51.8704 74.6905 51.8C74.5251 51.7003 74.3814 51.5684 74.268 51.4121C74.1546 51.2557 74.0739 51.0782 74.0305 50.89H74.0005ZM71.7305 46.49C71.8105 46.69 72.0105 47.2 72.0805 47.32C72.1077 47.503 72.0757 47.6899 71.9894 47.8536C71.9031 48.0172 71.7669 48.1491 71.6005 48.23C71.4125 48.1165 71.2627 47.9493 71.1705 47.75C71.1243 47.6598 71.1072 47.5576 71.1215 47.4573C71.1359 47.357 71.1809 47.2636 71.2505 47.19C71.359 46.9223 71.5225 46.6804 71.7305 46.48V46.49ZM72.7305 47.48C72.6975 47.9112 72.6032 48.3354 72.4505 48.74C72.3442 48.9642 72.1895 49.1622 71.9976 49.3195C71.8057 49.4769 71.5812 49.5897 71.3405 49.65C71.1103 49.611 70.8937 49.5148 70.7105 49.37C70.7282 49.2404 70.7828 49.1186 70.868 49.0193C70.9531 48.9199 71.0651 48.8473 71.1905 48.81C71.8269 48.5284 72.3636 48.0614 72.7305 47.47V47.48ZM71.3905 48.47C71.3033 48.3951 71.2096 48.3282 71.1105 48.27C70.862 48.3609 70.6239 48.4782 70.4005 48.62C70.1106 48.8339 69.8544 49.0901 69.6405 49.38C69.8881 49.4563 70.1529 49.4563 70.4005 49.38C70.455 49.1214 70.6096 48.8949 70.8305 48.75C70.9975 48.6216 71.1876 48.5265 71.3905 48.47ZM71.0005 48.09C70.8644 47.9087 70.7938 47.6866 70.8005 47.46L69.9705 48.02C69.7031 48.2238 69.4643 48.4626 69.2605 48.73C69.5325 48.6452 69.8097 48.5784 70.0905 48.53C70.4405 48.38 70.7205 48.25 71.0005 48.1V48.09ZM69.8905 48.81C69.4097 48.9625 68.9184 49.0795 68.4205 49.16C68.0784 49.3076 67.7691 49.5217 67.5105 49.79L68.2705 49.99C68.5301 49.8022 68.8082 49.6413 69.1005 49.51C69.4048 49.3271 69.6699 49.0858 69.8805 48.8L69.8905 48.81ZM69.1705 51.1C69.3205 51.02 69.3205 50.9 69.2505 50.75C69.1336 50.5835 68.9648 50.4604 68.7705 50.4C68.3405 50.25 67.8605 50.12 67.4305 49.97C67.3556 50.0572 67.2887 50.1509 67.2305 50.25C67.2305 50.33 67.2305 50.4 67.3805 50.4H68.2905C68.3398 50.4419 68.3742 50.4986 68.3886 50.5617C68.4031 50.6248 68.3967 50.6908 68.3705 50.75C68.5004 50.6676 68.6475 50.6163 68.8005 50.6C68.8965 50.653 68.9801 50.726 69.0456 50.8139C69.1111 50.9019 69.1571 51.0028 69.1805 51.11L69.1705 51.1ZM68.4705 50C68.7181 50.0627 68.9567 50.1568 69.1805 50.28C69.2605 50.2 69.3305 50.2 69.3805 50.13C69.512 49.8953 69.7058 49.7015 69.9405 49.57C69.8184 49.5797 69.6963 49.5518 69.5905 49.49C69.4405 49.57 69.3105 49.57 69.1605 49.64C68.9171 49.7208 68.6877 49.8389 68.4805 49.99L68.4705 50ZM70.4805 49.51C70.4005 49.59 70.2805 49.59 70.1305 49.59C69.7574 49.8125 69.485 50.1709 69.3705 50.59C69.3248 50.7107 69.3285 50.8446 69.381 50.9626C69.4334 51.0805 69.5303 51.173 69.6505 51.22C69.7989 51.2852 69.9662 51.2926 70.1197 51.2408C70.2733 51.189 70.402 51.0817 70.4805 50.94C70.4805 50.86 70.5605 50.86 70.5605 50.79C70.5093 50.8314 70.4504 50.8622 70.3873 50.8809C70.3241 50.8995 70.2579 50.9055 70.1925 50.8985C70.127 50.8915 70.0636 50.8717 70.0057 50.8403C69.9479 50.8088 69.8969 50.7662 69.8555 50.715C69.772 50.6116 69.7329 50.4792 69.747 50.347C69.7611 50.2147 69.8271 50.0935 69.9305 50.01C70.0105 50.01 70.0105 49.93 70.0805 49.93C70.3063 49.7847 70.5724 49.7146 70.8405 49.73C70.6905 49.65 70.5605 49.53 70.4905 49.53" fill="white"/>
<path d="M65.9403 55C66.0263 54.6567 66.1435 54.322 66.2903 54C66.6403 53.29 67.3503 51.55 68.9403 51.27C69.0903 51.27 68.7903 50.84 68.5903 50.92C68.3874 50.9765 68.1973 51.0716 68.0303 51.2V50.77C68.0303 50.69 67.9503 50.69 67.8803 50.69C67.6842 50.6935 67.4919 50.745 67.3203 50.84C66.7761 51.5817 66.3323 52.3921 66.0003 53.25C65.6503 54.08 65.4403 54.36 65.0003 54.25C64.5603 54.14 64.4403 53.69 63.7403 53.82C63.4677 53.8932 63.2215 54.0423 63.0303 54.25C63.0656 54.3298 63.1286 54.394 63.2077 54.4308C63.2868 54.4676 63.3766 54.4744 63.4603 54.45C63.8806 54.4613 64.2908 54.5819 64.6503 54.8C65.076 54.899 65.5066 54.9758 65.9403 55.03V55ZM72.3103 49.52C72.3584 49.7996 72.4791 50.0617 72.6603 50.28C72.6603 50.28 72.1803 52.53 70.4103 52.73C70.4856 52.3926 70.6856 52.0961 70.9703 51.9C71.5303 51.55 72.3103 50.99 72.2303 50.16C72.0695 50.2534 71.9244 50.3715 71.8003 50.51C71.5203 50.86 71.0403 51.77 70.1303 51.77C70.2134 51.4896 70.381 51.2416 70.6103 51.06C71.0238 50.8348 71.3851 50.5247 71.6703 50.15C71.7981 49.8713 72.0216 49.6478 72.3003 49.52H72.3103ZM71.4703 57.76L72.5303 59.3L73.3603 57.83L73.0803 57.35L72.5203 58.41L71.8103 57.35L71.4603 57.75" fill="white"/>
<path d="M71.1997 56.4801L68.7497 53.0001L69.1797 52.7201L67.9197 52.2401V53.6301L68.3497 53.2801L70.9297 56.9201L71.2097 56.4901L71.1997 56.4801ZM62.3897 48.2501C62.7397 47.9001 63.2197 48.1701 63.7797 48.7301C64.3397 49.2901 64.6897 49.7301 64.3397 50.0701C63.9897 50.4101 63.5097 50.1501 62.9497 49.6401C62.3897 49.1301 62.1197 48.6401 62.3897 48.2501Z" fill="white"/>
<path d="M63.2905 54.38C63.1315 54.2436 63.0056 54.0727 62.9224 53.8804C62.8393 53.6881 62.801 53.4793 62.8105 53.27C62.7938 53.0674 62.8192 52.8636 62.8852 52.6714C62.9512 52.4791 63.0564 52.3027 63.1941 52.1532C63.3317 52.0036 63.4989 51.8843 63.6851 51.8026C63.8712 51.721 64.0723 51.6789 64.2755 51.6789C64.4788 51.6789 64.6798 51.721 64.8659 51.8026C65.0521 51.8843 65.2193 52.0036 65.3569 52.1532C65.4946 52.3027 65.5998 52.4791 65.6658 52.6714C65.7318 52.8636 65.7572 53.0674 65.7405 53.27V53.55C65.8374 53.288 65.9545 53.034 66.0905 52.79C65.9568 52.3113 65.6418 51.9035 65.2124 51.6533C64.7829 51.4031 64.2729 51.3302 63.7905 51.45C63.2779 51.6142 62.8505 51.9734 62.6005 52.45C62.6831 51.8304 62.9476 51.2492 63.3605 50.78C63.6093 50.5882 63.8904 50.4426 64.1905 50.35C63.9344 50.3507 63.6814 50.2946 63.4497 50.1856C63.218 50.0767 63.0133 49.9176 62.8505 49.72C62.4529 49.4364 62.1806 49.01 62.0905 48.53C62.1526 48.9067 62.1003 49.2933 61.9405 49.64C61.5306 50.4162 61.3634 51.2976 61.4605 52.17C61.6508 53.0044 62.0902 53.7612 62.7205 54.34C62.7898 54.4151 62.8432 54.5034 62.8775 54.5996C62.9119 54.6958 62.9265 54.798 62.9205 54.9H64.2605C64.2605 54.9 64.5405 54.9 64.5405 54.7C64.5405 54.5 64.3905 54.5 64.2605 54.5C63.9238 54.5355 63.5835 54.5015 63.2605 54.4L63.2905 54.38ZM69.0505 54.7C68.3942 54.9005 67.7263 55.0608 67.0505 55.18C66.657 55.2421 66.2588 55.2689 65.8605 55.26V55.46C65.8874 55.4857 65.9084 55.5168 65.9222 55.5513C65.936 55.5858 65.9422 55.6229 65.9405 55.66C66.362 55.6709 66.7837 55.6441 67.2005 55.58C67.9507 55.4894 68.6845 55.2942 69.3805 55L69.0805 54.67L69.0505 54.7ZM70.2205 54.67C71.2967 54.1163 72.192 53.2662 72.8005 52.22L72.9505 52.02C72.8761 52.0578 72.7939 52.0774 72.7105 52.0774C72.6271 52.0774 72.5449 52.0578 72.4705 52.02L72.3905 52.17C71.7709 53.0909 70.9546 53.8628 70.0005 54.43L70.2005 54.68L70.2205 54.67ZM64.2005 55.08H63.4405C63.3906 55.065 63.3381 55.0604 63.2864 55.0666C63.2346 55.0727 63.1847 55.0894 63.1396 55.1157C63.0946 55.1419 63.0555 55.1772 63.0247 55.2192C62.9939 55.2612 62.972 55.3092 62.9605 55.36C62.8805 55.51 62.9605 55.64 63.1105 55.79C63.2605 55.94 63.3905 55.87 63.4605 55.79C63.7477 55.649 64.025 55.4886 64.2905 55.31C64.3405 55.16 64.4205 55.01 64.1905 55.08H64.2005ZM64.8205 55.43C64.7122 55.375 64.592 55.3475 64.4705 55.35C64.1928 55.5011 63.9371 55.6895 63.7105 55.91C63.6305 56.06 63.7105 56.11 63.8605 56.19C63.94 56.2518 64.0403 56.2805 64.1405 56.27C64.2722 56.2671 64.3976 56.2133 64.4905 56.12C64.5705 56.04 64.8405 55.69 64.9205 55.64C64.9027 55.5666 64.8685 55.4983 64.8205 55.44V55.43ZM64.9005 55.79C64.8205 55.87 64.5505 56.22 64.5505 56.22C64.5505 56.22 64.5505 56.3 64.6305 56.37H64.7105C64.9611 56.37 65.2068 56.3008 65.4205 56.17C65.6505 56.04 65.8505 55.69 65.6205 55.61C65.5628 55.5727 65.498 55.5477 65.4301 55.5366C65.3623 55.5254 65.2929 55.5284 65.2263 55.5453C65.1597 55.5622 65.0972 55.5926 65.0429 55.6347C64.9886 55.6768 64.9435 55.7297 64.9105 55.79H64.9005ZM65.0605 54.88C64.9951 54.8423 64.921 54.8224 64.8455 54.8224C64.77 54.8224 64.6959 54.8423 64.6305 54.88C64.5505 55.03 64.6305 55.16 64.8305 55.23C64.9436 55.2983 65.0702 55.3408 65.2016 55.3547C65.3329 55.3685 65.4657 55.3532 65.5905 55.31C65.6905 55.23 65.5405 55.01 65.0605 54.88ZM75.4005 46.49C75.3205 46.69 75.1205 47.2 75.0505 47.32C75.0234 47.503 75.0553 47.6899 75.1416 47.8536C75.2279 48.0172 75.3641 48.1491 75.5305 48.23C75.7185 48.1165 75.8683 47.9493 75.9605 47.75C76.0067 47.6598 76.0238 47.5576 76.0095 47.4573C75.9951 47.357 75.9501 47.2636 75.8805 47.19C75.6805 46.89 75.5305 46.68 75.4005 46.48V46.49ZM74.3405 47.48C74.3631 47.9206 74.4826 48.3508 74.6905 48.74C74.7968 48.9642 74.9515 49.1622 75.1434 49.3195C75.3353 49.4769 75.5598 49.5897 75.8005 49.65C76.0307 49.611 76.2473 49.5148 76.4305 49.37C76.4187 49.2445 76.3723 49.1247 76.2963 49.024C76.2204 48.9234 76.118 48.8458 76.0005 48.8C75.3411 48.5214 74.7778 48.0555 74.3805 47.46" fill="white"/>
<path d="M75.5998 48.4399C75.687 48.365 75.7807 48.2981 75.8798 48.2399C76.1283 48.3308 76.3664 48.4481 76.5898 48.5899C76.8797 48.8038 77.1359 49.06 77.3498 49.3499C77.1022 49.4262 76.8374 49.4262 76.5898 49.3499C76.5353 49.0913 76.3808 48.8648 76.1599 48.7199C76.0799 48.5899 75.8798 48.5199 75.5998 48.4399ZM76.0298 48.0899C76.1755 47.883 76.2461 47.6325 76.2299 47.3799L77.0598 47.9399C77.3272 48.1437 77.566 48.3825 77.7698 48.6499C77.4978 48.5651 77.2206 48.4983 76.9398 48.4499C76.6303 48.3631 76.3436 48.2095 76.0998 47.9999L76.0298 48.0899ZM77.0998 48.7799C77.5806 48.9324 78.0719 49.0494 78.5698 49.1299C78.9119 49.2775 79.2213 49.4917 79.4799 49.7599L78.7198 49.9599C78.4602 49.7721 78.1821 49.6113 77.8898 49.4799C77.5804 49.304 77.3139 49.0615 77.1098 48.7699L77.0998 48.7799ZM77.7898 51.0699C77.6398 50.9899 77.6398 50.8699 77.7098 50.7199C77.8267 50.5534 77.9955 50.4303 78.1898 50.3699C78.6198 50.2199 79.0998 50.0899 79.5298 49.9399C79.6047 50.0271 79.6717 50.1208 79.7299 50.2199C79.7299 50.2999 79.7298 50.3699 79.5798 50.3699H78.6698C78.6205 50.4118 78.5861 50.4685 78.5717 50.5316C78.5572 50.5947 78.5636 50.6607 78.5898 50.7199C78.4599 50.6375 78.3129 50.5862 78.1599 50.5699C77.9727 50.6851 77.8366 50.8676 77.7798 51.0799L77.7898 51.0699ZM78.5298 49.9999C78.2822 50.0626 78.0436 50.1567 77.8198 50.2799C77.7808 50.2775 77.744 50.261 77.7164 50.2333C77.6887 50.2057 77.6722 50.1689 77.6698 50.1299C77.5383 49.8952 77.3445 49.7014 77.1098 49.5699C77.2319 49.5796 77.354 49.5517 77.4598 49.4899C77.6098 49.5699 77.7398 49.5699 77.8898 49.6399C78.1127 49.7318 78.3241 49.8492 78.5198 49.9899L78.5298 49.9999ZM76.5198 49.5099C76.5998 49.5899 76.7199 49.5899 76.8699 49.5899C77.2429 49.8124 77.5153 50.1708 77.6298 50.5899C77.6755 50.7106 77.6718 50.8445 77.6193 50.9625C77.5669 51.0804 77.47 51.173 77.3498 51.2199C77.2014 51.2851 77.0341 51.2925 76.8806 51.2407C76.727 51.1889 76.5983 51.0816 76.5198 50.9399C76.5198 50.8599 76.4398 50.8599 76.4398 50.7899C76.5433 50.8734 76.6756 50.9125 76.8078 50.8984C76.94 50.8844 77.0613 50.8183 77.1448 50.7149C77.2283 50.6115 77.2674 50.4791 77.2533 50.3469C77.2392 50.2147 77.1732 50.0934 77.0698 50.0099C76.9898 50.0099 76.9898 49.9299 76.9198 49.9299C76.694 49.7846 76.428 49.7145 76.1599 49.7299C76.3099 49.6499 76.4398 49.5299 76.5098 49.5299L76.5198 49.5099ZM81.1398 54.9999C81.0506 54.6563 80.93 54.3216 80.7798 53.9999C80.4298 53.2899 79.7198 51.5499 78.1298 51.2699C77.9798 51.2699 78.2799 50.8399 78.4799 50.9199C78.6828 50.9764 78.8728 51.0715 79.0398 51.1999V50.7699C79.0398 50.6899 79.1199 50.6899 79.1898 50.6899C79.2885 50.6735 79.3895 50.6783 79.4861 50.7042C79.5827 50.7301 79.6726 50.7764 79.7498 50.8399C80.3041 51.5929 80.7547 52.417 81.0898 53.2899C81.4398 54.1199 81.6498 54.3999 82.0898 54.2899C82.5298 54.1799 82.7198 53.7299 83.3498 53.8599C83.6224 53.9331 83.8686 54.0822 84.0598 54.2899C84.0245 54.3697 83.9615 54.4339 83.8824 54.4707C83.8033 54.5075 83.7135 54.5143 83.6298 54.4899C83.2095 54.5012 82.7993 54.6218 82.4398 54.8399C81.9865 54.9399 81.5565 55.0166 81.1498 55.0699L81.1398 54.9999ZM74.6898 49.4999C74.6417 49.7795 74.521 50.0416 74.3398 50.2599C74.3398 50.2599 74.8198 52.5099 76.5898 52.7099C76.5145 52.3725 76.3145 52.076 76.0298 51.8799C75.4698 51.5299 74.6898 50.9699 74.7698 50.1399C74.9306 50.2333 75.0757 50.3514 75.1998 50.4899C75.4798 50.8399 75.9599 51.7499 76.8699 51.7499C76.7868 51.4695 76.6191 51.2215 76.3898 51.0399C75.9763 50.8147 75.615 50.5046 75.3298 50.1299C75.1946 49.8565 74.9732 49.6351 74.6998 49.4999H74.6898ZM73.4998 51.6499C73.7827 52.2083 74.1392 52.7263 74.5598 53.1899C74.8398 53.4699 75.5598 54.1899 75.9498 54.5299C75.3355 54.3887 74.7633 54.1043 74.2798 53.6999C74.0455 53.8384 73.788 53.9333 73.5198 53.9799C73.2489 53.9439 72.9893 53.8482 72.7598 53.6999C72.2857 54.1185 71.7097 54.4047 71.0898 54.5299C71.4398 54.1799 72.1999 53.4699 72.4799 53.1899C72.9364 52.7679 73.2801 52.2385 73.4799 51.6499" fill="white"/>
<path d="M73.5001 54.18C73.7171 54.166 73.9301 54.1153 74.1301 54.03C74.0002 54.3592 73.7822 54.6463 73.5001 54.86C73.2346 54.6302 73.02 54.3475 72.8701 54.03C73.0701 54.1153 73.2831 54.166 73.5001 54.18Z" fill="white"/>
<path d="M74.41 59.2901L78.68 53.3501L79.11 53.7001V52.3101L77.85 52.7901L78.28 53.0701L74.51 58.3801L72.51 54.8901L72.31 55.2401L70.64 57.8201L70.21 57.5401V58.9301L71.55 58.4501L71.12 58.1701L72.59 55.9201L74.41 59.2801" fill="white"/>
<path d="M75.1701 56.9101L74.4601 55.8001C74.3801 56.0001 74.1101 56.3601 73.9001 56.8601L73.6201 56.3001L74.4501 54.8301L74.6501 55.1801L75.4101 56.5201L75.1601 56.9001L75.1701 56.9101ZM76.0701 57.2501L76.3501 57.7301L76.7801 57.4501V58.8401L75.4401 58.3601L75.8701 58.0801L75.6701 57.8001L76.0701 57.2401V57.2501ZM84.6201 48.2401C84.2701 47.8901 83.7901 48.1601 83.2301 48.7201C82.6701 49.2801 82.3201 49.7201 82.6701 50.0601C83.0201 50.4001 83.5001 50.1401 84.0601 49.6301C84.6201 49.1201 84.8901 48.6301 84.6201 48.2401Z" fill="white"/>
<path d="M83.7896 54.38C83.9487 54.2436 84.0745 54.0727 84.1577 53.8804C84.2408 53.6881 84.2791 53.4793 84.2696 53.27C84.2392 52.9024 84.0717 52.5596 83.8003 52.3097C83.5289 52.0598 83.1735 51.9211 82.8046 51.9211C82.4357 51.9211 82.0804 52.0598 81.809 52.3097C81.5376 52.5596 81.37 52.9024 81.3396 53.27V53.55C81.2596 53.4 80.9896 52.84 80.9896 52.79C81.1233 52.3113 81.4384 51.9036 81.8678 51.6534C82.2973 51.4032 82.8073 51.3302 83.2896 51.45C83.8022 51.6142 84.2297 51.9734 84.4797 52.45C84.3971 51.8304 84.1326 51.2493 83.7197 50.78C83.4708 50.5883 83.1897 50.4426 82.8896 50.35C83.1457 50.3507 83.3987 50.2946 83.6304 50.1856C83.8621 50.0767 84.0669 49.9176 84.2297 49.72C84.6332 49.4359 84.9094 49.0052 84.9996 48.52C84.9375 48.8967 84.9899 49.2833 85.1497 49.63C85.5596 50.4062 85.7267 51.2876 85.6296 52.16C85.4393 52.9944 85 53.7512 84.3697 54.33C84.3004 54.4051 84.2469 54.4934 84.2126 54.5896C84.1782 54.6858 84.1636 54.788 84.1696 54.89H82.7997C82.7997 54.89 82.5196 54.89 82.5196 54.69C82.5196 54.49 82.6697 54.49 82.7997 54.49C83.1363 54.5175 83.4752 54.4836 83.7997 54.39L83.7896 54.38ZM76.8697 54.69C75.8095 54.1141 74.9195 53.2691 74.2896 52.24L74.1396 52.04C74.214 52.0778 74.2962 52.0975 74.3796 52.0975C74.463 52.0975 74.5453 52.0778 74.6197 52.04L74.6996 52.19C75.3175 53.1062 76.1303 53.8745 77.0797 54.44L76.8796 54.69H76.8697ZM77.8796 54.69C78.5359 54.8905 79.2038 55.0508 79.8796 55.17C80.2731 55.2322 80.6713 55.2589 81.0696 55.25V55.45C81.0427 55.4757 81.0217 55.5068 81.0079 55.5413C80.9941 55.5758 80.9879 55.6129 80.9896 55.65C80.5681 55.6609 80.1465 55.6341 79.7297 55.57C78.997 55.4781 78.2803 55.2863 77.5996 55L77.8997 54.67L77.8796 54.69ZM82.7297 55.07H83.4896C83.6946 55.0652 83.8941 55.1365 84.0497 55.27C84.0512 55.3595 84.0341 55.4483 83.9997 55.5309C83.9653 55.6135 83.9142 55.6881 83.8496 55.75C83.6996 55.83 83.5696 55.83 83.4996 55.75C83.2124 55.609 82.9351 55.4486 82.6696 55.27C82.6196 55.22 82.5396 54.99 82.7496 55.07H82.7297ZM82.1197 55.42C82.2537 55.3567 82.4019 55.3292 82.5497 55.34C82.8274 55.4911 83.083 55.6795 83.3096 55.9C83.3896 56.05 83.3097 56.1 83.1597 56.18C83.0802 56.2418 82.9798 56.2705 82.8796 56.26C82.7479 56.2571 82.6225 56.2033 82.5296 56.11C82.4496 56.03 82.1796 55.68 82.0996 55.63C82.1133 55.564 82.1133 55.496 82.0996 55.43L82.1197 55.42ZM81.9996 55.8C82.0796 55.88 82.3496 56.23 82.3496 56.23C82.3496 56.23 82.3496 56.31 82.2696 56.38H82.1897C81.9391 56.38 81.6934 56.3108 81.4797 56.18C81.2797 56.03 81.0496 55.7 81.2796 55.62C81.3363 55.5795 81.4012 55.5519 81.4697 55.539C81.5382 55.5262 81.6087 55.5284 81.6763 55.5455C81.7439 55.5626 81.8069 55.5943 81.861 55.6382C81.9151 55.6822 81.959 55.7374 81.9896 55.8H81.9996ZM81.8396 54.89C81.905 54.8523 81.9791 54.8324 82.0546 54.8324C82.1301 54.8324 82.2042 54.8523 82.2696 54.89C82.3496 55.04 82.2696 55.17 82.0696 55.24C81.9574 55.3103 81.8307 55.3541 81.699 55.3679C81.5673 55.3818 81.434 55.3654 81.3096 55.32C81.2096 55.24 81.3596 55.02 81.8396 54.89Z" fill="white"/>
<path d="M144.67 32.6899C144.47 30.7899 143.56 29.8299 141.46 29.8299H138.81L138.46 40.5499H140.46C140.46 40.5499 140.66 35.5499 140.66 35.3699H143.11C143.11 35.5699 143.54 40.5499 143.54 40.5499H145.54C145.46 40.4699 144.76 33.1199 144.68 32.6899H144.67ZM140.68 33.5499C140.68 33.3499 140.76 31.8099 140.76 31.5499H141.11C142.5 31.5499 142.78 31.8299 142.93 33.5499H140.68ZM121.08 47.4099C120.88 45.5099 119.97 44.5499 117.87 44.5499H115.22L114.87 55.2699H116.87C116.87 55.2699 117.07 50.2699 117.07 50.0899H119.52C119.52 50.2899 119.95 55.2699 119.95 55.2699H121.95C121.87 55.1699 121.17 47.8099 121.09 47.4099H121.08ZM117.09 48.2399C117.09 48.0399 117.17 46.4999 117.17 46.2399H117.52C118.91 46.2399 119.19 46.5199 119.34 48.2399H117.09ZM106.52 29.8299V40.5299H108.52V31.5299H110.9V40.5299H112.9V29.8299H106.52ZM127.33 33.5499H126.27C125.915 33.5652 125.565 33.4671 125.27 33.2699C125.201 33.1948 125.147 33.1065 125.113 33.0103C125.079 32.914 125.064 32.8119 125.07 32.7099V29.8299H123.07V32.9099C123.059 33.2453 123.128 33.5784 123.272 33.8813C123.417 34.1842 123.632 34.4478 123.9 34.6499C124.458 35.1223 125.169 35.3748 125.9 35.3599H127.29V40.5399H129.29V29.8299H127.29V33.5499H127.33ZM131.44 29.8299V31.5699H133.06V40.5699H135.06V31.5699H136.68V29.8299H131.44ZM128.56 44.4399V47.8799H125.83V44.4499H123.88V55.1699H125.83V49.7099H128.56V55.1699H130.56V44.4499L128.56 44.4399ZM109.4 47.9999H108.49V46.2899H112V44.5499H106.54V55.2699H109.54C110.012 55.2764 110.479 55.1853 110.914 55.0023C111.349 54.8192 111.741 54.5483 112.066 54.2065C112.391 53.8646 112.642 53.4592 112.802 53.0158C112.963 52.5724 113.03 52.1006 113 51.6299C112.92 50.4199 112.52 48.0399 109.43 48.0399L109.4 47.9999ZM109.15 53.5499C108.95 53.5499 108.44 53.4699 108.44 53.4699V49.7099H108.79C109.79 49.7099 110.96 49.6299 110.96 51.6099C110.96 53.4299 109.7 53.5599 109.14 53.5599L109.15 53.5499ZM121.66 34.7999C121.674 33.6155 121.432 32.442 120.95 31.3599C120.73 30.818 120.352 30.3547 119.865 30.0302C119.378 29.7057 118.805 29.5349 118.22 29.5399H118.14C117.557 29.5454 116.989 29.7204 116.504 30.0436C116.019 30.3668 115.639 30.8242 115.41 31.3599C114.933 32.4435 114.691 33.6159 114.7 34.7999V35.1499C114.675 36.0232 114.793 36.8948 115.05 37.7299C115.61 39.8999 116.79 40.6599 118.13 40.7299H118.21C119.55 40.7299 120.74 39.9699 121.29 37.7299C121.506 36.8862 121.623 36.0205 121.64 35.1499V34.7999H121.66ZM116.64 35.1499C116.64 32.2899 117.35 31.3099 118.11 31.3099C118.87 31.3099 119.58 32.3099 119.58 35.1499C119.58 37.9899 118.87 38.9199 118.11 38.9199C117.35 38.9199 116.72 37.9199 116.64 35.1499ZM140.23 55.1499L137.85 48.8499C138.415 48.4213 138.82 47.8157 139 47.1299C139.15 46.4199 139.35 44.4799 139.35 44.4799H137.35C137.35 44.6799 137.27 45.3099 137.2 46.0199C137.12 47.0799 136.77 48.0199 135.81 48.0199H135.1V44.4999H133.1V55.1699H135.1V49.7099H136.29L138.29 55.1699L140.23 55.1499Z" fill="white"/>
</svg>
