<svg width="200" height="85" viewBox="0 0 200 85" fill="none" xmlns="http://www.w3.org/2000/svg">
<path d="M109.054 25L90.6943 27.3985V32.8317L109.054 31.1932V25Z" fill="#E4003A"/>
<path fill-rule="evenodd" clip-rule="evenodd" d="M105.578 37.4511L90.6941 27.4042V32.8245L95.3351 35.9682L96.2482 36.5009C94.5809 36.5209 93.7823 36.8596 92.9802 37.3439C90.6885 38.7256 89.4988 41.1555 89.4988 44.7411C89.4988 50.7829 92.8337 53.6435 99.1866 53.6435C105.54 53.6435 108.891 50.7829 108.891 44.7411C108.891 41.2442 107.757 38.8532 105.578 37.4511ZM99.1866 49.2256C96.0371 49.2256 95.046 48.0791 95.046 44.7874C95.046 41.4958 96.0297 40.3492 99.1866 40.3492C102.344 40.3492 103.311 41.4734 103.311 44.7874C103.311 48.1011 102.36 49.2256 99.1866 49.2256ZM52.9566 44.7874C52.9566 48.0847 53.9404 49.2256 57.0973 49.2256C60.2541 49.2256 61.2215 48.0791 61.2215 44.7874C61.2215 41.4958 60.2689 40.3492 57.0973 40.3492C53.9253 40.3492 52.9566 41.4734 52.9566 44.7874ZM47.4095 44.7394C47.4095 38.6976 50.7668 35.933 57.0973 35.933C63.4279 35.933 66.7998 38.6976 66.7998 44.7394C66.7998 50.7809 63.4649 53.6418 57.0973 53.6418C50.7296 53.6418 47.4095 50.7809 47.4095 44.7394ZM31.8191 38.5257C32.4231 37.7599 34.8595 35.9107 37.8571 35.9107C42.8462 35.9107 45.5975 38.5997 45.5975 44.7079C45.5975 50.8157 42.8426 53.5307 37.8403 53.5307C34.8258 53.5307 32.4063 51.7147 31.7859 50.9325V59.0063H26.5V36.3066H31.8191V38.5257ZM31.8229 44.6947C31.8229 47.9883 32.814 49.1329 35.9635 49.1329V49.1257C39.1351 49.1257 40.0857 48.0048 40.0857 44.6947C40.0857 41.3846 39.1204 40.2565 35.9635 40.2565C32.8066 40.2565 31.8229 41.4011 31.8229 44.6947ZM145.263 36.3138V42.4776H138.245V36.3138H132.926V52.9944H138.245V46.7455H145.263V52.9944H150.584V36.3138H145.263ZM118.479 53.5307C113.473 53.5307 110.722 50.8101 110.722 44.7079C110.722 38.6161 113.471 35.9107 118.46 35.9107C121.456 35.9107 123.892 37.7599 124.5 38.5145V36.2954H129.819V52.996H124.532V50.9325C123.911 51.7147 121.491 53.5307 118.479 53.5307ZM120.356 40.2453C117.182 40.2453 116.232 41.3698 116.232 44.6835C116.23 47.9808 117.201 49.1221 120.356 49.1221C123.511 49.1221 124.494 47.9939 124.494 44.6835C124.494 41.3734 123.529 40.2453 120.356 40.2453ZM82.2346 46.8306C81.8194 48.5746 80.7079 49.2253 78.2993 49.2253C75.1498 49.2253 74.1603 48.0788 74.1603 44.7871C74.1603 41.4954 75.1498 40.3489 78.2993 40.3489C80.7079 40.3489 81.8194 40.998 82.2362 42.7531L87.7833 42.3332C86.955 37.969 83.7073 35.9403 78.2993 35.9403C71.9686 35.9403 68.6135 38.7049 68.6135 44.7467C68.6135 50.7881 71.9481 53.649 78.2993 53.649C83.7035 53.649 86.9181 51.5779 87.7665 47.2561L82.2346 46.8306ZM164.679 44.2344L173.098 52.9924H166.26L158.927 45.3125V45.7156V47.1598V52.9924H153.702V36.3138H158.927V43.5593L166.065 36.3138H172.646L164.679 44.2344Z" fill="#00274F"/>
</svg>
