<svg width="200" height="85" viewBox="0 0 200 85" fill="none" xmlns="http://www.w3.org/2000/svg">
<path d="M90.5 37L94.3 34.2H81.7V50.8H94.3V48H85.3V43.8H92.9V41H85.3V37H90.5ZM74.8 37L78.6 34.2H64.2V50.8H71.7C75.9 50.8 78.3 48.9 78.3 45.6C78.3 42.4 76.1 40.7 72.1 40.7H67.7V37H74.8ZM71.6 43.4C73.9 43.4 74.9 44.2 74.9 45.7C74.9 47.2 73.8 48 71.6 48H67.8V43.4H71.6ZM104.4 34.2H97.6V50.8H101.2V46.1H104.5C108.9 46.1 111.6 43.8 111.6 40.1C111.6 36.4 108.8 34.2 104.4 34.2ZM104.4 43.3H101.2V36.9H104.4C106.7 36.9 108 38 108 40.1C107.9 42.2 106.7 43.3 104.4 43.3ZM58.1 47.2C57.1 47.7 56.1 48 55 48C51.8 48 49.4 45.7 49.4 42.5C49.4 39.3 51.7 37 55 37C56.2 37 57.3 37.4 58.3 38L60.9 36.1L60.7 35.9C59.2 34.6 57.2 33.9 54.9 33.9C52.4 33.9 50.2 34.7 48.5 36.3C46.9 37.9 45.9 40.1 46 42.4C46 44.7 46.9 46.9 48.5 48.6C50.2 50.2 52.5 51.1 54.8 51C57.4 51 59.6 50.1 61.2 48.5L58.9 46.8L58.1 47.2ZM166 41H158.3V34.2H154.7V50.8H158.3V44H166V50.8H169.6V34.2H166V41ZM141.7 34.2L134.5 50.8H138.1L139.5 47.5H147.1L148.5 50.8H152.3L145.3 34.2H141.7ZM140.7 44.7L143.5 38L146.1 44.7H140.7ZM182.6 42.2L189.1 34.2H185L179.6 41.3H177.6V34.2H174V50.8H177.6V44.1H179.9L185.4 50.8H190L182.6 42.2ZM127 40.7H122.6V37H132V34.2H119V50.8H126.5C130.7 50.8 133.1 48.9 133.1 45.6C133.2 42.4 131 40.7 127 40.7ZM126.4 48.1H122.6V43.5H126.4C128.7 43.5 129.7 44.3 129.7 45.8C129.8 47.3 128.6 48.1 126.4 48.1Z" fill="#21A038"/>
<path d="M34.4808 33.8813C35.13 34.732 35.6796 35.6561 36.1184 36.6352L23.6695 45.9355L18.4668 42.6302V38.6538L23.6695 41.9591L34.4808 33.8813Z" fill="#21A038"/>
<path d="M13.1573 42.3494C13.1573 42.1709 13.1616 41.9937 13.1702 41.8175L10.0172 41.6609C10.0064 41.8893 10 42.1199 10 42.3526C9.99866 44.171 10.3516 45.9716 11.0385 47.6514C11.7254 49.3312 12.7328 50.8569 14.003 52.1412L16.2395 49.8757C15.2618 48.8889 14.4862 47.7159 13.9572 46.4243C13.4283 45.1326 13.1564 43.7478 13.1573 42.3494Z" fill="url(#paint0_linear_2634_11643)"/>
<path d="M23.6669 31.6993C23.8429 31.6993 24.0178 31.7059 24.1917 31.7145L24.3494 28.518C24.1234 28.5072 23.8958 28.5017 23.6669 28.5017C21.8719 28.4995 20.0942 28.8566 18.4357 29.5526C16.7773 30.2486 15.2709 31.2698 14.0029 32.5575L16.2394 34.8241C17.2132 33.8329 18.3707 33.0466 19.6454 32.5103C20.9201 31.9741 22.2867 31.6984 23.6669 31.6993Z" fill="url(#paint1_linear_2634_11643)"/>
<path d="M23.667 53.0008C23.491 53.0008 23.316 53.0008 23.1412 52.9867L22.9834 56.1821C23.2102 56.1937 23.4381 56.1995 23.667 56.1995C25.4613 56.2014 27.2382 55.844 28.8957 55.1478C30.5532 54.4516 32.0587 53.4303 33.3257 52.1427L31.0934 49.8772C30.1195 50.8678 28.9621 51.6537 27.6877 52.1898C26.4132 52.7258 25.0468 53.0015 23.667 53.0008Z" fill="url(#paint2_linear_2634_11643)"/>
<path d="M29.5914 33.5575L32.2486 31.5725C29.8199 29.5794 26.7882 28.4945 23.6631 28.5V31.6987C25.7793 31.6961 27.8464 32.3442 29.5914 33.5575Z" fill="url(#paint3_linear_2634_11643)"/>
<path d="M37.3332 42.35C37.3349 41.5179 37.263 40.6872 37.1185 39.868L34.1769 42.065C34.1769 42.1597 34.1769 42.2543 34.1769 42.35C34.1777 43.8382 33.8699 45.3099 33.2735 46.6698C32.6771 48.0297 31.8053 49.2474 30.7148 50.2439L32.8365 52.6204C34.2543 51.3233 35.3872 49.7388 36.1618 47.9695C36.9365 46.2002 37.3355 44.2856 37.3332 42.35Z" fill="#21A038"/>
<path d="M23.6672 53.0014C22.1987 53.0019 20.7465 52.6898 19.4044 52.0854C18.0625 51.481 16.8607 50.5976 15.877 49.4927L13.5332 51.6418C14.8129 53.0788 16.3764 54.2272 18.1222 55.0125C19.868 55.7977 21.7572 56.2023 23.6672 56.2V53.0014Z" fill="url(#paint4_linear_2634_11643)"/>
<path d="M16.6194 34.4557L14.4988 32.0792C13.0806 33.3761 11.9473 34.9605 11.1723 36.7298C10.3973 38.4991 9.99789 40.4138 10 42.3496H13.1573C13.1566 40.8615 13.4645 39.3898 14.0609 38.0299C14.6573 36.6701 15.529 35.4523 16.6194 34.4557Z" fill="url(#paint5_linear_2634_11643)"/>
<defs>
<linearGradient id="paint0_linear_2634_11643" x1="14.6415" y1="51.7421" x2="11.1091" y2="41.6661" gradientUnits="userSpaceOnUse">
<stop offset="0.14" stop-color="#F1E813"/>
<stop offset="0.3" stop-color="#E6E418"/>
<stop offset="0.58" stop-color="#C9DA26"/>
<stop offset="0.89" stop-color="#A2CC39"/>
</linearGradient>
<linearGradient id="paint1_linear_2634_11643" x1="14.9044" y1="33.123" x2="23.819" y2="29.7709" gradientUnits="userSpaceOnUse">
<stop offset="0.06" stop-color="#0FA7DF"/>
<stop offset="0.54" stop-color="#0098F8"/>
<stop offset="0.92" stop-color="#0290EA"/>
</linearGradient>
<linearGradient id="paint2_linear_2634_11643" x1="22.7752" y1="54.269" x2="32.8352" y2="52.0265" gradientUnits="userSpaceOnUse">
<stop offset="0.12" stop-color="#A2CC39"/>
<stop offset="0.28" stop-color="#86C239"/>
<stop offset="0.87" stop-color="#219F38"/>
</linearGradient>
<linearGradient id="paint3_linear_2634_11643" x1="23.0064" y1="29.5713" x2="31.6158" y2="32.1929" gradientUnits="userSpaceOnUse">
<stop offset="0.06" stop-color="#0290EA"/>
<stop offset="0.79" stop-color="#0C89CA"/>
</linearGradient>
<linearGradient id="paint4_linear_2634_11643" x1="14.3252" y1="51.2524" x2="23.7051" y2="54.7115" gradientUnits="userSpaceOnUse">
<stop offset="0.13" stop-color="#F1E813"/>
<stop offset="0.3" stop-color="#EAE616"/>
<stop offset="0.53" stop-color="#D8DF1F"/>
<stop offset="0.8" stop-color="#BAD52D"/>
<stop offset="0.98" stop-color="#A2CC39"/>
</linearGradient>
<linearGradient id="paint5_linear_2634_11643" x1="11.1762" y1="42.7368" x2="15.0174" y2="32.8771" gradientUnits="userSpaceOnUse">
<stop offset="0.07" stop-color="#A2CC39"/>
<stop offset="0.26" stop-color="#81C45E"/>
<stop offset="0.92" stop-color="#0FA7DF"/>
</linearGradient>
</defs>
</svg>
