<svg width="57" height="57" viewBox="0 0 57 57" fill="none" xmlns="http://www.w3.org/2000/svg">
<path fill-rule="evenodd" clip-rule="evenodd" d="M8.22811 8.22811C4.75 11.7062 4.75 17.3041 4.75 28.5C4.75 39.6959 4.75 45.2938 8.22811 48.7719C11.7062 52.25 17.3041 52.25 28.5 52.25C39.6959 52.25 45.2938 52.25 48.7719 48.7719C52.25 45.2938 52.25 39.6959 52.25 28.5C52.25 17.3041 52.25 11.7062 48.7719 8.22811C45.2938 4.75 39.6959 4.75 28.5 4.75C17.3041 4.75 11.7062 4.75 8.22811 8.22811ZM36.8845 20.1155C37.5802 20.8111 37.5802 21.9389 36.8845 22.6345L22.6345 36.8845C21.9389 37.5802 20.8111 37.5802 20.1155 36.8845C19.4198 36.1889 19.4198 35.0611 20.1155 34.3655L34.3655 20.1155C35.0611 19.4198 36.1889 19.4198 36.8845 20.1155ZM24.9375 22.5625C24.9375 23.8742 23.8742 24.9375 22.5625 24.9375C21.2508 24.9375 20.1875 23.8742 20.1875 22.5625C20.1875 21.2508 21.2508 20.1875 22.5625 20.1875C23.8742 20.1875 24.9375 21.2508 24.9375 22.5625ZM34.4375 36.8125C35.7492 36.8125 36.8125 35.7492 36.8125 34.4375C36.8125 33.1258 35.7492 32.0625 34.4375 32.0625C33.1258 32.0625 32.0625 33.1258 32.0625 34.4375C32.0625 35.7492 33.1258 36.8125 34.4375 36.8125Z" fill="#F04B54"/>
</svg>
