<svg width="57" height="57" viewBox="0 0 57 57" fill="none" xmlns="http://www.w3.org/2000/svg">
<path fill-rule="evenodd" clip-rule="evenodd" d="M5.90104 29.0938C5.90104 28.11 6.69916 27.3125 7.68369 27.3125C20.4826 27.3125 30.8582 37.6799 30.8582 50.4688C30.8582 51.4525 30.0601 52.25 29.0755 52.25C28.091 52.25 27.2929 51.4525 27.2929 50.4688C27.2929 39.6474 18.5135 30.875 7.68369 30.875C6.69916 30.875 5.90104 30.0775 5.90104 29.0938ZM7.68369 34.4375C6.69916 34.4375 5.90104 35.235 5.90104 36.2188C5.90104 37.2025 6.69916 38 7.68369 38C14.5754 38 20.1623 43.5825 20.1623 50.4688C20.1623 51.4525 20.9604 52.25 21.9449 52.25C22.9294 52.25 23.7276 51.4525 23.7276 50.4688C23.7276 41.6149 16.5445 34.4375 7.68369 34.4375ZM5.90104 43.3438C5.90104 42.36 6.69916 41.5625 7.68369 41.5625C12.6063 41.5625 16.597 45.55 16.597 50.4688C16.597 51.4525 15.7988 52.25 14.8143 52.25C13.8298 52.25 13.0316 51.4525 13.0316 50.4688C13.0316 47.5175 10.6373 45.125 7.68369 45.125C6.69916 45.125 5.90104 44.3275 5.90104 43.3438Z" fill="#F04B54"/>
<path d="M4.75 24.6251C5.5923 24.0719 6.60038 23.75 7.68369 23.75C22.4517 23.75 34.4235 35.7124 34.4235 50.4688C34.4235 51.0933 34.3163 51.6928 34.1192 52.2499C42.4966 52.2468 46.7737 52.1538 49.4653 49.3718C52.25 46.4937 52.25 41.8614 52.25 32.5968V28.9843C52.25 23.5493 52.25 20.8318 51.0159 18.579C49.7819 16.3262 47.5273 14.9281 43.0182 12.1318L38.2644 9.18381C33.498 6.22794 31.1147 4.75 28.4813 4.75C25.8479 4.75 23.4646 6.22794 18.6982 9.18382L13.9444 12.1318C9.43531 14.9281 7.18075 16.3262 5.94668 18.579C5.09735 20.1294 4.83255 21.9 4.75 24.6251Z" fill="#F04B54"/>
</svg>
