<svg width="57" height="57" viewBox="0 0 57 57" fill="none" xmlns="http://www.w3.org/2000/svg">
<path d="M45.9603 18.0895L36.5582 9.62766C33.8796 7.21686 32.5402 6.01147 30.8969 5.38086L30.875 11.8753C30.875 17.4732 30.875 20.2721 32.6141 22.0112C34.3531 23.7503 37.1521 23.7503 42.75 23.7503H51.2527C50.3916 22.0777 48.8499 20.6901 45.9603 18.0895Z" fill="#F04B54"/>
<path fill-rule="evenodd" clip-rule="evenodd" d="M33.25 52.25H23.75C14.7933 52.25 10.315 52.25 7.53249 49.4675C4.75 46.685 4.75 42.2067 4.75 33.25V23.75C4.75 14.7933 4.75 10.315 7.53249 7.53249C10.315 4.75 14.8169 4.75 23.8208 4.75C25.26 4.75 26.4133 4.75 27.3838 4.78957C27.3518 4.97941 27.3351 5.17305 27.3344 5.36884L27.3125 12.1005C27.3123 14.7062 27.3121 17.0089 27.5616 18.865C27.8321 20.8769 28.4532 22.8885 30.095 24.5303C31.7368 26.172 33.7484 26.7931 35.7603 27.0636C37.6164 27.3132 39.9191 27.313 42.5247 27.3128L42.75 27.3128H52.1489C52.25 28.5816 52.25 30.139 52.25 32.2119V33.25C52.25 42.2067 52.25 46.685 49.4675 49.4675C46.685 52.25 42.2067 52.25 33.25 52.25ZM23.6369 31.3473L23.4034 30.9285C22.5009 29.3095 22.0496 28.5 21.375 28.5C20.7004 28.5 20.2491 29.3095 19.3466 30.9285L19.1131 31.3473C18.8567 31.8074 18.7285 32.0374 18.5285 32.1892C18.3286 32.341 18.0796 32.3973 17.5816 32.51L17.1282 32.6126C15.3756 33.0091 14.4994 33.2074 14.2909 33.8778C14.0824 34.5482 14.6798 35.2467 15.8746 36.6438L16.1837 37.0053C16.5232 37.4023 16.6929 37.6008 16.7693 37.8464C16.8457 38.092 16.82 38.3568 16.7687 38.8865L16.7219 39.3688C16.5413 41.2328 16.451 42.1648 16.9968 42.5792C17.5426 42.9935 18.363 42.6157 20.0039 41.8602L20.4284 41.6647C20.8947 41.4501 21.1279 41.3427 21.375 41.3427C21.6221 41.3427 21.8553 41.4501 22.3216 41.6647L22.7461 41.8602C24.387 42.6157 25.2074 42.9935 25.7532 42.5792C26.299 42.1648 26.2087 41.2328 26.0281 39.3688L25.9813 38.8865C25.93 38.3568 25.9043 38.092 25.9807 37.8464C26.0571 37.6008 26.2268 37.4023 26.5663 37.0053L26.8754 36.6438C28.0702 35.2467 28.6676 34.5482 28.4591 33.8778C28.2506 33.2074 27.3744 33.0091 25.6218 32.6126L25.1684 32.51C24.6704 32.3973 24.4214 32.341 24.2215 32.1892C24.0215 32.0374 23.8933 31.8074 23.6369 31.3473Z" fill="#F04B54"/>
</svg>
