<svg width="200" height="85" viewBox="0 0 200 85" fill="none" xmlns="http://www.w3.org/2000/svg">
<path d="M51.5098 36.641L56.194 36.6363C57.0993 36.6363 57.902 36.3855 58.518 35.9655C59.1737 35.5431 59.6648 34.9155 59.9565 34.2026L62.3668 27.6191L57.8472 27.6215C56.9465 27.6215 56.1462 27.7883 55.4928 28.2118C54.794 28.6318 54.2048 29.4251 54.0263 30.0143L51.5098 36.641Z" fill="#FDB913"/>
<path d="M63.4963 32.8763L62.528 35.3088C62.1138 36.2317 61.3613 37.2385 60.8748 37.5745C59.9275 38.2862 58.5718 38.9162 57.0936 38.9197L48.1371 38.9278L50.5591 31.39L51.5275 28.9575C51.9416 28.0347 52.693 27.0278 53.176 26.6907C54.1291 25.9802 55.479 25.3478 56.9583 25.3478L65.3945 25.3385L63.4963 32.8763ZM77.5021 21.639H49.151C47.5876 21.639 45.4958 22.0882 43.7598 23.3062C42.165 24.481 41.8593 25.5683 41.2445 26.8295C41.1406 27.0792 40.9446 27.4152 40.856 27.7103L37.0071 38.9348L35.7145 42.6273H64.9045C66.4643 42.625 68.5585 42.1793 70.2956 40.9602C71.8834 39.7853 72.1984 38.6945 72.8051 37.438C72.9113 37.1848 73.1096 36.8488 73.1983 36.5572L77.5021 21.709H77.4764L77.5021 21.639ZM92.5139 42.612C89.204 42.612 86.9897 42.1605 85.2607 40.0196C83.982 38.4505 83.3147 36.3668 83.3147 32.3278C83.3147 28.7975 83.6484 26.1445 85.1674 24.2428C87.1099 21.7707 90.2062 21.5 92.6037 21.5H101.592V25.511H95.9124C93.6677 25.511 91.9994 25.4818 91.0555 27.1688C90.4454 28.2258 90.3579 31.1798 90.3579 32.2053C90.3579 34.5585 90.6915 36.5826 90.8712 36.9431C91.7847 38.601 93.7575 38.601 96.0325 38.601H101.927V42.612H92.5139ZM117.676 21.5V29.8055H110.908V21.5H104.046V42.612H110.908V33.813H117.676V42.612H124.534V21.5H117.676ZM128.397 42.612V25.3582C128.397 24.4237 128.426 23.3993 129.246 22.5255C129.793 21.9515 130.735 21.5 131.77 21.5H143.026V25.511H136.685C136.26 25.511 135.712 25.4818 135.439 25.8097C135.257 26.0523 135.257 26.505 135.257 26.8667V42.612H128.397ZM151.216 37.6256C151.216 39.1015 151.699 39.0128 152.673 39.0128H154.821C155.213 39.0128 155.973 39.0128 156.4 38.6208C156.795 38.2603 156.795 36.8603 156.795 36.4986C156.795 36.0145 156.795 33.9752 156.335 33.6438C155.882 33.2798 155.213 33.2798 154.821 33.2798H151.216V37.6256ZM162.591 25.511H152.52C151.244 25.511 151.216 25.9928 151.216 26.7768V29.5232H159.127C160.767 29.5232 161.983 30.187 162.619 30.9115C163.743 32.2053 163.833 34.4663 163.833 35.885C163.833 37.6945 163.681 39.6568 162.652 40.981C162.376 41.345 161.284 42.6096 159.187 42.6096H147.329C145.567 42.6096 144.354 41.3718 144.354 39.6568V24.8775C144.354 21.6808 146.906 21.5 147.661 21.5H162.589V25.511H162.591ZM35.5 53.1074V61.4549C35.6867 61.47 35.9142 61.484 36.1837 61.5015C36.4543 61.519 36.753 61.5272 37.0797 61.5295C37.4565 61.5307 37.8228 61.5015 38.1822 61.4385C38.538 61.3767 38.8705 61.2775 39.1762 61.1364C39.4842 60.9964 39.7525 60.8085 39.9777 60.5752C40.176 60.3675 40.3323 60.1155 40.449 59.8239C40.5657 59.5322 40.6252 59.1927 40.6263 58.8042C40.6252 58.4402 40.5703 58.1229 40.4618 57.8464C40.3545 57.5699 40.204 57.3342 40.0138 57.137C39.8213 56.9387 39.5973 56.7765 39.3418 56.6494C39.0443 56.5012 38.7177 56.3939 38.3607 56.3285C38.0048 56.2585 37.6397 56.227 37.2628 56.2282C37.1975 56.2282 37.1123 56.2305 37.0097 56.2317C36.9058 56.2375 36.7962 56.241 36.6818 56.2457C36.5663 56.2527 36.4578 56.2585 36.354 56.2667C36.2537 56.2737 36.1662 56.2807 36.1008 56.2912V53.6149H39.966V53.1074H35.5ZM36.0997 56.7987C36.2163 56.7859 36.34 56.7742 36.4742 56.7649C36.6095 56.7567 36.7425 56.7485 36.8697 56.7439C36.998 56.738 37.1123 56.7357 37.2115 56.7357C37.5615 56.7334 37.8963 56.7637 38.216 56.829C38.5333 56.8932 38.8238 56.9982 39.0828 57.1452C39.273 57.2525 39.4352 57.3844 39.5752 57.5419C39.7128 57.6994 39.8213 57.8849 39.896 58.0995C39.9742 58.3154 40.0127 58.5615 40.0127 58.8439C40.0115 59.1402 39.9648 59.4039 39.875 59.6337C39.784 59.8647 39.6592 60.063 39.4993 60.231C39.3255 60.413 39.1155 60.5635 38.8728 60.6814C38.629 60.8015 38.3677 60.8902 38.0888 60.9497C37.81 61.0069 37.5288 61.036 37.2488 61.036C37.0003 61.036 36.7845 61.0302 36.6002 61.0174C36.417 61.0045 36.2513 60.9859 36.0985 60.9614V56.7987H36.0997ZM46.9858 58.5195L48.149 61.4549H48.7731L45.4703 53.1074H44.8823L41.555 61.4549H42.1792L43.3167 58.5195H46.9858ZM43.5243 58.012L44.698 55.0394C44.7633 54.8725 44.8228 54.7209 44.8765 54.5774C44.929 54.4339 44.9768 54.2951 45.0223 54.1621C45.0678 54.0279 45.111 53.8891 45.1518 53.7502H45.1763C45.2172 53.8832 45.258 54.0186 45.2988 54.1516C45.3408 54.2846 45.3887 54.4257 45.4412 54.5739C45.4937 54.7244 45.5555 54.8912 45.629 55.0755L46.791 58.012H43.5243ZM50.0926 53.1074V61.4549H50.6923V57.2689H55.8536V61.4549H56.4533V53.1074H55.8536V56.7614H50.6923V53.1074H50.0926ZM58.6058 53.1074V61.4549H59.2043V57.4299H59.5951C60.0408 57.4299 60.4235 57.4754 60.7455 57.5652C61.0675 57.6539 61.3428 57.7869 61.5726 57.9572C61.8001 58.131 61.9996 58.3422 62.163 58.5895C62.3286 58.838 62.4756 59.1204 62.604 59.4377C62.6985 59.6617 62.7941 59.8915 62.8933 60.1249C62.9925 60.3605 63.0975 60.5904 63.2036 60.8167C63.3098 61.043 63.4206 61.2565 63.5338 61.456H64.1696C64.0495 61.232 63.9375 61.0045 63.8325 60.777C63.731 60.5542 63.6283 60.315 63.5233 60.07C63.4171 59.8239 63.3028 59.5602 63.1791 59.2767C63.0403 58.9594 62.8921 58.6689 62.73 58.4052C62.5678 58.1427 62.38 57.9117 62.163 57.7134C61.9471 57.515 61.6893 57.354 61.386 57.2327C61.085 57.1114 60.7233 57.032 60.3033 56.997L63.9608 53.1086H63.2515L59.7048 56.948H59.2031V53.1086H58.6058V53.1074ZM68.3055 53.1074V61.4549H68.9051V57.2689H74.0664V61.4549H74.6661V53.1074H74.0664V56.7614H68.9051V53.1074H68.3055ZM81.5389 58.5195L82.7009 61.4549H83.3251L80.0223 53.1074H79.4354L76.1081 61.4549H76.7323L77.8709 58.5195H81.5389ZM78.0774 58.012L79.2523 55.0394C79.3176 54.8725 79.3759 54.7209 79.4296 54.5774C79.4833 54.4339 79.5311 54.2951 79.5754 54.1621C79.6209 54.0279 79.6641 53.8891 79.7038 53.7502H79.7283C79.7691 53.8832 79.8088 54.0186 79.8508 54.1516C79.8928 54.2846 79.9394 54.4257 79.9931 54.5739C80.0456 54.7244 80.1063 54.8912 80.1798 55.0755L81.3418 58.012H78.0774ZM84.6458 53.1074V61.4549H93.2943V53.1074H92.6946V60.9485H89.2693V53.1074H88.6696V60.9485H85.2443V53.1074H84.6458ZM99.716 56.7987H96.0453V53.6149H99.923V53.1074H95.4456V61.4549H100.131V60.9474H96.0453V57.3062H99.716V56.7987ZM101.697 53.1074V61.4549H102.296V53.6137H106.088V53.1062H101.697V53.1074ZM110.417 61.6042C110.848 61.6042 111.268 61.5424 111.674 61.421C112.08 61.2974 112.459 61.1154 112.813 60.8727C113.163 60.6335 113.473 60.3349 113.738 59.9767C114.005 59.6185 114.211 59.2079 114.361 58.7377C114.51 58.2699 114.587 57.746 114.589 57.1674C114.587 56.563 114.487 56.0065 114.288 55.4955C114.09 54.9845 113.812 54.54 113.448 54.1597C113.083 53.7817 112.653 53.4854 112.152 53.2754C111.653 53.0642 111.099 52.9581 110.491 52.9557C110.021 52.9581 109.574 53.0257 109.154 53.1646C108.733 53.3022 108.35 53.5006 108.004 53.7619C107.657 54.0197 107.357 54.3312 107.105 54.6952C106.849 55.0604 106.656 55.4699 106.517 55.9214C106.378 56.3764 106.31 56.8652 106.306 57.3914C106.311 58.005 106.412 58.5662 106.618 59.0784C106.821 59.5894 107.105 60.0362 107.475 60.413C107.843 60.7899 108.277 61.0804 108.772 61.288C109.271 61.4957 109.814 61.6019 110.403 61.6042H110.417ZM110.417 61.1084C109.989 61.106 109.59 61.0395 109.23 60.9077C108.866 60.7782 108.544 60.5939 108.261 60.3594C107.978 60.1237 107.738 59.8484 107.539 59.5357C107.341 59.2207 107.19 58.88 107.087 58.5137C106.984 58.1462 106.931 57.7624 106.931 57.3669C106.931 56.9539 106.978 56.5549 107.074 56.171C107.167 55.786 107.311 55.4291 107.5 55.1012C107.686 54.7734 107.923 54.4864 108.207 54.2379C108.49 53.9929 108.82 53.8004 109.195 53.6627C109.573 53.5262 109.997 53.4562 110.466 53.4527C110.932 53.4562 111.353 53.5274 111.728 53.6709C112.1 53.8132 112.428 54.0092 112.706 54.2601C112.985 54.5074 113.219 54.792 113.406 55.1117C113.593 55.4325 113.732 55.7744 113.825 56.1337C113.916 56.493 113.964 56.8535 113.964 57.221C113.962 57.7775 113.88 58.292 113.718 58.7622C113.556 59.2347 113.319 59.6454 113.013 59.9965C112.705 60.3489 112.334 60.6207 111.901 60.8144C111.464 61.008 110.975 61.1072 110.429 61.1095H110.417V61.1084ZM119.065 53.1074V61.4549H119.664V53.6137H123.457V53.1062H119.065V53.1074ZM127.787 61.6042C128.217 61.6042 128.637 61.5424 129.043 61.421C129.448 61.2974 129.828 61.1154 130.181 60.8727C130.532 60.6335 130.841 60.3349 131.106 59.9767C131.373 59.6185 131.581 59.2079 131.73 58.7377C131.878 58.2699 131.955 57.746 131.958 57.1674C131.955 56.563 131.857 56.0065 131.658 55.4955C131.459 54.9845 131.181 54.54 130.818 54.1597C130.453 53.7817 130.022 53.4854 129.522 53.2754C129.022 53.0642 128.468 52.9581 127.86 52.9557C127.389 52.9581 126.943 53.0257 126.523 53.1646C126.104 53.3022 125.721 53.5006 125.374 53.7619C125.026 54.0197 124.728 54.3312 124.475 54.6952C124.219 55.0604 124.025 55.4699 123.887 55.9214C123.749 56.3764 123.679 56.8652 123.677 57.3914C123.681 58.005 123.783 58.5662 123.987 59.0784C124.192 59.5894 124.477 60.0362 124.844 60.413C125.214 60.7899 125.647 61.0804 126.144 61.288C126.641 61.4957 127.185 61.6019 127.774 61.6042H127.787ZM127.787 61.1084C127.357 61.106 126.96 61.0395 126.598 60.9077C126.235 60.7782 125.913 60.5939 125.63 60.3594C125.346 60.1237 125.107 59.8484 124.909 59.5357C124.71 59.2207 124.56 58.88 124.456 58.5137C124.353 58.1462 124.301 57.7624 124.301 57.3669C124.301 56.9539 124.347 56.5549 124.443 56.171C124.536 55.786 124.68 55.4291 124.869 55.1012C125.056 54.7734 125.294 54.4864 125.576 54.2379C125.859 53.9929 126.188 53.8004 126.565 53.6627C126.942 53.5262 127.367 53.4562 127.835 53.4527C128.301 53.4562 128.721 53.5274 129.097 53.6709C129.469 53.8132 129.797 54.0092 130.076 54.2601C130.355 54.5074 130.588 54.792 130.775 55.1117C130.962 55.4325 131.1 55.7744 131.195 56.1337C131.286 56.493 131.333 56.8535 131.333 57.221C131.331 57.7775 131.249 58.292 131.086 58.7622C130.925 59.2347 130.689 59.6454 130.383 59.9965C130.075 60.3489 129.704 60.6207 129.27 60.8144C128.833 61.008 128.344 61.1072 127.798 61.1095H127.787V61.1084ZM133.499 61.4549H134.098V57.9C134.269 57.9537 134.455 57.9887 134.654 58.0039C134.851 58.0202 135.06 58.0272 135.273 58.0249C135.638 58.0249 135.98 57.9899 136.306 57.921C136.627 57.8522 136.921 57.7519 137.185 57.62C137.451 57.4859 137.678 57.3179 137.867 57.1195C138.076 56.9095 138.233 56.661 138.342 56.374C138.448 56.0894 138.503 55.7627 138.503 55.3975C138.5 55.0569 138.443 54.7501 138.33 54.4782C138.213 54.2087 138.052 53.9719 137.842 53.7736C137.598 53.5367 137.278 53.3547 136.881 53.2241C136.483 53.0969 136.008 53.0327 135.458 53.0304C135.076 53.0327 134.721 53.0467 134.391 53.0782C134.061 53.1086 133.766 53.1471 133.5 53.1914V61.4549H133.499ZM134.098 53.6522C134.222 53.6254 134.401 53.5997 134.628 53.5787C134.858 53.5542 135.131 53.5437 135.444 53.5414C135.781 53.5391 136.097 53.5717 136.39 53.6406C136.686 53.7094 136.947 53.8179 137.173 53.9684C137.399 54.1189 137.579 54.3172 137.707 54.5645C137.835 54.813 137.901 55.1152 137.903 55.4734C137.903 55.905 137.803 56.2737 137.605 56.5759C137.407 56.8792 137.118 57.1125 136.739 57.2735C136.358 57.4357 135.894 57.515 135.347 57.5174C135.112 57.5174 134.889 57.5069 134.676 57.4847C134.464 57.4614 134.272 57.424 134.1 57.368V53.6522H134.098ZM143.7 61.6042C144.129 61.6042 144.551 61.5424 144.955 61.421C145.361 61.2974 145.741 61.1154 146.093 60.8727C146.445 60.6335 146.753 60.3349 147.019 59.9767C147.286 59.6185 147.493 59.2079 147.642 58.7377C147.792 58.2699 147.867 57.746 147.871 57.1674C147.867 56.563 147.768 56.0065 147.57 55.4955C147.373 54.9845 147.094 54.54 146.73 54.1597C146.365 53.7817 145.935 53.4854 145.435 53.2754C144.934 53.0642 144.381 52.9581 143.772 52.9557C143.302 52.9581 142.855 53.0257 142.435 53.1646C142.015 53.3022 141.633 53.5006 141.285 53.7619C140.939 54.0197 140.639 54.3312 140.386 54.6952C140.13 55.0604 139.936 55.4699 139.799 55.9214C139.66 56.3764 139.59 56.8652 139.589 57.3914C139.592 58.005 139.695 58.5662 139.899 59.0784C140.103 59.5894 140.388 60.0362 140.757 60.413C141.125 60.7899 141.558 61.0804 142.055 61.288C142.552 61.4957 143.097 61.6019 143.685 61.6042H143.7ZM143.7 61.1084C143.27 61.106 142.873 61.0395 142.511 60.9077C142.147 60.7782 141.826 60.5939 141.543 60.3594C141.259 60.1237 141.019 59.8484 140.822 59.5357C140.624 59.2207 140.473 58.88 140.368 58.5137C140.265 58.1462 140.213 57.7624 140.213 57.3669C140.213 56.9539 140.26 56.5549 140.355 56.171C140.449 55.786 140.592 55.4291 140.782 55.1012C140.969 54.7734 141.205 54.4864 141.488 54.2379C141.772 53.9929 142.101 53.8004 142.477 53.6627C142.854 53.5262 143.279 53.4562 143.748 53.4527C144.213 53.4562 144.635 53.5274 145.009 53.6709C145.382 53.8132 145.708 54.0092 145.988 54.2601C146.267 54.5074 146.501 54.792 146.688 55.1117C146.875 55.4325 147.013 55.7744 147.108 56.1337C147.199 56.493 147.246 56.8535 147.246 57.221C147.243 57.7775 147.163 58.292 146.999 58.7622C146.837 59.2347 146.602 59.6454 146.295 59.9965C145.987 60.3489 145.617 60.6207 145.182 60.8144C144.747 61.008 144.257 61.1072 143.711 61.1095H143.7V61.1084ZM150.403 53.1074V55.2622C150.403 55.8595 150.386 56.4032 150.356 56.8909C150.323 57.3797 150.271 57.8242 150.198 58.2255C150.125 58.6257 150.03 58.9932 149.914 59.3245C149.839 59.531 149.752 59.7282 149.652 59.916C149.553 60.1062 149.454 60.2847 149.35 60.4574C149.246 60.6277 149.147 60.791 149.056 60.9485H148.457L148.532 63.5H149.021L149.083 61.4549H155.088L155.15 63.5H155.639L155.712 60.9474H154.99V53.1062H150.403V53.1074ZM150.966 53.6137H154.391V60.9474H149.696C149.774 60.826 149.859 60.6884 149.948 60.532C150.04 60.378 150.13 60.21 150.216 60.0327C150.303 59.8554 150.382 59.6734 150.453 59.4855C150.574 59.1624 150.672 58.8042 150.748 58.4157C150.824 58.0295 150.881 57.6025 150.916 57.1382C150.95 56.6762 150.967 56.1629 150.967 55.6075V53.6137H150.966ZM162.047 58.5195L163.209 61.4549H163.833L160.53 53.1074H159.943L156.616 61.4549H157.239L158.378 58.5195H162.047ZM158.585 58.012L159.76 55.0394C159.826 54.8725 159.884 54.7209 159.938 54.5774C159.99 54.4339 160.039 54.2951 160.084 54.1621C160.129 54.0279 160.171 53.8891 160.212 53.7502H160.236C160.276 53.8832 160.317 54.0186 160.358 54.1516C160.4 54.2846 160.447 54.4257 160.5 54.5739C160.554 54.7244 160.614 54.8912 160.688 55.0755L161.85 58.012H158.585Z" fill="#004282"/>
</svg>
