<svg width="200" height="85" viewBox="0 0 200 85" fill="none" xmlns="http://www.w3.org/2000/svg">
<path d="M12.326 50.03C8.101 50.03 4.659 46.64 4.659 42.478C4.659 38.316 8.1 34.925 12.324 34.925H12.804V30.332H12.325C5.532 30.332 0 35.783 0 42.477C0 49.215 5.532 54.666 12.326 54.666H12.805V50.032H12.326V50.03Z" fill="#FF4B5F"/>
<path fill-rule="evenodd" clip-rule="evenodd" d="M14.8081 36.9004V30.5918C20.4709 31.707 24.6951 36.5996 24.6951 42.4785C24.6951 48.4023 20.469 53.293 14.8081 54.3672V48.0586H12.325C9.18994 48.0586 6.66406 45.5684 6.66406 42.4805C6.66406 39.3906 9.18994 36.9004 12.3262 36.9004H14.8081ZM38.5891 47.9707C39.873 47.9746 41.1179 47.5352 42.116 46.7266L44.0759 48.6602C42.6389 49.9453 40.7229 50.7188 38.5891 50.7188C33.9719 50.7188 30.27 46.9844 30.27 42.4785C30.27 37.9727 33.9719 34.2812 38.5891 34.2812C40.6631 34.2754 42.665 35.041 44.207 36.4277L42.2471 38.3574C41.2361 37.4688 39.9351 36.9805 38.5891 36.9863C35.4951 36.9863 33.0139 39.4316 33.0139 42.4785C33.0139 45.5254 35.4961 47.9707 38.5891 47.9707ZM124.609 42.2207L130.75 34.9258H133.189V50.0312H130.75V39.1309L124.609 46.2539L118.381 38.959V50.0332H115.898V34.9258H118.381V35.0117L118.424 34.9258L124.609 42.2207ZM54.355 50.6758C58.928 50.6758 62.6741 47.0273 62.6741 42.4785C62.6741 37.9727 58.928 34.2812 54.355 34.2812C49.782 34.2812 46.0371 37.9727 46.0371 42.4785C46.0371 46.9844 49.739 50.6758 54.355 50.6758ZM54.312 36.9863C57.405 36.9863 59.887 39.4316 59.887 42.4785C59.887 45.5254 57.405 47.9707 54.312 47.9707C51.219 47.9707 48.7371 45.5254 48.7371 42.4785C48.7371 39.4316 51.219 36.9863 54.312 36.9863ZM105.053 50.6758C109.626 50.6758 113.372 47.0273 113.372 42.4785C113.372 37.9727 109.669 34.2812 105.053 34.2812C100.48 34.2812 96.7341 37.9727 96.7341 42.4785C96.7341 46.9844 100.436 50.6758 105.053 50.6758ZM105.053 36.9863C108.146 36.9863 110.628 39.4316 110.628 42.4785C110.628 45.5254 108.101 47.9707 105.053 47.9707C101.96 47.9707 99.478 45.5254 99.478 42.4785C99.478 39.4316 101.96 36.9863 105.053 36.9863ZM93.3359 34.9258H96.6909L89.1121 42.5215L96.603 50.0332H93.293L86.9771 43.7227H84.4519V50.0332H82.0129V34.9258H84.4519V41.2773H87.022L93.3359 34.9258ZM196.692 34.9258H200L192.465 42.5215L199.913 50.0332H196.603L190.332 43.7227H187.762V50.0332H185.323V34.9258H187.762V41.2773H190.332L196.692 34.9258ZM166.639 50.0312H163.937L162.458 46.7715H154.53L153.05 50.0332H150.35L157.1 34.9258H159.887L166.639 50.0312ZM158.494 38.0156L155.62 44.3672H161.369L158.494 38.0156ZM77.4829 42.4785C78.3711 43.2949 78.877 44.4473 78.877 45.6543C78.877 48.0566 76.917 50.0332 74.4771 50.0762H65.5061V34.9258H74.4771C76.8999 34.9219 78.8689 36.8809 78.877 39.3027C78.877 40.5469 78.3101 41.6641 77.4829 42.4785ZM74.4341 37.373H67.988V41.2324H74.4341C75.5229 41.2324 76.3931 40.375 76.3931 39.3027C76.3931 38.2285 75.5229 37.373 74.4341 37.373ZM67.988 47.6289H74.4341C75.5239 47.6289 76.394 46.7266 76.437 45.6562C76.437 45.1465 76.2236 44.668 75.876 44.3145C75.5212 43.9551 75.0269 43.7246 74.4771 43.7246H67.988V47.6289ZM179.792 41.2773V34.9688H182.275V49.9883H179.792V43.7207H170.864V49.9883H168.382V34.9688H170.864V41.2773H179.792ZM145.035 41.2773C147.474 41.2773 149.478 43.25 149.478 45.6543C149.478 48.0566 147.475 50.0332 145.034 50.0742H136.106V34.9258H147.997V37.3711H138.589V41.2773H145.035ZM138.59 47.6289H145.036C146.125 47.6289 146.996 46.7266 146.996 45.6562C146.996 44.625 146.125 43.7246 145.036 43.7246H138.59V47.6289Z" fill="#003791"/>
</svg>
