<svg width="30" height="30" viewBox="0 0 24 24" fill="none" xmlns="http://www.w3.org/2000/svg">
<path fill-rule="evenodd" clip-rule="evenodd" d="M20 10.5C20 16.0228 15.5228 20.5 10 20.5C4.47715 20.5 0 16.0228 0 10.5C0 4.97715 4.47715 0.5 10 0.5C15.5228 0.5 20 4.97715 20 10.5ZM10 6.25C9.37868 6.25 8.875 6.75368 8.875 7.375C8.875 7.78921 8.53921 8.125 8.125 8.125C7.71079 8.125 7.375 7.78921 7.375 7.375C7.375 5.92525 8.55025 4.75 10 4.75C11.4497 4.75 12.625 5.92525 12.625 7.375C12.625 8.08584 12.3415 8.73198 11.883 9.20396C11.7907 9.29894 11.7027 9.38687 11.6187 9.47076C11.4029 9.68641 11.2138 9.87533 11.0479 10.0885C10.8289 10.3699 10.75 10.5768 10.75 10.75V11.5C10.75 11.9142 10.4142 12.25 10 12.25C9.58579 12.25 9.25 11.9142 9.25 11.5V10.75C9.25 10.0948 9.55501 9.56444 9.86417 9.16721C10.0929 8.87329 10.3804 8.58634 10.6138 8.35346C10.6842 8.28321 10.7496 8.21789 10.807 8.15877C11.0046 7.95543 11.125 7.68004 11.125 7.375C11.125 6.75368 10.6213 6.25 10 6.25ZM10 15.5C10.5523 15.5 11 15.0523 11 14.5C11 13.9477 10.5523 13.5 10 13.5C9.44772 13.5 9 13.9477 9 14.5C9 15.0523 9.44772 15.5 10 15.5Z" fill="#404040"/>
</svg>
