<svg width="36" height="36" viewBox="0 0 36 36" fill="none" xmlns="http://www.w3.org/2000/svg">
<rect width="36" height="36" rx="18" fill="#FCDBDD"/>
<path fill-rule="evenodd" clip-rule="evenodd" d="M22.6763 8.62755C19.5301 7.92428 16.2675 7.92428 13.1213 8.62755L12.7822 8.70333C10.9774 9.10675 9.553 10.491 9.09811 12.2835C8.30063 15.426 8.30063 18.7179 9.09811 21.8604C9.53263 23.5727 10.8519 24.9124 12.5422 25.3806L13.0069 28.1564C13.037 28.3361 13.1625 28.4852 13.3344 28.5456C13.5064 28.6059 13.6976 28.5679 13.8334 28.4464L16.5641 26.0031C18.6086 26.128 20.6662 25.9657 22.6763 25.5164L23.0153 25.4406C24.8201 25.0372 26.2446 23.6529 26.6995 21.8604C27.4969 18.7179 27.4969 15.426 26.6995 12.2835C26.2446 10.491 24.8201 9.10675 23.0153 8.70333L22.6763 8.62755ZM13.9647 12.2019C13.779 12.1748 13.5895 12.212 13.4279 12.3076H13.4141C13.0389 12.5275 12.7009 12.8055 12.4127 13.1312C12.1732 13.4081 12.0432 13.6883 12.0091 13.958C11.9888 14.1188 12.0025 14.2796 12.0504 14.4332L12.0675 14.4437C12.3372 15.2364 12.6896 15.999 13.1201 16.7169C13.6747 17.7255 14.3571 18.6583 15.1506 19.4922L15.1742 19.5263L15.2116 19.5539L15.2352 19.5814L15.2628 19.6051C16.0997 20.4008 17.0347 21.0865 18.0453 21.6453C19.2003 22.274 19.9012 22.5713 20.3218 22.6947V22.7012C20.4452 22.7387 20.5574 22.7557 20.6703 22.7557C21.0288 22.7294 21.3682 22.5839 21.6343 22.3423C21.9585 22.054 22.2334 21.7146 22.4481 21.3376V21.331C22.6495 20.9517 22.5813 20.5927 22.2906 20.3499C21.7083 19.841 21.0788 19.389 20.4104 19C19.9628 18.7572 19.5081 18.9042 19.3237 19.1503L18.9306 19.6457C18.7291 19.8918 18.3629 19.8577 18.3629 19.8577L18.3524 19.8643C15.6218 19.1667 14.8933 16.4019 14.8933 16.4019C14.8933 16.4019 14.8592 16.0259 15.1118 15.8342L15.604 15.4379C15.8396 15.2462 16.0037 14.7921 15.751 14.3439C15.3648 13.6746 14.9137 13.0449 14.4044 12.4637C14.2931 12.3267 14.1369 12.2335 13.9634 12.2006L13.9647 12.2019ZM18.5792 11.0001C18.3031 11.0001 18.0792 11.2239 18.0792 11.5001C18.0792 11.7762 18.3031 12.0001 18.5792 12.0001C19.8437 12.0001 20.8944 12.4134 21.7245 13.2048C22.1518 13.6382 22.4844 14.1512 22.7028 14.7126C22.922 15.2761 23.0217 15.877 22.9961 16.4789C22.9844 16.7547 23.1985 16.9879 23.4744 16.9996C23.7503 17.0114 23.9835 16.7972 23.9952 16.5213C24.0267 15.7809 23.9039 15.0421 23.6347 14.3501C23.3655 13.6581 22.9558 13.0275 22.4307 12.4966L22.4207 12.487C21.3907 11.5019 20.0851 11.0001 18.5792 11.0001ZM18.5452 12.6444C18.2691 12.6444 18.0452 12.8683 18.0452 13.1444C18.0452 13.4206 18.2691 13.6444 18.5452 13.6444H18.5615C19.474 13.7087 20.1379 14.0129 20.6034 14.5121C21.0799 15.0263 21.3267 15.6649 21.3084 16.4551C21.302 16.7311 21.5207 16.9601 21.7967 16.9665C22.0728 16.9729 22.3018 16.7543 22.3082 16.4782C22.3322 15.4407 21.9985 14.5461 21.3363 13.8317L21.3354 13.8308C20.6588 13.1047 19.7305 12.7206 18.6122 12.6455L18.5955 12.6444H18.5452ZM18.5263 14.3188C18.2505 14.3043 18.0152 14.516 18.0007 14.7918C17.9862 15.0676 18.198 15.3029 18.4737 15.3174C18.8924 15.3394 19.1592 15.465 19.327 15.6344C19.4956 15.8046 19.6216 16.0771 19.6446 16.5043C19.6595 16.7801 19.895 16.9916 20.1708 16.9767C20.4465 16.9619 20.658 16.7264 20.6432 16.4506C20.6109 15.8506 20.4231 15.3201 20.0376 14.9308C19.6513 14.5407 19.1238 14.3502 18.5263 14.3188Z" fill="#F04B54"/>
</svg>
