<svg width="200" height="85" viewBox="0 0 200 85" fill="none" xmlns="http://www.w3.org/2000/svg">
<path d="M56.9037 24.5L55.1758 29.2398H79.1127L80.8406 24.5H56.9037ZM54.3128 31.6076L52.5849 36.3464H76.5218L78.2497 31.6076H54.3128ZM51.727 38.7152L49.999 43.453H73.9359L75.6618 38.7142C75.6628 38.7152 51.727 38.7152 51.727 38.7152Z" fill="#009FDF"/>
<path d="M100.321 44.9405V45.0389C101.396 45.4337 102.424 46.1249 102.961 46.5689C104.623 47.9513 105.357 49.7766 105.357 52.1455C105.357 56.0464 103.304 58.8583 99.9292 59.7474C98.9015 60.0438 97.8266 60.1422 95.8224 60.1422H85.6055V31.6133H94.651C96.5095 31.6133 97.7793 31.7117 98.9035 32.0071C102.18 32.8962 104.331 35.1666 104.331 38.7691C104.331 40.695 103.647 42.3244 102.523 43.4094C102.034 43.9027 101.35 44.4954 100.323 44.9394L100.321 44.9405ZM91.2765 47.9513V55.4537H95.1885C96.3608 55.4537 97.4378 55.3553 98.2194 54.6149C99.002 53.8745 99.3435 52.9362 99.3435 51.7025C99.3435 50.7662 99.0984 49.8771 98.6102 49.2352C97.7793 48.1984 96.7516 47.9513 94.9926 47.9513H91.2755H91.2765ZM91.2263 43.0146H94.4049C95.3823 43.0146 95.8716 43.0146 96.3598 42.8669C97.6809 42.4711 98.5117 41.2887 98.5117 39.6592C98.5117 37.7344 97.6317 36.8945 96.3598 36.5007C95.8214 36.352 95.2849 36.3038 94.209 36.3038H91.2263V43.0156V43.0146ZM113.864 60.1432V36.4013H105.7V31.6143H128.387L126.773 36.4013H119.536V60.1432H113.864ZM130.147 60.1432V31.6143H148.531L146.918 36.4013H135.771V42.7203H140.319C143.985 42.7203 145.892 43.6093 147.213 44.7435C148.241 45.6326 150 47.6057 150 51.5066C150 55.3563 148.192 57.478 146.675 58.565C144.915 59.7976 143.057 60.1442 139.291 60.1442H130.148H130.147V60.1432ZM135.77 55.3543H140.023C141.637 55.3543 142.614 54.9594 143.298 54.0704C143.64 53.6273 144.129 52.8357 144.129 51.3559C144.129 49.8761 143.64 48.8383 142.662 48.0979C142.077 47.6549 141.293 47.4088 139.973 47.4088H135.768V55.3543H135.77Z" fill="#0A2973"/>
</svg>
