<svg width="29" height="30" viewBox="0 0 29 30" fill="none" xmlns="http://www.w3.org/2000/svg">
<rect y="0.872559" width="29" height="29" rx="14.5" fill="#FCDBDD"/>
<path fill-rule="evenodd" clip-rule="evenodd" d="M8.98901 8.76311C12.3247 8.50214 15.6756 8.50214 19.0113 8.76311L21.252 8.93841C22.5001 9.03605 23.5211 9.97145 23.7274 11.2062C24.2436 14.2957 24.2436 17.4495 23.7274 20.539C23.5211 21.7737 22.5001 22.7091 21.252 22.8068L19.0113 22.9821C15.6756 23.243 12.3247 23.243 8.989 22.9821L6.7483 22.8068C5.50023 22.7091 4.47921 21.7737 4.2729 20.539C3.75669 17.4495 3.75669 14.2957 4.2729 11.2062C4.47921 9.97145 5.50023 9.03605 6.7483 8.93841L8.98901 8.76311ZM12.0001 18.3427V13.4024C12.0001 13.1693 12.2545 13.0252 12.4545 13.1452L16.5714 15.6153C16.7656 15.7319 16.7656 16.0133 16.5714 16.1298L12.4545 18.6C12.2545 18.72 12.0001 18.5759 12.0001 18.3427Z" fill="#F04B54"/>
</svg>
