<svg width="29" height="30" viewBox="0 0 29 30" fill="none" xmlns="http://www.w3.org/2000/svg">
<rect y="0.872559" width="29" height="29" rx="14.5" fill="#FCDBDD"/>
<path fill-rule="evenodd" clip-rule="evenodd" d="M20.4833 23.6625L20.484 23.6608L20.5014 23.6173L23.5002 8.49824V8.44913C23.5002 8.07243 23.361 7.74357 23.0581 7.54631C22.793 7.37365 22.4882 7.36135 22.2745 7.37757C22.0485 7.39473 21.8354 7.45114 21.6879 7.4981C21.612 7.52226 21.5484 7.54554 21.503 7.56315C21.4802 7.57198 21.4617 7.57948 21.4483 7.58507L21.4351 7.59063L4.71526 14.1496L4.71066 14.1512C4.70163 14.1545 4.68969 14.159 4.67526 14.1646C4.64651 14.1758 4.60737 14.1918 4.56139 14.2126C4.47111 14.2535 4.34637 14.3167 4.21987 14.4033C4.00502 14.5504 3.5959 14.8988 3.66499 15.451C3.72221 15.9084 4.03751 16.1989 4.25008 16.3493C4.36403 16.4299 4.47304 16.4881 4.55287 16.5261C4.59332 16.5453 4.62767 16.5601 4.65326 16.5705C4.66609 16.5757 4.67682 16.5799 4.68512 16.583L4.69574 16.587L4.70253 16.5895L7.62777 17.5743C7.6179 17.7579 7.6361 17.945 7.68478 18.1296L9.15006 23.688C9.3238 24.3471 9.92002 24.8062 10.6016 24.8057C11.2125 24.8052 11.7544 24.4357 11.9845 23.8842L14.2722 21.4382L18.2012 24.4504L18.2571 24.4748C18.614 24.6305 18.9475 24.6799 19.2525 24.6382C19.557 24.5966 19.7989 24.469 19.9807 24.3235C20.1595 24.1804 20.2821 24.0189 20.3592 23.8973C20.3984 23.8356 20.4276 23.7813 20.4478 23.7404C20.458 23.7199 20.466 23.7025 20.472 23.689L20.4796 23.6716L20.4822 23.6651L20.4833 23.6625ZM9.13518 17.7473C9.10187 17.6209 9.15416 17.4876 9.26444 17.4175L19.1865 11.1166C19.1865 11.1166 19.77 10.7623 19.7492 11.1166C19.7492 11.1166 19.8533 11.1792 19.5406 11.4709C19.244 11.748 12.4689 18.2891 11.7834 18.9509C11.7438 18.9892 11.7202 19.033 11.7063 19.0862L10.6005 23.3057L9.13518 17.7473Z" fill="#F04B54"/>
</svg>
